<?xml version="1.0" encoding="utf-8" standalone="no"?>
<!DOCTYPE svg PUBLIC "-//W3C//DTD SVG 1.1//EN"
  "http://www.w3.org/Graphics/SVG/1.1/DTD/svg11.dtd">
<svg xmlns:xlink="http://www.w3.org/1999/xlink" width="360pt" height="252pt" viewBox="0 0 360 252" xmlns="http://www.w3.org/2000/svg" version="1.1">
 <metadata>
  <rdf:RDF xmlns:dc="http://purl.org/dc/elements/1.1/" xmlns:cc="http://creativecommons.org/ns#" xmlns:rdf="http://www.w3.org/1999/02/22-rdf-syntax-ns#">
   <cc:Work>
    <dc:type rdf:resource="http://purl.org/dc/dcmitype/StillImage"/>
    <dc:date>2024-06-11T08:48:12.401507</dc:date>
    <dc:format>image/svg+xml</dc:format>
    <dc:creator>
     <cc:Agent>
      <dc:title>Matplotlib v3.8.4, https://matplotlib.org/</dc:title>
     </cc:Agent>
    </dc:creator>
   </cc:Work>
  </rdf:RDF>
 </metadata>
 <defs>
  <style type="text/css">*{stroke-linejoin: round; stroke-linecap: butt}</style>
 </defs>
 <g id="figure_1">
  <g id="patch_1">
   <path d="M 0 252 
L 360 252 
L 360 0 
L 0 0 
z
" style="fill: #ffffff"/>
  </g>
  <g id="axes_1">
   <g id="patch_2">
    <path d="M 58.44125 204.28 
L 349.2 204.28 
L 349.2 10.8 
L 58.44125 10.8 
z
" style="fill: #ffffff"/>
   </g>
   <g id="matplotlib.axis_1">
    <g id="xtick_1">
     <g id="line2d_1">
      <path d="M 58.44125 204.28 
L 58.44125 10.8 
" clip-path="url(#pcf0aa09f1b)" style="fill: none; stroke: #cccccc; stroke-width: 0.8; stroke-linecap: round"/>
     </g>
     <g id="text_1">
      <!-- 5 -->
      <g style="fill: #262626" transform="translate(55.19125 220.306875) scale(0.13 -0.13)">
       <defs>
        <path id="TimesNewRomanPSMT-35" d="M 2778 4238 
L 2534 3706 
L 1259 3706 
L 981 3138 
Q 1809 3016 2294 2522 
Q 2709 2097 2709 1522 
Q 2709 1188 2573 903 
Q 2438 619 2231 419 
Q 2025 219 1772 97 
Q 1413 -75 1034 -75 
Q 653 -75 479 54 
Q 306 184 306 341 
Q 306 428 378 495 
Q 450 563 559 563 
Q 641 563 702 538 
Q 763 513 909 409 
Q 1144 247 1384 247 
Q 1750 247 2026 523 
Q 2303 800 2303 1197 
Q 2303 1581 2056 1914 
Q 1809 2247 1375 2428 
Q 1034 2569 447 2591 
L 1259 4238 
L 2778 4238 
z
" transform="scale(0.015625)"/>
       </defs>
       <use xlink:href="#TimesNewRomanPSMT-35"/>
      </g>
     </g>
    </g>
    <g id="xtick_2">
     <g id="line2d_2">
      <path d="M 123.054306 204.28 
L 123.054306 10.8 
" clip-path="url(#pcf0aa09f1b)" style="fill: none; stroke: #cccccc; stroke-width: 0.8; stroke-linecap: round"/>
     </g>
     <g id="text_2">
      <!-- 15 -->
      <g style="fill: #262626" transform="translate(116.554306 220.306875) scale(0.13 -0.13)">
       <defs>
        <path id="TimesNewRomanPSMT-31" d="M 750 3822 
L 1781 4325 
L 1884 4325 
L 1884 747 
Q 1884 391 1914 303 
Q 1944 216 2037 169 
Q 2131 122 2419 116 
L 2419 0 
L 825 0 
L 825 116 
Q 1125 122 1212 167 
Q 1300 213 1334 289 
Q 1369 366 1369 747 
L 1369 3034 
Q 1369 3497 1338 3628 
Q 1316 3728 1258 3775 
Q 1200 3822 1119 3822 
Q 1003 3822 797 3725 
L 750 3822 
z
" transform="scale(0.015625)"/>
       </defs>
       <use xlink:href="#TimesNewRomanPSMT-31"/>
       <use xlink:href="#TimesNewRomanPSMT-35" x="50"/>
      </g>
     </g>
    </g>
    <g id="xtick_3">
     <g id="line2d_3">
      <path d="M 187.667361 204.28 
L 187.667361 10.8 
" clip-path="url(#pcf0aa09f1b)" style="fill: none; stroke: #cccccc; stroke-width: 0.8; stroke-linecap: round"/>
     </g>
     <g id="text_3">
      <!-- 25 -->
      <g style="fill: #262626" transform="translate(181.167361 220.306875) scale(0.13 -0.13)">
       <defs>
        <path id="TimesNewRomanPSMT-32" d="M 2934 816 
L 2638 0 
L 138 0 
L 138 116 
Q 1241 1122 1691 1759 
Q 2141 2397 2141 2925 
Q 2141 3328 1894 3587 
Q 1647 3847 1303 3847 
Q 991 3847 742 3664 
Q 494 3481 375 3128 
L 259 3128 
Q 338 3706 661 4015 
Q 984 4325 1469 4325 
Q 1984 4325 2329 3994 
Q 2675 3663 2675 3213 
Q 2675 2891 2525 2569 
Q 2294 2063 1775 1497 
Q 997 647 803 472 
L 1909 472 
Q 2247 472 2383 497 
Q 2519 522 2628 598 
Q 2738 675 2819 816 
L 2934 816 
z
" transform="scale(0.015625)"/>
       </defs>
       <use xlink:href="#TimesNewRomanPSMT-32"/>
       <use xlink:href="#TimesNewRomanPSMT-35" x="50"/>
      </g>
     </g>
    </g>
    <g id="xtick_4">
     <g id="line2d_4">
      <path d="M 252.280417 204.28 
L 252.280417 10.8 
" clip-path="url(#pcf0aa09f1b)" style="fill: none; stroke: #cccccc; stroke-width: 0.8; stroke-linecap: round"/>
     </g>
     <g id="text_4">
      <!-- 35 -->
      <g style="fill: #262626" transform="translate(245.780417 220.306875) scale(0.13 -0.13)">
       <defs>
        <path id="TimesNewRomanPSMT-33" d="M 325 3431 
Q 506 3859 782 4092 
Q 1059 4325 1472 4325 
Q 1981 4325 2253 3994 
Q 2459 3747 2459 3466 
Q 2459 3003 1878 2509 
Q 2269 2356 2469 2072 
Q 2669 1788 2669 1403 
Q 2669 853 2319 450 
Q 1863 -75 997 -75 
Q 569 -75 414 31 
Q 259 138 259 259 
Q 259 350 332 419 
Q 406 488 509 488 
Q 588 488 669 463 
Q 722 447 909 348 
Q 1097 250 1169 231 
Q 1284 197 1416 197 
Q 1734 197 1970 444 
Q 2206 691 2206 1028 
Q 2206 1275 2097 1509 
Q 2016 1684 1919 1775 
Q 1784 1900 1550 2001 
Q 1316 2103 1072 2103 
L 972 2103 
L 972 2197 
Q 1219 2228 1467 2375 
Q 1716 2522 1828 2728 
Q 1941 2934 1941 3181 
Q 1941 3503 1739 3701 
Q 1538 3900 1238 3900 
Q 753 3900 428 3381 
L 325 3431 
z
" transform="scale(0.015625)"/>
       </defs>
       <use xlink:href="#TimesNewRomanPSMT-33"/>
       <use xlink:href="#TimesNewRomanPSMT-35" x="50"/>
      </g>
     </g>
    </g>
    <g id="xtick_5">
     <g id="line2d_5">
      <path d="M 316.893472 204.28 
L 316.893472 10.8 
" clip-path="url(#pcf0aa09f1b)" style="fill: none; stroke: #cccccc; stroke-width: 0.8; stroke-linecap: round"/>
     </g>
     <g id="text_5">
      <!-- 45 -->
      <g style="fill: #262626" transform="translate(310.393472 220.306875) scale(0.13 -0.13)">
       <defs>
        <path id="TimesNewRomanPSMT-34" d="M 2978 1563 
L 2978 1119 
L 2409 1119 
L 2409 0 
L 1894 0 
L 1894 1119 
L 100 1119 
L 100 1519 
L 2066 4325 
L 2409 4325 
L 2409 1563 
L 2978 1563 
z
M 1894 1563 
L 1894 3666 
L 406 1563 
L 1894 1563 
z
" transform="scale(0.015625)"/>
       </defs>
       <use xlink:href="#TimesNewRomanPSMT-34"/>
       <use xlink:href="#TimesNewRomanPSMT-35" x="50"/>
      </g>
     </g>
    </g>
    <g id="text_6">
     <!-- Number of voters -->
     <g style="fill: #262626" transform="translate(143.975625 237.682656) scale(0.16 -0.16)">
      <defs>
       <path id="TimesNewRomanPS-BoldMT-4e" d="M 1594 4238 
L 3684 1609 
L 3684 3431 
Q 3684 3813 3575 3947 
Q 3425 4128 3072 4122 
L 3072 4238 
L 4472 4238 
L 4472 4122 
Q 4203 4088 4111 4033 
Q 4019 3978 3967 3854 
Q 3916 3731 3916 3431 
L 3916 -97 
L 3809 -97 
L 944 3431 
L 944 738 
Q 944 372 1111 244 
Q 1278 116 1494 116 
L 1594 116 
L 1594 0 
L 91 0 
L 91 116 
Q 441 119 578 259 
Q 716 400 716 738 
L 716 3728 
L 625 3841 
Q 491 4009 387 4062 
Q 284 4116 91 4122 
L 91 4238 
L 1594 4238 
z
" transform="scale(0.015625)"/>
       <path id="TimesNewRomanPS-BoldMT-75" d="M 3038 2922 
L 3038 634 
Q 3038 300 3100 217 
Q 3163 134 3353 113 
L 3353 0 
L 2163 0 
L 2163 391 
Q 1953 141 1743 26 
Q 1534 -88 1275 -88 
Q 1028 -88 836 64 
Q 644 216 578 419 
Q 513 622 513 1128 
L 513 2288 
Q 513 2619 452 2700 
Q 391 2781 197 2806 
L 197 2922 
L 1388 2922 
L 1388 925 
Q 1388 613 1417 522 
Q 1447 431 1511 384 
Q 1575 338 1659 338 
Q 1772 338 1863 397 
Q 1988 478 2163 725 
L 2163 2288 
Q 2163 2619 2102 2700 
Q 2041 2781 1847 2806 
L 1847 2922 
L 3038 2922 
z
" transform="scale(0.015625)"/>
       <path id="TimesNewRomanPS-BoldMT-6d" d="M 1428 2922 
L 1428 2538 
Q 1669 2800 1873 2904 
Q 2078 3009 2322 3009 
Q 2603 3009 2793 2878 
Q 2984 2747 3088 2478 
Q 3338 2759 3567 2884 
Q 3797 3009 4047 3009 
Q 4350 3009 4529 2870 
Q 4709 2731 4779 2517 
Q 4850 2303 4850 1834 
L 4850 638 
Q 4850 300 4911 219 
Q 4972 138 5166 113 
L 5166 0 
L 3656 0 
L 3656 113 
Q 3834 128 3919 250 
Q 3975 334 3975 638 
L 3975 1894 
Q 3975 2284 3944 2390 
Q 3913 2497 3845 2548 
Q 3778 2600 3688 2600 
Q 3553 2600 3415 2501 
Q 3278 2403 3138 2206 
L 3138 638 
Q 3138 322 3191 241 
Q 3263 125 3466 113 
L 3466 0 
L 1953 0 
L 1953 113 
Q 2075 119 2145 173 
Q 2216 228 2239 304 
Q 2263 381 2263 638 
L 2263 1894 
Q 2263 2291 2231 2391 
Q 2200 2491 2126 2547 
Q 2053 2603 1969 2603 
Q 1844 2603 1741 2538 
Q 1594 2441 1428 2206 
L 1428 638 
Q 1428 328 1489 229 
Q 1550 131 1744 113 
L 1744 0 
L 238 0 
L 238 113 
Q 422 131 500 231 
Q 553 300 553 638 
L 553 2288 
Q 553 2619 492 2700 
Q 431 2781 238 2806 
L 238 2922 
L 1428 2922 
z
" transform="scale(0.015625)"/>
       <path id="TimesNewRomanPS-BoldMT-62" d="M 1347 4238 
L 1347 2628 
Q 1716 3009 2153 3009 
Q 2453 3009 2718 2832 
Q 2984 2656 3134 2331 
Q 3284 2006 3284 1581 
Q 3284 1103 3093 712 
Q 2903 322 2584 117 
Q 2266 -88 1856 -88 
Q 1619 -88 1434 -12 
Q 1250 63 1072 231 
L 588 -84 
L 481 -84 
L 481 3631 
Q 481 3884 459 3944 
Q 428 4031 361 4073 
Q 294 4116 134 4122 
L 134 4238 
L 1347 4238 
z
M 1347 2350 
L 1347 1050 
Q 1347 653 1366 544 
Q 1397 359 1515 245 
Q 1634 131 1819 131 
Q 1978 131 2092 222 
Q 2206 313 2282 581 
Q 2359 850 2359 1550 
Q 2359 2222 2191 2472 
Q 2069 2653 1863 2653 
Q 1594 2653 1347 2350 
z
" transform="scale(0.015625)"/>
       <path id="TimesNewRomanPS-BoldMT-65" d="M 2691 1566 
L 1088 1566 
Q 1116 984 1397 647 
Q 1613 388 1916 388 
Q 2103 388 2256 492 
Q 2409 597 2584 869 
L 2691 800 
Q 2453 316 2165 114 
Q 1878 -88 1500 -88 
Q 850 -88 516 413 
Q 247 816 247 1413 
Q 247 2144 642 2576 
Q 1038 3009 1569 3009 
Q 2013 3009 2339 2645 
Q 2666 2281 2691 1566 
z
M 1922 1775 
Q 1922 2278 1867 2465 
Q 1813 2653 1697 2750 
Q 1631 2806 1522 2806 
Q 1359 2806 1256 2647 
Q 1072 2369 1072 1884 
L 1072 1775 
L 1922 1775 
z
" transform="scale(0.015625)"/>
       <path id="TimesNewRomanPS-BoldMT-72" d="M 1428 2922 
L 1428 2259 
Q 1719 2713 1937 2861 
Q 2156 3009 2359 3009 
Q 2534 3009 2639 2901 
Q 2744 2794 2744 2597 
Q 2744 2388 2642 2272 
Q 2541 2156 2397 2156 
Q 2231 2156 2109 2262 
Q 1988 2369 1966 2381 
Q 1934 2400 1894 2400 
Q 1803 2400 1722 2331 
Q 1594 2225 1528 2028 
Q 1428 1725 1428 1359 
L 1428 688 
L 1431 513 
Q 1431 334 1453 284 
Q 1491 200 1564 161 
Q 1638 122 1813 113 
L 1813 0 
L 234 0 
L 234 113 
Q 425 128 492 217 
Q 559 306 559 688 
L 559 2303 
Q 559 2553 534 2622 
Q 503 2709 443 2750 
Q 384 2791 234 2806 
L 234 2922 
L 1428 2922 
z
" transform="scale(0.015625)"/>
       <path id="TimesNewRomanPS-BoldMT-20" transform="scale(0.015625)"/>
       <path id="TimesNewRomanPS-BoldMT-6f" d="M 1594 3009 
Q 1975 3009 2303 2812 
Q 2631 2616 2801 2253 
Q 2972 1891 2972 1459 
Q 2972 838 2656 419 
Q 2275 -88 1603 -88 
Q 944 -88 587 375 
Q 231 838 231 1447 
Q 231 2075 595 2542 
Q 959 3009 1594 3009 
z
M 1606 2788 
Q 1447 2788 1333 2667 
Q 1219 2547 1183 2192 
Q 1147 1838 1147 1206 
Q 1147 872 1191 581 
Q 1225 359 1337 243 
Q 1450 128 1594 128 
Q 1734 128 1828 206 
Q 1950 313 1991 503 
Q 2053 800 2053 1703 
Q 2053 2234 1993 2432 
Q 1934 2631 1819 2722 
Q 1738 2788 1606 2788 
z
" transform="scale(0.015625)"/>
       <path id="TimesNewRomanPS-BoldMT-66" d="M 1497 2616 
L 1497 588 
Q 1497 294 1559 219 
Q 1659 103 1928 113 
L 1928 0 
L 206 0 
L 206 113 
Q 403 116 486 158 
Q 569 200 600 275 
Q 631 350 631 588 
L 631 2616 
L 206 2616 
L 206 2922 
L 631 2922 
L 631 3138 
L 628 3284 
Q 628 3734 958 4034 
Q 1288 4334 1850 4334 
Q 2234 4334 2420 4190 
Q 2606 4047 2606 3872 
Q 2606 3731 2490 3628 
Q 2375 3525 2184 3525 
Q 2022 3525 1926 3609 
Q 1831 3694 1831 3797 
Q 1831 3825 1850 3913 
Q 1863 3966 1863 4013 
Q 1863 4078 1825 4109 
Q 1775 4156 1703 4156 
Q 1613 4156 1552 4081 
Q 1491 4006 1491 3841 
L 1497 3294 
L 1497 2922 
L 1928 2922 
L 1928 2616 
L 1497 2616 
z
" transform="scale(0.015625)"/>
       <path id="TimesNewRomanPS-BoldMT-76" d="M 1534 -88 
L 550 2178 
Q 372 2588 272 2697 
Q 200 2778 59 2806 
L 59 2922 
L 1613 2922 
L 1613 2806 
Q 1466 2806 1413 2753 
Q 1338 2684 1338 2591 
Q 1338 2475 1475 2156 
L 1956 1059 
L 2341 2006 
Q 2506 2413 2506 2581 
Q 2506 2678 2436 2739 
Q 2366 2800 2188 2806 
L 2188 2922 
L 3144 2922 
L 3144 2806 
Q 3006 2788 2918 2703 
Q 2831 2619 2656 2206 
L 1681 -88 
L 1534 -88 
z
" transform="scale(0.015625)"/>
       <path id="TimesNewRomanPS-BoldMT-74" d="M 1375 3991 
L 1375 2922 
L 2069 2922 
L 2069 2613 
L 1375 2613 
L 1375 809 
Q 1375 556 1398 482 
Q 1422 409 1481 364 
Q 1541 319 1591 319 
Q 1794 319 1975 628 
L 2069 559 
Q 1816 -41 1247 -41 
Q 969 -41 776 114 
Q 584 269 531 459 
Q 500 566 500 1034 
L 500 2613 
L 119 2613 
L 119 2722 
Q 513 3000 789 3306 
Q 1066 3613 1272 3991 
L 1375 3991 
z
" transform="scale(0.015625)"/>
       <path id="TimesNewRomanPS-BoldMT-73" d="M 2063 3003 
L 2109 2006 
L 2003 2006 
Q 1813 2450 1608 2612 
Q 1403 2775 1200 2775 
Q 1072 2775 981 2689 
Q 891 2603 891 2491 
Q 891 2406 953 2328 
Q 1053 2200 1512 1889 
Q 1972 1578 2117 1361 
Q 2263 1144 2263 875 
Q 2263 631 2141 397 
Q 2019 163 1797 37 
Q 1575 -88 1306 -88 
Q 1097 -88 747 44 
Q 653 78 619 78 
Q 516 78 447 -78 
L 344 -78 
L 294 972 
L 400 972 
Q 541 559 786 353 
Q 1031 147 1250 147 
Q 1400 147 1495 239 
Q 1591 331 1591 463 
Q 1591 613 1497 722 
Q 1403 831 1078 1053 
Q 600 1384 459 1559 
Q 253 1816 253 2125 
Q 253 2463 486 2736 
Q 719 3009 1159 3009 
Q 1397 3009 1619 2894 
Q 1703 2847 1756 2847 
Q 1813 2847 1847 2870 
Q 1881 2894 1956 3003 
L 2063 3003 
z
" transform="scale(0.015625)"/>
      </defs>
      <use xlink:href="#TimesNewRomanPS-BoldMT-4e"/>
      <use xlink:href="#TimesNewRomanPS-BoldMT-75" x="72.216797"/>
      <use xlink:href="#TimesNewRomanPS-BoldMT-6d" x="127.832031"/>
      <use xlink:href="#TimesNewRomanPS-BoldMT-62" x="211.132812"/>
      <use xlink:href="#TimesNewRomanPS-BoldMT-65" x="266.748047"/>
      <use xlink:href="#TimesNewRomanPS-BoldMT-72" x="311.132812"/>
      <use xlink:href="#TimesNewRomanPS-BoldMT-20" x="353.767578"/>
      <use xlink:href="#TimesNewRomanPS-BoldMT-6f" x="378.767578"/>
      <use xlink:href="#TimesNewRomanPS-BoldMT-66" x="428.767578"/>
      <use xlink:href="#TimesNewRomanPS-BoldMT-20" x="462.068359"/>
      <use xlink:href="#TimesNewRomanPS-BoldMT-76" x="487.068359"/>
      <use xlink:href="#TimesNewRomanPS-BoldMT-6f" x="537.068359"/>
      <use xlink:href="#TimesNewRomanPS-BoldMT-74" x="587.068359"/>
      <use xlink:href="#TimesNewRomanPS-BoldMT-65" x="620.369141"/>
      <use xlink:href="#TimesNewRomanPS-BoldMT-72" x="664.753906"/>
      <use xlink:href="#TimesNewRomanPS-BoldMT-73" x="709.138672"/>
     </g>
    </g>
   </g>
   <g id="matplotlib.axis_2">
    <g id="ytick_1">
     <g id="line2d_6">
      <path d="M 58.44125 172.308805 
L 349.2 172.308805 
" clip-path="url(#pcf0aa09f1b)" style="fill: none; stroke: #cccccc; stroke-width: 0.8; stroke-linecap: round"/>
     </g>
     <g id="text_7">
      <!-- 0.02 -->
      <g style="fill: #262626" transform="translate(28.69125 176.822242) scale(0.13 -0.13)">
       <defs>
        <path id="TimesNewRomanPSMT-30" d="M 231 2094 
Q 231 2819 450 3342 
Q 669 3866 1031 4122 
Q 1313 4325 1613 4325 
Q 2100 4325 2488 3828 
Q 2972 3213 2972 2159 
Q 2972 1422 2759 906 
Q 2547 391 2217 158 
Q 1888 -75 1581 -75 
Q 975 -75 572 641 
Q 231 1244 231 2094 
z
M 844 2016 
Q 844 1141 1059 588 
Q 1238 122 1591 122 
Q 1759 122 1940 273 
Q 2122 425 2216 781 
Q 2359 1319 2359 2297 
Q 2359 3022 2209 3506 
Q 2097 3866 1919 4016 
Q 1791 4119 1609 4119 
Q 1397 4119 1231 3928 
Q 1006 3669 925 3112 
Q 844 2556 844 2016 
z
" transform="scale(0.015625)"/>
        <path id="TimesNewRomanPSMT-2e" d="M 800 606 
Q 947 606 1047 504 
Q 1147 403 1147 259 
Q 1147 116 1045 14 
Q 944 -88 800 -88 
Q 656 -88 554 14 
Q 453 116 453 259 
Q 453 406 554 506 
Q 656 606 800 606 
z
" transform="scale(0.015625)"/>
       </defs>
       <use xlink:href="#TimesNewRomanPSMT-30"/>
       <use xlink:href="#TimesNewRomanPSMT-2e" x="50"/>
       <use xlink:href="#TimesNewRomanPSMT-30" x="75"/>
       <use xlink:href="#TimesNewRomanPSMT-32" x="125"/>
      </g>
     </g>
    </g>
    <g id="ytick_2">
     <g id="line2d_7">
      <path d="M 58.44125 138.690702 
L 349.2 138.690702 
" clip-path="url(#pcf0aa09f1b)" style="fill: none; stroke: #cccccc; stroke-width: 0.8; stroke-linecap: round"/>
     </g>
     <g id="text_8">
      <!-- 0.04 -->
      <g style="fill: #262626" transform="translate(28.69125 143.20414) scale(0.13 -0.13)">
       <use xlink:href="#TimesNewRomanPSMT-30"/>
       <use xlink:href="#TimesNewRomanPSMT-2e" x="50"/>
       <use xlink:href="#TimesNewRomanPSMT-30" x="75"/>
       <use xlink:href="#TimesNewRomanPSMT-34" x="125"/>
      </g>
     </g>
    </g>
    <g id="ytick_3">
     <g id="line2d_8">
      <path d="M 58.44125 105.072599 
L 349.2 105.072599 
" clip-path="url(#pcf0aa09f1b)" style="fill: none; stroke: #cccccc; stroke-width: 0.8; stroke-linecap: round"/>
     </g>
     <g id="text_9">
      <!-- 0.06 -->
      <g style="fill: #262626" transform="translate(28.69125 109.586037) scale(0.13 -0.13)">
       <defs>
        <path id="TimesNewRomanPSMT-36" d="M 2869 4325 
L 2869 4209 
Q 2456 4169 2195 4045 
Q 1934 3922 1679 3669 
Q 1425 3416 1258 3105 
Q 1091 2794 978 2366 
Q 1428 2675 1881 2675 
Q 2316 2675 2634 2325 
Q 2953 1975 2953 1425 
Q 2953 894 2631 456 
Q 2244 -75 1606 -75 
Q 1172 -75 869 213 
Q 275 772 275 1663 
Q 275 2231 503 2743 
Q 731 3256 1154 3653 
Q 1578 4050 1965 4187 
Q 2353 4325 2688 4325 
L 2869 4325 
z
M 925 2138 
Q 869 1716 869 1456 
Q 869 1156 980 804 
Q 1091 453 1309 247 
Q 1469 100 1697 100 
Q 1969 100 2183 356 
Q 2397 613 2397 1088 
Q 2397 1622 2184 2012 
Q 1972 2403 1581 2403 
Q 1463 2403 1327 2353 
Q 1191 2303 925 2138 
z
" transform="scale(0.015625)"/>
       </defs>
       <use xlink:href="#TimesNewRomanPSMT-30"/>
       <use xlink:href="#TimesNewRomanPSMT-2e" x="50"/>
       <use xlink:href="#TimesNewRomanPSMT-30" x="75"/>
       <use xlink:href="#TimesNewRomanPSMT-36" x="125"/>
      </g>
     </g>
    </g>
    <g id="ytick_4">
     <g id="line2d_9">
      <path d="M 58.44125 71.454497 
L 349.2 71.454497 
" clip-path="url(#pcf0aa09f1b)" style="fill: none; stroke: #cccccc; stroke-width: 0.8; stroke-linecap: round"/>
     </g>
     <g id="text_10">
      <!-- 0.08 -->
      <g style="fill: #262626" transform="translate(28.69125 75.967934) scale(0.13 -0.13)">
       <defs>
        <path id="TimesNewRomanPSMT-38" d="M 1228 2134 
Q 725 2547 579 2797 
Q 434 3047 434 3316 
Q 434 3728 753 4026 
Q 1072 4325 1600 4325 
Q 2113 4325 2425 4047 
Q 2738 3769 2738 3413 
Q 2738 3175 2569 2928 
Q 2400 2681 1866 2347 
Q 2416 1922 2594 1678 
Q 2831 1359 2831 1006 
Q 2831 559 2490 242 
Q 2150 -75 1597 -75 
Q 994 -75 656 303 
Q 388 606 388 966 
Q 388 1247 577 1523 
Q 766 1800 1228 2134 
z
M 1719 2469 
Q 2094 2806 2194 3001 
Q 2294 3197 2294 3444 
Q 2294 3772 2109 3958 
Q 1925 4144 1606 4144 
Q 1288 4144 1088 3959 
Q 888 3775 888 3528 
Q 888 3366 970 3203 
Q 1053 3041 1206 2894 
L 1719 2469 
z
M 1375 2016 
Q 1116 1797 991 1539 
Q 866 1281 866 981 
Q 866 578 1086 336 
Q 1306 94 1647 94 
Q 1984 94 2187 284 
Q 2391 475 2391 747 
Q 2391 972 2272 1150 
Q 2050 1481 1375 2016 
z
" transform="scale(0.015625)"/>
       </defs>
       <use xlink:href="#TimesNewRomanPSMT-30"/>
       <use xlink:href="#TimesNewRomanPSMT-2e" x="50"/>
       <use xlink:href="#TimesNewRomanPSMT-30" x="75"/>
       <use xlink:href="#TimesNewRomanPSMT-38" x="125"/>
      </g>
     </g>
    </g>
    <g id="ytick_5">
     <g id="line2d_10">
      <path d="M 58.44125 37.836394 
L 349.2 37.836394 
" clip-path="url(#pcf0aa09f1b)" style="fill: none; stroke: #cccccc; stroke-width: 0.8; stroke-linecap: round"/>
     </g>
     <g id="text_11">
      <!-- 0.10 -->
      <g style="fill: #262626" transform="translate(28.69125 42.349831) scale(0.13 -0.13)">
       <use xlink:href="#TimesNewRomanPSMT-30"/>
       <use xlink:href="#TimesNewRomanPSMT-2e" x="50"/>
       <use xlink:href="#TimesNewRomanPSMT-31" x="75"/>
       <use xlink:href="#TimesNewRomanPSMT-30" x="125"/>
      </g>
     </g>
    </g>
    <g id="text_12">
     <!-- Total Gas Spend (Gwei) -->
     <g style="fill: #262626" transform="translate(21.482656 183.736484) rotate(-90) scale(0.15 -0.15)">
      <defs>
       <path id="TimesNewRomanPS-BoldMT-54" d="M 4038 4238 
L 4038 3091 
L 3925 3091 
Q 3825 3488 3703 3661 
Q 3581 3834 3369 3938 
Q 3250 3994 2953 3994 
L 2638 3994 
L 2638 725 
Q 2638 400 2673 319 
Q 2709 238 2814 177 
Q 2919 116 3100 116 
L 3241 116 
L 3241 0 
L 1022 0 
L 1022 116 
L 1163 116 
Q 1347 116 1459 181 
Q 1541 225 1588 331 
Q 1622 406 1622 725 
L 1622 3994 
L 1316 3994 
Q 888 3994 694 3813 
Q 422 3559 350 3091 
L 231 3091 
L 231 4238 
L 4038 4238 
z
" transform="scale(0.015625)"/>
       <path id="TimesNewRomanPS-BoldMT-61" d="M 1828 431 
Q 1294 -41 869 -41 
Q 619 -41 453 123 
Q 288 288 288 534 
Q 288 869 575 1136 
Q 863 1403 1828 1847 
L 1828 2141 
Q 1828 2472 1792 2558 
Q 1756 2644 1656 2708 
Q 1556 2772 1431 2772 
Q 1228 2772 1097 2681 
Q 1016 2625 1016 2550 
Q 1016 2484 1103 2388 
Q 1222 2253 1222 2128 
Q 1222 1975 1108 1867 
Q 994 1759 809 1759 
Q 613 1759 480 1878 
Q 347 1997 347 2156 
Q 347 2381 525 2586 
Q 703 2791 1022 2900 
Q 1341 3009 1684 3009 
Q 2100 3009 2342 2832 
Q 2584 2656 2656 2450 
Q 2700 2319 2700 1847 
L 2700 713 
Q 2700 513 2715 461 
Q 2731 409 2762 384 
Q 2794 359 2834 359 
Q 2916 359 3000 475 
L 3094 400 
Q 2938 169 2770 64 
Q 2603 -41 2391 -41 
Q 2141 -41 2000 76 
Q 1859 194 1828 431 
z
M 1828 659 
L 1828 1638 
Q 1450 1416 1266 1163 
Q 1144 994 1144 822 
Q 1144 678 1247 569 
Q 1325 484 1466 484 
Q 1622 484 1828 659 
z
" transform="scale(0.015625)"/>
       <path id="TimesNewRomanPS-BoldMT-6c" d="M 1359 4238 
L 1359 606 
Q 1359 297 1431 211 
Q 1503 125 1713 113 
L 1713 0 
L 134 0 
L 134 113 
Q 328 119 422 225 
Q 484 297 484 606 
L 484 3631 
Q 484 3938 412 4023 
Q 341 4109 134 4122 
L 134 4238 
L 1359 4238 
z
" transform="scale(0.015625)"/>
       <path id="TimesNewRomanPS-BoldMT-47" d="M 4416 4334 
L 4416 2841 
L 4300 2841 
Q 4091 3453 3672 3772 
Q 3253 4091 2756 4091 
Q 2281 4091 1965 3823 
Q 1650 3556 1519 3078 
Q 1388 2600 1388 2097 
Q 1388 1488 1531 1028 
Q 1675 569 1995 353 
Q 2316 138 2756 138 
Q 2909 138 3070 170 
Q 3231 203 3400 266 
L 3400 1147 
Q 3400 1397 3365 1470 
Q 3331 1544 3223 1603 
Q 3116 1663 2963 1663 
L 2853 1663 
L 2853 1778 
L 4913 1778 
L 4913 1663 
Q 4678 1647 4586 1598 
Q 4494 1550 4444 1438 
Q 4416 1378 4416 1147 
L 4416 266 
Q 4009 84 3570 -8 
Q 3131 -100 2659 -100 
Q 2056 -100 1657 64 
Q 1259 228 954 495 
Q 650 763 478 1097 
Q 259 1528 259 2063 
Q 259 3019 931 3678 
Q 1603 4338 2622 4338 
Q 2938 4338 3191 4288 
Q 3328 4263 3636 4145 
Q 3944 4028 4000 4028 
Q 4088 4028 4163 4092 
Q 4238 4156 4300 4334 
L 4416 4334 
z
" transform="scale(0.015625)"/>
       <path id="TimesNewRomanPS-BoldMT-53" d="M 3006 4334 
L 3041 2922 
L 2913 2922 
Q 2822 3453 2467 3776 
Q 2113 4100 1700 4100 
Q 1381 4100 1195 3929 
Q 1009 3759 1009 3538 
Q 1009 3397 1075 3288 
Q 1166 3141 1366 2997 
Q 1513 2894 2044 2631 
Q 2788 2266 3047 1941 
Q 3303 1616 3303 1197 
Q 3303 666 2889 283 
Q 2475 -100 1838 -100 
Q 1638 -100 1459 -59 
Q 1281 -19 1013 94 
Q 863 156 766 156 
Q 684 156 593 93 
Q 503 31 447 -97 
L 331 -97 
L 331 1503 
L 447 1503 
Q 584 828 976 473 
Q 1369 119 1822 119 
Q 2172 119 2380 309 
Q 2588 500 2588 753 
Q 2588 903 2508 1043 
Q 2428 1184 2265 1311 
Q 2103 1438 1691 1641 
Q 1113 1925 859 2125 
Q 606 2325 470 2572 
Q 334 2819 334 3116 
Q 334 3622 706 3978 
Q 1078 4334 1644 4334 
Q 1850 4334 2044 4284 
Q 2191 4247 2402 4145 
Q 2613 4044 2697 4044 
Q 2778 4044 2825 4094 
Q 2872 4144 2913 4334 
L 3006 4334 
z
" transform="scale(0.015625)"/>
       <path id="TimesNewRomanPS-BoldMT-70" d="M 1347 297 
L 1347 -791 
Q 1347 -1016 1383 -1097 
Q 1419 -1178 1494 -1215 
Q 1569 -1253 1788 -1253 
L 1788 -1369 
L 122 -1369 
L 122 -1253 
Q 316 -1247 409 -1144 
Q 472 -1072 472 -772 
L 472 2313 
Q 472 2622 400 2708 
Q 328 2794 122 2806 
L 122 2922 
L 1347 2922 
L 1347 2538 
Q 1500 2763 1659 2863 
Q 1888 3009 2156 3009 
Q 2478 3009 2742 2806 
Q 3006 2603 3143 2245 
Q 3281 1888 3281 1475 
Q 3281 1031 3139 664 
Q 2997 297 2726 104 
Q 2456 -88 2125 -88 
Q 1884 -88 1675 19 
Q 1519 100 1347 297 
z
M 1347 613 
Q 1616 231 1922 231 
Q 2091 231 2200 409 
Q 2363 672 2363 1409 
Q 2363 2166 2184 2444 
Q 2066 2628 1866 2628 
Q 1550 2628 1347 2172 
L 1347 613 
z
" transform="scale(0.015625)"/>
       <path id="TimesNewRomanPS-BoldMT-6e" d="M 1409 2922 
L 1409 2544 
Q 1634 2788 1840 2898 
Q 2047 3009 2284 3009 
Q 2569 3009 2756 2851 
Q 2944 2694 3006 2459 
Q 3056 2281 3056 1775 
L 3056 638 
Q 3056 300 3117 217 
Q 3178 134 3372 113 
L 3372 0 
L 1894 0 
L 1894 113 
Q 2059 134 2131 250 
Q 2181 328 2181 638 
L 2181 1938 
Q 2181 2297 2153 2390 
Q 2125 2484 2058 2536 
Q 1991 2588 1909 2588 
Q 1641 2588 1409 2203 
L 1409 638 
Q 1409 309 1470 221 
Q 1531 134 1697 113 
L 1697 0 
L 219 0 
L 219 113 
Q 403 131 481 231 
Q 534 300 534 638 
L 534 2288 
Q 534 2619 473 2700 
Q 413 2781 219 2806 
L 219 2922 
L 1409 2922 
z
" transform="scale(0.015625)"/>
       <path id="TimesNewRomanPS-BoldMT-64" d="M 3056 4238 
L 3056 875 
Q 3056 534 3075 472 
Q 3100 369 3170 319 
Q 3241 269 3416 256 
L 3416 153 
L 2181 -88 
L 2181 375 
Q 1959 106 1786 9 
Q 1613 -88 1394 -88 
Q 834 -88 509 413 
Q 247 819 247 1409 
Q 247 1881 409 2254 
Q 572 2628 855 2818 
Q 1138 3009 1463 3009 
Q 1672 3009 1834 2928 
Q 1997 2847 2181 2644 
L 2181 3525 
Q 2181 3859 2153 3928 
Q 2116 4019 2041 4062 
Q 1966 4106 1759 4106 
L 1759 4238 
L 3056 4238 
z
M 2181 2256 
Q 1950 2700 1616 2700 
Q 1500 2700 1425 2638 
Q 1309 2541 1236 2297 
Q 1163 2053 1163 1550 
Q 1163 997 1244 731 
Q 1325 466 1466 347 
Q 1538 288 1663 288 
Q 1938 288 2181 719 
L 2181 2256 
z
" transform="scale(0.015625)"/>
       <path id="TimesNewRomanPS-BoldMT-28" d="M 2056 4334 
L 2056 4191 
Q 1731 3978 1578 3775 
Q 1366 3494 1247 3053 
Q 1097 2506 1097 1525 
Q 1097 600 1233 87 
Q 1369 -425 1603 -741 
Q 1766 -959 2056 -1125 
L 2056 -1281 
Q 1303 -1028 779 -248 
Q 256 531 256 1544 
Q 256 2544 778 3314 
Q 1300 4084 2056 4334 
z
" transform="scale(0.015625)"/>
       <path id="TimesNewRomanPS-BoldMT-77" d="M 3113 -88 
L 2313 2056 
L 1528 -88 
L 1366 -88 
L 588 2031 
Q 413 2516 291 2663 
Q 213 2763 53 2806 
L 53 2922 
L 1528 2922 
L 1528 2806 
Q 1378 2806 1322 2762 
Q 1266 2719 1266 2663 
Q 1266 2609 1366 2344 
L 1794 1203 
L 2206 2344 
L 2175 2419 
Q 2081 2653 2011 2717 
Q 1941 2781 1794 2806 
L 1794 2922 
L 3291 2922 
L 3291 2806 
Q 3116 2797 3069 2758 
Q 3022 2719 3022 2647 
Q 3022 2578 3113 2344 
L 3525 1203 
L 3900 2253 
Q 3981 2478 3981 2559 
Q 3981 2681 3922 2737 
Q 3863 2794 3691 2806 
L 3691 2922 
L 4556 2922 
L 4556 2806 
Q 4413 2788 4328 2705 
Q 4244 2622 4109 2234 
L 3291 -88 
L 3113 -88 
z
" transform="scale(0.015625)"/>
       <path id="TimesNewRomanPS-BoldMT-69" d="M 919 4338 
Q 1122 4338 1262 4195 
Q 1403 4053 1403 3853 
Q 1403 3653 1261 3512 
Q 1119 3372 919 3372 
Q 719 3372 578 3512 
Q 438 3653 438 3853 
Q 438 4053 578 4195 
Q 719 4338 919 4338 
z
M 1356 2922 
L 1356 606 
Q 1356 297 1428 211 
Q 1500 125 1709 113 
L 1709 0 
L 131 0 
L 131 113 
Q 325 119 419 225 
Q 481 297 481 606 
L 481 2313 
Q 481 2622 409 2708 
Q 338 2794 131 2806 
L 131 2922 
L 1356 2922 
z
" transform="scale(0.015625)"/>
       <path id="TimesNewRomanPS-BoldMT-29" d="M 78 -1281 
L 78 -1138 
Q 403 -922 556 -719 
Q 766 -438 888 0 
Q 1038 550 1038 1531 
Q 1038 2456 902 2967 
Q 766 3478 531 3794 
Q 369 4013 78 4178 
L 78 4334 
Q 831 4081 1354 3301 
Q 1878 2522 1878 1509 
Q 1878 513 1354 -257 
Q 831 -1028 78 -1281 
z
" transform="scale(0.015625)"/>
      </defs>
      <use xlink:href="#TimesNewRomanPS-BoldMT-54"/>
      <use xlink:href="#TimesNewRomanPS-BoldMT-6f" x="57.574219"/>
      <use xlink:href="#TimesNewRomanPS-BoldMT-74" x="107.574219"/>
      <use xlink:href="#TimesNewRomanPS-BoldMT-61" x="140.875"/>
      <use xlink:href="#TimesNewRomanPS-BoldMT-6c" x="190.875"/>
      <use xlink:href="#TimesNewRomanPS-BoldMT-20" x="218.658203"/>
      <use xlink:href="#TimesNewRomanPS-BoldMT-47" x="243.658203"/>
      <use xlink:href="#TimesNewRomanPS-BoldMT-61" x="321.441406"/>
      <use xlink:href="#TimesNewRomanPS-BoldMT-73" x="371.441406"/>
      <use xlink:href="#TimesNewRomanPS-BoldMT-20" x="410.357422"/>
      <use xlink:href="#TimesNewRomanPS-BoldMT-53" x="435.357422"/>
      <use xlink:href="#TimesNewRomanPS-BoldMT-70" x="490.972656"/>
      <use xlink:href="#TimesNewRomanPS-BoldMT-65" x="546.587891"/>
      <use xlink:href="#TimesNewRomanPS-BoldMT-6e" x="590.972656"/>
      <use xlink:href="#TimesNewRomanPS-BoldMT-64" x="646.587891"/>
      <use xlink:href="#TimesNewRomanPS-BoldMT-20" x="702.203125"/>
      <use xlink:href="#TimesNewRomanPS-BoldMT-28" x="727.203125"/>
      <use xlink:href="#TimesNewRomanPS-BoldMT-47" x="760.503906"/>
      <use xlink:href="#TimesNewRomanPS-BoldMT-77" x="838.287109"/>
      <use xlink:href="#TimesNewRomanPS-BoldMT-65" x="910.503906"/>
      <use xlink:href="#TimesNewRomanPS-BoldMT-69" x="954.888672"/>
      <use xlink:href="#TimesNewRomanPS-BoldMT-29" x="982.671875"/>
     </g>
    </g>
   </g>
   <g id="PathCollection_1">
    <defs>
     <path id="m2f3d420877" d="M 0 2.738613 
C 0.726289 2.738613 1.422928 2.450055 1.936492 1.936492 
C 2.450055 1.422928 2.738613 0.726289 2.738613 0 
C 2.738613 -0.726289 2.450055 -1.422928 1.936492 -1.936492 
C 1.422928 -2.450055 0.726289 -2.738613 0 -2.738613 
C -0.726289 -2.738613 -1.422928 -2.450055 -1.936492 -1.936492 
C -2.450055 -1.422928 -2.738613 -0.726289 -2.738613 0 
C -2.738613 0.726289 -2.450055 1.422928 -1.936492 1.936492 
C -1.422928 2.450055 -0.726289 2.738613 0 2.738613 
z
" style="stroke: #486966; stroke-opacity: 0.8"/>
    </defs>
    <g clip-path="url(#pcf0aa09f1b)">
     <use xlink:href="#m2f3d420877" x="58.44125" y="194.093621" style="fill: #486966; fill-opacity: 0.8; stroke: #486966; stroke-opacity: 0.8"/>
     <use xlink:href="#m2f3d420877" x="64.902556" y="192.843668" style="fill: #486966; fill-opacity: 0.8; stroke: #486966; stroke-opacity: 0.8"/>
     <use xlink:href="#m2f3d420877" x="71.363861" y="191.507932" style="fill: #486966; fill-opacity: 0.8; stroke: #486966; stroke-opacity: 0.8"/>
     <use xlink:href="#m2f3d420877" x="77.825167" y="190.075666" style="fill: #486966; fill-opacity: 0.8; stroke: #486966; stroke-opacity: 0.8"/>
     <use xlink:href="#m2f3d420877" x="84.286472" y="188.400604" style="fill: #486966; fill-opacity: 0.8; stroke: #486966; stroke-opacity: 0.8"/>
     <use xlink:href="#m2f3d420877" x="90.747778" y="186.826332" style="fill: #486966; fill-opacity: 0.8; stroke: #486966; stroke-opacity: 0.8"/>
     <use xlink:href="#m2f3d420877" x="97.209083" y="184.964602" style="fill: #486966; fill-opacity: 0.8; stroke: #486966; stroke-opacity: 0.8"/>
     <use xlink:href="#m2f3d420877" x="103.670389" y="183.053299" style="fill: #486966; fill-opacity: 0.8; stroke: #486966; stroke-opacity: 0.8"/>
     <use xlink:href="#m2f3d420877" x="110.131694" y="180.88911" style="fill: #486966; fill-opacity: 0.8; stroke: #486966; stroke-opacity: 0.8"/>
     <use xlink:href="#m2f3d420877" x="116.593" y="178.797111" style="fill: #486966; fill-opacity: 0.8; stroke: #486966; stroke-opacity: 0.8"/>
     <use xlink:href="#m2f3d420877" x="123.054306" y="176.508219" style="fill: #486966; fill-opacity: 0.8; stroke: #486966; stroke-opacity: 0.8"/>
     <use xlink:href="#m2f3d420877" x="129.515611" y="174.10696" style="fill: #486966; fill-opacity: 0.8; stroke: #486966; stroke-opacity: 0.8"/>
     <use xlink:href="#m2f3d420877" x="135.976917" y="171.551868" style="fill: #486966; fill-opacity: 0.8; stroke: #486966; stroke-opacity: 0.8"/>
     <use xlink:href="#m2f3d420877" x="142.438222" y="168.415913" style="fill: #486966; fill-opacity: 0.8; stroke: #486966; stroke-opacity: 0.8"/>
     <use xlink:href="#m2f3d420877" x="148.899528" y="166.17357" style="fill: #486966; fill-opacity: 0.8; stroke: #486966; stroke-opacity: 0.8"/>
     <use xlink:href="#m2f3d420877" x="155.360833" y="163.209376" style="fill: #486966; fill-opacity: 0.8; stroke: #486966; stroke-opacity: 0.8"/>
     <use xlink:href="#m2f3d420877" x="161.822139" y="159.900728" style="fill: #486966; fill-opacity: 0.8; stroke: #486966; stroke-opacity: 0.8"/>
     <use xlink:href="#m2f3d420877" x="168.283444" y="156.837097" style="fill: #486966; fill-opacity: 0.8; stroke: #486966; stroke-opacity: 0.8"/>
     <use xlink:href="#m2f3d420877" x="174.74475" y="153.911639" style="fill: #486966; fill-opacity: 0.8; stroke: #486966; stroke-opacity: 0.8"/>
     <use xlink:href="#m2f3d420877" x="181.206056" y="150.503248" style="fill: #486966; fill-opacity: 0.8; stroke: #486966; stroke-opacity: 0.8"/>
     <use xlink:href="#m2f3d420877" x="187.667361" y="147.026057" style="fill: #486966; fill-opacity: 0.8; stroke: #486966; stroke-opacity: 0.8"/>
     <use xlink:href="#m2f3d420877" x="194.128667" y="143.444689" style="fill: #486966; fill-opacity: 0.8; stroke: #486966; stroke-opacity: 0.8"/>
     <use xlink:href="#m2f3d420877" x="200.589972" y="139.661889" style="fill: #486966; fill-opacity: 0.8; stroke: #486966; stroke-opacity: 0.8"/>
     <use xlink:href="#m2f3d420877" x="207.051278" y="135.7533" style="fill: #486966; fill-opacity: 0.8; stroke: #486966; stroke-opacity: 0.8"/>
     <use xlink:href="#m2f3d420877" x="213.512583" y="131.822835" style="fill: #486966; fill-opacity: 0.8; stroke: #486966; stroke-opacity: 0.8"/>
     <use xlink:href="#m2f3d420877" x="219.973889" y="127.352657" style="fill: #486966; fill-opacity: 0.8; stroke: #486966; stroke-opacity: 0.8"/>
     <use xlink:href="#m2f3d420877" x="226.435194" y="123.38788" style="fill: #486966; fill-opacity: 0.8; stroke: #486966; stroke-opacity: 0.8"/>
     <use xlink:href="#m2f3d420877" x="232.8965" y="118.817683" style="fill: #486966; fill-opacity: 0.8; stroke: #486966; stroke-opacity: 0.8"/>
     <use xlink:href="#m2f3d420877" x="239.357806" y="114.281499" style="fill: #486966; fill-opacity: 0.8; stroke: #486966; stroke-opacity: 0.8"/>
     <use xlink:href="#m2f3d420877" x="245.819111" y="109.719578" style="fill: #486966; fill-opacity: 0.8; stroke: #486966; stroke-opacity: 0.8"/>
     <use xlink:href="#m2f3d420877" x="252.280417" y="105.448702" style="fill: #486966; fill-opacity: 0.8; stroke: #486966; stroke-opacity: 0.8"/>
     <use xlink:href="#m2f3d420877" x="258.741722" y="100.584327" style="fill: #486966; fill-opacity: 0.8; stroke: #486966; stroke-opacity: 0.8"/>
     <use xlink:href="#m2f3d420877" x="265.203028" y="95.285094" style="fill: #486966; fill-opacity: 0.8; stroke: #486966; stroke-opacity: 0.8"/>
     <use xlink:href="#m2f3d420877" x="271.664333" y="90.626114" style="fill: #486966; fill-opacity: 0.8; stroke: #486966; stroke-opacity: 0.8"/>
     <use xlink:href="#m2f3d420877" x="278.125639" y="85.218521" style="fill: #486966; fill-opacity: 0.8; stroke: #486966; stroke-opacity: 0.8"/>
     <use xlink:href="#m2f3d420877" x="284.586944" y="79.868462" style="fill: #486966; fill-opacity: 0.8; stroke: #486966; stroke-opacity: 0.8"/>
     <use xlink:href="#m2f3d420877" x="291.04825" y="74.692774" style="fill: #486966; fill-opacity: 0.8; stroke: #486966; stroke-opacity: 0.8"/>
     <use xlink:href="#m2f3d420877" x="297.509556" y="69.177294" style="fill: #486966; fill-opacity: 0.8; stroke: #486966; stroke-opacity: 0.8"/>
     <use xlink:href="#m2f3d420877" x="303.970861" y="63.057276" style="fill: #486966; fill-opacity: 0.8; stroke: #486966; stroke-opacity: 0.8"/>
     <use xlink:href="#m2f3d420877" x="310.432167" y="57.669563" style="fill: #486966; fill-opacity: 0.8; stroke: #486966; stroke-opacity: 0.8"/>
     <use xlink:href="#m2f3d420877" x="316.893472" y="51.58001" style="fill: #486966; fill-opacity: 0.8; stroke: #486966; stroke-opacity: 0.8"/>
     <use xlink:href="#m2f3d420877" x="323.354778" y="45.496694" style="fill: #486966; fill-opacity: 0.8; stroke: #486966; stroke-opacity: 0.8"/>
     <use xlink:href="#m2f3d420877" x="329.816083" y="38.632138" style="fill: #486966; fill-opacity: 0.8; stroke: #486966; stroke-opacity: 0.8"/>
     <use xlink:href="#m2f3d420877" x="336.277389" y="33.245163" style="fill: #486966; fill-opacity: 0.8; stroke: #486966; stroke-opacity: 0.8"/>
     <use xlink:href="#m2f3d420877" x="342.738694" y="26.825087" style="fill: #486966; fill-opacity: 0.8; stroke: #486966; stroke-opacity: 0.8"/>
     <use xlink:href="#m2f3d420877" x="349.2" y="19.594545" style="fill: #486966; fill-opacity: 0.8; stroke: #486966; stroke-opacity: 0.8"/>
    </g>
   </g>
   <g id="PolyCollection_1">
    <defs>
     <path id="m9e2beb039a" d="M 58.44125 -58.110058 
L 58.44125 -57.908331 
L 61.378207 -58.449078 
L 64.315164 -59.014315 
L 67.252121 -59.603686 
L 70.189078 -60.218983 
L 73.126035 -60.858505 
L 76.062992 -61.521353 
L 78.999949 -62.207918 
L 81.936907 -62.918934 
L 84.873864 -63.654723 
L 87.810821 -64.415111 
L 90.747778 -65.200418 
L 93.684735 -66.009014 
L 96.621692 -66.841985 
L 99.558649 -67.700095 
L 102.495606 -68.58133 
L 105.432563 -69.487936 
L 108.36952 -70.419302 
L 111.306477 -71.376263 
L 114.243434 -72.357976 
L 117.180391 -73.363964 
L 120.117348 -74.393983 
L 123.054306 -75.448819 
L 125.991263 -76.529089 
L 128.92822 -77.635 
L 131.865177 -78.765225 
L 134.802134 -79.920548 
L 137.739091 -81.101425 
L 140.676048 -82.30752 
L 143.613005 -83.538065 
L 146.549962 -84.794129 
L 149.486919 -86.074422 
L 152.423876 -87.380206 
L 155.360833 -88.711154 
L 158.29779 -90.067595 
L 161.234747 -91.449555 
L 164.171705 -92.856481 
L 167.108662 -94.286718 
L 170.045619 -95.74309 
L 172.982576 -97.223788 
L 175.919533 -98.730967 
L 178.85649 -100.262842 
L 181.793447 -101.819366 
L 184.730404 -103.401256 
L 187.667361 -105.008699 
L 190.604318 -106.640632 
L 193.541275 -108.297909 
L 196.478232 -109.979609 
L 199.415189 -111.686662 
L 202.352146 -113.418773 
L 205.289104 -115.175928 
L 208.226061 -116.9581 
L 211.163018 -118.76563 
L 214.099975 -120.598109 
L 217.036932 -122.456184 
L 219.973889 -124.339186 
L 222.910846 -126.246271 
L 225.847803 -128.178398 
L 228.78476 -130.135546 
L 231.721717 -132.117512 
L 234.658674 -134.125154 
L 237.595631 -136.157964 
L 240.532588 -138.215517 
L 243.469545 -140.296948 
L 246.406503 -142.403264 
L 249.34346 -144.534866 
L 252.280417 -146.689657 
L 255.217374 -148.869494 
L 258.154331 -151.074295 
L 261.091288 -153.302849 
L 264.028245 -155.557419 
L 266.965202 -157.838585 
L 269.902159 -160.142106 
L 272.839116 -162.470243 
L 275.776073 -164.823641 
L 278.71303 -167.201455 
L 281.649987 -169.603504 
L 284.586944 -172.028609 
L 287.523902 -174.480033 
L 290.460859 -176.955656 
L 293.397816 -179.454246 
L 296.334773 -181.979733 
L 299.27173 -184.528403 
L 302.208687 -187.102996 
L 305.145644 -189.700957 
L 308.082601 -192.323974 
L 311.019558 -194.972562 
L 313.956515 -197.64502 
L 316.893472 -200.341437 
L 319.830429 -203.062865 
L 322.767386 -205.80959 
L 325.704343 -208.581266 
L 328.641301 -211.377618 
L 331.578258 -214.198772 
L 334.515215 -217.04474 
L 337.452172 -219.916331 
L 340.389129 -222.814389 
L 343.326086 -225.734145 
L 346.263043 -228.681666 
L 349.2 -231.652317 
L 349.2 -232.200382 
L 349.2 -232.200382 
L 346.263043 -229.21142 
L 343.326086 -226.247546 
L 340.389129 -223.308847 
L 337.452172 -220.395241 
L 334.515215 -217.503713 
L 331.578258 -214.634925 
L 328.641301 -211.794103 
L 325.704343 -208.978766 
L 322.767386 -206.191604 
L 319.830429 -203.427325 
L 316.893472 -200.68645 
L 313.956515 -197.970755 
L 311.019558 -195.281367 
L 308.082601 -192.619466 
L 305.145644 -189.981788 
L 302.208687 -187.371054 
L 299.27173 -184.783828 
L 296.334773 -182.225921 
L 293.397816 -179.69104 
L 290.460859 -177.181377 
L 287.523902 -174.696164 
L 284.586944 -172.237855 
L 281.649987 -169.802703 
L 278.71303 -167.390517 
L 275.776073 -165.005555 
L 272.839116 -162.646761 
L 269.902159 -160.312387 
L 266.965202 -158.00608 
L 264.028245 -155.721846 
L 261.091288 -153.463132 
L 258.154331 -151.229933 
L 255.217374 -149.023002 
L 252.280417 -146.840196 
L 249.34346 -144.682986 
L 246.406503 -142.551497 
L 243.469545 -140.445277 
L 240.532588 -138.364193 
L 237.595631 -136.309009 
L 234.658674 -134.279487 
L 231.721717 -132.274826 
L 228.78476 -130.294067 
L 225.847803 -128.337796 
L 222.910846 -126.406664 
L 219.973889 -124.499789 
L 217.036932 -122.617371 
L 214.099975 -120.761958 
L 211.163018 -118.93146 
L 208.226061 -117.126111 
L 205.289104 -115.345929 
L 202.352146 -113.589478 
L 199.415189 -111.857536 
L 196.478232 -110.151136 
L 193.541275 -108.469784 
L 190.604318 -106.814003 
L 187.667361 -105.182634 
L 184.730404 -103.574603 
L 181.793447 -101.99247 
L 178.85649 -100.435937 
L 175.919533 -98.903925 
L 172.982576 -97.395889 
L 170.045619 -95.913413 
L 167.108662 -94.454949 
L 164.171705 -93.022276 
L 161.234747 -91.614366 
L 158.29779 -90.230551 
L 155.360833 -88.871296 
L 152.423876 -87.536794 
L 149.486919 -86.226379 
L 146.549962 -84.942 
L 143.613005 -83.682413 
L 140.676048 -82.448684 
L 137.739091 -81.238577 
L 134.802134 -80.053203 
L 131.865177 -78.893693 
L 128.92822 -77.760587 
L 125.991263 -76.650555 
L 123.054306 -75.566926 
L 120.117348 -74.507102 
L 117.180391 -73.473027 
L 114.243434 -72.465208 
L 111.306477 -71.48244 
L 108.36952 -70.525016 
L 105.432563 -69.589779 
L 102.495606 -68.681438 
L 99.558649 -67.797561 
L 96.621692 -66.939049 
L 93.684735 -66.107651 
L 90.747778 -65.300915 
L 87.810821 -64.520136 
L 84.873864 -63.76545 
L 81.936907 -63.035972 
L 78.999949 -62.332923 
L 76.062992 -61.653228 
L 73.126035 -60.999797 
L 70.189078 -60.372707 
L 67.252121 -59.770638 
L 64.315164 -59.192298 
L 61.378207 -58.638623 
L 58.44125 -58.110058 
z
" style="stroke: #ffffff; stroke-opacity: 0.15"/>
    </defs>
    <g clip-path="url(#pcf0aa09f1b)">
     <use xlink:href="#m9e2beb039a" x="0" y="252" style="fill: #486966; fill-opacity: 0.15; stroke: #ffffff; stroke-opacity: 0.15"/>
    </g>
   </g>
   <g id="PathCollection_2">
    <defs>
     <path id="m460e30acde" d="M 0 2.738613 
C 0.726289 2.738613 1.422928 2.450055 1.936492 1.936492 
C 2.450055 1.422928 2.738613 0.726289 2.738613 0 
C 2.738613 -0.726289 2.450055 -1.422928 1.936492 -1.936492 
C 1.422928 -2.450055 0.726289 -2.738613 0 -2.738613 
C -0.726289 -2.738613 -1.422928 -2.450055 -1.936492 -1.936492 
C -2.450055 -1.422928 -2.738613 -0.726289 -2.738613 0 
C -2.738613 0.726289 -2.450055 1.422928 -1.936492 1.936492 
C -1.422928 2.450055 -0.726289 2.738613 0 2.738613 
z
" style="stroke: #889c9b; stroke-opacity: 0.8"/>
    </defs>
    <g clip-path="url(#pcf0aa09f1b)">
     <use xlink:href="#m460e30acde" x="58.44125" y="195.485455" style="fill: #889c9b; fill-opacity: 0.8; stroke: #889c9b; stroke-opacity: 0.8"/>
     <use xlink:href="#m460e30acde" x="64.902556" y="194.708441" style="fill: #889c9b; fill-opacity: 0.8; stroke: #889c9b; stroke-opacity: 0.8"/>
     <use xlink:href="#m460e30acde" x="71.363861" y="193.823029" style="fill: #889c9b; fill-opacity: 0.8; stroke: #889c9b; stroke-opacity: 0.8"/>
     <use xlink:href="#m460e30acde" x="77.825167" y="193.083493" style="fill: #889c9b; fill-opacity: 0.8; stroke: #889c9b; stroke-opacity: 0.8"/>
     <use xlink:href="#m460e30acde" x="84.286472" y="192.310514" style="fill: #889c9b; fill-opacity: 0.8; stroke: #889c9b; stroke-opacity: 0.8"/>
     <use xlink:href="#m460e30acde" x="90.747778" y="191.587101" style="fill: #889c9b; fill-opacity: 0.8; stroke: #889c9b; stroke-opacity: 0.8"/>
     <use xlink:href="#m460e30acde" x="97.209083" y="190.833506" style="fill: #889c9b; fill-opacity: 0.8; stroke: #889c9b; stroke-opacity: 0.8"/>
     <use xlink:href="#m460e30acde" x="103.670389" y="190.144457" style="fill: #889c9b; fill-opacity: 0.8; stroke: #889c9b; stroke-opacity: 0.8"/>
     <use xlink:href="#m460e30acde" x="110.131694" y="189.293175" style="fill: #889c9b; fill-opacity: 0.8; stroke: #889c9b; stroke-opacity: 0.8"/>
     <use xlink:href="#m460e30acde" x="116.593" y="188.5286" style="fill: #889c9b; fill-opacity: 0.8; stroke: #889c9b; stroke-opacity: 0.8"/>
     <use xlink:href="#m460e30acde" x="123.054306" y="187.788318" style="fill: #889c9b; fill-opacity: 0.8; stroke: #889c9b; stroke-opacity: 0.8"/>
     <use xlink:href="#m460e30acde" x="129.515611" y="187.106497" style="fill: #889c9b; fill-opacity: 0.8; stroke: #889c9b; stroke-opacity: 0.8"/>
     <use xlink:href="#m460e30acde" x="135.976917" y="186.245008" style="fill: #889c9b; fill-opacity: 0.8; stroke: #889c9b; stroke-opacity: 0.8"/>
     <use xlink:href="#m460e30acde" x="142.438222" y="185.481791" style="fill: #889c9b; fill-opacity: 0.8; stroke: #889c9b; stroke-opacity: 0.8"/>
     <use xlink:href="#m460e30acde" x="148.899528" y="184.734436" style="fill: #889c9b; fill-opacity: 0.8; stroke: #889c9b; stroke-opacity: 0.8"/>
     <use xlink:href="#m460e30acde" x="155.360833" y="183.85761" style="fill: #889c9b; fill-opacity: 0.8; stroke: #889c9b; stroke-opacity: 0.8"/>
     <use xlink:href="#m460e30acde" x="161.822139" y="183.150569" style="fill: #889c9b; fill-opacity: 0.8; stroke: #889c9b; stroke-opacity: 0.8"/>
     <use xlink:href="#m460e30acde" x="168.283444" y="182.255106" style="fill: #889c9b; fill-opacity: 0.8; stroke: #889c9b; stroke-opacity: 0.8"/>
     <use xlink:href="#m460e30acde" x="174.74475" y="181.665379" style="fill: #889c9b; fill-opacity: 0.8; stroke: #889c9b; stroke-opacity: 0.8"/>
     <use xlink:href="#m460e30acde" x="181.206056" y="180.903722" style="fill: #889c9b; fill-opacity: 0.8; stroke: #889c9b; stroke-opacity: 0.8"/>
     <use xlink:href="#m460e30acde" x="187.667361" y="180.173484" style="fill: #889c9b; fill-opacity: 0.8; stroke: #889c9b; stroke-opacity: 0.8"/>
     <use xlink:href="#m460e30acde" x="194.128667" y="179.40897" style="fill: #889c9b; fill-opacity: 0.8; stroke: #889c9b; stroke-opacity: 0.8"/>
     <use xlink:href="#m460e30acde" x="200.589972" y="178.669091" style="fill: #889c9b; fill-opacity: 0.8; stroke: #889c9b; stroke-opacity: 0.8"/>
     <use xlink:href="#m460e30acde" x="207.051278" y="177.709894" style="fill: #889c9b; fill-opacity: 0.8; stroke: #889c9b; stroke-opacity: 0.8"/>
     <use xlink:href="#m460e30acde" x="213.512583" y="177.022951" style="fill: #889c9b; fill-opacity: 0.8; stroke: #889c9b; stroke-opacity: 0.8"/>
     <use xlink:href="#m460e30acde" x="219.973889" y="176.139784" style="fill: #889c9b; fill-opacity: 0.8; stroke: #889c9b; stroke-opacity: 0.8"/>
     <use xlink:href="#m460e30acde" x="226.435194" y="175.495542" style="fill: #889c9b; fill-opacity: 0.8; stroke: #889c9b; stroke-opacity: 0.8"/>
     <use xlink:href="#m460e30acde" x="232.8965" y="174.858777" style="fill: #889c9b; fill-opacity: 0.8; stroke: #889c9b; stroke-opacity: 0.8"/>
     <use xlink:href="#m460e30acde" x="239.357806" y="173.766526" style="fill: #889c9b; fill-opacity: 0.8; stroke: #889c9b; stroke-opacity: 0.8"/>
     <use xlink:href="#m460e30acde" x="245.819111" y="173.150261" style="fill: #889c9b; fill-opacity: 0.8; stroke: #889c9b; stroke-opacity: 0.8"/>
     <use xlink:href="#m460e30acde" x="252.280417" y="172.395046" style="fill: #889c9b; fill-opacity: 0.8; stroke: #889c9b; stroke-opacity: 0.8"/>
     <use xlink:href="#m460e30acde" x="258.741722" y="171.495958" style="fill: #889c9b; fill-opacity: 0.8; stroke: #889c9b; stroke-opacity: 0.8"/>
     <use xlink:href="#m460e30acde" x="265.203028" y="170.723987" style="fill: #889c9b; fill-opacity: 0.8; stroke: #889c9b; stroke-opacity: 0.8"/>
     <use xlink:href="#m460e30acde" x="271.664333" y="170.131039" style="fill: #889c9b; fill-opacity: 0.8; stroke: #889c9b; stroke-opacity: 0.8"/>
     <use xlink:href="#m460e30acde" x="278.125639" y="169.257112" style="fill: #889c9b; fill-opacity: 0.8; stroke: #889c9b; stroke-opacity: 0.8"/>
     <use xlink:href="#m460e30acde" x="284.586944" y="168.556613" style="fill: #889c9b; fill-opacity: 0.8; stroke: #889c9b; stroke-opacity: 0.8"/>
     <use xlink:href="#m460e30acde" x="291.04825" y="167.559394" style="fill: #889c9b; fill-opacity: 0.8; stroke: #889c9b; stroke-opacity: 0.8"/>
     <use xlink:href="#m460e30acde" x="297.509556" y="166.797818" style="fill: #889c9b; fill-opacity: 0.8; stroke: #889c9b; stroke-opacity: 0.8"/>
     <use xlink:href="#m460e30acde" x="303.970861" y="166.181533" style="fill: #889c9b; fill-opacity: 0.8; stroke: #889c9b; stroke-opacity: 0.8"/>
     <use xlink:href="#m460e30acde" x="310.432167" y="165.393842" style="fill: #889c9b; fill-opacity: 0.8; stroke: #889c9b; stroke-opacity: 0.8"/>
     <use xlink:href="#m460e30acde" x="316.893472" y="164.636865" style="fill: #889c9b; fill-opacity: 0.8; stroke: #889c9b; stroke-opacity: 0.8"/>
     <use xlink:href="#m460e30acde" x="323.354778" y="163.769439" style="fill: #889c9b; fill-opacity: 0.8; stroke: #889c9b; stroke-opacity: 0.8"/>
     <use xlink:href="#m460e30acde" x="329.816083" y="163.096836" style="fill: #889c9b; fill-opacity: 0.8; stroke: #889c9b; stroke-opacity: 0.8"/>
     <use xlink:href="#m460e30acde" x="336.277389" y="162.377276" style="fill: #889c9b; fill-opacity: 0.8; stroke: #889c9b; stroke-opacity: 0.8"/>
     <use xlink:href="#m460e30acde" x="342.738694" y="161.456733" style="fill: #889c9b; fill-opacity: 0.8; stroke: #889c9b; stroke-opacity: 0.8"/>
     <use xlink:href="#m460e30acde" x="349.2" y="160.746855" style="fill: #889c9b; fill-opacity: 0.8; stroke: #889c9b; stroke-opacity: 0.8"/>
    </g>
   </g>
   <g id="PolyCollection_2">
    <defs>
     <path id="md621484b88" d="M 58.44125 -56.623172 
L 58.44125 -56.5226 
L 61.378207 -56.871522 
L 64.315164 -57.221316 
L 67.252121 -57.570073 
L 70.189078 -57.920128 
L 73.126035 -58.269681 
L 76.062992 -58.619286 
L 78.999949 -58.969005 
L 81.936907 -59.317994 
L 84.873864 -59.667234 
L 87.810821 -60.016843 
L 90.747778 -60.36511 
L 93.684735 -60.71426 
L 96.621692 -61.062905 
L 99.558649 -61.411442 
L 102.495606 -61.759871 
L 105.432563 -62.108065 
L 108.36952 -62.456324 
L 111.306477 -62.804667 
L 114.243434 -63.152872 
L 117.180391 -63.501249 
L 120.117348 -63.850085 
L 123.054306 -64.199031 
L 125.991263 -64.54739 
L 128.92822 -64.89589 
L 131.865177 -65.244285 
L 134.802134 -65.593352 
L 137.739091 -65.942441 
L 140.676048 -66.291082 
L 143.613005 -66.639226 
L 146.549962 -66.987834 
L 149.486919 -67.336969 
L 152.423876 -67.686363 
L 155.360833 -68.035361 
L 158.29779 -68.384452 
L 161.234747 -68.732966 
L 164.171705 -69.081764 
L 167.108662 -69.430563 
L 170.045619 -69.779484 
L 172.982576 -70.128535 
L 175.919533 -70.478172 
L 178.85649 -70.827996 
L 181.793447 -71.177785 
L 184.730404 -71.527371 
L 187.667361 -71.877318 
L 190.604318 -72.227283 
L 193.541275 -72.577362 
L 196.478232 -72.927563 
L 199.415189 -73.277679 
L 202.352146 -73.628344 
L 205.289104 -73.978963 
L 208.226061 -74.329715 
L 211.163018 -74.680342 
L 214.099975 -75.031116 
L 217.036932 -75.382297 
L 219.973889 -75.733437 
L 222.910846 -76.084371 
L 225.847803 -76.435513 
L 228.78476 -76.787058 
L 231.721717 -77.13851 
L 234.658674 -77.489963 
L 237.595631 -77.841529 
L 240.532588 -78.193215 
L 243.469545 -78.545161 
L 246.406503 -78.897425 
L 249.34346 -79.24891 
L 252.280417 -79.601008 
L 255.217374 -79.953226 
L 258.154331 -80.305141 
L 261.091288 -80.657708 
L 264.028245 -81.00998 
L 266.965202 -81.362317 
L 269.902159 -81.715023 
L 272.839116 -82.067739 
L 275.776073 -82.4205 
L 278.71303 -82.772906 
L 281.649987 -83.125905 
L 284.586944 -83.478411 
L 287.523902 -83.831625 
L 290.460859 -84.184088 
L 293.397816 -84.536812 
L 296.334773 -84.888813 
L 299.27173 -85.241664 
L 302.208687 -85.594548 
L 305.145644 -85.947375 
L 308.082601 -86.299974 
L 311.019558 -86.652578 
L 313.956515 -87.005186 
L 316.893472 -87.357829 
L 319.830429 -87.710018 
L 322.767386 -88.062933 
L 325.704343 -88.41539 
L 328.641301 -88.768028 
L 331.578258 -89.120494 
L 334.515215 -89.473483 
L 337.452172 -89.82634 
L 340.389129 -90.179331 
L 343.326086 -90.531526 
L 346.263043 -90.88389 
L 349.2 -91.237063 
L 349.2 -91.353339 
L 349.2 -91.353339 
L 346.263043 -90.997426 
L 343.326086 -90.640421 
L 340.389129 -90.283727 
L 337.452172 -89.927422 
L 334.515215 -89.570865 
L 331.578258 -89.215191 
L 328.641301 -88.859877 
L 325.704343 -88.503982 
L 322.767386 -88.148406 
L 319.830429 -87.793715 
L 316.893472 -87.439122 
L 313.956515 -87.084645 
L 311.019558 -86.730108 
L 308.082601 -86.375385 
L 305.145644 -86.021816 
L 302.208687 -85.668325 
L 299.27173 -85.314187 
L 296.334773 -84.960769 
L 293.397816 -84.608014 
L 290.460859 -84.254352 
L 287.523902 -83.901363 
L 284.586944 -83.547238 
L 281.649987 -83.1938 
L 278.71303 -82.840977 
L 275.776073 -82.489294 
L 272.839116 -82.136519 
L 269.902159 -81.783541 
L 266.965202 -81.430439 
L 264.028245 -81.078351 
L 261.091288 -80.726729 
L 258.154331 -80.375461 
L 255.217374 -80.023849 
L 252.280417 -79.671514 
L 249.34346 -79.320398 
L 246.406503 -78.968269 
L 243.469545 -78.61684 
L 240.532588 -78.265372 
L 237.595631 -77.91422 
L 234.658674 -77.563338 
L 231.721717 -77.211991 
L 228.78476 -76.860396 
L 225.847803 -76.508684 
L 222.910846 -76.157277 
L 219.973889 -75.806303 
L 217.036932 -75.455492 
L 214.099975 -75.104696 
L 211.163018 -74.753924 
L 208.226061 -74.402848 
L 205.289104 -74.051943 
L 202.352146 -73.701368 
L 199.415189 -73.350835 
L 196.478232 -72.999795 
L 193.541275 -72.64919 
L 190.604318 -72.298198 
L 187.667361 -71.947548 
L 184.730404 -71.596874 
L 181.793447 -71.246383 
L 178.85649 -70.895599 
L 175.919533 -70.545151 
L 172.982576 -70.194601 
L 170.045619 -69.844383 
L 167.108662 -69.49444 
L 164.171705 -69.144192 
L 161.234747 -68.793952 
L 158.29779 -68.443812 
L 155.360833 -68.093761 
L 152.423876 -67.743728 
L 149.486919 -67.393465 
L 146.549962 -67.04356 
L 143.613005 -66.693825 
L 140.676048 -66.34444 
L 137.739091 -65.99509 
L 134.802134 -65.645439 
L 131.865177 -65.296114 
L 128.92822 -64.946755 
L 125.991263 -64.59748 
L 123.054306 -64.24798 
L 120.117348 -63.898932 
L 117.180391 -63.550095 
L 114.243434 -63.201033 
L 111.306477 -62.853015 
L 108.36952 -62.50528 
L 105.432563 -62.157519 
L 102.495606 -61.809351 
L 99.558649 -61.461834 
L 96.621692 -61.114832 
L 93.684735 -60.768436 
L 90.747778 -60.423137 
L 87.810821 -60.07651 
L 84.873864 -59.730141 
L 81.936907 -59.384756 
L 78.999949 -59.038755 
L 76.062992 -58.693016 
L 73.126035 -58.348423 
L 70.189078 -58.002467 
L 67.252121 -57.657503 
L 64.315164 -57.312666 
L 61.378207 -56.967691 
L 58.44125 -56.623172 
z
" style="stroke: #ffffff; stroke-opacity: 0.15"/>
    </defs>
    <g clip-path="url(#pcf0aa09f1b)">
     <use xlink:href="#md621484b88" x="0" y="252" style="fill: #889c9b; fill-opacity: 0.15; stroke: #ffffff; stroke-opacity: 0.15"/>
    </g>
   </g>
   <g id="PathCollection_3">
    <defs>
     <path id="ma7daf8a1fb" d="M 0 2.738613 
C 0.726289 2.738613 1.422928 2.450055 1.936492 1.936492 
C 2.450055 1.422928 2.738613 0.726289 2.738613 0 
C 2.738613 -0.726289 2.450055 -1.422928 1.936492 -1.936492 
C 1.422928 -2.450055 0.726289 -2.738613 0 -2.738613 
C -0.726289 -2.738613 -1.422928 -2.450055 -1.936492 -1.936492 
C -2.450055 -1.422928 -2.738613 -0.726289 -2.738613 0 
C -2.738613 0.726289 -2.450055 1.422928 -1.936492 1.936492 
C -1.422928 2.450055 -0.726289 2.738613 0 2.738613 
z
" style="stroke: #bd2a2e; stroke-opacity: 0.8"/>
    </defs>
    <g clip-path="url(#pcf0aa09f1b)">
     <use xlink:href="#ma7daf8a1fb" x="58.44125" y="190.586947" style="fill: #bd2a2e; fill-opacity: 0.8; stroke: #bd2a2e; stroke-opacity: 0.8"/>
     <use xlink:href="#ma7daf8a1fb" x="64.902556" y="189.402867" style="fill: #bd2a2e; fill-opacity: 0.8; stroke: #bd2a2e; stroke-opacity: 0.8"/>
     <use xlink:href="#ma7daf8a1fb" x="71.363861" y="188.206112" style="fill: #bd2a2e; fill-opacity: 0.8; stroke: #bd2a2e; stroke-opacity: 0.8"/>
     <use xlink:href="#ma7daf8a1fb" x="77.825167" y="187.280595" style="fill: #bd2a2e; fill-opacity: 0.8; stroke: #bd2a2e; stroke-opacity: 0.8"/>
     <use xlink:href="#ma7daf8a1fb" x="84.286472" y="186.159662" style="fill: #bd2a2e; fill-opacity: 0.8; stroke: #bd2a2e; stroke-opacity: 0.8"/>
     <use xlink:href="#ma7daf8a1fb" x="90.747778" y="185.107746" style="fill: #bd2a2e; fill-opacity: 0.8; stroke: #bd2a2e; stroke-opacity: 0.8"/>
     <use xlink:href="#ma7daf8a1fb" x="97.209083" y="182.731763" style="fill: #bd2a2e; fill-opacity: 0.8; stroke: #bd2a2e; stroke-opacity: 0.8"/>
     <use xlink:href="#ma7daf8a1fb" x="103.670389" y="181.572546" style="fill: #bd2a2e; fill-opacity: 0.8; stroke: #bd2a2e; stroke-opacity: 0.8"/>
     <use xlink:href="#ma7daf8a1fb" x="110.131694" y="180.605312" style="fill: #bd2a2e; fill-opacity: 0.8; stroke: #bd2a2e; stroke-opacity: 0.8"/>
     <use xlink:href="#ma7daf8a1fb" x="116.593" y="179.462841" style="fill: #bd2a2e; fill-opacity: 0.8; stroke: #bd2a2e; stroke-opacity: 0.8"/>
     <use xlink:href="#ma7daf8a1fb" x="123.054306" y="178.367523" style="fill: #bd2a2e; fill-opacity: 0.8; stroke: #bd2a2e; stroke-opacity: 0.8"/>
     <use xlink:href="#ma7daf8a1fb" x="129.515611" y="177.263853" style="fill: #bd2a2e; fill-opacity: 0.8; stroke: #bd2a2e; stroke-opacity: 0.8"/>
     <use xlink:href="#ma7daf8a1fb" x="135.976917" y="176.044183" style="fill: #bd2a2e; fill-opacity: 0.8; stroke: #bd2a2e; stroke-opacity: 0.8"/>
     <use xlink:href="#ma7daf8a1fb" x="142.438222" y="174.98311" style="fill: #bd2a2e; fill-opacity: 0.8; stroke: #bd2a2e; stroke-opacity: 0.8"/>
     <use xlink:href="#ma7daf8a1fb" x="148.899528" y="173.973505" style="fill: #bd2a2e; fill-opacity: 0.8; stroke: #bd2a2e; stroke-opacity: 0.8"/>
     <use xlink:href="#ma7daf8a1fb" x="155.360833" y="172.717483" style="fill: #bd2a2e; fill-opacity: 0.8; stroke: #bd2a2e; stroke-opacity: 0.8"/>
     <use xlink:href="#ma7daf8a1fb" x="161.822139" y="170.582921" style="fill: #bd2a2e; fill-opacity: 0.8; stroke: #bd2a2e; stroke-opacity: 0.8"/>
     <use xlink:href="#ma7daf8a1fb" x="168.283444" y="169.487539" style="fill: #bd2a2e; fill-opacity: 0.8; stroke: #bd2a2e; stroke-opacity: 0.8"/>
     <use xlink:href="#ma7daf8a1fb" x="174.74475" y="168.439476" style="fill: #bd2a2e; fill-opacity: 0.8; stroke: #bd2a2e; stroke-opacity: 0.8"/>
     <use xlink:href="#ma7daf8a1fb" x="181.206056" y="167.399404" style="fill: #bd2a2e; fill-opacity: 0.8; stroke: #bd2a2e; stroke-opacity: 0.8"/>
     <use xlink:href="#ma7daf8a1fb" x="187.667361" y="166.240274" style="fill: #bd2a2e; fill-opacity: 0.8; stroke: #bd2a2e; stroke-opacity: 0.8"/>
     <use xlink:href="#ma7daf8a1fb" x="194.128667" y="165.268804" style="fill: #bd2a2e; fill-opacity: 0.8; stroke: #bd2a2e; stroke-opacity: 0.8"/>
     <use xlink:href="#ma7daf8a1fb" x="200.589972" y="163.685615" style="fill: #bd2a2e; fill-opacity: 0.8; stroke: #bd2a2e; stroke-opacity: 0.8"/>
     <use xlink:href="#ma7daf8a1fb" x="207.051278" y="162.757191" style="fill: #bd2a2e; fill-opacity: 0.8; stroke: #bd2a2e; stroke-opacity: 0.8"/>
     <use xlink:href="#ma7daf8a1fb" x="213.512583" y="161.858372" style="fill: #bd2a2e; fill-opacity: 0.8; stroke: #bd2a2e; stroke-opacity: 0.8"/>
     <use xlink:href="#ma7daf8a1fb" x="219.973889" y="160.657831" style="fill: #bd2a2e; fill-opacity: 0.8; stroke: #bd2a2e; stroke-opacity: 0.8"/>
     <use xlink:href="#ma7daf8a1fb" x="226.435194" y="158.549186" style="fill: #bd2a2e; fill-opacity: 0.8; stroke: #bd2a2e; stroke-opacity: 0.8"/>
     <use xlink:href="#ma7daf8a1fb" x="232.8965" y="157.415505" style="fill: #bd2a2e; fill-opacity: 0.8; stroke: #bd2a2e; stroke-opacity: 0.8"/>
     <use xlink:href="#ma7daf8a1fb" x="239.357806" y="156.315697" style="fill: #bd2a2e; fill-opacity: 0.8; stroke: #bd2a2e; stroke-opacity: 0.8"/>
     <use xlink:href="#ma7daf8a1fb" x="245.819111" y="155.344529" style="fill: #bd2a2e; fill-opacity: 0.8; stroke: #bd2a2e; stroke-opacity: 0.8"/>
     <use xlink:href="#ma7daf8a1fb" x="252.280417" y="154.223523" style="fill: #bd2a2e; fill-opacity: 0.8; stroke: #bd2a2e; stroke-opacity: 0.8"/>
     <use xlink:href="#ma7daf8a1fb" x="258.741722" y="152.892917" style="fill: #bd2a2e; fill-opacity: 0.8; stroke: #bd2a2e; stroke-opacity: 0.8"/>
     <use xlink:href="#ma7daf8a1fb" x="265.203028" y="151.83163" style="fill: #bd2a2e; fill-opacity: 0.8; stroke: #bd2a2e; stroke-opacity: 0.8"/>
     <use xlink:href="#ma7daf8a1fb" x="271.664333" y="150.66402" style="fill: #bd2a2e; fill-opacity: 0.8; stroke: #bd2a2e; stroke-opacity: 0.8"/>
     <use xlink:href="#ma7daf8a1fb" x="278.125639" y="149.807842" style="fill: #bd2a2e; fill-opacity: 0.8; stroke: #bd2a2e; stroke-opacity: 0.8"/>
     <use xlink:href="#ma7daf8a1fb" x="284.586944" y="148.641435" style="fill: #bd2a2e; fill-opacity: 0.8; stroke: #bd2a2e; stroke-opacity: 0.8"/>
     <use xlink:href="#ma7daf8a1fb" x="291.04825" y="145.878784" style="fill: #bd2a2e; fill-opacity: 0.8; stroke: #bd2a2e; stroke-opacity: 0.8"/>
     <use xlink:href="#ma7daf8a1fb" x="297.509556" y="144.96301" style="fill: #bd2a2e; fill-opacity: 0.8; stroke: #bd2a2e; stroke-opacity: 0.8"/>
     <use xlink:href="#ma7daf8a1fb" x="303.970861" y="144.132611" style="fill: #bd2a2e; fill-opacity: 0.8; stroke: #bd2a2e; stroke-opacity: 0.8"/>
     <use xlink:href="#ma7daf8a1fb" x="310.432167" y="143.131141" style="fill: #bd2a2e; fill-opacity: 0.8; stroke: #bd2a2e; stroke-opacity: 0.8"/>
     <use xlink:href="#ma7daf8a1fb" x="316.893472" y="141.873225" style="fill: #bd2a2e; fill-opacity: 0.8; stroke: #bd2a2e; stroke-opacity: 0.8"/>
     <use xlink:href="#ma7daf8a1fb" x="323.354778" y="140.868256" style="fill: #bd2a2e; fill-opacity: 0.8; stroke: #bd2a2e; stroke-opacity: 0.8"/>
     <use xlink:href="#ma7daf8a1fb" x="329.816083" y="139.807089" style="fill: #bd2a2e; fill-opacity: 0.8; stroke: #bd2a2e; stroke-opacity: 0.8"/>
     <use xlink:href="#ma7daf8a1fb" x="336.277389" y="138.801114" style="fill: #bd2a2e; fill-opacity: 0.8; stroke: #bd2a2e; stroke-opacity: 0.8"/>
     <use xlink:href="#ma7daf8a1fb" x="342.738694" y="137.774004" style="fill: #bd2a2e; fill-opacity: 0.8; stroke: #bd2a2e; stroke-opacity: 0.8"/>
     <use xlink:href="#ma7daf8a1fb" x="349.2" y="136.509482" style="fill: #bd2a2e; fill-opacity: 0.8; stroke: #bd2a2e; stroke-opacity: 0.8"/>
    </g>
   </g>
   <g id="PolyCollection_3">
    <defs>
     <path id="m94939a6091" d="M 58.44125 -61.54115 
L 58.44125 -61.00263 
L 61.378207 -61.57523 
L 64.315164 -62.148186 
L 67.252121 -62.717325 
L 70.189078 -63.287297 
L 73.126035 -63.856755 
L 76.062992 -64.426814 
L 78.999949 -64.993136 
L 81.936907 -65.561528 
L 84.873864 -66.133018 
L 87.810821 -66.699992 
L 90.747778 -67.267475 
L 93.684735 -67.833003 
L 96.621692 -68.394346 
L 99.558649 -68.961927 
L 102.495606 -69.524273 
L 105.432563 -70.090369 
L 108.36952 -70.65308 
L 111.306477 -71.210822 
L 114.243434 -71.772197 
L 117.180391 -72.3333 
L 120.117348 -72.89653 
L 123.054306 -73.456931 
L 125.991263 -74.016482 
L 128.92822 -74.571425 
L 131.865177 -75.126509 
L 134.802134 -75.681544 
L 137.739091 -76.238843 
L 140.676048 -76.791285 
L 143.613005 -77.346898 
L 146.549962 -77.904056 
L 149.486919 -78.46092 
L 152.423876 -79.017644 
L 155.360833 -79.571857 
L 158.29779 -80.125515 
L 161.234747 -80.676672 
L 164.171705 -81.230141 
L 167.108662 -81.781646 
L 170.045619 -82.334311 
L 172.982576 -82.886779 
L 175.919533 -83.439387 
L 178.85649 -83.992033 
L 181.793447 -84.543953 
L 184.730404 -85.09505 
L 187.667361 -85.645755 
L 190.604318 -86.197725 
L 193.541275 -86.751975 
L 196.478232 -87.305477 
L 199.415189 -87.858906 
L 202.352146 -88.411933 
L 205.289104 -88.963596 
L 208.226061 -89.515046 
L 211.163018 -90.070235 
L 214.099975 -90.622323 
L 217.036932 -91.17324 
L 219.973889 -91.722539 
L 222.910846 -92.27058 
L 225.847803 -92.819397 
L 228.78476 -93.372538 
L 231.721717 -93.924286 
L 234.658674 -94.472657 
L 237.595631 -95.020599 
L 240.532588 -95.566351 
L 243.469545 -96.11676 
L 246.406503 -96.663191 
L 249.34346 -97.208973 
L 252.280417 -97.753537 
L 255.217374 -98.29972 
L 258.154331 -98.844733 
L 261.091288 -99.389901 
L 264.028245 -99.936497 
L 266.965202 -100.481474 
L 269.902159 -101.029416 
L 272.839116 -101.573089 
L 275.776073 -102.115252 
L 278.71303 -102.660991 
L 281.649987 -103.20418 
L 284.586944 -103.742772 
L 287.523902 -104.283936 
L 290.460859 -104.827154 
L 293.397816 -105.366411 
L 296.334773 -105.907072 
L 299.27173 -106.44684 
L 302.208687 -106.986903 
L 305.145644 -107.527069 
L 308.082601 -108.064394 
L 311.019558 -108.604179 
L 313.956515 -109.143631 
L 316.893472 -109.681981 
L 319.830429 -110.220017 
L 322.767386 -110.757715 
L 325.704343 -111.290445 
L 328.641301 -111.827519 
L 331.578258 -112.364574 
L 334.515215 -112.898737 
L 337.452172 -113.430224 
L 340.389129 -113.964724 
L 343.326086 -114.493176 
L 346.263043 -115.022785 
L 349.2 -115.553967 
L 349.2 -116.230672 
L 349.2 -116.230672 
L 346.263043 -115.674656 
L 343.326086 -115.120558 
L 340.389129 -114.566712 
L 337.452172 -114.010831 
L 334.515215 -113.453996 
L 331.578258 -112.896615 
L 328.641301 -112.339316 
L 325.704343 -111.787915 
L 322.767386 -111.231958 
L 319.830429 -110.679887 
L 316.893472 -110.127049 
L 313.956515 -109.577984 
L 311.019558 -109.029741 
L 308.082601 -108.483033 
L 305.145644 -107.930303 
L 302.208687 -107.38079 
L 299.27173 -106.828577 
L 296.334773 -106.278452 
L 293.397816 -105.731682 
L 290.460859 -105.181424 
L 287.523902 -104.631238 
L 284.586944 -104.073891 
L 281.649987 -103.523331 
L 278.71303 -102.976288 
L 275.776073 -102.420769 
L 272.839116 -101.870606 
L 269.902159 -101.323486 
L 266.965202 -100.776193 
L 264.028245 -100.226912 
L 261.091288 -99.679177 
L 258.154331 -99.128339 
L 255.217374 -98.581091 
L 252.280417 -98.031739 
L 249.34346 -97.481389 
L 246.406503 -96.933262 
L 243.469545 -96.385529 
L 240.532588 -95.83838 
L 237.595631 -95.290111 
L 234.658674 -94.745047 
L 231.721717 -94.198007 
L 228.78476 -93.649716 
L 225.847803 -93.0989 
L 222.910846 -92.548461 
L 219.973889 -91.999331 
L 217.036932 -91.446793 
L 214.099975 -90.896146 
L 211.163018 -90.343698 
L 208.226061 -89.793272 
L 205.289104 -89.242296 
L 202.352146 -88.69271 
L 199.415189 -88.14117 
L 196.478232 -87.588579 
L 193.541275 -87.036582 
L 190.604318 -86.482954 
L 187.667361 -85.929814 
L 184.730404 -85.376998 
L 181.793447 -84.824672 
L 178.85649 -84.272968 
L 175.919533 -83.718239 
L 172.982576 -83.164195 
L 170.045619 -82.609579 
L 167.108662 -82.056558 
L 164.171705 -81.499784 
L 161.234747 -80.94431 
L 158.29779 -80.388256 
L 155.360833 -79.832558 
L 152.423876 -79.276012 
L 149.486919 -78.7196 
L 146.549962 -78.165933 
L 143.613005 -77.607678 
L 140.676048 -77.050053 
L 137.739091 -76.493365 
L 134.802134 -75.937765 
L 131.865177 -75.383192 
L 128.92822 -74.828622 
L 125.991263 -74.276908 
L 123.054306 -73.72223 
L 120.117348 -73.168265 
L 117.180391 -72.611003 
L 114.243434 -72.054866 
L 111.306477 -71.500997 
L 108.36952 -70.943608 
L 105.432563 -70.388011 
L 102.495606 -69.833609 
L 99.558649 -69.278879 
L 96.621692 -68.724268 
L 93.684735 -68.169407 
L 90.747778 -67.614414 
L 87.810821 -67.060716 
L 84.873864 -66.504332 
L 81.936907 -65.95055 
L 78.999949 -65.401201 
L 76.062992 -64.850826 
L 73.126035 -64.300608 
L 70.189078 -63.750793 
L 67.252121 -63.197303 
L 64.315164 -62.643145 
L 61.378207 -62.088819 
L 58.44125 -61.54115 
z
" style="stroke: #ffffff; stroke-opacity: 0.15"/>
    </defs>
    <g clip-path="url(#pcf0aa09f1b)">
     <use xlink:href="#m94939a6091" x="0" y="252" style="fill: #bd2a2e; fill-opacity: 0.15; stroke: #ffffff; stroke-opacity: 0.15"/>
    </g>
   </g>
   <g id="line2d_11">
    <path d="M 58.44125 194.002267 
L 61.378207 193.468697 
L 64.315164 192.910162 
L 67.252121 192.326662 
L 70.189078 191.718197 
L 73.126035 191.084767 
L 76.062992 190.426372 
L 78.999949 189.743011 
L 81.936907 189.034685 
L 84.873864 188.301394 
L 87.810821 187.543138 
L 90.747778 186.759917 
L 93.684735 185.951731 
L 96.621692 185.11858 
L 99.558649 184.260463 
L 102.495606 183.377382 
L 105.432563 182.469335 
L 108.36952 181.536323 
L 111.306477 180.578346 
L 114.243434 179.595404 
L 117.180391 178.587497 
L 120.117348 177.554624 
L 123.054306 176.496787 
L 125.991263 175.413984 
L 128.92822 174.306216 
L 131.865177 173.173483 
L 134.802134 172.015785 
L 137.739091 170.833122 
L 140.676048 169.625494 
L 143.613005 168.3929 
L 146.549962 167.135342 
L 149.486919 165.852818 
L 152.423876 164.545329 
L 155.360833 163.212875 
L 158.29779 161.855456 
L 161.234747 160.473072 
L 164.171705 159.065722 
L 167.108662 157.633408 
L 170.045619 156.176128 
L 172.982576 154.693884 
L 175.919533 153.186674 
L 178.85649 151.654499 
L 181.793447 150.097358 
L 184.730404 148.515253 
L 187.667361 146.908183 
L 190.604318 145.276147 
L 193.541275 143.619146 
L 196.478232 141.937181 
L 199.415189 140.23025 
L 202.352146 138.498354 
L 205.289104 136.741492 
L 208.226061 134.959666 
L 211.163018 133.152875 
L 214.099975 131.321118 
L 217.036932 129.464396 
L 219.973889 127.582709 
L 222.910846 125.676057 
L 225.847803 123.74444 
L 228.78476 121.787858 
L 231.721717 119.806311 
L 234.658674 117.799798 
L 237.595631 115.768321 
L 240.532588 113.711878 
L 243.469545 111.63047 
L 246.406503 109.524097 
L 249.34346 107.392759 
L 252.280417 105.236455 
L 255.217374 103.055187 
L 258.154331 100.848953 
L 261.091288 98.617755 
L 264.028245 96.361591 
L 266.965202 94.080462 
L 269.902159 91.774368 
L 272.839116 89.443309 
L 275.776073 87.087284 
L 278.71303 84.706295 
L 281.649987 82.30034 
L 284.586944 79.86942 
L 287.523902 77.413535 
L 290.460859 74.932685 
L 293.397816 72.42687 
L 296.334773 69.89609 
L 299.27173 67.340345 
L 302.208687 64.759634 
L 305.145644 62.153958 
L 308.082601 59.523318 
L 311.019558 56.867712 
L 313.956515 54.187141 
L 316.893472 51.481604 
L 319.830429 48.751103 
L 322.767386 45.995637 
L 325.704343 43.215205 
L 328.641301 40.409808 
L 331.578258 37.579447 
L 334.515215 34.72412 
L 337.452172 31.843827 
L 340.389129 28.93857 
L 343.326086 26.008348 
L 346.263043 23.05316 
L 349.2 20.073008 
" clip-path="url(#pcf0aa09f1b)" style="fill: none; stroke: #486966; stroke-width: 2; stroke-linecap: round"/>
   </g>
   <g id="line2d_12">
    <path d="M 58.44125 195.428364 
L 61.378207 195.081359 
L 64.315164 194.734278 
L 67.252121 194.387122 
L 70.189078 194.039891 
L 73.126035 193.692585 
L 76.062992 193.345204 
L 78.999949 192.997748 
L 81.936907 192.650217 
L 84.873864 192.302611 
L 87.810821 191.95493 
L 90.747778 191.607174 
L 93.684735 191.259343 
L 96.621692 190.911437 
L 99.558649 190.563456 
L 102.495606 190.2154 
L 105.432563 189.867268 
L 108.36952 189.519062 
L 111.306477 189.170781 
L 114.243434 188.822425 
L 117.180391 188.473994 
L 120.117348 188.125487 
L 123.054306 187.776906 
L 125.991263 187.428249 
L 128.92822 187.079518 
L 131.865177 186.730712 
L 134.802134 186.38183 
L 137.739091 186.032874 
L 140.676048 185.683842 
L 143.613005 185.334736 
L 146.549962 184.985554 
L 149.486919 184.636298 
L 152.423876 184.286966 
L 155.360833 183.937559 
L 158.29779 183.588078 
L 161.234747 183.238521 
L 164.171705 182.888889 
L 167.108662 182.539183 
L 170.045619 182.189401 
L 172.982576 181.839544 
L 175.919533 181.489612 
L 178.85649 181.139606 
L 181.793447 180.789524 
L 184.730404 180.439367 
L 187.667361 180.089135 
L 190.604318 179.738828 
L 193.541275 179.388446 
L 196.478232 179.037989 
L 199.415189 178.687457 
L 202.352146 178.33685 
L 205.289104 177.986168 
L 208.226061 177.635411 
L 211.163018 177.284579 
L 214.099975 176.933672 
L 217.036932 176.58269 
L 219.973889 176.231632 
L 222.910846 175.8805 
L 225.847803 175.529293 
L 228.78476 175.178011 
L 231.721717 174.826653 
L 234.658674 174.475221 
L 237.595631 174.123714 
L 240.532588 173.772131 
L 243.469545 173.420474 
L 246.406503 173.068742 
L 249.34346 172.716934 
L 252.280417 172.365052 
L 255.217374 172.013094 
L 258.154331 171.661062 
L 261.091288 171.308954 
L 264.028245 170.956772 
L 266.965202 170.604514 
L 269.902159 170.252181 
L 272.839116 169.899774 
L 275.776073 169.547291 
L 278.71303 169.194733 
L 281.649987 168.842101 
L 284.586944 168.489393 
L 287.523902 168.13661 
L 290.460859 167.783752 
L 293.397816 167.430819 
L 296.334773 167.077812 
L 299.27173 166.724729 
L 302.208687 166.371571 
L 305.145644 166.018338 
L 308.082601 165.66503 
L 311.019558 165.311647 
L 313.956515 164.958189 
L 316.893472 164.604656 
L 319.830429 164.251048 
L 322.767386 163.897365 
L 325.704343 163.543607 
L 328.641301 163.189774 
L 331.578258 162.835865 
L 334.515215 162.481882 
L 337.452172 162.127824 
L 340.389129 161.773691 
L 343.326086 161.419483 
L 346.263043 161.065199 
L 349.2 160.710841 
" clip-path="url(#pcf0aa09f1b)" style="fill: none; stroke: #889c9b; stroke-width: 2; stroke-linecap: round"/>
   </g>
   <g id="line2d_13">
    <path d="M 58.44125 190.732053 
L 61.378207 190.169237 
L 64.315164 189.606662 
L 67.252121 189.04433 
L 70.189078 188.48224 
L 73.126035 187.920392 
L 76.062992 187.358787 
L 78.999949 186.797424 
L 81.936907 186.236302 
L 84.873864 185.675424 
L 87.810821 185.114787 
L 90.747778 184.554393 
L 93.684735 183.99424 
L 96.621692 183.434331 
L 99.558649 182.874663 
L 102.495606 182.315237 
L 105.432563 181.756054 
L 108.36952 181.197113 
L 111.306477 180.638414 
L 114.243434 180.079958 
L 117.180391 179.521743 
L 120.117348 178.963771 
L 123.054306 178.406041 
L 125.991263 177.848554 
L 128.92822 177.291308 
L 131.865177 176.734305 
L 134.802134 176.177544 
L 137.739091 175.621025 
L 140.676048 175.064749 
L 143.613005 174.508714 
L 146.549962 173.952922 
L 149.486919 173.397372 
L 152.423876 172.842065 
L 155.360833 172.286999 
L 158.29779 171.732176 
L 161.234747 171.177595 
L 164.171705 170.623256 
L 167.108662 170.06916 
L 170.045619 169.515305 
L 172.982576 168.961693 
L 175.919533 168.408323 
L 178.85649 167.855196 
L 181.793447 167.30231 
L 184.730404 166.749667 
L 187.667361 166.197266 
L 190.604318 165.645108 
L 193.541275 165.093191 
L 196.478232 164.541517 
L 199.415189 163.990085 
L 202.352146 163.438895 
L 205.289104 162.887947 
L 208.226061 162.337242 
L 211.163018 161.786779 
L 214.099975 161.236558 
L 217.036932 160.686579 
L 219.973889 160.136843 
L 222.910846 159.587348 
L 225.847803 159.038096 
L 228.78476 158.489087 
L 231.721717 157.940319 
L 234.658674 157.391794 
L 237.595631 156.843511 
L 240.532588 156.29547 
L 243.469545 155.747671 
L 246.406503 155.200115 
L 249.34346 154.6528 
L 252.280417 154.105728 
L 255.217374 153.558899 
L 258.154331 153.012311 
L 261.091288 152.465966 
L 264.028245 151.919863 
L 266.965202 151.374002 
L 269.902159 150.828383 
L 272.839116 150.283007 
L 275.776073 149.737873 
L 278.71303 149.192981 
L 281.649987 148.648331 
L 284.586944 148.103923 
L 287.523902 147.559758 
L 290.460859 147.015835 
L 293.397816 146.472154 
L 296.334773 145.928715 
L 299.27173 145.385519 
L 302.208687 144.842565 
L 305.145644 144.299853 
L 308.082601 143.757383 
L 311.019558 143.215156 
L 313.956515 142.673171 
L 316.893472 142.131427 
L 319.830429 141.589927 
L 322.767386 141.048668 
L 325.704343 140.507652 
L 328.641301 139.966878 
L 331.578258 139.426346 
L 334.515215 138.886056 
L 337.452172 138.346009 
L 340.389129 137.806203 
L 343.326086 137.26664 
L 346.263043 136.727319 
L 349.2 136.188241 
" clip-path="url(#pcf0aa09f1b)" style="fill: none; stroke: #bd2a2e; stroke-width: 2; stroke-linecap: round"/>
   </g>
   <g id="patch_3">
    <path d="M 58.44125 204.28 
L 58.44125 10.8 
" style="fill: none; stroke: #cccccc; stroke-width: 0.8; stroke-linejoin: miter; stroke-linecap: square"/>
   </g>
   <g id="patch_4">
    <path d="M 349.2 204.28 
L 349.2 10.8 
" style="fill: none; stroke: #cccccc; stroke-width: 0.8; stroke-linejoin: miter; stroke-linecap: square"/>
   </g>
   <g id="patch_5">
    <path d="M 58.44125 204.28 
L 349.2 204.28 
" style="fill: none; stroke: #cccccc; stroke-width: 0.8; stroke-linejoin: miter; stroke-linecap: square"/>
   </g>
   <g id="patch_6">
    <path d="M 58.44125 10.8 
L 349.2 10.8 
" style="fill: none; stroke: #cccccc; stroke-width: 0.8; stroke-linejoin: miter; stroke-linecap: square"/>
   </g>
   <g id="legend_1">
    <g id="patch_7">
     <path d="M 67.54125 76.342344 
L 133.699062 76.342344 
Q 136.299062 76.342344 136.299062 73.742344 
L 136.299062 19.9 
Q 136.299062 17.3 133.699062 17.3 
L 67.54125 17.3 
Q 64.94125 17.3 64.94125 19.9 
L 64.94125 73.742344 
Q 64.94125 76.342344 67.54125 76.342344 
z
" style="fill: #ffffff; opacity: 0.8; stroke: #cccccc; stroke-linejoin: miter"/>
    </g>
    <g id="PathCollection_4">
     <g>
      <use xlink:href="#m2f3d420877" x="83.14125" y="28.1875" style="fill: #486966; fill-opacity: 0.8; stroke: #486966; stroke-opacity: 0.8"/>
     </g>
    </g>
    <g id="text_13">
     <!-- DE -->
     <g style="fill: #262626" transform="translate(106.54125 31.6) scale(0.13 -0.13)">
      <defs>
       <path id="TimesNewRomanPSMT-44" d="M 109 0 
L 109 116 
L 269 116 
Q 538 116 650 288 
Q 719 391 719 750 
L 719 3488 
Q 719 3884 631 3984 
Q 509 4122 269 4122 
L 109 4122 
L 109 4238 
L 1834 4238 
Q 2784 4238 3279 4022 
Q 3775 3806 4076 3303 
Q 4378 2800 4378 2141 
Q 4378 1256 3841 663 
Q 3238 0 2003 0 
L 109 0 
z
M 1319 306 
Q 1716 219 1984 219 
Q 2709 219 3187 728 
Q 3666 1238 3666 2109 
Q 3666 2988 3187 3494 
Q 2709 4000 1959 4000 
Q 1678 4000 1319 3909 
L 1319 306 
z
" transform="scale(0.015625)"/>
       <path id="TimesNewRomanPSMT-45" d="M 1338 4006 
L 1338 2331 
L 2269 2331 
Q 2631 2331 2753 2441 
Q 2916 2584 2934 2947 
L 3050 2947 
L 3050 1472 
L 2934 1472 
Q 2891 1781 2847 1869 
Q 2791 1978 2662 2040 
Q 2534 2103 2269 2103 
L 1338 2103 
L 1338 706 
Q 1338 425 1363 364 
Q 1388 303 1450 267 
Q 1513 231 1688 231 
L 2406 231 
Q 2766 231 2928 281 
Q 3091 331 3241 478 
Q 3434 672 3638 1063 
L 3763 1063 
L 3397 0 
L 131 0 
L 131 116 
L 281 116 
Q 431 116 566 188 
Q 666 238 702 338 
Q 738 438 738 747 
L 738 3500 
Q 738 3903 656 3997 
Q 544 4122 281 4122 
L 131 4122 
L 131 4238 
L 3397 4238 
L 3444 3309 
L 3322 3309 
Q 3256 3644 3176 3769 
Q 3097 3894 2941 3959 
Q 2816 4006 2500 4006 
L 1338 4006 
z
" transform="scale(0.015625)"/>
      </defs>
      <use xlink:href="#TimesNewRomanPSMT-44"/>
      <use xlink:href="#TimesNewRomanPSMT-45" x="72.216797"/>
     </g>
    </g>
    <g id="PathCollection_5">
     <g>
      <use xlink:href="#m460e30acde" x="83.14125" y="46.568281" style="fill: #889c9b; fill-opacity: 0.8; stroke: #889c9b; stroke-opacity: 0.8"/>
     </g>
    </g>
    <g id="text_14">
     <!-- NE -->
     <g style="fill: #262626" transform="translate(106.54125 49.980781) scale(0.13 -0.13)">
      <defs>
       <path id="TimesNewRomanPSMT-4e" d="M -84 4238 
L 1066 4238 
L 3656 1059 
L 3656 3503 
Q 3656 3894 3569 3991 
Q 3453 4122 3203 4122 
L 3056 4122 
L 3056 4238 
L 4531 4238 
L 4531 4122 
L 4381 4122 
Q 4113 4122 4000 3959 
Q 3931 3859 3931 3503 
L 3931 -69 
L 3819 -69 
L 1025 3344 
L 1025 734 
Q 1025 344 1109 247 
Q 1228 116 1475 116 
L 1625 116 
L 1625 0 
L 150 0 
L 150 116 
L 297 116 
Q 569 116 681 278 
Q 750 378 750 734 
L 750 3681 
Q 566 3897 470 3965 
Q 375 4034 191 4094 
Q 100 4122 -84 4122 
L -84 4238 
z
" transform="scale(0.015625)"/>
      </defs>
      <use xlink:href="#TimesNewRomanPSMT-4e"/>
      <use xlink:href="#TimesNewRomanPSMT-45" x="72.216797"/>
     </g>
    </g>
    <g id="PathCollection_6">
     <g>
      <use xlink:href="#ma7daf8a1fb" x="83.14125" y="64.949062" style="fill: #bd2a2e; fill-opacity: 0.8; stroke: #bd2a2e; stroke-opacity: 0.8"/>
     </g>
    </g>
    <g id="text_15">
     <!-- PDE -->
     <g style="fill: #262626" transform="translate(106.54125 68.361562) scale(0.13 -0.13)">
      <defs>
       <path id="TimesNewRomanPSMT-50" d="M 1313 1984 
L 1313 750 
Q 1313 350 1400 253 
Q 1519 116 1759 116 
L 1922 116 
L 1922 0 
L 106 0 
L 106 116 
L 266 116 
Q 534 116 650 291 
Q 713 388 713 750 
L 713 3488 
Q 713 3888 628 3984 
Q 506 4122 266 4122 
L 106 4122 
L 106 4238 
L 1659 4238 
Q 2228 4238 2556 4120 
Q 2884 4003 3109 3725 
Q 3334 3447 3334 3066 
Q 3334 2547 2992 2222 
Q 2650 1897 2025 1897 
Q 1872 1897 1694 1919 
Q 1516 1941 1313 1984 
z
M 1313 2163 
Q 1478 2131 1606 2115 
Q 1734 2100 1825 2100 
Q 2150 2100 2386 2351 
Q 2622 2603 2622 3003 
Q 2622 3278 2509 3514 
Q 2397 3750 2190 3867 
Q 1984 3984 1722 3984 
Q 1563 3984 1313 3925 
L 1313 2163 
z
" transform="scale(0.015625)"/>
      </defs>
      <use xlink:href="#TimesNewRomanPSMT-50"/>
      <use xlink:href="#TimesNewRomanPSMT-44" x="55.615234"/>
      <use xlink:href="#TimesNewRomanPSMT-45" x="127.832031"/>
     </g>
    </g>
   </g>
  </g>
 </g>
 <defs>
  <clipPath id="pcf0aa09f1b">
   <rect x="58.44125" y="10.8" width="290.75875" height="193.48"/>
  </clipPath>
 </defs>
</svg>
