<?xml version="1.0" encoding="utf-8" standalone="no"?>
<!DOCTYPE svg PUBLIC "-//W3C//DTD SVG 1.1//EN"
  "http://www.w3.org/Graphics/SVG/1.1/DTD/svg11.dtd">
<svg xmlns:xlink="http://www.w3.org/1999/xlink" width="360pt" height="252pt" viewBox="0 0 360 252" xmlns="http://www.w3.org/2000/svg" version="1.1">
 <metadata>
  <rdf:RDF xmlns:dc="http://purl.org/dc/elements/1.1/" xmlns:cc="http://creativecommons.org/ns#" xmlns:rdf="http://www.w3.org/1999/02/22-rdf-syntax-ns#">
   <cc:Work>
    <dc:type rdf:resource="http://purl.org/dc/dcmitype/StillImage"/>
    <dc:date>2024-06-11T19:46:15.888383</dc:date>
    <dc:format>image/svg+xml</dc:format>
    <dc:creator>
     <cc:Agent>
      <dc:title>Matplotlib v3.8.4, https://matplotlib.org/</dc:title>
     </cc:Agent>
    </dc:creator>
   </cc:Work>
  </rdf:RDF>
 </metadata>
 <defs>
  <style type="text/css">*{stroke-linejoin: round; stroke-linecap: butt}</style>
 </defs>
 <g id="figure_1">
  <g id="patch_1">
   <path d="M 0 252 
L 360 252 
L 360 0 
L 0 0 
z
" style="fill: #ffffff"/>
  </g>
  <g id="axes_1">
   <g id="patch_2">
    <path d="M 54.48125 201.4 
L 349.2 201.4 
L 349.2 10.8 
L 54.48125 10.8 
z
" style="fill: #ffffff"/>
   </g>
   <g id="matplotlib.axis_1">
    <g id="xtick_1">
     <g id="line2d_1">
      <path d="M 67.877557 201.4 
L 67.877557 10.8 
" clip-path="url(#p38071b79e7)" style="fill: none; stroke: #cccccc; stroke-width: 0.8; stroke-linecap: round"/>
     </g>
     <g id="text_1">
      <!-- 50 -->
      <g style="fill: #262626" transform="translate(60.377557 218.815625) scale(0.15 -0.15)">
       <defs>
        <path id="TimesNewRomanPSMT-35" d="M 2778 4238 
L 2534 3706 
L 1259 3706 
L 981 3138 
Q 1809 3016 2294 2522 
Q 2709 2097 2709 1522 
Q 2709 1188 2573 903 
Q 2438 619 2231 419 
Q 2025 219 1772 97 
Q 1413 -75 1034 -75 
Q 653 -75 479 54 
Q 306 184 306 341 
Q 306 428 378 495 
Q 450 563 559 563 
Q 641 563 702 538 
Q 763 513 909 409 
Q 1144 247 1384 247 
Q 1750 247 2026 523 
Q 2303 800 2303 1197 
Q 2303 1581 2056 1914 
Q 1809 2247 1375 2428 
Q 1034 2569 447 2591 
L 1259 4238 
L 2778 4238 
z
" transform="scale(0.015625)"/>
        <path id="TimesNewRomanPSMT-30" d="M 231 2094 
Q 231 2819 450 3342 
Q 669 3866 1031 4122 
Q 1313 4325 1613 4325 
Q 2100 4325 2488 3828 
Q 2972 3213 2972 2159 
Q 2972 1422 2759 906 
Q 2547 391 2217 158 
Q 1888 -75 1581 -75 
Q 975 -75 572 641 
Q 231 1244 231 2094 
z
M 844 2016 
Q 844 1141 1059 588 
Q 1238 122 1591 122 
Q 1759 122 1940 273 
Q 2122 425 2216 781 
Q 2359 1319 2359 2297 
Q 2359 3022 2209 3506 
Q 2097 3866 1919 4016 
Q 1791 4119 1609 4119 
Q 1397 4119 1231 3928 
Q 1006 3669 925 3112 
Q 844 2556 844 2016 
z
" transform="scale(0.015625)"/>
       </defs>
       <use xlink:href="#TimesNewRomanPSMT-35"/>
       <use xlink:href="#TimesNewRomanPSMT-30" x="50"/>
      </g>
     </g>
    </g>
    <g id="xtick_2">
     <g id="line2d_2">
      <path d="M 134.859091 201.4 
L 134.859091 10.8 
" clip-path="url(#p38071b79e7)" style="fill: none; stroke: #cccccc; stroke-width: 0.8; stroke-linecap: round"/>
     </g>
     <g id="text_2">
      <!-- 250 -->
      <g style="fill: #262626" transform="translate(123.609091 218.815625) scale(0.15 -0.15)">
       <defs>
        <path id="TimesNewRomanPSMT-32" d="M 2934 816 
L 2638 0 
L 138 0 
L 138 116 
Q 1241 1122 1691 1759 
Q 2141 2397 2141 2925 
Q 2141 3328 1894 3587 
Q 1647 3847 1303 3847 
Q 991 3847 742 3664 
Q 494 3481 375 3128 
L 259 3128 
Q 338 3706 661 4015 
Q 984 4325 1469 4325 
Q 1984 4325 2329 3994 
Q 2675 3663 2675 3213 
Q 2675 2891 2525 2569 
Q 2294 2063 1775 1497 
Q 997 647 803 472 
L 1909 472 
Q 2247 472 2383 497 
Q 2519 522 2628 598 
Q 2738 675 2819 816 
L 2934 816 
z
" transform="scale(0.015625)"/>
       </defs>
       <use xlink:href="#TimesNewRomanPSMT-32"/>
       <use xlink:href="#TimesNewRomanPSMT-35" x="50"/>
       <use xlink:href="#TimesNewRomanPSMT-30" x="100"/>
      </g>
     </g>
    </g>
    <g id="xtick_3">
     <g id="line2d_3">
      <path d="M 201.840625 201.4 
L 201.840625 10.8 
" clip-path="url(#p38071b79e7)" style="fill: none; stroke: #cccccc; stroke-width: 0.8; stroke-linecap: round"/>
     </g>
     <g id="text_3">
      <!-- 450 -->
      <g style="fill: #262626" transform="translate(190.590625 218.815625) scale(0.15 -0.15)">
       <defs>
        <path id="TimesNewRomanPSMT-34" d="M 2978 1563 
L 2978 1119 
L 2409 1119 
L 2409 0 
L 1894 0 
L 1894 1119 
L 100 1119 
L 100 1519 
L 2066 4325 
L 2409 4325 
L 2409 1563 
L 2978 1563 
z
M 1894 1563 
L 1894 3666 
L 406 1563 
L 1894 1563 
z
" transform="scale(0.015625)"/>
       </defs>
       <use xlink:href="#TimesNewRomanPSMT-34"/>
       <use xlink:href="#TimesNewRomanPSMT-35" x="50"/>
       <use xlink:href="#TimesNewRomanPSMT-30" x="100"/>
      </g>
     </g>
    </g>
    <g id="xtick_4">
     <g id="line2d_4">
      <path d="M 268.822159 201.4 
L 268.822159 10.8 
" clip-path="url(#p38071b79e7)" style="fill: none; stroke: #cccccc; stroke-width: 0.8; stroke-linecap: round"/>
     </g>
     <g id="text_4">
      <!-- 650 -->
      <g style="fill: #262626" transform="translate(257.572159 218.815625) scale(0.15 -0.15)">
       <defs>
        <path id="TimesNewRomanPSMT-36" d="M 2869 4325 
L 2869 4209 
Q 2456 4169 2195 4045 
Q 1934 3922 1679 3669 
Q 1425 3416 1258 3105 
Q 1091 2794 978 2366 
Q 1428 2675 1881 2675 
Q 2316 2675 2634 2325 
Q 2953 1975 2953 1425 
Q 2953 894 2631 456 
Q 2244 -75 1606 -75 
Q 1172 -75 869 213 
Q 275 772 275 1663 
Q 275 2231 503 2743 
Q 731 3256 1154 3653 
Q 1578 4050 1965 4187 
Q 2353 4325 2688 4325 
L 2869 4325 
z
M 925 2138 
Q 869 1716 869 1456 
Q 869 1156 980 804 
Q 1091 453 1309 247 
Q 1469 100 1697 100 
Q 1969 100 2183 356 
Q 2397 613 2397 1088 
Q 2397 1622 2184 2012 
Q 1972 2403 1581 2403 
Q 1463 2403 1327 2353 
Q 1191 2303 925 2138 
z
" transform="scale(0.015625)"/>
       </defs>
       <use xlink:href="#TimesNewRomanPSMT-36"/>
       <use xlink:href="#TimesNewRomanPSMT-35" x="50"/>
       <use xlink:href="#TimesNewRomanPSMT-30" x="100"/>
      </g>
     </g>
    </g>
    <g id="xtick_5">
     <g id="line2d_5">
      <path d="M 335.803693 201.4 
L 335.803693 10.8 
" clip-path="url(#p38071b79e7)" style="fill: none; stroke: #cccccc; stroke-width: 0.8; stroke-linecap: round"/>
     </g>
     <g id="text_5">
      <!-- 850 -->
      <g style="fill: #262626" transform="translate(324.553693 218.815625) scale(0.15 -0.15)">
       <defs>
        <path id="TimesNewRomanPSMT-38" d="M 1228 2134 
Q 725 2547 579 2797 
Q 434 3047 434 3316 
Q 434 3728 753 4026 
Q 1072 4325 1600 4325 
Q 2113 4325 2425 4047 
Q 2738 3769 2738 3413 
Q 2738 3175 2569 2928 
Q 2400 2681 1866 2347 
Q 2416 1922 2594 1678 
Q 2831 1359 2831 1006 
Q 2831 559 2490 242 
Q 2150 -75 1597 -75 
Q 994 -75 656 303 
Q 388 606 388 966 
Q 388 1247 577 1523 
Q 766 1800 1228 2134 
z
M 1719 2469 
Q 2094 2806 2194 3001 
Q 2294 3197 2294 3444 
Q 2294 3772 2109 3958 
Q 1925 4144 1606 4144 
Q 1288 4144 1088 3959 
Q 888 3775 888 3528 
Q 888 3366 970 3203 
Q 1053 3041 1206 2894 
L 1719 2469 
z
M 1375 2016 
Q 1116 1797 991 1539 
Q 866 1281 866 981 
Q 866 578 1086 336 
Q 1306 94 1647 94 
Q 1984 94 2187 284 
Q 2391 475 2391 747 
Q 2391 972 2272 1150 
Q 2050 1481 1375 2016 
z
" transform="scale(0.015625)"/>
       </defs>
       <use xlink:href="#TimesNewRomanPSMT-38"/>
       <use xlink:href="#TimesNewRomanPSMT-35" x="50"/>
       <use xlink:href="#TimesNewRomanPSMT-30" x="100"/>
      </g>
     </g>
    </g>
    <g id="text_6">
     <!-- Number of voters -->
     <g style="fill: #262626" transform="translate(141.995625 236.619219) scale(0.16 -0.16)">
      <defs>
       <path id="TimesNewRomanPS-BoldMT-4e" d="M 1594 4238 
L 3684 1609 
L 3684 3431 
Q 3684 3813 3575 3947 
Q 3425 4128 3072 4122 
L 3072 4238 
L 4472 4238 
L 4472 4122 
Q 4203 4088 4111 4033 
Q 4019 3978 3967 3854 
Q 3916 3731 3916 3431 
L 3916 -97 
L 3809 -97 
L 944 3431 
L 944 738 
Q 944 372 1111 244 
Q 1278 116 1494 116 
L 1594 116 
L 1594 0 
L 91 0 
L 91 116 
Q 441 119 578 259 
Q 716 400 716 738 
L 716 3728 
L 625 3841 
Q 491 4009 387 4062 
Q 284 4116 91 4122 
L 91 4238 
L 1594 4238 
z
" transform="scale(0.015625)"/>
       <path id="TimesNewRomanPS-BoldMT-75" d="M 3038 2922 
L 3038 634 
Q 3038 300 3100 217 
Q 3163 134 3353 113 
L 3353 0 
L 2163 0 
L 2163 391 
Q 1953 141 1743 26 
Q 1534 -88 1275 -88 
Q 1028 -88 836 64 
Q 644 216 578 419 
Q 513 622 513 1128 
L 513 2288 
Q 513 2619 452 2700 
Q 391 2781 197 2806 
L 197 2922 
L 1388 2922 
L 1388 925 
Q 1388 613 1417 522 
Q 1447 431 1511 384 
Q 1575 338 1659 338 
Q 1772 338 1863 397 
Q 1988 478 2163 725 
L 2163 2288 
Q 2163 2619 2102 2700 
Q 2041 2781 1847 2806 
L 1847 2922 
L 3038 2922 
z
" transform="scale(0.015625)"/>
       <path id="TimesNewRomanPS-BoldMT-6d" d="M 1428 2922 
L 1428 2538 
Q 1669 2800 1873 2904 
Q 2078 3009 2322 3009 
Q 2603 3009 2793 2878 
Q 2984 2747 3088 2478 
Q 3338 2759 3567 2884 
Q 3797 3009 4047 3009 
Q 4350 3009 4529 2870 
Q 4709 2731 4779 2517 
Q 4850 2303 4850 1834 
L 4850 638 
Q 4850 300 4911 219 
Q 4972 138 5166 113 
L 5166 0 
L 3656 0 
L 3656 113 
Q 3834 128 3919 250 
Q 3975 334 3975 638 
L 3975 1894 
Q 3975 2284 3944 2390 
Q 3913 2497 3845 2548 
Q 3778 2600 3688 2600 
Q 3553 2600 3415 2501 
Q 3278 2403 3138 2206 
L 3138 638 
Q 3138 322 3191 241 
Q 3263 125 3466 113 
L 3466 0 
L 1953 0 
L 1953 113 
Q 2075 119 2145 173 
Q 2216 228 2239 304 
Q 2263 381 2263 638 
L 2263 1894 
Q 2263 2291 2231 2391 
Q 2200 2491 2126 2547 
Q 2053 2603 1969 2603 
Q 1844 2603 1741 2538 
Q 1594 2441 1428 2206 
L 1428 638 
Q 1428 328 1489 229 
Q 1550 131 1744 113 
L 1744 0 
L 238 0 
L 238 113 
Q 422 131 500 231 
Q 553 300 553 638 
L 553 2288 
Q 553 2619 492 2700 
Q 431 2781 238 2806 
L 238 2922 
L 1428 2922 
z
" transform="scale(0.015625)"/>
       <path id="TimesNewRomanPS-BoldMT-62" d="M 1347 4238 
L 1347 2628 
Q 1716 3009 2153 3009 
Q 2453 3009 2718 2832 
Q 2984 2656 3134 2331 
Q 3284 2006 3284 1581 
Q 3284 1103 3093 712 
Q 2903 322 2584 117 
Q 2266 -88 1856 -88 
Q 1619 -88 1434 -12 
Q 1250 63 1072 231 
L 588 -84 
L 481 -84 
L 481 3631 
Q 481 3884 459 3944 
Q 428 4031 361 4073 
Q 294 4116 134 4122 
L 134 4238 
L 1347 4238 
z
M 1347 2350 
L 1347 1050 
Q 1347 653 1366 544 
Q 1397 359 1515 245 
Q 1634 131 1819 131 
Q 1978 131 2092 222 
Q 2206 313 2282 581 
Q 2359 850 2359 1550 
Q 2359 2222 2191 2472 
Q 2069 2653 1863 2653 
Q 1594 2653 1347 2350 
z
" transform="scale(0.015625)"/>
       <path id="TimesNewRomanPS-BoldMT-65" d="M 2691 1566 
L 1088 1566 
Q 1116 984 1397 647 
Q 1613 388 1916 388 
Q 2103 388 2256 492 
Q 2409 597 2584 869 
L 2691 800 
Q 2453 316 2165 114 
Q 1878 -88 1500 -88 
Q 850 -88 516 413 
Q 247 816 247 1413 
Q 247 2144 642 2576 
Q 1038 3009 1569 3009 
Q 2013 3009 2339 2645 
Q 2666 2281 2691 1566 
z
M 1922 1775 
Q 1922 2278 1867 2465 
Q 1813 2653 1697 2750 
Q 1631 2806 1522 2806 
Q 1359 2806 1256 2647 
Q 1072 2369 1072 1884 
L 1072 1775 
L 1922 1775 
z
" transform="scale(0.015625)"/>
       <path id="TimesNewRomanPS-BoldMT-72" d="M 1428 2922 
L 1428 2259 
Q 1719 2713 1937 2861 
Q 2156 3009 2359 3009 
Q 2534 3009 2639 2901 
Q 2744 2794 2744 2597 
Q 2744 2388 2642 2272 
Q 2541 2156 2397 2156 
Q 2231 2156 2109 2262 
Q 1988 2369 1966 2381 
Q 1934 2400 1894 2400 
Q 1803 2400 1722 2331 
Q 1594 2225 1528 2028 
Q 1428 1725 1428 1359 
L 1428 688 
L 1431 513 
Q 1431 334 1453 284 
Q 1491 200 1564 161 
Q 1638 122 1813 113 
L 1813 0 
L 234 0 
L 234 113 
Q 425 128 492 217 
Q 559 306 559 688 
L 559 2303 
Q 559 2553 534 2622 
Q 503 2709 443 2750 
Q 384 2791 234 2806 
L 234 2922 
L 1428 2922 
z
" transform="scale(0.015625)"/>
       <path id="TimesNewRomanPS-BoldMT-20" transform="scale(0.015625)"/>
       <path id="TimesNewRomanPS-BoldMT-6f" d="M 1594 3009 
Q 1975 3009 2303 2812 
Q 2631 2616 2801 2253 
Q 2972 1891 2972 1459 
Q 2972 838 2656 419 
Q 2275 -88 1603 -88 
Q 944 -88 587 375 
Q 231 838 231 1447 
Q 231 2075 595 2542 
Q 959 3009 1594 3009 
z
M 1606 2788 
Q 1447 2788 1333 2667 
Q 1219 2547 1183 2192 
Q 1147 1838 1147 1206 
Q 1147 872 1191 581 
Q 1225 359 1337 243 
Q 1450 128 1594 128 
Q 1734 128 1828 206 
Q 1950 313 1991 503 
Q 2053 800 2053 1703 
Q 2053 2234 1993 2432 
Q 1934 2631 1819 2722 
Q 1738 2788 1606 2788 
z
" transform="scale(0.015625)"/>
       <path id="TimesNewRomanPS-BoldMT-66" d="M 1497 2616 
L 1497 588 
Q 1497 294 1559 219 
Q 1659 103 1928 113 
L 1928 0 
L 206 0 
L 206 113 
Q 403 116 486 158 
Q 569 200 600 275 
Q 631 350 631 588 
L 631 2616 
L 206 2616 
L 206 2922 
L 631 2922 
L 631 3138 
L 628 3284 
Q 628 3734 958 4034 
Q 1288 4334 1850 4334 
Q 2234 4334 2420 4190 
Q 2606 4047 2606 3872 
Q 2606 3731 2490 3628 
Q 2375 3525 2184 3525 
Q 2022 3525 1926 3609 
Q 1831 3694 1831 3797 
Q 1831 3825 1850 3913 
Q 1863 3966 1863 4013 
Q 1863 4078 1825 4109 
Q 1775 4156 1703 4156 
Q 1613 4156 1552 4081 
Q 1491 4006 1491 3841 
L 1497 3294 
L 1497 2922 
L 1928 2922 
L 1928 2616 
L 1497 2616 
z
" transform="scale(0.015625)"/>
       <path id="TimesNewRomanPS-BoldMT-76" d="M 1534 -88 
L 550 2178 
Q 372 2588 272 2697 
Q 200 2778 59 2806 
L 59 2922 
L 1613 2922 
L 1613 2806 
Q 1466 2806 1413 2753 
Q 1338 2684 1338 2591 
Q 1338 2475 1475 2156 
L 1956 1059 
L 2341 2006 
Q 2506 2413 2506 2581 
Q 2506 2678 2436 2739 
Q 2366 2800 2188 2806 
L 2188 2922 
L 3144 2922 
L 3144 2806 
Q 3006 2788 2918 2703 
Q 2831 2619 2656 2206 
L 1681 -88 
L 1534 -88 
z
" transform="scale(0.015625)"/>
       <path id="TimesNewRomanPS-BoldMT-74" d="M 1375 3991 
L 1375 2922 
L 2069 2922 
L 2069 2613 
L 1375 2613 
L 1375 809 
Q 1375 556 1398 482 
Q 1422 409 1481 364 
Q 1541 319 1591 319 
Q 1794 319 1975 628 
L 2069 559 
Q 1816 -41 1247 -41 
Q 969 -41 776 114 
Q 584 269 531 459 
Q 500 566 500 1034 
L 500 2613 
L 119 2613 
L 119 2722 
Q 513 3000 789 3306 
Q 1066 3613 1272 3991 
L 1375 3991 
z
" transform="scale(0.015625)"/>
       <path id="TimesNewRomanPS-BoldMT-73" d="M 2063 3003 
L 2109 2006 
L 2003 2006 
Q 1813 2450 1608 2612 
Q 1403 2775 1200 2775 
Q 1072 2775 981 2689 
Q 891 2603 891 2491 
Q 891 2406 953 2328 
Q 1053 2200 1512 1889 
Q 1972 1578 2117 1361 
Q 2263 1144 2263 875 
Q 2263 631 2141 397 
Q 2019 163 1797 37 
Q 1575 -88 1306 -88 
Q 1097 -88 747 44 
Q 653 78 619 78 
Q 516 78 447 -78 
L 344 -78 
L 294 972 
L 400 972 
Q 541 559 786 353 
Q 1031 147 1250 147 
Q 1400 147 1495 239 
Q 1591 331 1591 463 
Q 1591 613 1497 722 
Q 1403 831 1078 1053 
Q 600 1384 459 1559 
Q 253 1816 253 2125 
Q 253 2463 486 2736 
Q 719 3009 1159 3009 
Q 1397 3009 1619 2894 
Q 1703 2847 1756 2847 
Q 1813 2847 1847 2870 
Q 1881 2894 1956 3003 
L 2063 3003 
z
" transform="scale(0.015625)"/>
      </defs>
      <use xlink:href="#TimesNewRomanPS-BoldMT-4e"/>
      <use xlink:href="#TimesNewRomanPS-BoldMT-75" x="72.216797"/>
      <use xlink:href="#TimesNewRomanPS-BoldMT-6d" x="127.832031"/>
      <use xlink:href="#TimesNewRomanPS-BoldMT-62" x="211.132812"/>
      <use xlink:href="#TimesNewRomanPS-BoldMT-65" x="266.748047"/>
      <use xlink:href="#TimesNewRomanPS-BoldMT-72" x="311.132812"/>
      <use xlink:href="#TimesNewRomanPS-BoldMT-20" x="353.767578"/>
      <use xlink:href="#TimesNewRomanPS-BoldMT-6f" x="378.767578"/>
      <use xlink:href="#TimesNewRomanPS-BoldMT-66" x="428.767578"/>
      <use xlink:href="#TimesNewRomanPS-BoldMT-20" x="462.068359"/>
      <use xlink:href="#TimesNewRomanPS-BoldMT-76" x="487.068359"/>
      <use xlink:href="#TimesNewRomanPS-BoldMT-6f" x="537.068359"/>
      <use xlink:href="#TimesNewRomanPS-BoldMT-74" x="587.068359"/>
      <use xlink:href="#TimesNewRomanPS-BoldMT-65" x="620.369141"/>
      <use xlink:href="#TimesNewRomanPS-BoldMT-72" x="664.753906"/>
      <use xlink:href="#TimesNewRomanPS-BoldMT-73" x="709.138672"/>
     </g>
    </g>
   </g>
   <g id="matplotlib.axis_2">
    <g id="ytick_1">
     <g id="line2d_6">
      <path d="M 54.48125 194.863573 
L 349.2 194.863573 
" clip-path="url(#p38071b79e7)" style="fill: none; stroke: #cccccc; stroke-width: 0.8; stroke-linecap: round"/>
     </g>
     <g id="text_7">
      <!-- 0.0 -->
      <g style="fill: #262626" transform="translate(28.73125 200.071386) scale(0.15 -0.15)">
       <defs>
        <path id="TimesNewRomanPSMT-2e" d="M 800 606 
Q 947 606 1047 504 
Q 1147 403 1147 259 
Q 1147 116 1045 14 
Q 944 -88 800 -88 
Q 656 -88 554 14 
Q 453 116 453 259 
Q 453 406 554 506 
Q 656 606 800 606 
z
" transform="scale(0.015625)"/>
       </defs>
       <use xlink:href="#TimesNewRomanPSMT-30"/>
       <use xlink:href="#TimesNewRomanPSMT-2e" x="50"/>
       <use xlink:href="#TimesNewRomanPSMT-30" x="75"/>
      </g>
     </g>
    </g>
    <g id="ytick_2">
     <g id="line2d_7">
      <path d="M 54.48125 153.837626 
L 349.2 153.837626 
" clip-path="url(#p38071b79e7)" style="fill: none; stroke: #cccccc; stroke-width: 0.8; stroke-linecap: round"/>
     </g>
     <g id="text_8">
      <!-- 0.5 -->
      <g style="fill: #262626" transform="translate(28.73125 159.045438) scale(0.15 -0.15)">
       <use xlink:href="#TimesNewRomanPSMT-30"/>
       <use xlink:href="#TimesNewRomanPSMT-2e" x="50"/>
       <use xlink:href="#TimesNewRomanPSMT-35" x="75"/>
      </g>
     </g>
    </g>
    <g id="ytick_3">
     <g id="line2d_8">
      <path d="M 54.48125 112.811679 
L 349.2 112.811679 
" clip-path="url(#p38071b79e7)" style="fill: none; stroke: #cccccc; stroke-width: 0.8; stroke-linecap: round"/>
     </g>
     <g id="text_9">
      <!-- 1.0 -->
      <g style="fill: #262626" transform="translate(28.73125 118.019491) scale(0.15 -0.15)">
       <defs>
        <path id="TimesNewRomanPSMT-31" d="M 750 3822 
L 1781 4325 
L 1884 4325 
L 1884 747 
Q 1884 391 1914 303 
Q 1944 216 2037 169 
Q 2131 122 2419 116 
L 2419 0 
L 825 0 
L 825 116 
Q 1125 122 1212 167 
Q 1300 213 1334 289 
Q 1369 366 1369 747 
L 1369 3034 
Q 1369 3497 1338 3628 
Q 1316 3728 1258 3775 
Q 1200 3822 1119 3822 
Q 1003 3822 797 3725 
L 750 3822 
z
" transform="scale(0.015625)"/>
       </defs>
       <use xlink:href="#TimesNewRomanPSMT-31"/>
       <use xlink:href="#TimesNewRomanPSMT-2e" x="50"/>
       <use xlink:href="#TimesNewRomanPSMT-30" x="75"/>
      </g>
     </g>
    </g>
    <g id="ytick_4">
     <g id="line2d_9">
      <path d="M 54.48125 71.785732 
L 349.2 71.785732 
" clip-path="url(#p38071b79e7)" style="fill: none; stroke: #cccccc; stroke-width: 0.8; stroke-linecap: round"/>
     </g>
     <g id="text_10">
      <!-- 1.5 -->
      <g style="fill: #262626" transform="translate(28.73125 76.993544) scale(0.15 -0.15)">
       <use xlink:href="#TimesNewRomanPSMT-31"/>
       <use xlink:href="#TimesNewRomanPSMT-2e" x="50"/>
       <use xlink:href="#TimesNewRomanPSMT-35" x="75"/>
      </g>
     </g>
    </g>
    <g id="ytick_5">
     <g id="line2d_10">
      <path d="M 54.48125 30.759785 
L 349.2 30.759785 
" clip-path="url(#p38071b79e7)" style="fill: none; stroke: #cccccc; stroke-width: 0.8; stroke-linecap: round"/>
     </g>
     <g id="text_11">
      <!-- 2.0 -->
      <g style="fill: #262626" transform="translate(28.73125 35.967597) scale(0.15 -0.15)">
       <use xlink:href="#TimesNewRomanPSMT-32"/>
       <use xlink:href="#TimesNewRomanPSMT-2e" x="50"/>
       <use xlink:href="#TimesNewRomanPSMT-30" x="75"/>
      </g>
     </g>
    </g>
    <g id="text_12">
     <!-- Total Gas Spend (Gwei) -->
     <g style="fill: #262626" transform="translate(21.522656 182.296484) rotate(-90) scale(0.15 -0.15)">
      <defs>
       <path id="TimesNewRomanPS-BoldMT-54" d="M 4038 4238 
L 4038 3091 
L 3925 3091 
Q 3825 3488 3703 3661 
Q 3581 3834 3369 3938 
Q 3250 3994 2953 3994 
L 2638 3994 
L 2638 725 
Q 2638 400 2673 319 
Q 2709 238 2814 177 
Q 2919 116 3100 116 
L 3241 116 
L 3241 0 
L 1022 0 
L 1022 116 
L 1163 116 
Q 1347 116 1459 181 
Q 1541 225 1588 331 
Q 1622 406 1622 725 
L 1622 3994 
L 1316 3994 
Q 888 3994 694 3813 
Q 422 3559 350 3091 
L 231 3091 
L 231 4238 
L 4038 4238 
z
" transform="scale(0.015625)"/>
       <path id="TimesNewRomanPS-BoldMT-61" d="M 1828 431 
Q 1294 -41 869 -41 
Q 619 -41 453 123 
Q 288 288 288 534 
Q 288 869 575 1136 
Q 863 1403 1828 1847 
L 1828 2141 
Q 1828 2472 1792 2558 
Q 1756 2644 1656 2708 
Q 1556 2772 1431 2772 
Q 1228 2772 1097 2681 
Q 1016 2625 1016 2550 
Q 1016 2484 1103 2388 
Q 1222 2253 1222 2128 
Q 1222 1975 1108 1867 
Q 994 1759 809 1759 
Q 613 1759 480 1878 
Q 347 1997 347 2156 
Q 347 2381 525 2586 
Q 703 2791 1022 2900 
Q 1341 3009 1684 3009 
Q 2100 3009 2342 2832 
Q 2584 2656 2656 2450 
Q 2700 2319 2700 1847 
L 2700 713 
Q 2700 513 2715 461 
Q 2731 409 2762 384 
Q 2794 359 2834 359 
Q 2916 359 3000 475 
L 3094 400 
Q 2938 169 2770 64 
Q 2603 -41 2391 -41 
Q 2141 -41 2000 76 
Q 1859 194 1828 431 
z
M 1828 659 
L 1828 1638 
Q 1450 1416 1266 1163 
Q 1144 994 1144 822 
Q 1144 678 1247 569 
Q 1325 484 1466 484 
Q 1622 484 1828 659 
z
" transform="scale(0.015625)"/>
       <path id="TimesNewRomanPS-BoldMT-6c" d="M 1359 4238 
L 1359 606 
Q 1359 297 1431 211 
Q 1503 125 1713 113 
L 1713 0 
L 134 0 
L 134 113 
Q 328 119 422 225 
Q 484 297 484 606 
L 484 3631 
Q 484 3938 412 4023 
Q 341 4109 134 4122 
L 134 4238 
L 1359 4238 
z
" transform="scale(0.015625)"/>
       <path id="TimesNewRomanPS-BoldMT-47" d="M 4416 4334 
L 4416 2841 
L 4300 2841 
Q 4091 3453 3672 3772 
Q 3253 4091 2756 4091 
Q 2281 4091 1965 3823 
Q 1650 3556 1519 3078 
Q 1388 2600 1388 2097 
Q 1388 1488 1531 1028 
Q 1675 569 1995 353 
Q 2316 138 2756 138 
Q 2909 138 3070 170 
Q 3231 203 3400 266 
L 3400 1147 
Q 3400 1397 3365 1470 
Q 3331 1544 3223 1603 
Q 3116 1663 2963 1663 
L 2853 1663 
L 2853 1778 
L 4913 1778 
L 4913 1663 
Q 4678 1647 4586 1598 
Q 4494 1550 4444 1438 
Q 4416 1378 4416 1147 
L 4416 266 
Q 4009 84 3570 -8 
Q 3131 -100 2659 -100 
Q 2056 -100 1657 64 
Q 1259 228 954 495 
Q 650 763 478 1097 
Q 259 1528 259 2063 
Q 259 3019 931 3678 
Q 1603 4338 2622 4338 
Q 2938 4338 3191 4288 
Q 3328 4263 3636 4145 
Q 3944 4028 4000 4028 
Q 4088 4028 4163 4092 
Q 4238 4156 4300 4334 
L 4416 4334 
z
" transform="scale(0.015625)"/>
       <path id="TimesNewRomanPS-BoldMT-53" d="M 3006 4334 
L 3041 2922 
L 2913 2922 
Q 2822 3453 2467 3776 
Q 2113 4100 1700 4100 
Q 1381 4100 1195 3929 
Q 1009 3759 1009 3538 
Q 1009 3397 1075 3288 
Q 1166 3141 1366 2997 
Q 1513 2894 2044 2631 
Q 2788 2266 3047 1941 
Q 3303 1616 3303 1197 
Q 3303 666 2889 283 
Q 2475 -100 1838 -100 
Q 1638 -100 1459 -59 
Q 1281 -19 1013 94 
Q 863 156 766 156 
Q 684 156 593 93 
Q 503 31 447 -97 
L 331 -97 
L 331 1503 
L 447 1503 
Q 584 828 976 473 
Q 1369 119 1822 119 
Q 2172 119 2380 309 
Q 2588 500 2588 753 
Q 2588 903 2508 1043 
Q 2428 1184 2265 1311 
Q 2103 1438 1691 1641 
Q 1113 1925 859 2125 
Q 606 2325 470 2572 
Q 334 2819 334 3116 
Q 334 3622 706 3978 
Q 1078 4334 1644 4334 
Q 1850 4334 2044 4284 
Q 2191 4247 2402 4145 
Q 2613 4044 2697 4044 
Q 2778 4044 2825 4094 
Q 2872 4144 2913 4334 
L 3006 4334 
z
" transform="scale(0.015625)"/>
       <path id="TimesNewRomanPS-BoldMT-70" d="M 1347 297 
L 1347 -791 
Q 1347 -1016 1383 -1097 
Q 1419 -1178 1494 -1215 
Q 1569 -1253 1788 -1253 
L 1788 -1369 
L 122 -1369 
L 122 -1253 
Q 316 -1247 409 -1144 
Q 472 -1072 472 -772 
L 472 2313 
Q 472 2622 400 2708 
Q 328 2794 122 2806 
L 122 2922 
L 1347 2922 
L 1347 2538 
Q 1500 2763 1659 2863 
Q 1888 3009 2156 3009 
Q 2478 3009 2742 2806 
Q 3006 2603 3143 2245 
Q 3281 1888 3281 1475 
Q 3281 1031 3139 664 
Q 2997 297 2726 104 
Q 2456 -88 2125 -88 
Q 1884 -88 1675 19 
Q 1519 100 1347 297 
z
M 1347 613 
Q 1616 231 1922 231 
Q 2091 231 2200 409 
Q 2363 672 2363 1409 
Q 2363 2166 2184 2444 
Q 2066 2628 1866 2628 
Q 1550 2628 1347 2172 
L 1347 613 
z
" transform="scale(0.015625)"/>
       <path id="TimesNewRomanPS-BoldMT-6e" d="M 1409 2922 
L 1409 2544 
Q 1634 2788 1840 2898 
Q 2047 3009 2284 3009 
Q 2569 3009 2756 2851 
Q 2944 2694 3006 2459 
Q 3056 2281 3056 1775 
L 3056 638 
Q 3056 300 3117 217 
Q 3178 134 3372 113 
L 3372 0 
L 1894 0 
L 1894 113 
Q 2059 134 2131 250 
Q 2181 328 2181 638 
L 2181 1938 
Q 2181 2297 2153 2390 
Q 2125 2484 2058 2536 
Q 1991 2588 1909 2588 
Q 1641 2588 1409 2203 
L 1409 638 
Q 1409 309 1470 221 
Q 1531 134 1697 113 
L 1697 0 
L 219 0 
L 219 113 
Q 403 131 481 231 
Q 534 300 534 638 
L 534 2288 
Q 534 2619 473 2700 
Q 413 2781 219 2806 
L 219 2922 
L 1409 2922 
z
" transform="scale(0.015625)"/>
       <path id="TimesNewRomanPS-BoldMT-64" d="M 3056 4238 
L 3056 875 
Q 3056 534 3075 472 
Q 3100 369 3170 319 
Q 3241 269 3416 256 
L 3416 153 
L 2181 -88 
L 2181 375 
Q 1959 106 1786 9 
Q 1613 -88 1394 -88 
Q 834 -88 509 413 
Q 247 819 247 1409 
Q 247 1881 409 2254 
Q 572 2628 855 2818 
Q 1138 3009 1463 3009 
Q 1672 3009 1834 2928 
Q 1997 2847 2181 2644 
L 2181 3525 
Q 2181 3859 2153 3928 
Q 2116 4019 2041 4062 
Q 1966 4106 1759 4106 
L 1759 4238 
L 3056 4238 
z
M 2181 2256 
Q 1950 2700 1616 2700 
Q 1500 2700 1425 2638 
Q 1309 2541 1236 2297 
Q 1163 2053 1163 1550 
Q 1163 997 1244 731 
Q 1325 466 1466 347 
Q 1538 288 1663 288 
Q 1938 288 2181 719 
L 2181 2256 
z
" transform="scale(0.015625)"/>
       <path id="TimesNewRomanPS-BoldMT-28" d="M 2056 4334 
L 2056 4191 
Q 1731 3978 1578 3775 
Q 1366 3494 1247 3053 
Q 1097 2506 1097 1525 
Q 1097 600 1233 87 
Q 1369 -425 1603 -741 
Q 1766 -959 2056 -1125 
L 2056 -1281 
Q 1303 -1028 779 -248 
Q 256 531 256 1544 
Q 256 2544 778 3314 
Q 1300 4084 2056 4334 
z
" transform="scale(0.015625)"/>
       <path id="TimesNewRomanPS-BoldMT-77" d="M 3113 -88 
L 2313 2056 
L 1528 -88 
L 1366 -88 
L 588 2031 
Q 413 2516 291 2663 
Q 213 2763 53 2806 
L 53 2922 
L 1528 2922 
L 1528 2806 
Q 1378 2806 1322 2762 
Q 1266 2719 1266 2663 
Q 1266 2609 1366 2344 
L 1794 1203 
L 2206 2344 
L 2175 2419 
Q 2081 2653 2011 2717 
Q 1941 2781 1794 2806 
L 1794 2922 
L 3291 2922 
L 3291 2806 
Q 3116 2797 3069 2758 
Q 3022 2719 3022 2647 
Q 3022 2578 3113 2344 
L 3525 1203 
L 3900 2253 
Q 3981 2478 3981 2559 
Q 3981 2681 3922 2737 
Q 3863 2794 3691 2806 
L 3691 2922 
L 4556 2922 
L 4556 2806 
Q 4413 2788 4328 2705 
Q 4244 2622 4109 2234 
L 3291 -88 
L 3113 -88 
z
" transform="scale(0.015625)"/>
       <path id="TimesNewRomanPS-BoldMT-69" d="M 919 4338 
Q 1122 4338 1262 4195 
Q 1403 4053 1403 3853 
Q 1403 3653 1261 3512 
Q 1119 3372 919 3372 
Q 719 3372 578 3512 
Q 438 3653 438 3853 
Q 438 4053 578 4195 
Q 719 4338 919 4338 
z
M 1356 2922 
L 1356 606 
Q 1356 297 1428 211 
Q 1500 125 1709 113 
L 1709 0 
L 131 0 
L 131 113 
Q 325 119 419 225 
Q 481 297 481 606 
L 481 2313 
Q 481 2622 409 2708 
Q 338 2794 131 2806 
L 131 2922 
L 1356 2922 
z
" transform="scale(0.015625)"/>
       <path id="TimesNewRomanPS-BoldMT-29" d="M 78 -1281 
L 78 -1138 
Q 403 -922 556 -719 
Q 766 -438 888 0 
Q 1038 550 1038 1531 
Q 1038 2456 902 2967 
Q 766 3478 531 3794 
Q 369 4013 78 4178 
L 78 4334 
Q 831 4081 1354 3301 
Q 1878 2522 1878 1509 
Q 1878 513 1354 -257 
Q 831 -1028 78 -1281 
z
" transform="scale(0.015625)"/>
      </defs>
      <use xlink:href="#TimesNewRomanPS-BoldMT-54"/>
      <use xlink:href="#TimesNewRomanPS-BoldMT-6f" x="57.574219"/>
      <use xlink:href="#TimesNewRomanPS-BoldMT-74" x="107.574219"/>
      <use xlink:href="#TimesNewRomanPS-BoldMT-61" x="140.875"/>
      <use xlink:href="#TimesNewRomanPS-BoldMT-6c" x="190.875"/>
      <use xlink:href="#TimesNewRomanPS-BoldMT-20" x="218.658203"/>
      <use xlink:href="#TimesNewRomanPS-BoldMT-47" x="243.658203"/>
      <use xlink:href="#TimesNewRomanPS-BoldMT-61" x="321.441406"/>
      <use xlink:href="#TimesNewRomanPS-BoldMT-73" x="371.441406"/>
      <use xlink:href="#TimesNewRomanPS-BoldMT-20" x="410.357422"/>
      <use xlink:href="#TimesNewRomanPS-BoldMT-53" x="435.357422"/>
      <use xlink:href="#TimesNewRomanPS-BoldMT-70" x="490.972656"/>
      <use xlink:href="#TimesNewRomanPS-BoldMT-65" x="546.587891"/>
      <use xlink:href="#TimesNewRomanPS-BoldMT-6e" x="590.972656"/>
      <use xlink:href="#TimesNewRomanPS-BoldMT-64" x="646.587891"/>
      <use xlink:href="#TimesNewRomanPS-BoldMT-20" x="702.203125"/>
      <use xlink:href="#TimesNewRomanPS-BoldMT-28" x="727.203125"/>
      <use xlink:href="#TimesNewRomanPS-BoldMT-47" x="760.503906"/>
      <use xlink:href="#TimesNewRomanPS-BoldMT-77" x="838.287109"/>
      <use xlink:href="#TimesNewRomanPS-BoldMT-65" x="910.503906"/>
      <use xlink:href="#TimesNewRomanPS-BoldMT-69" x="954.888672"/>
      <use xlink:href="#TimesNewRomanPS-BoldMT-29" x="982.671875"/>
     </g>
    </g>
   </g>
   <g id="PathCollection_1">
    <defs>
     <path id="m0575922cc0" d="M 0 2.738613 
C 0.726289 2.738613 1.422928 2.450055 1.936492 1.936492 
C 2.450055 1.422928 2.738613 0.726289 2.738613 0 
C 2.738613 -0.726289 2.450055 -1.422928 1.936492 -1.936492 
C 1.422928 -2.450055 0.726289 -2.738613 0 -2.738613 
C -0.726289 -2.738613 -1.422928 -2.450055 -1.936492 -1.936492 
C -2.450055 -1.422928 -2.738613 -0.726289 -2.738613 0 
C -2.738613 0.726289 -2.450055 1.422928 -1.936492 1.936492 
C -1.422928 2.450055 -0.726289 2.738613 0 2.738613 
z
" style="stroke: #731d1d; stroke-opacity: 0.8"/>
    </defs>
    <g clip-path="url(#p38071b79e7)">
     <use xlink:href="#m0575922cc0" x="67.877557" y="186.198871" style="fill: #731d1d; fill-opacity: 0.8; stroke: #731d1d; stroke-opacity: 0.8"/>
     <use xlink:href="#m0575922cc0" x="134.859091" y="153.619151" style="fill: #731d1d; fill-opacity: 0.8; stroke: #731d1d; stroke-opacity: 0.8"/>
     <use xlink:href="#m0575922cc0" x="201.840625" y="120.972519" style="fill: #731d1d; fill-opacity: 0.8; stroke: #731d1d; stroke-opacity: 0.8"/>
     <use xlink:href="#m0575922cc0" x="268.822159" y="88.223135" style="fill: #731d1d; fill-opacity: 0.8; stroke: #731d1d; stroke-opacity: 0.8"/>
     <use xlink:href="#m0575922cc0" x="335.803693" y="55.699851" style="fill: #731d1d; fill-opacity: 0.8; stroke: #731d1d; stroke-opacity: 0.8"/>
    </g>
   </g>
   <g id="PolyCollection_1">
    <defs>
     <path id="m580eb32505" d="M 67.877557 -89.059865 
L 67.877557 -64.850415 
L 70.583881 -66.196276 
L 73.290206 -67.326807 
L 75.996531 -68.12469 
L 78.702855 -68.945936 
L 81.40918 -69.790545 
L 84.115504 -70.658516 
L 86.821829 -71.54985 
L 89.528154 -72.464547 
L 92.234478 -73.402606 
L 94.940803 -74.364029 
L 97.647128 -75.348814 
L 100.353452 -76.356961 
L 103.059777 -77.388472 
L 105.766101 -78.443345 
L 108.472426 -79.521581 
L 111.178751 -80.62318 
L 113.885075 -81.748141 
L 116.5914 -82.896465 
L 119.297724 -84.068152 
L 122.004049 -85.263202 
L 124.710374 -86.481614 
L 127.416698 -87.72339 
L 130.123023 -88.988528 
L 132.829347 -90.277028 
L 135.535672 -91.588892 
L 138.241997 -92.924118 
L 140.948321 -94.282707 
L 143.654646 -95.664658 
L 146.360971 -97.069973 
L 149.067295 -98.49865 
L 151.77362 -99.95069 
L 154.479944 -101.426092 
L 157.186269 -102.924857 
L 159.892594 -104.446986 
L 162.598918 -105.992476 
L 165.305243 -107.56133 
L 168.011567 -109.153546 
L 170.717892 -110.769125 
L 173.424217 -112.15526 
L 176.130541 -113.211391 
L 178.836866 -114.27926 
L 181.54319 -115.358868 
L 184.249515 -116.450214 
L 186.95584 -117.553299 
L 189.662164 -118.668122 
L 192.368489 -119.794683 
L 195.074813 -120.932983 
L 197.781138 -122.083022 
L 200.487463 -123.244799 
L 203.193787 -124.418314 
L 205.900112 -125.603568 
L 208.606437 -126.80056 
L 211.312761 -128.00929 
L 214.019086 -129.229759 
L 216.72541 -130.461967 
L 219.431735 -131.705913 
L 222.13806 -132.998505 
L 224.844384 -134.650273 
L 227.550709 -136.318347 
L 230.257033 -138.002727 
L 232.963358 -139.703413 
L 235.669683 -141.420404 
L 238.376007 -143.153702 
L 241.082332 -144.903305 
L 243.788656 -146.669213 
L 246.494981 -148.451428 
L 249.201306 -150.249948 
L 251.90763 -152.064774 
L 254.613955 -153.648249 
L 257.320279 -154.916665 
L 260.026604 -156.195655 
L 262.732929 -157.485218 
L 265.439253 -158.785354 
L 268.145578 -160.096064 
L 270.851903 -161.417347 
L 273.558227 -162.749204 
L 276.264552 -164.091633 
L 278.970876 -165.444637 
L 281.677201 -166.808213 
L 284.383526 -168.182363 
L 287.08985 -169.567086 
L 289.796175 -170.962383 
L 292.502499 -172.368253 
L 295.208824 -173.784696 
L 297.915149 -175.211713 
L 300.621473 -176.649303 
L 303.327798 -178.097466 
L 306.034122 -179.556203 
L 308.740447 -181.025513 
L 311.446772 -182.505396 
L 314.153096 -183.995853 
L 316.859421 -185.496883 
L 319.565746 -187.008487 
L 322.27207 -188.530664 
L 324.978395 -190.063414 
L 327.684719 -191.606738 
L 330.391044 -193.160635 
L 333.097369 -194.725105 
L 335.803693 -196.300149 
L 335.803693 -232.536364 
L 335.803693 -232.536364 
L 333.097369 -230.00778 
L 330.391044 -227.498904 
L 327.684719 -225.009735 
L 324.978395 -222.540273 
L 322.27207 -220.090519 
L 319.565746 -217.660471 
L 316.859421 -215.250131 
L 314.153096 -212.859498 
L 311.446772 -210.488572 
L 308.740447 -208.137353 
L 306.034122 -205.805841 
L 303.327798 -203.494037 
L 300.621473 -201.201939 
L 297.915149 -198.929549 
L 295.208824 -196.676866 
L 292.502499 -194.44389 
L 289.796175 -192.230622 
L 287.08985 -190.03706 
L 284.383526 -187.863206 
L 281.677201 -185.709059 
L 278.970876 -183.574619 
L 276.264552 -181.459886 
L 273.558227 -179.36486 
L 270.851903 -177.289542 
L 268.145578 -175.233931 
L 265.439253 -173.198027 
L 262.732929 -171.18183 
L 260.026604 -169.18534 
L 257.320279 -167.208557 
L 254.613955 -165.251482 
L 251.90763 -163.314114 
L 249.201306 -161.396452 
L 246.494981 -159.498498 
L 243.788656 -157.620252 
L 241.082332 -155.761712 
L 238.376007 -153.92288 
L 235.669683 -152.103754 
L 232.963358 -150.304336 
L 230.257033 -148.524625 
L 227.550709 -146.764622 
L 224.844384 -145.537961 
L 222.13806 -144.496212 
L 219.431735 -143.463813 
L 216.72541 -141.810396 
L 214.019086 -139.797271 
L 211.312761 -137.807522 
L 208.606437 -135.841148 
L 205.900112 -133.89815 
L 203.193787 -131.978527 
L 200.487463 -130.526834 
L 197.781138 -129.45422 
L 195.074813 -128.418605 
L 192.368489 -127.393571 
L 189.662164 -126.379117 
L 186.95584 -125.375243 
L 184.249515 -124.381949 
L 181.54319 -123.399236 
L 178.836866 -122.427103 
L 176.130541 -121.465551 
L 173.424217 -120.514579 
L 170.717892 -119.574187 
L 168.011567 -118.644376 
L 165.305243 -117.725145 
L 162.598918 -116.816495 
L 159.892594 -115.918425 
L 157.186269 -114.817748 
L 154.479944 -112.676882 
L 151.77362 -111.670849 
L 149.067295 -110.749391 
L 146.360971 -109.840738 
L 143.654646 -108.944889 
L 140.948321 -108.061845 
L 138.241997 -107.191606 
L 135.535672 -106.334172 
L 132.829347 -105.489543 
L 130.123023 -104.657718 
L 127.416698 -103.838698 
L 124.710374 -103.032483 
L 122.004049 -102.239073 
L 119.297724 -101.458467 
L 116.5914 -100.690666 
L 113.885075 -99.93567 
L 111.178751 -99.193479 
L 108.472426 -98.464092 
L 105.766101 -97.74751 
L 103.059777 -97.043733 
L 100.353452 -96.352761 
L 97.647128 -95.674593 
L 94.940803 -95.009231 
L 92.234478 -94.356673 
L 89.528154 -93.716919 
L 86.821829 -93.089971 
L 84.115504 -92.475827 
L 81.40918 -91.874488 
L 78.702855 -91.285954 
L 75.996531 -90.710224 
L 73.290206 -90.1473 
L 70.583881 -89.59718 
L 67.877557 -89.059865 
z
" style="stroke: #ffffff; stroke-opacity: 0.15"/>
    </defs>
    <g clip-path="url(#p38071b79e7)">
     <use xlink:href="#m580eb32505" x="0" y="252" style="fill: #731d1d; fill-opacity: 0.15; stroke: #ffffff; stroke-opacity: 0.15"/>
    </g>
   </g>
   <g id="PathCollection_2">
    <defs>
     <path id="m7ae792e2ab" d="M 0 2.738613 
C 0.726289 2.738613 1.422928 2.450055 1.936492 1.936492 
C 2.450055 1.422928 2.738613 0.726289 2.738613 0 
C 2.738613 -0.726289 2.450055 -1.422928 1.936492 -1.936492 
C 1.422928 -2.450055 0.726289 -2.738613 0 -2.738613 
C -0.726289 -2.738613 -1.422928 -2.450055 -1.936492 -1.936492 
C -2.450055 -1.422928 -2.738613 -0.726289 -2.738613 0 
C -2.738613 0.726289 -2.450055 1.422928 -1.936492 1.936492 
C -1.422928 2.450055 -0.726289 2.738613 0 2.738613 
z
" style="stroke: #735340; stroke-opacity: 0.8"/>
    </defs>
    <g clip-path="url(#p38071b79e7)">
     <use xlink:href="#m7ae792e2ab" x="67.877557" y="187.722668" style="fill: #735340; fill-opacity: 0.8; stroke: #735340; stroke-opacity: 0.8"/>
     <use xlink:href="#m7ae792e2ab" x="134.859091" y="160.927403" style="fill: #735340; fill-opacity: 0.8; stroke: #735340; stroke-opacity: 0.8"/>
     <use xlink:href="#m7ae792e2ab" x="201.840625" y="134.25795" style="fill: #735340; fill-opacity: 0.8; stroke: #735340; stroke-opacity: 0.8"/>
     <use xlink:href="#m7ae792e2ab" x="268.822159" y="107.430234" style="fill: #735340; fill-opacity: 0.8; stroke: #735340; stroke-opacity: 0.8"/>
     <use xlink:href="#m7ae792e2ab" x="335.803693" y="80.666426" style="fill: #735340; fill-opacity: 0.8; stroke: #735340; stroke-opacity: 0.8"/>
    </g>
   </g>
   <g id="PolyCollection_2">
    <defs>
     <path id="m1c625c934b" d="M 67.877557 -85.428237 
L 67.877557 -63.894891 
L 70.583881 -64.892836 
L 73.290206 -65.5275 
L 75.996531 -66.181321 
L 78.702855 -66.854301 
L 81.40918 -67.546439 
L 84.115504 -68.257736 
L 86.821829 -68.988191 
L 89.528154 -69.737804 
L 92.234478 -70.506576 
L 94.940803 -71.294506 
L 97.647128 -72.101594 
L 100.353452 -72.927841 
L 103.059777 -73.773246 
L 105.766101 -74.63781 
L 108.472426 -75.521532 
L 111.178751 -76.424412 
L 113.885075 -77.346451 
L 116.5914 -78.287648 
L 119.297724 -79.248003 
L 122.004049 -80.227517 
L 124.710374 -81.226189 
L 127.416698 -82.24402 
L 130.123023 -83.281009 
L 132.829347 -84.337156 
L 135.535672 -85.412462 
L 138.241997 -86.506926 
L 140.948321 -87.620549 
L 143.654646 -88.75333 
L 146.360971 -89.905269 
L 149.067295 -91.076366 
L 151.77362 -92.266622 
L 154.479944 -93.476037 
L 157.186269 -94.704609 
L 159.892594 -95.952341 
L 162.598918 -97.21923 
L 165.305243 -98.505278 
L 168.011567 -99.810484 
L 170.717892 -101.134849 
L 173.424217 -102.3647 
L 176.130541 -103.230463 
L 178.836866 -104.105843 
L 181.54319 -104.99084 
L 184.249515 -105.885455 
L 186.95584 -106.789688 
L 189.662164 -107.703538 
L 192.368489 -108.627006 
L 195.074813 -109.560092 
L 197.781138 -110.502795 
L 200.487463 -111.455116 
L 203.193787 -112.417054 
L 205.900112 -113.38861 
L 208.606437 -114.369783 
L 211.312761 -115.360574 
L 214.019086 -116.360983 
L 216.72541 -117.371009 
L 219.431735 -118.390653 
L 222.13806 -119.419914 
L 224.844384 -120.699518 
L 227.550709 -122.066555 
L 230.257033 -123.446956 
L 232.963358 -124.840721 
L 235.669683 -126.247851 
L 238.376007 -127.668344 
L 241.082332 -129.102202 
L 243.788656 -130.549424 
L 246.494981 -132.01001 
L 249.201306 -133.483959 
L 251.90763 -134.971273 
L 254.613955 -136.312381 
L 257.320279 -137.353766 
L 260.026604 -138.40384 
L 262.732929 -139.462603 
L 265.439253 -140.530054 
L 268.145578 -141.606195 
L 270.851903 -142.691024 
L 273.558227 -143.784542 
L 276.264552 -144.886749 
L 278.970876 -145.997645 
L 281.677201 -147.117229 
L 284.383526 -148.245503 
L 287.08985 -149.382465 
L 289.796175 -150.528116 
L 292.502499 -151.682456 
L 295.208824 -152.845485 
L 297.915149 -154.017202 
L 300.621473 -155.197608 
L 303.327798 -156.386704 
L 306.034122 -157.584487 
L 308.740447 -158.79096 
L 311.446772 -160.006122 
L 314.153096 -161.229972 
L 316.859421 -162.462512 
L 319.565746 -163.70374 
L 322.27207 -164.953657 
L 324.978395 -166.212263 
L 327.684719 -167.479557 
L 330.391044 -168.573418 
L 333.097369 -169.638572 
L 335.803693 -170.70352 
L 335.803693 -200.606625 
L 335.803693 -200.606625 
L 333.097369 -198.542974 
L 330.391044 -196.49539 
L 327.684719 -194.463873 
L 324.978395 -192.448423 
L 322.27207 -190.44904 
L 319.565746 -188.465723 
L 316.859421 -186.498473 
L 314.153096 -184.547289 
L 311.446772 -182.612173 
L 308.740447 -180.693123 
L 306.034122 -178.79014 
L 303.327798 -176.903224 
L 300.621473 -175.032374 
L 297.915149 -173.177592 
L 295.208824 -171.338876 
L 292.502499 -169.516226 
L 289.796175 -167.709644 
L 287.08985 -165.919128 
L 284.383526 -164.144679 
L 281.677201 -162.386297 
L 278.970876 -160.643981 
L 276.264552 -158.917733 
L 273.558227 -157.207551 
L 270.851903 -155.513435 
L 268.145578 -153.835387 
L 265.439253 -152.173405 
L 262.732929 -150.52749 
L 260.026604 -148.897642 
L 257.320279 -147.28386 
L 254.613955 -145.686146 
L 251.90763 -144.104498 
L 249.201306 -142.538916 
L 246.494981 -140.989402 
L 243.788656 -139.455954 
L 241.082332 -137.938573 
L 238.376007 -136.437341 
L 235.669683 -134.952086 
L 232.963358 -133.482897 
L 230.257033 -132.029776 
L 227.550709 -130.592722 
L 224.844384 -129.565018 
L 222.13806 -128.708123 
L 219.431735 -127.858936 
L 216.72541 -126.580279 
L 214.019086 -124.930222 
L 211.312761 -123.299337 
L 208.606437 -121.687593 
L 205.900112 -120.095007 
L 203.193787 -118.521579 
L 200.487463 -117.309332 
L 197.781138 -116.450412 
L 195.074813 -115.600181 
L 192.368489 -114.758639 
L 189.662164 -113.925786 
L 186.95584 -113.101621 
L 184.249515 -112.286146 
L 181.54319 -111.479359 
L 178.836866 -110.681261 
L 176.130541 -109.891852 
L 173.424217 -109.111131 
L 170.717892 -108.3391 
L 168.011567 -107.575757 
L 165.305243 -106.821103 
L 162.598918 -106.075138 
L 159.892594 -105.337862 
L 157.186269 -104.606589 
L 154.479944 -103.886485 
L 151.77362 -103.175064 
L 149.067295 -102.472327 
L 146.360971 -101.778274 
L 143.654646 -101.092906 
L 140.948321 -100.416221 
L 138.241997 -99.748219 
L 135.535672 -99.088902 
L 132.829347 -98.438269 
L 130.123023 -97.796319 
L 127.416698 -97.163054 
L 124.710374 -96.538472 
L 122.004049 -95.922574 
L 119.297724 -95.315361 
L 116.5914 -94.716831 
L 113.885075 -94.126985 
L 111.178751 -93.545822 
L 108.472426 -92.973344 
L 105.766101 -92.40955 
L 103.059777 -91.854439 
L 100.353452 -91.308013 
L 97.647128 -90.77027 
L 94.940803 -90.241211 
L 92.234478 -89.720836 
L 89.528154 -89.209145 
L 86.821829 -88.706138 
L 84.115504 -88.211815 
L 81.40918 -87.726175 
L 78.702855 -87.24922 
L 75.996531 -86.780948 
L 73.290206 -86.321361 
L 70.583881 -85.870457 
L 67.877557 -85.428237 
z
" style="stroke: #ffffff; stroke-opacity: 0.15"/>
    </defs>
    <g clip-path="url(#p38071b79e7)">
     <use xlink:href="#m1c625c934b" x="0" y="252" style="fill: #735340; fill-opacity: 0.15; stroke: #ffffff; stroke-opacity: 0.15"/>
    </g>
   </g>
   <g id="PathCollection_3">
    <defs>
     <path id="mf41457ca19" d="M 0 2.738613 
C 0.726289 2.738613 1.422928 2.450055 1.936492 1.936492 
C 2.450055 1.422928 2.738613 0.726289 2.738613 0 
C 2.738613 -0.726289 2.450055 -1.422928 1.936492 -1.936492 
C 1.422928 -2.450055 0.726289 -2.738613 0 -2.738613 
C -0.726289 -2.738613 -1.422928 -2.450055 -1.936492 -1.936492 
C -2.450055 -1.422928 -2.738613 -0.726289 -2.738613 0 
C -2.738613 0.726289 -2.450055 1.422928 -1.936492 1.936492 
C -1.422928 2.450055 -0.726289 2.738613 0 2.738613 
z
" style="stroke: #d94436; stroke-opacity: 0.8"/>
    </defs>
    <g clip-path="url(#p38071b79e7)">
     <use xlink:href="#mf41457ca19" x="67.877557" y="189.27305" style="fill: #d94436; fill-opacity: 0.8; stroke: #d94436; stroke-opacity: 0.8"/>
     <use xlink:href="#mf41457ca19" x="134.859091" y="168.432371" style="fill: #d94436; fill-opacity: 0.8; stroke: #d94436; stroke-opacity: 0.8"/>
     <use xlink:href="#mf41457ca19" x="201.840625" y="147.606803" style="fill: #d94436; fill-opacity: 0.8; stroke: #d94436; stroke-opacity: 0.8"/>
     <use xlink:href="#mf41457ca19" x="268.822159" y="126.72011" style="fill: #d94436; fill-opacity: 0.8; stroke: #d94436; stroke-opacity: 0.8"/>
     <use xlink:href="#mf41457ca19" x="335.803693" y="105.905723" style="fill: #d94436; fill-opacity: 0.8; stroke: #d94436; stroke-opacity: 0.8"/>
    </g>
   </g>
   <g id="PolyCollection_3">
    <defs>
     <path id="m84f9f458c5" d="M 67.877557 -77.61464 
L 67.877557 -62.40289 
L 70.583881 -63.206896 
L 73.290206 -63.701761 
L 75.996531 -64.211546 
L 78.702855 -64.736251 
L 81.40918 -65.275874 
L 84.115504 -65.830418 
L 86.821829 -66.39988 
L 89.528154 -66.984262 
L 92.234478 -67.583564 
L 94.940803 -68.197785 
L 97.647128 -68.826925 
L 100.353452 -69.470985 
L 103.059777 -70.129964 
L 105.766101 -70.803863 
L 108.472426 -71.492681 
L 111.178751 -72.196419 
L 113.885075 -72.915076 
L 116.5914 -73.648652 
L 119.297724 -74.397148 
L 122.004049 -75.160563 
L 124.710374 -75.938898 
L 127.416698 -76.732152 
L 130.123023 -77.540326 
L 132.829347 -78.363419 
L 135.535672 -79.201432 
L 138.241997 -80.054364 
L 140.948321 -80.922215 
L 143.654646 -81.804986 
L 146.360971 -82.702676 
L 149.067295 -83.615286 
L 151.77362 -84.542815 
L 154.479944 -85.485263 
L 157.186269 -86.442631 
L 159.892594 -87.414919 
L 162.598918 -88.402126 
L 165.305243 -89.404252 
L 168.011567 -90.421298 
L 170.717892 -91.453263 
L 173.424217 -92.498122 
L 176.130541 -93.560072 
L 178.836866 -94.636951 
L 181.54319 -95.476877 
L 184.249515 -96.253443 
L 186.95584 -97.039452 
L 189.662164 -97.834906 
L 192.368489 -98.639802 
L 195.074813 -99.454143 
L 197.781138 -100.277928 
L 200.487463 -101.111156 
L 203.193787 -101.953828 
L 205.900112 -102.805943 
L 208.606437 -103.667503 
L 211.312761 -104.538506 
L 214.019086 -105.418953 
L 216.72541 -106.308844 
L 219.431735 -107.208179 
L 222.13806 -108.116957 
L 224.844384 -109.035179 
L 227.550709 -109.962845 
L 230.257033 -110.899954 
L 232.963358 -111.846508 
L 235.669683 -112.802505 
L 238.376007 -113.767946 
L 241.082332 -114.74283 
L 243.788656 -115.670928 
L 246.494981 -116.45426 
L 249.201306 -117.244348 
L 251.90763 -118.041192 
L 254.613955 -118.971552 
L 257.320279 -120.15102 
L 260.026604 -121.340898 
L 262.732929 -122.541185 
L 265.439253 -123.751882 
L 268.145578 -124.972988 
L 270.851903 -125.83404 
L 273.558227 -126.631082 
L 276.264552 -127.411426 
L 278.970876 -128.19776 
L 281.677201 -128.990082 
L 284.383526 -129.788394 
L 287.08985 -130.592696 
L 289.796175 -131.402986 
L 292.502499 -132.219266 
L 295.208824 -133.041535 
L 297.915149 -133.869793 
L 300.621473 -134.704041 
L 303.327798 -135.544277 
L 306.034122 -136.390503 
L 308.740447 -137.242718 
L 311.446772 -138.100923 
L 314.153096 -138.965116 
L 316.859421 -139.835299 
L 319.565746 -140.711471 
L 322.27207 -141.593632 
L 324.978395 -142.481783 
L 327.684719 -143.375922 
L 330.391044 -144.276051 
L 333.097369 -145.159082 
L 335.803693 -145.999005 
L 335.803693 -169.056742 
L 335.803693 -169.056742 
L 333.097369 -167.446737 
L 330.391044 -165.849255 
L 327.684719 -164.264296 
L 324.978395 -162.691859 
L 322.27207 -161.131944 
L 319.565746 -159.584552 
L 316.859421 -158.049683 
L 314.153096 -156.527336 
L 311.446772 -155.017511 
L 308.740447 -153.520209 
L 306.034122 -152.03543 
L 303.327798 -150.563173 
L 300.621473 -149.103438 
L 297.915149 -147.656226 
L 295.208824 -146.221536 
L 292.502499 -144.799369 
L 289.796175 -143.389724 
L 287.08985 -141.992602 
L 284.383526 -140.608002 
L 281.677201 -139.235925 
L 278.970876 -137.87637 
L 276.264552 -136.529338 
L 273.558227 -135.194828 
L 270.851903 -133.872841 
L 268.145578 -132.563376 
L 265.439253 -131.266434 
L 262.732929 -129.982014 
L 260.026604 -128.710116 
L 257.320279 -127.450741 
L 254.613955 -126.203889 
L 251.90763 -124.969559 
L 249.201306 -123.747752 
L 246.494981 -122.538467 
L 243.788656 -121.341704 
L 241.082332 -120.157464 
L 238.376007 -118.985746 
L 235.669683 -117.826551 
L 232.963358 -116.679879 
L 230.257033 -115.545729 
L 227.550709 -114.424101 
L 224.844384 -113.607866 
L 222.13806 -112.941214 
L 219.431735 -112.280548 
L 216.72541 -111.279345 
L 214.019086 -109.99375 
L 211.312761 -108.723073 
L 208.606437 -107.467317 
L 205.900112 -106.226479 
L 203.193787 -105.000561 
L 200.487463 -104.026912 
L 197.781138 -103.290512 
L 195.074813 -102.565546 
L 192.368489 -101.848707 
L 189.662164 -101.139993 
L 186.95584 -100.439407 
L 184.249515 -99.746946 
L 181.54319 -99.062612 
L 178.836866 -98.386404 
L 176.130541 -97.718322 
L 173.424217 -97.058366 
L 170.717892 -96.406537 
L 168.011567 -95.762834 
L 165.305243 -95.127258 
L 162.598918 -94.499807 
L 159.892594 -93.880483 
L 157.186269 -93.267031 
L 154.479944 -92.643745 
L 151.77362 -92.045279 
L 149.067295 -91.45738 
L 146.360971 -90.877641 
L 143.654646 -90.306061 
L 140.948321 -89.742642 
L 138.241997 -89.187381 
L 135.535672 -88.640281 
L 132.829347 -88.10134 
L 130.123023 -87.570558 
L 127.416698 -87.047936 
L 124.710374 -86.533474 
L 122.004049 -86.027172 
L 119.297724 -85.529029 
L 116.5914 -85.039045 
L 113.885075 -84.557221 
L 111.178751 -84.083557 
L 108.472426 -83.618053 
L 105.766101 -83.160708 
L 103.059777 -82.711523 
L 100.353452 -82.270497 
L 97.647128 -81.837631 
L 94.940803 -81.412925 
L 92.234478 -80.996378 
L 89.528154 -80.587991 
L 86.821829 -80.187763 
L 84.115504 -79.795695 
L 81.40918 -79.411787 
L 78.702855 -79.036038 
L 75.996531 -78.668449 
L 73.290206 -78.30902 
L 70.583881 -77.95775 
L 67.877557 -77.61464 
z
" style="stroke: #ffffff; stroke-opacity: 0.15"/>
    </defs>
    <g clip-path="url(#p38071b79e7)">
     <use xlink:href="#m84f9f458c5" x="0" y="252" style="fill: #d94436; fill-opacity: 0.15; stroke: #ffffff; stroke-opacity: 0.15"/>
    </g>
   </g>
   <g id="PathCollection_4">
    <defs>
     <path id="mbcd8eb7eea" d="M 0 2.738613 
C 0.726289 2.738613 1.422928 2.450055 1.936492 1.936492 
C 2.450055 1.422928 2.738613 0.726289 2.738613 0 
C 2.738613 -0.726289 2.450055 -1.422928 1.936492 -1.936492 
C 1.422928 -2.450055 0.726289 -2.738613 0 -2.738613 
C -0.726289 -2.738613 -1.422928 -2.450055 -1.936492 -1.936492 
C -2.450055 -1.422928 -2.738613 -0.726289 -2.738613 0 
C -2.738613 0.726289 -2.450055 1.422928 -1.936492 1.936492 
C -1.422928 2.450055 -0.726289 2.738613 0 2.738613 
z
" style="stroke: #f26444; stroke-opacity: 0.8"/>
    </defs>
    <g clip-path="url(#p38071b79e7)">
     <use xlink:href="#mbcd8eb7eea" x="67.877557" y="190.686615" style="fill: #f26444; fill-opacity: 0.8; stroke: #f26444; stroke-opacity: 0.8"/>
     <use xlink:href="#mbcd8eb7eea" x="134.859091" y="175.760205" style="fill: #f26444; fill-opacity: 0.8; stroke: #f26444; stroke-opacity: 0.8"/>
     <use xlink:href="#mbcd8eb7eea" x="201.840625" y="160.756721" style="fill: #f26444; fill-opacity: 0.8; stroke: #f26444; stroke-opacity: 0.8"/>
     <use xlink:href="#mbcd8eb7eea" x="268.822159" y="145.769124" style="fill: #f26444; fill-opacity: 0.8; stroke: #f26444; stroke-opacity: 0.8"/>
     <use xlink:href="#mbcd8eb7eea" x="335.803693" y="130.835383" style="fill: #f26444; fill-opacity: 0.8; stroke: #f26444; stroke-opacity: 0.8"/>
    </g>
   </g>
   <g id="PolyCollection_4">
    <defs>
     <path id="m588024c72c" d="M 67.877557 -71.998684 
L 67.877557 -61.106511 
L 70.583881 -61.696293 
L 73.290206 -62.097742 
L 75.996531 -62.517733 
L 78.702855 -62.956265 
L 81.40918 -63.413339 
L 84.115504 -63.888954 
L 86.821829 -64.383111 
L 89.528154 -64.895809 
L 92.234478 -65.427048 
L 94.940803 -65.976829 
L 97.647128 -66.545151 
L 100.353452 -67.132014 
L 103.059777 -67.737419 
L 105.766101 -68.361366 
L 108.472426 -69.003853 
L 111.178751 -69.664883 
L 113.885075 -70.344453 
L 116.5914 -71.042565 
L 119.297724 -71.759219 
L 122.004049 -72.494414 
L 124.710374 -73.24815 
L 127.416698 -74.020428 
L 130.123023 -74.811247 
L 132.829347 -75.620607 
L 135.535672 -76.349273 
L 138.241997 -76.791404 
L 140.948321 -77.240289 
L 143.654646 -77.695926 
L 146.360971 -78.158315 
L 149.067295 -78.627458 
L 151.77362 -79.103354 
L 154.479944 -79.586002 
L 157.186269 -80.075404 
L 159.892594 -80.571558 
L 162.598918 -81.074465 
L 165.305243 -81.584125 
L 168.011567 -82.100538 
L 170.717892 -82.623703 
L 173.424217 -83.156978 
L 176.130541 -83.700587 
L 178.836866 -84.251083 
L 181.54319 -85.015388 
L 184.249515 -85.804323 
L 186.95584 -86.603875 
L 189.662164 -87.414044 
L 192.368489 -88.23483 
L 195.074813 -89.066233 
L 197.781138 -89.908253 
L 200.487463 -90.76089 
L 203.193787 -91.435623 
L 205.900112 -91.928157 
L 208.606437 -92.425582 
L 211.312761 -92.927899 
L 214.019086 -93.435106 
L 216.72541 -93.947205 
L 219.431735 -94.464195 
L 222.13806 -94.986076 
L 224.844384 -95.512848 
L 227.550709 -96.044512 
L 230.257033 -96.581067 
L 232.963358 -97.122513 
L 235.669683 -97.66885 
L 238.376007 -98.220078 
L 241.082332 -98.776198 
L 243.788656 -99.363553 
L 246.494981 -100.077982 
L 249.201306 -100.799194 
L 251.90763 -101.527191 
L 254.613955 -102.261972 
L 257.320279 -103.003537 
L 260.026604 -103.751887 
L 262.732929 -104.507021 
L 265.439253 -105.268939 
L 268.145578 -106.014028 
L 270.851903 -106.619576 
L 273.558227 -107.200529 
L 276.264552 -107.760511 
L 278.970876 -108.324779 
L 281.677201 -108.893334 
L 284.383526 -109.466175 
L 287.08985 -110.043303 
L 289.796175 -110.624718 
L 292.502499 -111.210419 
L 295.208824 -111.800407 
L 297.915149 -112.394681 
L 300.621473 -112.993242 
L 303.327798 -113.59609 
L 306.034122 -114.203224 
L 308.740447 -114.814645 
L 311.446772 -115.430352 
L 314.153096 -116.050347 
L 316.859421 -116.674627 
L 319.565746 -117.303194 
L 322.27207 -117.936048 
L 324.978395 -118.573189 
L 327.684719 -119.214616 
L 330.391044 -119.860329 
L 333.097369 -120.51033 
L 335.803693 -121.164617 
L 335.803693 -130.545719 
L 335.803693 -130.545719 
L 333.097369 -129.479686 
L 330.391044 -128.421164 
L 327.684719 -127.370155 
L 324.978395 -126.326657 
L 322.27207 -125.290672 
L 319.565746 -124.262199 
L 316.859421 -123.241237 
L 314.153096 -122.227788 
L 311.446772 -121.221851 
L 308.740447 -120.223426 
L 306.034122 -119.232513 
L 303.327798 -118.249112 
L 300.621473 -117.273223 
L 297.915149 -116.304846 
L 295.208824 -115.343981 
L 292.502499 -114.390629 
L 289.796175 -113.444788 
L 287.08985 -112.50646 
L 284.383526 -111.575643 
L 281.677201 -110.652339 
L 278.970876 -109.736546 
L 276.264552 -108.848691 
L 273.558227 -108.315813 
L 270.851903 -107.786922 
L 268.145578 -107.262018 
L 265.439253 -106.7411 
L 262.732929 -106.22417 
L 260.026604 -105.711225 
L 257.320279 -105.202268 
L 254.613955 -104.697297 
L 251.90763 -104.196313 
L 249.201306 -103.699315 
L 246.494981 -103.206304 
L 243.788656 -102.71728 
L 241.082332 -102.232243 
L 238.376007 -101.751192 
L 235.669683 -100.918177 
L 232.963358 -100.092384 
L 230.257033 -99.2756 
L 227.550709 -98.467825 
L 224.844384 -97.85387 
L 222.13806 -97.375334 
L 219.431735 -96.901085 
L 216.72541 -96.187861 
L 214.019086 -95.264761 
L 211.312761 -94.352366 
L 208.606437 -93.450675 
L 205.900112 -92.559688 
L 203.193787 -91.679406 
L 200.487463 -90.978002 
L 197.781138 -90.451813 
L 195.074813 -89.931444 
L 192.368489 -89.416896 
L 189.662164 -88.908168 
L 186.95584 -88.40526 
L 184.249515 -87.908173 
L 181.54319 -87.416906 
L 178.836866 -86.93146 
L 176.130541 -86.451834 
L 173.424217 -85.978028 
L 170.717892 -85.510042 
L 168.011567 -85.047877 
L 165.305243 -84.591533 
L 162.598918 -84.141008 
L 159.892594 -83.696304 
L 157.186269 -83.253335 
L 154.479944 -82.804662 
L 151.77362 -82.376467 
L 149.067295 -81.954112 
L 146.360971 -81.537597 
L 143.654646 -81.12692 
L 140.948321 -80.722083 
L 138.241997 -80.323084 
L 135.535672 -79.929925 
L 132.829347 -79.542605 
L 130.123023 -79.161125 
L 127.416698 -78.785483 
L 124.710374 -78.415681 
L 122.004049 -78.051718 
L 119.297724 -77.693594 
L 116.5914 -77.341309 
L 113.885075 -76.994863 
L 111.178751 -76.654257 
L 108.472426 -76.31949 
L 105.766101 -75.990562 
L 103.059777 -75.667473 
L 100.353452 -75.350223 
L 97.647128 -75.038813 
L 94.940803 -74.733241 
L 92.234478 -74.433509 
L 89.528154 -74.139616 
L 86.821829 -73.851562 
L 84.115504 -73.569348 
L 81.40918 -73.292973 
L 78.702855 -73.022436 
L 75.996531 -72.757739 
L 73.290206 -72.498882 
L 70.583881 -72.245863 
L 67.877557 -71.998684 
z
" style="stroke: #ffffff; stroke-opacity: 0.15"/>
    </defs>
    <g clip-path="url(#p38071b79e7)">
     <use xlink:href="#m588024c72c" x="0" y="252" style="fill: #f26444; fill-opacity: 0.15; stroke: #ffffff; stroke-opacity: 0.15"/>
    </g>
   </g>
   <g id="PathCollection_5">
    <defs>
     <path id="mb157bae3b9" d="M 0 2.738613 
C 0.726289 2.738613 1.422928 2.450055 1.936492 1.936492 
C 2.450055 1.422928 2.738613 0.726289 2.738613 0 
C 2.738613 -0.726289 2.450055 -1.422928 1.936492 -1.936492 
C 1.422928 -2.450055 0.726289 -2.738613 0 -2.738613 
C -0.726289 -2.738613 -1.422928 -2.450055 -1.936492 -1.936492 
C -2.450055 -1.422928 -2.738613 -0.726289 -2.738613 0 
C -2.738613 0.726289 -2.450055 1.422928 -1.936492 1.936492 
C -1.422928 2.450055 -0.726289 2.738613 0 2.738613 
z
" style="stroke: #d9ab9a; stroke-opacity: 0.8"/>
    </defs>
    <g clip-path="url(#p38071b79e7)">
     <use xlink:href="#mb157bae3b9" x="67.877557" y="192.150038" style="fill: #d9ab9a; fill-opacity: 0.8; stroke: #d9ab9a; stroke-opacity: 0.8"/>
     <use xlink:href="#mb157bae3b9" x="134.859091" y="182.973135" style="fill: #d9ab9a; fill-opacity: 0.8; stroke: #d9ab9a; stroke-opacity: 0.8"/>
     <use xlink:href="#mb157bae3b9" x="201.840625" y="173.781027" style="fill: #d9ab9a; fill-opacity: 0.8; stroke: #d9ab9a; stroke-opacity: 0.8"/>
     <use xlink:href="#mb157bae3b9" x="268.822159" y="164.630439" style="fill: #d9ab9a; fill-opacity: 0.8; stroke: #d9ab9a; stroke-opacity: 0.8"/>
     <use xlink:href="#mb157bae3b9" x="335.803693" y="155.455577" style="fill: #d9ab9a; fill-opacity: 0.8; stroke: #d9ab9a; stroke-opacity: 0.8"/>
    </g>
   </g>
   <g id="PolyCollection_5">
    <defs>
     <path id="md0d7c62fe0" d="M 67.877557 -63.948055 
L 67.877557 -59.793235 
L 70.583881 -60.053179 
L 73.290206 -60.260967 
L 75.996531 -60.473326 
L 78.702855 -60.690257 
L 81.40918 -60.911758 
L 84.115504 -61.137831 
L 86.821829 -61.368475 
L 89.528154 -61.60369 
L 92.234478 -61.843476 
L 94.940803 -62.087833 
L 97.647128 -62.336761 
L 100.353452 -62.590261 
L 103.059777 -62.848331 
L 105.766101 -63.110973 
L 108.472426 -63.378186 
L 111.178751 -63.64997 
L 113.885075 -63.926325 
L 116.5914 -64.207251 
L 119.297724 -64.492748 
L 122.004049 -64.782817 
L 124.710374 -65.077456 
L 127.416698 -65.376667 
L 130.123023 -65.680448 
L 132.829347 -65.988801 
L 135.535672 -66.301725 
L 138.241997 -66.61922 
L 140.948321 -66.941286 
L 143.654646 -67.267924 
L 146.360971 -67.599132 
L 149.067295 -67.934912 
L 151.77362 -68.275262 
L 154.479944 -68.620184 
L 157.186269 -68.969677 
L 159.892594 -69.323741 
L 162.598918 -69.682376 
L 165.305243 -70.045582 
L 168.011567 -70.41336 
L 170.717892 -70.785708 
L 173.424217 -71.162628 
L 176.130541 -71.544119 
L 178.836866 -71.930181 
L 181.54319 -72.320814 
L 184.249515 -72.716018 
L 186.95584 -73.115793 
L 189.662164 -73.520139 
L 192.368489 -73.929057 
L 195.074813 -74.342545 
L 197.781138 -74.760605 
L 200.487463 -75.183236 
L 203.193787 -75.610438 
L 205.900112 -76.042211 
L 208.606437 -76.478555 
L 211.312761 -76.91947 
L 214.019086 -77.364956 
L 216.72541 -77.815014 
L 219.431735 -78.269643 
L 222.13806 -78.728842 
L 224.844384 -79.118948 
L 227.550709 -79.478511 
L 230.257033 -79.841345 
L 232.963358 -80.207453 
L 235.669683 -80.576832 
L 238.376007 -80.949484 
L 241.082332 -81.325409 
L 243.788656 -81.704606 
L 246.494981 -82.087076 
L 249.201306 -82.472818 
L 251.90763 -82.861832 
L 254.613955 -83.254119 
L 257.320279 -83.649678 
L 260.026604 -84.04851 
L 262.732929 -84.450615 
L 265.439253 -84.855991 
L 268.145578 -85.264641 
L 270.851903 -85.676562 
L 273.558227 -86.091757 
L 276.264552 -86.510223 
L 278.970876 -86.931962 
L 281.677201 -87.356974 
L 284.383526 -87.785258 
L 287.08985 -88.216814 
L 289.796175 -88.651643 
L 292.502499 -89.089745 
L 295.208824 -89.531119 
L 297.915149 -89.975765 
L 300.621473 -90.423684 
L 303.327798 -90.874875 
L 306.034122 -91.329339 
L 308.740447 -91.787075 
L 311.446772 -92.248084 
L 314.153096 -92.712365 
L 316.859421 -93.179919 
L 319.565746 -93.650745 
L 322.27207 -94.124843 
L 324.978395 -94.602214 
L 327.684719 -95.082858 
L 330.391044 -95.566774 
L 333.097369 -96.053962 
L 335.803693 -96.478627 
L 335.803693 -102.26162 
L 335.803693 -102.26162 
L 333.097369 -101.608764 
L 330.391044 -100.960506 
L 327.684719 -100.316846 
L 324.978395 -99.677784 
L 322.27207 -99.04332 
L 319.565746 -98.413454 
L 316.859421 -97.788186 
L 314.153096 -97.167516 
L 311.446772 -96.551444 
L 308.740447 -95.93997 
L 306.034122 -95.333094 
L 303.327798 -94.730816 
L 300.621473 -94.133136 
L 297.915149 -93.540055 
L 295.208824 -92.951571 
L 292.502499 -92.367685 
L 289.796175 -91.788397 
L 287.08985 -91.213707 
L 284.383526 -90.643615 
L 281.677201 -90.078121 
L 278.970876 -89.517225 
L 276.264552 -88.960927 
L 273.558227 -88.409228 
L 270.851903 -87.862126 
L 268.145578 -87.41578 
L 265.439253 -87.0385 
L 262.732929 -86.687523 
L 260.026604 -86.350898 
L 257.320279 -86.016977 
L 254.613955 -85.68576 
L 251.90763 -85.357247 
L 249.201306 -85.031438 
L 246.494981 -84.708333 
L 243.788656 -84.387933 
L 241.082332 -84.070236 
L 238.376007 -83.755243 
L 235.669683 -83.442955 
L 232.963358 -83.133371 
L 230.257033 -82.82649 
L 227.550709 -82.522314 
L 224.844384 -82.155974 
L 222.13806 -81.672095 
L 219.431735 -81.193738 
L 216.72541 -80.7209 
L 214.019086 -80.253583 
L 211.312761 -79.791787 
L 208.606437 -79.335511 
L 205.900112 -78.884755 
L 203.193787 -78.43952 
L 200.487463 -78.056886 
L 197.781138 -77.735363 
L 195.074813 -77.417377 
L 192.368489 -77.102927 
L 189.662164 -76.792014 
L 186.95584 -76.484636 
L 184.249515 -76.180795 
L 181.54319 -75.88049 
L 178.836866 -75.583721 
L 176.130541 -75.290488 
L 173.424217 -75.000792 
L 170.717892 -74.714632 
L 168.011567 -74.432008 
L 165.305243 -74.15292 
L 162.598918 -73.877368 
L 159.892594 -73.605353 
L 157.186269 -73.334967 
L 154.479944 -73.057635 
L 151.77362 -72.795449 
L 149.067295 -72.536802 
L 146.360971 -72.281696 
L 143.654646 -72.03013 
L 140.948321 -71.782104 
L 138.241997 -71.537619 
L 135.535672 -71.296674 
L 132.829347 -71.059269 
L 130.123023 -70.825404 
L 127.416698 -70.595079 
L 124.710374 -70.368295 
L 122.004049 -70.145051 
L 119.297724 -69.925347 
L 116.5914 -69.709183 
L 113.885075 -69.496559 
L 111.178751 -69.287476 
L 108.472426 -69.081933 
L 105.766101 -68.87993 
L 103.059777 -68.681467 
L 100.353452 -68.486545 
L 97.647128 -67.551788 
L 94.940803 -66.635769 
L 92.234478 -65.765909 
L 89.528154 -65.386724 
L 86.821829 -65.195355 
L 84.115504 -65.007281 
L 81.40918 -64.822504 
L 78.702855 -64.641022 
L 75.996531 -64.462837 
L 73.290206 -64.287947 
L 70.583881 -64.116353 
L 67.877557 -63.948055 
z
" style="stroke: #ffffff; stroke-opacity: 0.15"/>
    </defs>
    <g clip-path="url(#p38071b79e7)">
     <use xlink:href="#md0d7c62fe0" x="0" y="252" style="fill: #d9ab9a; fill-opacity: 0.15; stroke: #ffffff; stroke-opacity: 0.15"/>
    </g>
   </g>
   <g id="PathCollection_6">
    <defs>
     <path id="md8e10d4b98" d="M 0 2.738613 
C 0.726289 2.738613 1.422928 2.450055 1.936492 1.936492 
C 2.450055 1.422928 2.738613 0.726289 2.738613 0 
C 2.738613 -0.726289 2.450055 -1.422928 1.936492 -1.936492 
C 1.422928 -2.450055 0.726289 -2.738613 0 -2.738613 
C -0.726289 -2.738613 -1.422928 -2.450055 -1.936492 -1.936492 
C -2.450055 -1.422928 -2.738613 -0.726289 -2.738613 0 
C -2.738613 0.726289 -2.450055 1.422928 -1.936492 1.936492 
C -1.422928 2.450055 -0.726289 2.738613 0 2.738613 
z
" style="stroke: #889c9b; stroke-opacity: 0.8"/>
    </defs>
    <g clip-path="url(#p38071b79e7)">
     <use xlink:href="#md8e10d4b98" x="67.877557" y="192.665533" style="fill: #889c9b; fill-opacity: 0.8; stroke: #889c9b; stroke-opacity: 0.8"/>
     <use xlink:href="#md8e10d4b98" x="134.859091" y="185.127754" style="fill: #889c9b; fill-opacity: 0.8; stroke: #889c9b; stroke-opacity: 0.8"/>
     <use xlink:href="#md8e10d4b98" x="201.840625" y="177.633148" style="fill: #889c9b; fill-opacity: 0.8; stroke: #889c9b; stroke-opacity: 0.8"/>
     <use xlink:href="#md8e10d4b98" x="268.822159" y="170.097066" style="fill: #889c9b; fill-opacity: 0.8; stroke: #889c9b; stroke-opacity: 0.8"/>
     <use xlink:href="#md8e10d4b98" x="335.803693" y="162.571336" style="fill: #889c9b; fill-opacity: 0.8; stroke: #889c9b; stroke-opacity: 0.8"/>
    </g>
   </g>
   <g id="PolyCollection_6">
    <defs>
     <path id="m1de3e4836b" d="M 67.877557 -64.673178 
L 67.877557 -59.263636 
L 70.583881 -59.507966 
L 73.290206 -59.686834 
L 75.996531 -59.87107 
L 78.702855 -60.060674 
L 81.40918 -60.255647 
L 84.115504 -60.455989 
L 86.821829 -60.661699 
L 89.528154 -60.872777 
L 92.234478 -61.089224 
L 94.940803 -61.311039 
L 97.647128 -61.538223 
L 100.353452 -61.770776 
L 103.059777 -62.008696 
L 105.766101 -62.251986 
L 108.472426 -62.500643 
L 111.178751 -62.754669 
L 113.885075 -63.014064 
L 116.5914 -63.278827 
L 119.297724 -63.548959 
L 122.004049 -63.824459 
L 124.710374 -64.105327 
L 127.416698 -64.391564 
L 130.123023 -64.68317 
L 132.829347 -64.980144 
L 135.535672 -65.282486 
L 138.241997 -65.590197 
L 140.948321 -65.903277 
L 143.654646 -66.221725 
L 146.360971 -66.545541 
L 149.067295 -66.874726 
L 151.77362 -67.209279 
L 154.479944 -67.549201 
L 157.186269 -67.894491 
L 159.892594 -68.24515 
L 162.598918 -68.601177 
L 165.305243 -68.962572 
L 168.011567 -69.329336 
L 170.717892 -69.701469 
L 173.424217 -70.050104 
L 176.130541 -70.293644 
L 178.836866 -70.539876 
L 181.54319 -70.788801 
L 184.249515 -71.040419 
L 186.95584 -71.29473 
L 189.662164 -71.551734 
L 192.368489 -71.81143 
L 195.074813 -72.073819 
L 197.781138 -72.338901 
L 200.487463 -72.606676 
L 203.193787 -72.877143 
L 205.900112 -73.150303 
L 208.606437 -73.426156 
L 211.312761 -73.704701 
L 214.019086 -73.98594 
L 216.72541 -74.269871 
L 219.431735 -74.556495 
L 222.13806 -74.845811 
L 224.844384 -75.196742 
L 227.550709 -75.58084 
L 230.257033 -75.968688 
L 232.963358 -76.360286 
L 235.669683 -76.755633 
L 238.376007 -77.15473 
L 241.082332 -77.557576 
L 243.788656 -77.964172 
L 246.494981 -78.374517 
L 249.201306 -78.788612 
L 251.90763 -79.206456 
L 254.613955 -79.589086 
L 257.320279 -79.881815 
L 260.026604 -80.176976 
L 262.732929 -80.474569 
L 265.439253 -80.774593 
L 268.145578 -81.077048 
L 270.851903 -81.381935 
L 273.558227 -81.689253 
L 276.264552 -81.999003 
L 278.970876 -82.311184 
L 281.677201 -82.625797 
L 284.383526 -82.942842 
L 287.08985 -83.262317 
L 289.796175 -83.584225 
L 292.502499 -83.908563 
L 295.208824 -84.235334 
L 297.915149 -84.564535 
L 300.621473 -84.896168 
L 303.327798 -85.230233 
L 306.034122 -85.566729 
L 308.740447 -85.905657 
L 311.446772 -86.247016 
L 314.153096 -86.590807 
L 316.859421 -86.937029 
L 319.565746 -87.285682 
L 322.27207 -87.636767 
L 324.978395 -87.990284 
L 327.684719 -88.330875 
L 330.391044 -88.629503 
L 333.097369 -88.92806 
L 335.803693 -89.226547 
L 335.803693 -97.605071 
L 335.803693 -97.605071 
L 333.097369 -97.026758 
L 330.391044 -96.452935 
L 327.684719 -95.8836 
L 324.978395 -95.318754 
L 322.27207 -94.758397 
L 319.565746 -94.202529 
L 316.859421 -93.651149 
L 314.153096 -93.104259 
L 311.446772 -92.561857 
L 308.740447 -92.023944 
L 306.034122 -91.490519 
L 303.327798 -90.961584 
L 300.621473 -90.437137 
L 297.915149 -89.917179 
L 295.208824 -89.40171 
L 292.502499 -88.89073 
L 289.796175 -88.384238 
L 287.08985 -87.882236 
L 284.383526 -87.384722 
L 281.677201 -86.891696 
L 278.970876 -86.40316 
L 276.264552 -85.919113 
L 273.558227 -85.439554 
L 270.851903 -84.964484 
L 268.145578 -84.493903 
L 265.439253 -84.02781 
L 262.732929 -83.566207 
L 260.026604 -83.109092 
L 257.320279 -82.656466 
L 254.613955 -82.208329 
L 251.90763 -81.764681 
L 249.201306 -81.325521 
L 246.494981 -80.89085 
L 243.788656 -80.460668 
L 241.082332 -80.034975 
L 238.376007 -79.613771 
L 235.669683 -79.197055 
L 232.963358 -78.784828 
L 230.257033 -78.37709 
L 227.550709 -77.973841 
L 224.844384 -77.681485 
L 222.13806 -77.440338 
L 219.431735 -77.20135 
L 216.72541 -76.853768 
L 214.019086 -76.395731 
L 211.312761 -75.942994 
L 208.606437 -75.495558 
L 205.900112 -75.053421 
L 203.193787 -74.616585 
L 200.487463 -74.282012 
L 197.781138 -74.037651 
L 195.074813 -73.799019 
L 192.368489 -73.562816 
L 189.662164 -73.327097 
L 186.95584 -73.089865 
L 184.249515 -72.855178 
L 181.54319 -72.623035 
L 178.836866 -72.393437 
L 176.130541 -72.166384 
L 173.424217 -71.941874 
L 170.717892 -71.72142 
L 168.011567 -71.506596 
L 165.305243 -71.294206 
L 162.598918 -71.08425 
L 159.892594 -70.876729 
L 157.186269 -70.669983 
L 154.479944 -70.175428 
L 151.77362 -69.904713 
L 149.067295 -69.692052 
L 146.360971 -69.482318 
L 143.654646 -69.275511 
L 140.948321 -69.07163 
L 138.241997 -68.870677 
L 135.535672 -68.67265 
L 132.829347 -68.47755 
L 130.123023 -68.285376 
L 127.416698 -68.09613 
L 124.710374 -67.90981 
L 122.004049 -67.726417 
L 119.297724 -67.545951 
L 116.5914 -67.368411 
L 113.885075 -67.193799 
L 111.178751 -67.022113 
L 108.472426 -66.853353 
L 105.766101 -66.687521 
L 103.059777 -66.524615 
L 100.353452 -66.364637 
L 97.647128 -66.207584 
L 94.940803 -66.053459 
L 92.234478 -65.902261 
L 89.528154 -65.753989 
L 86.821829 -65.608644 
L 84.115504 -65.466226 
L 81.40918 -65.326734 
L 78.702855 -65.190169 
L 75.996531 -65.056531 
L 73.290206 -64.92582 
L 70.583881 -64.798036 
L 67.877557 -64.673178 
z
" style="stroke: #ffffff; stroke-opacity: 0.15"/>
    </defs>
    <g clip-path="url(#p38071b79e7)">
     <use xlink:href="#m1de3e4836b" x="0" y="252" style="fill: #889c9b; fill-opacity: 0.15; stroke: #ffffff; stroke-opacity: 0.15"/>
    </g>
   </g>
   <g id="line2d_11">
    <path d="M 67.877557 186.222962 
L 70.583881 184.904083 
L 73.290206 183.585206 
L 75.996531 182.266331 
L 78.702855 180.947458 
L 81.40918 179.628588 
L 84.115504 178.309721 
L 86.821829 176.990855 
L 89.528154 175.671992 
L 92.234478 174.353132 
L 94.940803 173.034273 
L 97.647128 171.715417 
L 100.353452 170.396564 
L 103.059777 169.077713 
L 105.766101 167.758864 
L 108.472426 166.440017 
L 111.178751 165.121173 
L 113.885075 163.802332 
L 116.5914 162.483492 
L 119.297724 161.164655 
L 122.004049 159.845821 
L 124.710374 158.526988 
L 127.416698 157.208158 
L 130.123023 155.889331 
L 132.829347 154.570506 
L 135.535672 153.251683 
L 138.241997 151.932862 
L 140.948321 150.614044 
L 143.654646 149.295228 
L 146.360971 147.976415 
L 149.067295 146.657604 
L 151.77362 145.338795 
L 154.479944 144.019989 
L 157.186269 142.701185 
L 159.892594 141.382383 
L 162.598918 140.063584 
L 165.305243 138.744787 
L 168.011567 137.425992 
L 170.717892 136.1072 
L 173.424217 134.78841 
L 176.130541 133.469623 
L 178.836866 132.150838 
L 181.54319 130.832055 
L 184.249515 129.513275 
L 186.95584 128.194497 
L 189.662164 126.875721 
L 192.368489 125.556948 
L 195.074813 124.238177 
L 197.781138 122.919408 
L 200.487463 121.600642 
L 203.193787 120.281878 
L 205.900112 118.963117 
L 208.606437 117.644358 
L 211.312761 116.325601 
L 214.019086 115.006846 
L 216.72541 113.688094 
L 219.431735 112.369345 
L 222.13806 111.050597 
L 224.844384 109.731852 
L 227.550709 108.41311 
L 230.257033 107.094369 
L 232.963358 105.775631 
L 235.669683 104.456896 
L 238.376007 103.138163 
L 241.082332 101.819432 
L 243.788656 100.500703 
L 246.494981 99.181977 
L 249.201306 97.863254 
L 251.90763 96.544532 
L 254.613955 95.225813 
L 257.320279 93.907097 
L 260.026604 92.588382 
L 262.732929 91.26967 
L 265.439253 89.950961 
L 268.145578 88.632254 
L 270.851903 87.313549 
L 273.558227 85.994846 
L 276.264552 84.676146 
L 278.970876 83.357448 
L 281.677201 82.038753 
L 284.383526 80.72006 
L 287.08985 79.401369 
L 289.796175 78.082681 
L 292.502499 76.763995 
L 295.208824 75.445311 
L 297.915149 74.12663 
L 300.621473 72.807951 
L 303.327798 71.489275 
L 306.034122 70.1706 
L 308.740447 68.851929 
L 311.446772 67.533259 
L 314.153096 66.214592 
L 316.859421 64.895927 
L 319.565746 63.577265 
L 322.27207 62.258605 
L 324.978395 60.939947 
L 327.684719 59.621292 
L 330.391044 58.302639 
L 333.097369 56.983989 
L 335.803693 55.66534 
" clip-path="url(#p38071b79e7)" style="fill: none; stroke: #731d1d; stroke-width: 2; stroke-linecap: round"/>
   </g>
   <g id="line2d_12">
    <path d="M 67.877557 187.709246 
L 70.583881 186.629084 
L 73.290206 185.5489 
L 75.996531 184.468694 
L 78.702855 183.388466 
L 81.40918 182.308216 
L 84.115504 181.227943 
L 86.821829 180.147648 
L 89.528154 179.067331 
L 92.234478 177.986991 
L 94.940803 176.90663 
L 97.647128 175.826246 
L 100.353452 174.74584 
L 103.059777 173.665411 
L 105.766101 172.584961 
L 108.472426 171.504488 
L 111.178751 170.423993 
L 113.885075 169.343475 
L 116.5914 168.262936 
L 119.297724 167.182374 
L 122.004049 166.10179 
L 124.710374 165.021184 
L 127.416698 163.940555 
L 130.123023 162.859904 
L 132.829347 161.779231 
L 135.535672 160.698536 
L 138.241997 159.617819 
L 140.948321 158.537079 
L 143.654646 157.456317 
L 146.360971 156.375533 
L 149.067295 155.294726 
L 151.77362 154.213898 
L 154.479944 153.133047 
L 157.186269 152.052174 
L 159.892594 150.971279 
L 162.598918 149.890361 
L 165.305243 148.809421 
L 168.011567 147.728459 
L 170.717892 146.647475 
L 173.424217 145.566468 
L 176.130541 144.485439 
L 178.836866 143.404388 
L 181.54319 142.323315 
L 184.249515 141.24222 
L 186.95584 140.161102 
L 189.662164 139.079962 
L 192.368489 137.9988 
L 195.074813 136.917616 
L 197.781138 135.836409 
L 200.487463 134.75518 
L 203.193787 133.673929 
L 205.900112 132.592655 
L 208.606437 131.51136 
L 211.312761 130.430042 
L 214.019086 129.348702 
L 216.72541 128.26734 
L 219.431735 127.185955 
L 222.13806 126.104548 
L 224.844384 125.023119 
L 227.550709 123.941668 
L 230.257033 122.860195 
L 232.963358 121.778699 
L 235.669683 120.697181 
L 238.376007 119.615641 
L 241.082332 118.534078 
L 243.788656 117.452494 
L 246.494981 116.370887 
L 249.201306 115.289258 
L 251.90763 114.207606 
L 254.613955 113.125933 
L 257.320279 112.044237 
L 260.026604 110.962519 
L 262.732929 109.880778 
L 265.439253 108.799016 
L 268.145578 107.717231 
L 270.851903 106.635424 
L 273.558227 105.553595 
L 276.264552 104.471743 
L 278.970876 103.389869 
L 281.677201 102.307973 
L 284.383526 101.226055 
L 287.08985 100.144115 
L 289.796175 99.062152 
L 292.502499 97.980167 
L 295.208824 96.89816 
L 297.915149 95.816131 
L 300.621473 94.734079 
L 303.327798 93.652005 
L 306.034122 92.569909 
L 308.740447 91.487791 
L 311.446772 90.40565 
L 314.153096 89.323487 
L 316.859421 88.241302 
L 319.565746 87.159095 
L 322.27207 86.076866 
L 324.978395 84.994614 
L 327.684719 83.91234 
L 330.391044 82.830044 
L 333.097369 81.747725 
L 335.803693 80.665384 
" clip-path="url(#p38071b79e7)" style="fill: none; stroke: #735340; stroke-width: 2; stroke-linecap: round"/>
   </g>
   <g id="line2d_13">
    <path d="M 67.877557 189.275774 
L 70.583881 188.433662 
L 73.290206 187.591548 
L 75.996531 186.749432 
L 78.702855 185.907314 
L 81.40918 185.065194 
L 84.115504 184.223072 
L 86.821829 183.380947 
L 89.528154 182.538821 
L 92.234478 181.696693 
L 94.940803 180.854563 
L 97.647128 180.012431 
L 100.353452 179.170297 
L 103.059777 178.328161 
L 105.766101 177.486023 
L 108.472426 176.643883 
L 111.178751 175.801741 
L 113.885075 174.959597 
L 116.5914 174.117451 
L 119.297724 173.275303 
L 122.004049 172.433153 
L 124.710374 171.591001 
L 127.416698 170.748847 
L 130.123023 169.906691 
L 132.829347 169.064533 
L 135.535672 168.222373 
L 138.241997 167.380211 
L 140.948321 166.538047 
L 143.654646 165.695881 
L 146.360971 164.853713 
L 149.067295 164.011543 
L 151.77362 163.169371 
L 154.479944 162.327197 
L 157.186269 161.485021 
L 159.892594 160.642843 
L 162.598918 159.800664 
L 165.305243 158.958482 
L 168.011567 158.116298 
L 170.717892 157.274112 
L 173.424217 156.431924 
L 176.130541 155.589734 
L 178.836866 154.747542 
L 181.54319 153.905349 
L 184.249515 153.063153 
L 186.95584 152.220955 
L 189.662164 151.378755 
L 192.368489 150.536553 
L 195.074813 149.69435 
L 197.781138 148.852144 
L 200.487463 148.009936 
L 203.193787 147.167726 
L 205.900112 146.325515 
L 208.606437 145.483301 
L 211.312761 144.641085 
L 214.019086 143.798867 
L 216.72541 142.956648 
L 219.431735 142.114426 
L 222.13806 141.272202 
L 224.844384 140.429976 
L 227.550709 139.587749 
L 230.257033 138.745519 
L 232.963358 137.903287 
L 235.669683 137.061054 
L 238.376007 136.218818 
L 241.082332 135.376581 
L 243.788656 134.534341 
L 246.494981 133.692099 
L 249.201306 132.849856 
L 251.90763 132.00761 
L 254.613955 131.165362 
L 257.320279 130.323113 
L 260.026604 129.480861 
L 262.732929 128.638608 
L 265.439253 127.796352 
L 268.145578 126.954095 
L 270.851903 126.111835 
L 273.558227 125.269573 
L 276.264552 124.42731 
L 278.970876 123.585044 
L 281.677201 122.742777 
L 284.383526 121.900507 
L 287.08985 121.058236 
L 289.796175 120.215962 
L 292.502499 119.373687 
L 295.208824 118.531409 
L 297.915149 117.68913 
L 300.621473 116.846849 
L 303.327798 116.004565 
L 306.034122 115.16228 
L 308.740447 114.319992 
L 311.446772 113.477703 
L 314.153096 112.635411 
L 316.859421 111.793118 
L 319.565746 110.950823 
L 322.27207 110.108525 
L 324.978395 109.266226 
L 327.684719 108.423924 
L 330.391044 107.581621 
L 333.097369 106.739316 
L 335.803693 105.897008 
" clip-path="url(#p38071b79e7)" style="fill: none; stroke: #d94436; stroke-width: 2; stroke-linecap: round"/>
   </g>
   <g id="line2d_14">
    <path d="M 67.877557 190.700494 
L 70.583881 190.095657 
L 73.290206 189.490821 
L 75.996531 188.885985 
L 78.702855 188.28115 
L 81.40918 187.676314 
L 84.115504 187.071479 
L 86.821829 186.466645 
L 89.528154 185.86181 
L 92.234478 185.256976 
L 94.940803 184.652142 
L 97.647128 184.047309 
L 100.353452 183.442476 
L 103.059777 182.837643 
L 105.766101 182.23281 
L 108.472426 181.627977 
L 111.178751 181.023145 
L 113.885075 180.418314 
L 116.5914 179.813482 
L 119.297724 179.208651 
L 122.004049 178.60382 
L 124.710374 177.998989 
L 127.416698 177.394159 
L 130.123023 176.789328 
L 132.829347 176.184499 
L 135.535672 175.579669 
L 138.241997 174.97484 
L 140.948321 174.370011 
L 143.654646 173.765182 
L 146.360971 173.160354 
L 149.067295 172.555526 
L 151.77362 171.950698 
L 154.479944 171.34587 
L 157.186269 170.741043 
L 159.892594 170.136216 
L 162.598918 169.531389 
L 165.305243 168.926563 
L 168.011567 168.321737 
L 170.717892 167.716911 
L 173.424217 167.112085 
L 176.130541 166.50726 
L 178.836866 165.902435 
L 181.54319 165.297611 
L 184.249515 164.692786 
L 186.95584 164.087962 
L 189.662164 163.483138 
L 192.368489 162.878315 
L 195.074813 162.273491 
L 197.781138 161.668668 
L 200.487463 161.063846 
L 203.193787 160.459023 
L 205.900112 159.854201 
L 208.606437 159.249379 
L 211.312761 158.644558 
L 214.019086 158.039737 
L 216.72541 157.434916 
L 219.431735 156.830095 
L 222.13806 156.225274 
L 224.844384 155.620454 
L 227.550709 155.015635 
L 230.257033 154.410815 
L 232.963358 153.805996 
L 235.669683 153.201177 
L 238.376007 152.596358 
L 241.082332 151.99154 
L 243.788656 151.386722 
L 246.494981 150.781904 
L 249.201306 150.177086 
L 251.90763 149.572269 
L 254.613955 148.967452 
L 257.320279 148.362635 
L 260.026604 147.757819 
L 262.732929 147.153003 
L 265.439253 146.548187 
L 268.145578 145.943371 
L 270.851903 145.338556 
L 273.558227 144.733741 
L 276.264552 144.128927 
L 278.970876 143.524112 
L 281.677201 142.919298 
L 284.383526 142.314484 
L 287.08985 141.709671 
L 289.796175 141.104857 
L 292.502499 140.500045 
L 295.208824 139.895232 
L 297.915149 139.290419 
L 300.621473 138.685607 
L 303.327798 138.080796 
L 306.034122 137.475984 
L 308.740447 136.871173 
L 311.446772 136.266362 
L 314.153096 135.661551 
L 316.859421 135.056741 
L 319.565746 134.451931 
L 322.27207 133.847121 
L 324.978395 133.242311 
L 327.684719 132.637502 
L 330.391044 132.032693 
L 333.097369 131.427884 
L 335.803693 130.823076 
" clip-path="url(#p38071b79e7)" style="fill: none; stroke: #f26444; stroke-width: 2; stroke-linecap: round"/>
   </g>
   <g id="line2d_15">
    <path d="M 67.877557 192.150882 
L 70.583881 191.779728 
L 73.290206 191.408584 
L 75.996531 191.037452 
L 78.702855 190.66633 
L 81.40918 190.295218 
L 84.115504 189.924118 
L 86.821829 189.553028 
L 89.528154 189.181948 
L 92.234478 188.810879 
L 94.940803 188.439821 
L 97.647128 188.068773 
L 100.353452 187.697737 
L 103.059777 187.32671 
L 105.766101 186.955695 
L 108.472426 186.58469 
L 111.178751 186.213695 
L 113.885075 185.842711 
L 116.5914 185.471738 
L 119.297724 185.100776 
L 122.004049 184.729824 
L 124.710374 184.358883 
L 127.416698 183.987952 
L 130.123023 183.617032 
L 132.829347 183.246123 
L 135.535672 182.875224 
L 138.241997 182.504336 
L 140.948321 182.133459 
L 143.654646 181.762592 
L 146.360971 181.391736 
L 149.067295 181.02089 
L 151.77362 180.650056 
L 154.479944 180.279231 
L 157.186269 179.908418 
L 159.892594 179.537615 
L 162.598918 179.166822 
L 165.305243 178.796041 
L 168.011567 178.42527 
L 170.717892 178.054509 
L 173.424217 177.683759 
L 176.130541 177.31302 
L 178.836866 176.942292 
L 181.54319 176.571574 
L 184.249515 176.200867 
L 186.95584 175.83017 
L 189.662164 175.459484 
L 192.368489 175.088809 
L 195.074813 174.718144 
L 197.781138 174.34749 
L 200.487463 173.976846 
L 203.193787 173.606214 
L 205.900112 173.235592 
L 208.606437 172.86498 
L 211.312761 172.494379 
L 214.019086 172.123789 
L 216.72541 171.753209 
L 219.431735 171.38264 
L 222.13806 171.012082 
L 224.844384 170.641534 
L 227.550709 170.270997 
L 230.257033 169.900471 
L 232.963358 169.529955 
L 235.669683 169.15945 
L 238.376007 168.788955 
L 241.082332 168.418471 
L 243.788656 168.047998 
L 246.494981 167.677535 
L 249.201306 167.307083 
L 251.90763 166.936642 
L 254.613955 166.566211 
L 257.320279 166.195791 
L 260.026604 165.825381 
L 262.732929 165.454983 
L 265.439253 165.084594 
L 268.145578 164.714217 
L 270.851903 164.34385 
L 273.558227 163.973494 
L 276.264552 163.603148 
L 278.970876 163.232813 
L 281.677201 162.862489 
L 284.383526 162.492175 
L 287.08985 162.121872 
L 289.796175 161.751579 
L 292.502499 161.381297 
L 295.208824 161.011026 
L 297.915149 160.640766 
L 300.621473 160.270516 
L 303.327798 159.900276 
L 306.034122 159.530048 
L 308.740447 159.15983 
L 311.446772 158.789622 
L 314.153096 158.419425 
L 316.859421 158.049239 
L 319.565746 157.679064 
L 322.27207 157.308899 
L 324.978395 156.938745 
L 327.684719 156.568601 
L 330.391044 156.198468 
L 333.097369 155.828346 
L 335.803693 155.458234 
" clip-path="url(#p38071b79e7)" style="fill: none; stroke: #d9ab9a; stroke-width: 2; stroke-linecap: round"/>
   </g>
   <g id="line2d_16">
    <path d="M 67.877557 192.660301 
L 70.583881 192.356584 
L 73.290206 192.052863 
L 75.996531 191.749138 
L 78.702855 191.445409 
L 81.40918 191.141676 
L 84.115504 190.837939 
L 86.821829 190.534198 
L 89.528154 190.230452 
L 92.234478 189.926703 
L 94.940803 189.62295 
L 97.647128 189.319192 
L 100.353452 189.015431 
L 103.059777 188.711665 
L 105.766101 188.407896 
L 108.472426 188.104122 
L 111.178751 187.800344 
L 113.885075 187.496563 
L 116.5914 187.192777 
L 119.297724 186.888987 
L 122.004049 186.585193 
L 124.710374 186.281395 
L 127.416698 185.977593 
L 130.123023 185.673787 
L 132.829347 185.369977 
L 135.535672 185.066163 
L 138.241997 184.762345 
L 140.948321 184.458522 
L 143.654646 184.154696 
L 146.360971 183.850866 
L 149.067295 183.547031 
L 151.77362 183.243193 
L 154.479944 182.93935 
L 157.186269 182.635504 
L 159.892594 182.331653 
L 162.598918 182.027798 
L 165.305243 181.72394 
L 168.011567 181.420077 
L 170.717892 181.11621 
L 173.424217 180.812339 
L 176.130541 180.508464 
L 178.836866 180.204585 
L 181.54319 179.900702 
L 184.249515 179.596815 
L 186.95584 179.292924 
L 189.662164 178.989028 
L 192.368489 178.685129 
L 195.074813 178.381226 
L 197.781138 178.077318 
L 200.487463 177.773407 
L 203.193787 177.469492 
L 205.900112 177.165572 
L 208.606437 176.861648 
L 211.312761 176.557721 
L 214.019086 176.253789 
L 216.72541 175.949853 
L 219.431735 175.645914 
L 222.13806 175.34197 
L 224.844384 175.038022 
L 227.550709 174.73407 
L 230.257033 174.430114 
L 232.963358 174.126154 
L 235.669683 173.82219 
L 238.376007 173.518221 
L 241.082332 173.214249 
L 243.788656 172.910273 
L 246.494981 172.606293 
L 249.201306 172.302308 
L 251.90763 171.99832 
L 254.613955 171.694327 
L 257.320279 171.390331 
L 260.026604 171.08633 
L 262.732929 170.782326 
L 265.439253 170.478317 
L 268.145578 170.174304 
L 270.851903 169.870287 
L 273.558227 169.566266 
L 276.264552 169.262242 
L 278.970876 168.958213 
L 281.677201 168.65418 
L 284.383526 168.350143 
L 287.08985 168.046101 
L 289.796175 167.742056 
L 292.502499 167.438007 
L 295.208824 167.133954 
L 297.915149 166.829896 
L 300.621473 166.525835 
L 303.327798 166.22177 
L 306.034122 165.9177 
L 308.740447 165.613627 
L 311.446772 165.309549 
L 314.153096 165.005467 
L 316.859421 164.701382 
L 319.565746 164.397292 
L 322.27207 164.093198 
L 324.978395 163.7891 
L 327.684719 163.484998 
L 330.391044 163.180892 
L 333.097369 162.876782 
L 335.803693 162.572668 
" clip-path="url(#p38071b79e7)" style="fill: none; stroke: #889c9b; stroke-width: 2; stroke-linecap: round"/>
   </g>
   <g id="patch_3">
    <path d="M 54.48125 201.4 
L 54.48125 10.8 
" style="fill: none; stroke: #cccccc; stroke-width: 0.8; stroke-linejoin: miter; stroke-linecap: square"/>
   </g>
   <g id="patch_4">
    <path d="M 349.2 201.4 
L 349.2 10.8 
" style="fill: none; stroke: #cccccc; stroke-width: 0.8; stroke-linejoin: miter; stroke-linecap: square"/>
   </g>
   <g id="patch_5">
    <path d="M 54.48125 201.4 
L 349.2 201.4 
" style="fill: none; stroke: #cccccc; stroke-width: 0.8; stroke-linejoin: miter; stroke-linecap: square"/>
   </g>
   <g id="patch_6">
    <path d="M 54.48125 10.8 
L 349.2 10.8 
" style="fill: none; stroke: #cccccc; stroke-width: 0.8; stroke-linejoin: miter; stroke-linecap: square"/>
   </g>
   <g id="legend_1">
    <g id="patch_7">
     <path d="M 62.88125 122.20125 
L 135.95 122.20125 
Q 138.35 122.20125 138.35 119.80125 
L 138.35 19.2 
Q 138.35 16.8 135.95 16.8 
L 62.88125 16.8 
Q 60.48125 16.8 60.48125 19.2 
L 60.48125 119.80125 
Q 60.48125 122.20125 62.88125 122.20125 
z
" style="fill: #ffffff; opacity: 0.8; stroke: #cccccc; stroke-linejoin: miter"/>
    </g>
    <g id="PathCollection_7">
     <g>
      <use xlink:href="#m0575922cc0" x="77.28125" y="26.85" style="fill: #731d1d; fill-opacity: 0.8; stroke: #731d1d; stroke-opacity: 0.8"/>
     </g>
    </g>
    <g id="text_13">
     <!-- PDE45 -->
     <g style="fill: #262626" transform="translate(98.88125 30) scale(0.12 -0.12)">
      <defs>
       <path id="TimesNewRomanPSMT-50" d="M 1313 1984 
L 1313 750 
Q 1313 350 1400 253 
Q 1519 116 1759 116 
L 1922 116 
L 1922 0 
L 106 0 
L 106 116 
L 266 116 
Q 534 116 650 291 
Q 713 388 713 750 
L 713 3488 
Q 713 3888 628 3984 
Q 506 4122 266 4122 
L 106 4122 
L 106 4238 
L 1659 4238 
Q 2228 4238 2556 4120 
Q 2884 4003 3109 3725 
Q 3334 3447 3334 3066 
Q 3334 2547 2992 2222 
Q 2650 1897 2025 1897 
Q 1872 1897 1694 1919 
Q 1516 1941 1313 1984 
z
M 1313 2163 
Q 1478 2131 1606 2115 
Q 1734 2100 1825 2100 
Q 2150 2100 2386 2351 
Q 2622 2603 2622 3003 
Q 2622 3278 2509 3514 
Q 2397 3750 2190 3867 
Q 1984 3984 1722 3984 
Q 1563 3984 1313 3925 
L 1313 2163 
z
" transform="scale(0.015625)"/>
       <path id="TimesNewRomanPSMT-44" d="M 109 0 
L 109 116 
L 269 116 
Q 538 116 650 288 
Q 719 391 719 750 
L 719 3488 
Q 719 3884 631 3984 
Q 509 4122 269 4122 
L 109 4122 
L 109 4238 
L 1834 4238 
Q 2784 4238 3279 4022 
Q 3775 3806 4076 3303 
Q 4378 2800 4378 2141 
Q 4378 1256 3841 663 
Q 3238 0 2003 0 
L 109 0 
z
M 1319 306 
Q 1716 219 1984 219 
Q 2709 219 3187 728 
Q 3666 1238 3666 2109 
Q 3666 2988 3187 3494 
Q 2709 4000 1959 4000 
Q 1678 4000 1319 3909 
L 1319 306 
z
" transform="scale(0.015625)"/>
       <path id="TimesNewRomanPSMT-45" d="M 1338 4006 
L 1338 2331 
L 2269 2331 
Q 2631 2331 2753 2441 
Q 2916 2584 2934 2947 
L 3050 2947 
L 3050 1472 
L 2934 1472 
Q 2891 1781 2847 1869 
Q 2791 1978 2662 2040 
Q 2534 2103 2269 2103 
L 1338 2103 
L 1338 706 
Q 1338 425 1363 364 
Q 1388 303 1450 267 
Q 1513 231 1688 231 
L 2406 231 
Q 2766 231 2928 281 
Q 3091 331 3241 478 
Q 3434 672 3638 1063 
L 3763 1063 
L 3397 0 
L 131 0 
L 131 116 
L 281 116 
Q 431 116 566 188 
Q 666 238 702 338 
Q 738 438 738 747 
L 738 3500 
Q 738 3903 656 3997 
Q 544 4122 281 4122 
L 131 4122 
L 131 4238 
L 3397 4238 
L 3444 3309 
L 3322 3309 
Q 3256 3644 3176 3769 
Q 3097 3894 2941 3959 
Q 2816 4006 2500 4006 
L 1338 4006 
z
" transform="scale(0.015625)"/>
      </defs>
      <use xlink:href="#TimesNewRomanPSMT-50"/>
      <use xlink:href="#TimesNewRomanPSMT-44" x="55.615234"/>
      <use xlink:href="#TimesNewRomanPSMT-45" x="127.832031"/>
      <use xlink:href="#TimesNewRomanPSMT-34" x="188.916016"/>
      <use xlink:href="#TimesNewRomanPSMT-35" x="238.916016"/>
     </g>
    </g>
    <g id="PathCollection_8">
     <g>
      <use xlink:href="#m7ae792e2ab" x="77.28125" y="43.816875" style="fill: #735340; fill-opacity: 0.8; stroke: #735340; stroke-opacity: 0.8"/>
     </g>
    </g>
    <g id="text_14">
     <!-- PDE35 -->
     <g style="fill: #262626" transform="translate(98.88125 46.966875) scale(0.12 -0.12)">
      <defs>
       <path id="TimesNewRomanPSMT-33" d="M 325 3431 
Q 506 3859 782 4092 
Q 1059 4325 1472 4325 
Q 1981 4325 2253 3994 
Q 2459 3747 2459 3466 
Q 2459 3003 1878 2509 
Q 2269 2356 2469 2072 
Q 2669 1788 2669 1403 
Q 2669 853 2319 450 
Q 1863 -75 997 -75 
Q 569 -75 414 31 
Q 259 138 259 259 
Q 259 350 332 419 
Q 406 488 509 488 
Q 588 488 669 463 
Q 722 447 909 348 
Q 1097 250 1169 231 
Q 1284 197 1416 197 
Q 1734 197 1970 444 
Q 2206 691 2206 1028 
Q 2206 1275 2097 1509 
Q 2016 1684 1919 1775 
Q 1784 1900 1550 2001 
Q 1316 2103 1072 2103 
L 972 2103 
L 972 2197 
Q 1219 2228 1467 2375 
Q 1716 2522 1828 2728 
Q 1941 2934 1941 3181 
Q 1941 3503 1739 3701 
Q 1538 3900 1238 3900 
Q 753 3900 428 3381 
L 325 3431 
z
" transform="scale(0.015625)"/>
      </defs>
      <use xlink:href="#TimesNewRomanPSMT-50"/>
      <use xlink:href="#TimesNewRomanPSMT-44" x="55.615234"/>
      <use xlink:href="#TimesNewRomanPSMT-45" x="127.832031"/>
      <use xlink:href="#TimesNewRomanPSMT-33" x="188.916016"/>
      <use xlink:href="#TimesNewRomanPSMT-35" x="238.916016"/>
     </g>
    </g>
    <g id="PathCollection_9">
     <g>
      <use xlink:href="#mf41457ca19" x="77.28125" y="60.78375" style="fill: #d94436; fill-opacity: 0.8; stroke: #d94436; stroke-opacity: 0.8"/>
     </g>
    </g>
    <g id="text_15">
     <!-- PDE25 -->
     <g style="fill: #262626" transform="translate(98.88125 63.93375) scale(0.12 -0.12)">
      <use xlink:href="#TimesNewRomanPSMT-50"/>
      <use xlink:href="#TimesNewRomanPSMT-44" x="55.615234"/>
      <use xlink:href="#TimesNewRomanPSMT-45" x="127.832031"/>
      <use xlink:href="#TimesNewRomanPSMT-32" x="188.916016"/>
      <use xlink:href="#TimesNewRomanPSMT-35" x="238.916016"/>
     </g>
    </g>
    <g id="PathCollection_10">
     <g>
      <use xlink:href="#mbcd8eb7eea" x="77.28125" y="77.750625" style="fill: #f26444; fill-opacity: 0.8; stroke: #f26444; stroke-opacity: 0.8"/>
     </g>
    </g>
    <g id="text_16">
     <!-- PDE15 -->
     <g style="fill: #262626" transform="translate(98.88125 80.900625) scale(0.12 -0.12)">
      <use xlink:href="#TimesNewRomanPSMT-50"/>
      <use xlink:href="#TimesNewRomanPSMT-44" x="55.615234"/>
      <use xlink:href="#TimesNewRomanPSMT-45" x="127.832031"/>
      <use xlink:href="#TimesNewRomanPSMT-31" x="188.916016"/>
      <use xlink:href="#TimesNewRomanPSMT-35" x="238.916016"/>
     </g>
    </g>
    <g id="PathCollection_11">
     <g>
      <use xlink:href="#mb157bae3b9" x="77.28125" y="94.7175" style="fill: #d9ab9a; fill-opacity: 0.8; stroke: #d9ab9a; stroke-opacity: 0.8"/>
     </g>
    </g>
    <g id="text_17">
     <!-- PDE5 -->
     <g style="fill: #262626" transform="translate(98.88125 97.8675) scale(0.12 -0.12)">
      <use xlink:href="#TimesNewRomanPSMT-50"/>
      <use xlink:href="#TimesNewRomanPSMT-44" x="55.615234"/>
      <use xlink:href="#TimesNewRomanPSMT-45" x="127.832031"/>
      <use xlink:href="#TimesNewRomanPSMT-35" x="188.916016"/>
     </g>
    </g>
    <g id="PathCollection_12">
     <g>
      <use xlink:href="#md8e10d4b98" x="77.28125" y="111.684375" style="fill: #889c9b; fill-opacity: 0.8; stroke: #889c9b; stroke-opacity: 0.8"/>
     </g>
    </g>
    <g id="text_18">
     <!-- NE -->
     <g style="fill: #262626" transform="translate(98.88125 114.834375) scale(0.12 -0.12)">
      <defs>
       <path id="TimesNewRomanPSMT-4e" d="M -84 4238 
L 1066 4238 
L 3656 1059 
L 3656 3503 
Q 3656 3894 3569 3991 
Q 3453 4122 3203 4122 
L 3056 4122 
L 3056 4238 
L 4531 4238 
L 4531 4122 
L 4381 4122 
Q 4113 4122 4000 3959 
Q 3931 3859 3931 3503 
L 3931 -69 
L 3819 -69 
L 1025 3344 
L 1025 734 
Q 1025 344 1109 247 
Q 1228 116 1475 116 
L 1625 116 
L 1625 0 
L 150 0 
L 150 116 
L 297 116 
Q 569 116 681 278 
Q 750 378 750 734 
L 750 3681 
Q 566 3897 470 3965 
Q 375 4034 191 4094 
Q 100 4122 -84 4122 
L -84 4238 
z
" transform="scale(0.015625)"/>
      </defs>
      <use xlink:href="#TimesNewRomanPSMT-4e"/>
      <use xlink:href="#TimesNewRomanPSMT-45" x="72.216797"/>
     </g>
    </g>
   </g>
  </g>
 </g>
 <defs>
  <clipPath id="p38071b79e7">
   <rect x="54.48125" y="10.8" width="294.71875" height="190.6"/>
  </clipPath>
 </defs>
</svg>
