<?xml version="1.0" encoding="utf-8" standalone="no"?>
<!DOCTYPE svg PUBLIC "-//W3C//DTD SVG 1.1//EN"
  "http://www.w3.org/Graphics/SVG/1.1/DTD/svg11.dtd">
<svg xmlns:xlink="http://www.w3.org/1999/xlink" width="360pt" height="252pt" viewBox="0 0 360 252" xmlns="http://www.w3.org/2000/svg" version="1.1">
 <metadata>
  <rdf:RDF xmlns:dc="http://purl.org/dc/elements/1.1/" xmlns:cc="http://creativecommons.org/ns#" xmlns:rdf="http://www.w3.org/1999/02/22-rdf-syntax-ns#">
   <cc:Work>
    <dc:type rdf:resource="http://purl.org/dc/dcmitype/StillImage"/>
    <dc:date>2024-06-11T19:46:16.303411</dc:date>
    <dc:format>image/svg+xml</dc:format>
    <dc:creator>
     <cc:Agent>
      <dc:title>Matplotlib v3.8.4, https://matplotlib.org/</dc:title>
     </cc:Agent>
    </dc:creator>
   </cc:Work>
  </rdf:RDF>
 </metadata>
 <defs>
  <style type="text/css">*{stroke-linejoin: round; stroke-linecap: butt}</style>
 </defs>
 <g id="figure_1">
  <g id="patch_1">
   <path d="M 0 252 
L 360 252 
L 360 0 
L 0 0 
z
" style="fill: #ffffff"/>
  </g>
  <g id="axes_1">
   <g id="patch_2">
    <path d="M 69.42125 201.4 
L 349.2 201.4 
L 349.2 10.8 
L 69.42125 10.8 
z
" style="fill: #ffffff"/>
   </g>
   <g id="matplotlib.axis_1">
    <g id="xtick_1">
     <g id="line2d_1">
      <path d="M 82.138466 201.4 
L 82.138466 10.8 
" clip-path="url(#p16f1621852)" style="fill: none; stroke: #cccccc; stroke-width: 0.8; stroke-linecap: round"/>
     </g>
     <g id="text_1">
      <!-- 50 -->
      <g style="fill: #262626" transform="translate(74.638466 218.815625) scale(0.15 -0.15)">
       <defs>
        <path id="TimesNewRomanPSMT-35" d="M 2778 4238 
L 2534 3706 
L 1259 3706 
L 981 3138 
Q 1809 3016 2294 2522 
Q 2709 2097 2709 1522 
Q 2709 1188 2573 903 
Q 2438 619 2231 419 
Q 2025 219 1772 97 
Q 1413 -75 1034 -75 
Q 653 -75 479 54 
Q 306 184 306 341 
Q 306 428 378 495 
Q 450 563 559 563 
Q 641 563 702 538 
Q 763 513 909 409 
Q 1144 247 1384 247 
Q 1750 247 2026 523 
Q 2303 800 2303 1197 
Q 2303 1581 2056 1914 
Q 1809 2247 1375 2428 
Q 1034 2569 447 2591 
L 1259 4238 
L 2778 4238 
z
" transform="scale(0.015625)"/>
        <path id="TimesNewRomanPSMT-30" d="M 231 2094 
Q 231 2819 450 3342 
Q 669 3866 1031 4122 
Q 1313 4325 1613 4325 
Q 2100 4325 2488 3828 
Q 2972 3213 2972 2159 
Q 2972 1422 2759 906 
Q 2547 391 2217 158 
Q 1888 -75 1581 -75 
Q 975 -75 572 641 
Q 231 1244 231 2094 
z
M 844 2016 
Q 844 1141 1059 588 
Q 1238 122 1591 122 
Q 1759 122 1940 273 
Q 2122 425 2216 781 
Q 2359 1319 2359 2297 
Q 2359 3022 2209 3506 
Q 2097 3866 1919 4016 
Q 1791 4119 1609 4119 
Q 1397 4119 1231 3928 
Q 1006 3669 925 3112 
Q 844 2556 844 2016 
z
" transform="scale(0.015625)"/>
       </defs>
       <use xlink:href="#TimesNewRomanPSMT-35"/>
       <use xlink:href="#TimesNewRomanPSMT-30" x="50"/>
      </g>
     </g>
    </g>
    <g id="xtick_2">
     <g id="line2d_2">
      <path d="M 145.724545 201.4 
L 145.724545 10.8 
" clip-path="url(#p16f1621852)" style="fill: none; stroke: #cccccc; stroke-width: 0.8; stroke-linecap: round"/>
     </g>
     <g id="text_2">
      <!-- 250 -->
      <g style="fill: #262626" transform="translate(134.474545 218.815625) scale(0.15 -0.15)">
       <defs>
        <path id="TimesNewRomanPSMT-32" d="M 2934 816 
L 2638 0 
L 138 0 
L 138 116 
Q 1241 1122 1691 1759 
Q 2141 2397 2141 2925 
Q 2141 3328 1894 3587 
Q 1647 3847 1303 3847 
Q 991 3847 742 3664 
Q 494 3481 375 3128 
L 259 3128 
Q 338 3706 661 4015 
Q 984 4325 1469 4325 
Q 1984 4325 2329 3994 
Q 2675 3663 2675 3213 
Q 2675 2891 2525 2569 
Q 2294 2063 1775 1497 
Q 997 647 803 472 
L 1909 472 
Q 2247 472 2383 497 
Q 2519 522 2628 598 
Q 2738 675 2819 816 
L 2934 816 
z
" transform="scale(0.015625)"/>
       </defs>
       <use xlink:href="#TimesNewRomanPSMT-32"/>
       <use xlink:href="#TimesNewRomanPSMT-35" x="50"/>
       <use xlink:href="#TimesNewRomanPSMT-30" x="100"/>
      </g>
     </g>
    </g>
    <g id="xtick_3">
     <g id="line2d_3">
      <path d="M 209.310625 201.4 
L 209.310625 10.8 
" clip-path="url(#p16f1621852)" style="fill: none; stroke: #cccccc; stroke-width: 0.8; stroke-linecap: round"/>
     </g>
     <g id="text_3">
      <!-- 450 -->
      <g style="fill: #262626" transform="translate(198.060625 218.815625) scale(0.15 -0.15)">
       <defs>
        <path id="TimesNewRomanPSMT-34" d="M 2978 1563 
L 2978 1119 
L 2409 1119 
L 2409 0 
L 1894 0 
L 1894 1119 
L 100 1119 
L 100 1519 
L 2066 4325 
L 2409 4325 
L 2409 1563 
L 2978 1563 
z
M 1894 1563 
L 1894 3666 
L 406 1563 
L 1894 1563 
z
" transform="scale(0.015625)"/>
       </defs>
       <use xlink:href="#TimesNewRomanPSMT-34"/>
       <use xlink:href="#TimesNewRomanPSMT-35" x="50"/>
       <use xlink:href="#TimesNewRomanPSMT-30" x="100"/>
      </g>
     </g>
    </g>
    <g id="xtick_4">
     <g id="line2d_4">
      <path d="M 272.896705 201.4 
L 272.896705 10.8 
" clip-path="url(#p16f1621852)" style="fill: none; stroke: #cccccc; stroke-width: 0.8; stroke-linecap: round"/>
     </g>
     <g id="text_4">
      <!-- 650 -->
      <g style="fill: #262626" transform="translate(261.646705 218.815625) scale(0.15 -0.15)">
       <defs>
        <path id="TimesNewRomanPSMT-36" d="M 2869 4325 
L 2869 4209 
Q 2456 4169 2195 4045 
Q 1934 3922 1679 3669 
Q 1425 3416 1258 3105 
Q 1091 2794 978 2366 
Q 1428 2675 1881 2675 
Q 2316 2675 2634 2325 
Q 2953 1975 2953 1425 
Q 2953 894 2631 456 
Q 2244 -75 1606 -75 
Q 1172 -75 869 213 
Q 275 772 275 1663 
Q 275 2231 503 2743 
Q 731 3256 1154 3653 
Q 1578 4050 1965 4187 
Q 2353 4325 2688 4325 
L 2869 4325 
z
M 925 2138 
Q 869 1716 869 1456 
Q 869 1156 980 804 
Q 1091 453 1309 247 
Q 1469 100 1697 100 
Q 1969 100 2183 356 
Q 2397 613 2397 1088 
Q 2397 1622 2184 2012 
Q 1972 2403 1581 2403 
Q 1463 2403 1327 2353 
Q 1191 2303 925 2138 
z
" transform="scale(0.015625)"/>
       </defs>
       <use xlink:href="#TimesNewRomanPSMT-36"/>
       <use xlink:href="#TimesNewRomanPSMT-35" x="50"/>
       <use xlink:href="#TimesNewRomanPSMT-30" x="100"/>
      </g>
     </g>
    </g>
    <g id="xtick_5">
     <g id="line2d_5">
      <path d="M 336.482784 201.4 
L 336.482784 10.8 
" clip-path="url(#p16f1621852)" style="fill: none; stroke: #cccccc; stroke-width: 0.8; stroke-linecap: round"/>
     </g>
     <g id="text_5">
      <!-- 850 -->
      <g style="fill: #262626" transform="translate(325.232784 218.815625) scale(0.15 -0.15)">
       <defs>
        <path id="TimesNewRomanPSMT-38" d="M 1228 2134 
Q 725 2547 579 2797 
Q 434 3047 434 3316 
Q 434 3728 753 4026 
Q 1072 4325 1600 4325 
Q 2113 4325 2425 4047 
Q 2738 3769 2738 3413 
Q 2738 3175 2569 2928 
Q 2400 2681 1866 2347 
Q 2416 1922 2594 1678 
Q 2831 1359 2831 1006 
Q 2831 559 2490 242 
Q 2150 -75 1597 -75 
Q 994 -75 656 303 
Q 388 606 388 966 
Q 388 1247 577 1523 
Q 766 1800 1228 2134 
z
M 1719 2469 
Q 2094 2806 2194 3001 
Q 2294 3197 2294 3444 
Q 2294 3772 2109 3958 
Q 1925 4144 1606 4144 
Q 1288 4144 1088 3959 
Q 888 3775 888 3528 
Q 888 3366 970 3203 
Q 1053 3041 1206 2894 
L 1719 2469 
z
M 1375 2016 
Q 1116 1797 991 1539 
Q 866 1281 866 981 
Q 866 578 1086 336 
Q 1306 94 1647 94 
Q 1984 94 2187 284 
Q 2391 475 2391 747 
Q 2391 972 2272 1150 
Q 2050 1481 1375 2016 
z
" transform="scale(0.015625)"/>
       </defs>
       <use xlink:href="#TimesNewRomanPSMT-38"/>
       <use xlink:href="#TimesNewRomanPSMT-35" x="50"/>
       <use xlink:href="#TimesNewRomanPSMT-30" x="100"/>
      </g>
     </g>
    </g>
    <g id="text_6">
     <!-- Number of voters -->
     <g style="fill: #262626" transform="translate(149.465625 236.619219) scale(0.16 -0.16)">
      <defs>
       <path id="TimesNewRomanPS-BoldMT-4e" d="M 1594 4238 
L 3684 1609 
L 3684 3431 
Q 3684 3813 3575 3947 
Q 3425 4128 3072 4122 
L 3072 4238 
L 4472 4238 
L 4472 4122 
Q 4203 4088 4111 4033 
Q 4019 3978 3967 3854 
Q 3916 3731 3916 3431 
L 3916 -97 
L 3809 -97 
L 944 3431 
L 944 738 
Q 944 372 1111 244 
Q 1278 116 1494 116 
L 1594 116 
L 1594 0 
L 91 0 
L 91 116 
Q 441 119 578 259 
Q 716 400 716 738 
L 716 3728 
L 625 3841 
Q 491 4009 387 4062 
Q 284 4116 91 4122 
L 91 4238 
L 1594 4238 
z
" transform="scale(0.015625)"/>
       <path id="TimesNewRomanPS-BoldMT-75" d="M 3038 2922 
L 3038 634 
Q 3038 300 3100 217 
Q 3163 134 3353 113 
L 3353 0 
L 2163 0 
L 2163 391 
Q 1953 141 1743 26 
Q 1534 -88 1275 -88 
Q 1028 -88 836 64 
Q 644 216 578 419 
Q 513 622 513 1128 
L 513 2288 
Q 513 2619 452 2700 
Q 391 2781 197 2806 
L 197 2922 
L 1388 2922 
L 1388 925 
Q 1388 613 1417 522 
Q 1447 431 1511 384 
Q 1575 338 1659 338 
Q 1772 338 1863 397 
Q 1988 478 2163 725 
L 2163 2288 
Q 2163 2619 2102 2700 
Q 2041 2781 1847 2806 
L 1847 2922 
L 3038 2922 
z
" transform="scale(0.015625)"/>
       <path id="TimesNewRomanPS-BoldMT-6d" d="M 1428 2922 
L 1428 2538 
Q 1669 2800 1873 2904 
Q 2078 3009 2322 3009 
Q 2603 3009 2793 2878 
Q 2984 2747 3088 2478 
Q 3338 2759 3567 2884 
Q 3797 3009 4047 3009 
Q 4350 3009 4529 2870 
Q 4709 2731 4779 2517 
Q 4850 2303 4850 1834 
L 4850 638 
Q 4850 300 4911 219 
Q 4972 138 5166 113 
L 5166 0 
L 3656 0 
L 3656 113 
Q 3834 128 3919 250 
Q 3975 334 3975 638 
L 3975 1894 
Q 3975 2284 3944 2390 
Q 3913 2497 3845 2548 
Q 3778 2600 3688 2600 
Q 3553 2600 3415 2501 
Q 3278 2403 3138 2206 
L 3138 638 
Q 3138 322 3191 241 
Q 3263 125 3466 113 
L 3466 0 
L 1953 0 
L 1953 113 
Q 2075 119 2145 173 
Q 2216 228 2239 304 
Q 2263 381 2263 638 
L 2263 1894 
Q 2263 2291 2231 2391 
Q 2200 2491 2126 2547 
Q 2053 2603 1969 2603 
Q 1844 2603 1741 2538 
Q 1594 2441 1428 2206 
L 1428 638 
Q 1428 328 1489 229 
Q 1550 131 1744 113 
L 1744 0 
L 238 0 
L 238 113 
Q 422 131 500 231 
Q 553 300 553 638 
L 553 2288 
Q 553 2619 492 2700 
Q 431 2781 238 2806 
L 238 2922 
L 1428 2922 
z
" transform="scale(0.015625)"/>
       <path id="TimesNewRomanPS-BoldMT-62" d="M 1347 4238 
L 1347 2628 
Q 1716 3009 2153 3009 
Q 2453 3009 2718 2832 
Q 2984 2656 3134 2331 
Q 3284 2006 3284 1581 
Q 3284 1103 3093 712 
Q 2903 322 2584 117 
Q 2266 -88 1856 -88 
Q 1619 -88 1434 -12 
Q 1250 63 1072 231 
L 588 -84 
L 481 -84 
L 481 3631 
Q 481 3884 459 3944 
Q 428 4031 361 4073 
Q 294 4116 134 4122 
L 134 4238 
L 1347 4238 
z
M 1347 2350 
L 1347 1050 
Q 1347 653 1366 544 
Q 1397 359 1515 245 
Q 1634 131 1819 131 
Q 1978 131 2092 222 
Q 2206 313 2282 581 
Q 2359 850 2359 1550 
Q 2359 2222 2191 2472 
Q 2069 2653 1863 2653 
Q 1594 2653 1347 2350 
z
" transform="scale(0.015625)"/>
       <path id="TimesNewRomanPS-BoldMT-65" d="M 2691 1566 
L 1088 1566 
Q 1116 984 1397 647 
Q 1613 388 1916 388 
Q 2103 388 2256 492 
Q 2409 597 2584 869 
L 2691 800 
Q 2453 316 2165 114 
Q 1878 -88 1500 -88 
Q 850 -88 516 413 
Q 247 816 247 1413 
Q 247 2144 642 2576 
Q 1038 3009 1569 3009 
Q 2013 3009 2339 2645 
Q 2666 2281 2691 1566 
z
M 1922 1775 
Q 1922 2278 1867 2465 
Q 1813 2653 1697 2750 
Q 1631 2806 1522 2806 
Q 1359 2806 1256 2647 
Q 1072 2369 1072 1884 
L 1072 1775 
L 1922 1775 
z
" transform="scale(0.015625)"/>
       <path id="TimesNewRomanPS-BoldMT-72" d="M 1428 2922 
L 1428 2259 
Q 1719 2713 1937 2861 
Q 2156 3009 2359 3009 
Q 2534 3009 2639 2901 
Q 2744 2794 2744 2597 
Q 2744 2388 2642 2272 
Q 2541 2156 2397 2156 
Q 2231 2156 2109 2262 
Q 1988 2369 1966 2381 
Q 1934 2400 1894 2400 
Q 1803 2400 1722 2331 
Q 1594 2225 1528 2028 
Q 1428 1725 1428 1359 
L 1428 688 
L 1431 513 
Q 1431 334 1453 284 
Q 1491 200 1564 161 
Q 1638 122 1813 113 
L 1813 0 
L 234 0 
L 234 113 
Q 425 128 492 217 
Q 559 306 559 688 
L 559 2303 
Q 559 2553 534 2622 
Q 503 2709 443 2750 
Q 384 2791 234 2806 
L 234 2922 
L 1428 2922 
z
" transform="scale(0.015625)"/>
       <path id="TimesNewRomanPS-BoldMT-20" transform="scale(0.015625)"/>
       <path id="TimesNewRomanPS-BoldMT-6f" d="M 1594 3009 
Q 1975 3009 2303 2812 
Q 2631 2616 2801 2253 
Q 2972 1891 2972 1459 
Q 2972 838 2656 419 
Q 2275 -88 1603 -88 
Q 944 -88 587 375 
Q 231 838 231 1447 
Q 231 2075 595 2542 
Q 959 3009 1594 3009 
z
M 1606 2788 
Q 1447 2788 1333 2667 
Q 1219 2547 1183 2192 
Q 1147 1838 1147 1206 
Q 1147 872 1191 581 
Q 1225 359 1337 243 
Q 1450 128 1594 128 
Q 1734 128 1828 206 
Q 1950 313 1991 503 
Q 2053 800 2053 1703 
Q 2053 2234 1993 2432 
Q 1934 2631 1819 2722 
Q 1738 2788 1606 2788 
z
" transform="scale(0.015625)"/>
       <path id="TimesNewRomanPS-BoldMT-66" d="M 1497 2616 
L 1497 588 
Q 1497 294 1559 219 
Q 1659 103 1928 113 
L 1928 0 
L 206 0 
L 206 113 
Q 403 116 486 158 
Q 569 200 600 275 
Q 631 350 631 588 
L 631 2616 
L 206 2616 
L 206 2922 
L 631 2922 
L 631 3138 
L 628 3284 
Q 628 3734 958 4034 
Q 1288 4334 1850 4334 
Q 2234 4334 2420 4190 
Q 2606 4047 2606 3872 
Q 2606 3731 2490 3628 
Q 2375 3525 2184 3525 
Q 2022 3525 1926 3609 
Q 1831 3694 1831 3797 
Q 1831 3825 1850 3913 
Q 1863 3966 1863 4013 
Q 1863 4078 1825 4109 
Q 1775 4156 1703 4156 
Q 1613 4156 1552 4081 
Q 1491 4006 1491 3841 
L 1497 3294 
L 1497 2922 
L 1928 2922 
L 1928 2616 
L 1497 2616 
z
" transform="scale(0.015625)"/>
       <path id="TimesNewRomanPS-BoldMT-76" d="M 1534 -88 
L 550 2178 
Q 372 2588 272 2697 
Q 200 2778 59 2806 
L 59 2922 
L 1613 2922 
L 1613 2806 
Q 1466 2806 1413 2753 
Q 1338 2684 1338 2591 
Q 1338 2475 1475 2156 
L 1956 1059 
L 2341 2006 
Q 2506 2413 2506 2581 
Q 2506 2678 2436 2739 
Q 2366 2800 2188 2806 
L 2188 2922 
L 3144 2922 
L 3144 2806 
Q 3006 2788 2918 2703 
Q 2831 2619 2656 2206 
L 1681 -88 
L 1534 -88 
z
" transform="scale(0.015625)"/>
       <path id="TimesNewRomanPS-BoldMT-74" d="M 1375 3991 
L 1375 2922 
L 2069 2922 
L 2069 2613 
L 1375 2613 
L 1375 809 
Q 1375 556 1398 482 
Q 1422 409 1481 364 
Q 1541 319 1591 319 
Q 1794 319 1975 628 
L 2069 559 
Q 1816 -41 1247 -41 
Q 969 -41 776 114 
Q 584 269 531 459 
Q 500 566 500 1034 
L 500 2613 
L 119 2613 
L 119 2722 
Q 513 3000 789 3306 
Q 1066 3613 1272 3991 
L 1375 3991 
z
" transform="scale(0.015625)"/>
       <path id="TimesNewRomanPS-BoldMT-73" d="M 2063 3003 
L 2109 2006 
L 2003 2006 
Q 1813 2450 1608 2612 
Q 1403 2775 1200 2775 
Q 1072 2775 981 2689 
Q 891 2603 891 2491 
Q 891 2406 953 2328 
Q 1053 2200 1512 1889 
Q 1972 1578 2117 1361 
Q 2263 1144 2263 875 
Q 2263 631 2141 397 
Q 2019 163 1797 37 
Q 1575 -88 1306 -88 
Q 1097 -88 747 44 
Q 653 78 619 78 
Q 516 78 447 -78 
L 344 -78 
L 294 972 
L 400 972 
Q 541 559 786 353 
Q 1031 147 1250 147 
Q 1400 147 1495 239 
Q 1591 331 1591 463 
Q 1591 613 1497 722 
Q 1403 831 1078 1053 
Q 600 1384 459 1559 
Q 253 1816 253 2125 
Q 253 2463 486 2736 
Q 719 3009 1159 3009 
Q 1397 3009 1619 2894 
Q 1703 2847 1756 2847 
Q 1813 2847 1847 2870 
Q 1881 2894 1956 3003 
L 2063 3003 
z
" transform="scale(0.015625)"/>
      </defs>
      <use xlink:href="#TimesNewRomanPS-BoldMT-4e"/>
      <use xlink:href="#TimesNewRomanPS-BoldMT-75" x="72.216797"/>
      <use xlink:href="#TimesNewRomanPS-BoldMT-6d" x="127.832031"/>
      <use xlink:href="#TimesNewRomanPS-BoldMT-62" x="211.132812"/>
      <use xlink:href="#TimesNewRomanPS-BoldMT-65" x="266.748047"/>
      <use xlink:href="#TimesNewRomanPS-BoldMT-72" x="311.132812"/>
      <use xlink:href="#TimesNewRomanPS-BoldMT-20" x="353.767578"/>
      <use xlink:href="#TimesNewRomanPS-BoldMT-6f" x="378.767578"/>
      <use xlink:href="#TimesNewRomanPS-BoldMT-66" x="428.767578"/>
      <use xlink:href="#TimesNewRomanPS-BoldMT-20" x="462.068359"/>
      <use xlink:href="#TimesNewRomanPS-BoldMT-76" x="487.068359"/>
      <use xlink:href="#TimesNewRomanPS-BoldMT-6f" x="537.068359"/>
      <use xlink:href="#TimesNewRomanPS-BoldMT-74" x="587.068359"/>
      <use xlink:href="#TimesNewRomanPS-BoldMT-65" x="620.369141"/>
      <use xlink:href="#TimesNewRomanPS-BoldMT-72" x="664.753906"/>
      <use xlink:href="#TimesNewRomanPS-BoldMT-73" x="709.138672"/>
     </g>
    </g>
   </g>
   <g id="matplotlib.axis_2">
    <g id="ytick_1">
     <g id="line2d_6">
      <path d="M 69.42125 196.438516 
L 349.2 196.438516 
" clip-path="url(#p16f1621852)" style="fill: none; stroke: #cccccc; stroke-width: 0.8; stroke-linecap: round"/>
     </g>
     <g id="text_7">
      <!-- 0.000 -->
      <g style="fill: #262626" transform="translate(28.67125 201.646329) scale(0.15 -0.15)">
       <defs>
        <path id="TimesNewRomanPSMT-2e" d="M 800 606 
Q 947 606 1047 504 
Q 1147 403 1147 259 
Q 1147 116 1045 14 
Q 944 -88 800 -88 
Q 656 -88 554 14 
Q 453 116 453 259 
Q 453 406 554 506 
Q 656 606 800 606 
z
" transform="scale(0.015625)"/>
       </defs>
       <use xlink:href="#TimesNewRomanPSMT-30"/>
       <use xlink:href="#TimesNewRomanPSMT-2e" x="50"/>
       <use xlink:href="#TimesNewRomanPSMT-30" x="75"/>
       <use xlink:href="#TimesNewRomanPSMT-30" x="125"/>
       <use xlink:href="#TimesNewRomanPSMT-30" x="175"/>
      </g>
     </g>
    </g>
    <g id="ytick_2">
     <g id="line2d_7">
      <path d="M 69.42125 174.190245 
L 349.2 174.190245 
" clip-path="url(#p16f1621852)" style="fill: none; stroke: #cccccc; stroke-width: 0.8; stroke-linecap: round"/>
     </g>
     <g id="text_8">
      <!-- 0.025 -->
      <g style="fill: #262626" transform="translate(28.67125 179.398057) scale(0.15 -0.15)">
       <use xlink:href="#TimesNewRomanPSMT-30"/>
       <use xlink:href="#TimesNewRomanPSMT-2e" x="50"/>
       <use xlink:href="#TimesNewRomanPSMT-30" x="75"/>
       <use xlink:href="#TimesNewRomanPSMT-32" x="125"/>
       <use xlink:href="#TimesNewRomanPSMT-35" x="175"/>
      </g>
     </g>
    </g>
    <g id="ytick_3">
     <g id="line2d_8">
      <path d="M 69.42125 151.941973 
L 349.2 151.941973 
" clip-path="url(#p16f1621852)" style="fill: none; stroke: #cccccc; stroke-width: 0.8; stroke-linecap: round"/>
     </g>
     <g id="text_9">
      <!-- 0.050 -->
      <g style="fill: #262626" transform="translate(28.67125 157.149785) scale(0.15 -0.15)">
       <use xlink:href="#TimesNewRomanPSMT-30"/>
       <use xlink:href="#TimesNewRomanPSMT-2e" x="50"/>
       <use xlink:href="#TimesNewRomanPSMT-30" x="75"/>
       <use xlink:href="#TimesNewRomanPSMT-35" x="125"/>
       <use xlink:href="#TimesNewRomanPSMT-30" x="175"/>
      </g>
     </g>
    </g>
    <g id="ytick_4">
     <g id="line2d_9">
      <path d="M 69.42125 129.693701 
L 349.2 129.693701 
" clip-path="url(#p16f1621852)" style="fill: none; stroke: #cccccc; stroke-width: 0.8; stroke-linecap: round"/>
     </g>
     <g id="text_10">
      <!-- 0.075 -->
      <g style="fill: #262626" transform="translate(28.67125 134.901514) scale(0.15 -0.15)">
       <defs>
        <path id="TimesNewRomanPSMT-37" d="M 644 4238 
L 2916 4238 
L 2916 4119 
L 1503 -88 
L 1153 -88 
L 2419 3728 
L 1253 3728 
Q 900 3728 750 3644 
Q 488 3500 328 3200 
L 238 3234 
L 644 4238 
z
" transform="scale(0.015625)"/>
       </defs>
       <use xlink:href="#TimesNewRomanPSMT-30"/>
       <use xlink:href="#TimesNewRomanPSMT-2e" x="50"/>
       <use xlink:href="#TimesNewRomanPSMT-30" x="75"/>
       <use xlink:href="#TimesNewRomanPSMT-37" x="125"/>
       <use xlink:href="#TimesNewRomanPSMT-35" x="175"/>
      </g>
     </g>
    </g>
    <g id="ytick_5">
     <g id="line2d_10">
      <path d="M 69.42125 107.44543 
L 349.2 107.44543 
" clip-path="url(#p16f1621852)" style="fill: none; stroke: #cccccc; stroke-width: 0.8; stroke-linecap: round"/>
     </g>
     <g id="text_11">
      <!-- 0.100 -->
      <g style="fill: #262626" transform="translate(28.67125 112.653242) scale(0.15 -0.15)">
       <defs>
        <path id="TimesNewRomanPSMT-31" d="M 750 3822 
L 1781 4325 
L 1884 4325 
L 1884 747 
Q 1884 391 1914 303 
Q 1944 216 2037 169 
Q 2131 122 2419 116 
L 2419 0 
L 825 0 
L 825 116 
Q 1125 122 1212 167 
Q 1300 213 1334 289 
Q 1369 366 1369 747 
L 1369 3034 
Q 1369 3497 1338 3628 
Q 1316 3728 1258 3775 
Q 1200 3822 1119 3822 
Q 1003 3822 797 3725 
L 750 3822 
z
" transform="scale(0.015625)"/>
       </defs>
       <use xlink:href="#TimesNewRomanPSMT-30"/>
       <use xlink:href="#TimesNewRomanPSMT-2e" x="50"/>
       <use xlink:href="#TimesNewRomanPSMT-31" x="75"/>
       <use xlink:href="#TimesNewRomanPSMT-30" x="125"/>
       <use xlink:href="#TimesNewRomanPSMT-30" x="175"/>
      </g>
     </g>
    </g>
    <g id="ytick_6">
     <g id="line2d_11">
      <path d="M 69.42125 85.197158 
L 349.2 85.197158 
" clip-path="url(#p16f1621852)" style="fill: none; stroke: #cccccc; stroke-width: 0.8; stroke-linecap: round"/>
     </g>
     <g id="text_12">
      <!-- 0.125 -->
      <g style="fill: #262626" transform="translate(28.67125 90.404971) scale(0.15 -0.15)">
       <use xlink:href="#TimesNewRomanPSMT-30"/>
       <use xlink:href="#TimesNewRomanPSMT-2e" x="50"/>
       <use xlink:href="#TimesNewRomanPSMT-31" x="75"/>
       <use xlink:href="#TimesNewRomanPSMT-32" x="125"/>
       <use xlink:href="#TimesNewRomanPSMT-35" x="175"/>
      </g>
     </g>
    </g>
    <g id="ytick_7">
     <g id="line2d_12">
      <path d="M 69.42125 62.948887 
L 349.2 62.948887 
" clip-path="url(#p16f1621852)" style="fill: none; stroke: #cccccc; stroke-width: 0.8; stroke-linecap: round"/>
     </g>
     <g id="text_13">
      <!-- 0.150 -->
      <g style="fill: #262626" transform="translate(28.67125 68.156699) scale(0.15 -0.15)">
       <use xlink:href="#TimesNewRomanPSMT-30"/>
       <use xlink:href="#TimesNewRomanPSMT-2e" x="50"/>
       <use xlink:href="#TimesNewRomanPSMT-31" x="75"/>
       <use xlink:href="#TimesNewRomanPSMT-35" x="125"/>
       <use xlink:href="#TimesNewRomanPSMT-30" x="175"/>
      </g>
     </g>
    </g>
    <g id="ytick_8">
     <g id="line2d_13">
      <path d="M 69.42125 40.700615 
L 349.2 40.700615 
" clip-path="url(#p16f1621852)" style="fill: none; stroke: #cccccc; stroke-width: 0.8; stroke-linecap: round"/>
     </g>
     <g id="text_14">
      <!-- 0.175 -->
      <g style="fill: #262626" transform="translate(28.67125 45.908428) scale(0.15 -0.15)">
       <use xlink:href="#TimesNewRomanPSMT-30"/>
       <use xlink:href="#TimesNewRomanPSMT-2e" x="50"/>
       <use xlink:href="#TimesNewRomanPSMT-31" x="75"/>
       <use xlink:href="#TimesNewRomanPSMT-37" x="125"/>
       <use xlink:href="#TimesNewRomanPSMT-35" x="175"/>
      </g>
     </g>
    </g>
    <g id="ytick_9">
     <g id="line2d_14">
      <path d="M 69.42125 18.452344 
L 349.2 18.452344 
" clip-path="url(#p16f1621852)" style="fill: none; stroke: #cccccc; stroke-width: 0.8; stroke-linecap: round"/>
     </g>
     <g id="text_15">
      <!-- 0.200 -->
      <g style="fill: #262626" transform="translate(28.67125 23.660156) scale(0.15 -0.15)">
       <use xlink:href="#TimesNewRomanPSMT-30"/>
       <use xlink:href="#TimesNewRomanPSMT-2e" x="50"/>
       <use xlink:href="#TimesNewRomanPSMT-32" x="75"/>
       <use xlink:href="#TimesNewRomanPSMT-30" x="125"/>
       <use xlink:href="#TimesNewRomanPSMT-30" x="175"/>
      </g>
     </g>
    </g>
    <g id="text_16">
     <!-- Initiator Gas Spend (Gwei) -->
     <g style="fill: #262626" transform="translate(21.462656 192.846875) rotate(-90) scale(0.15 -0.15)">
      <defs>
       <path id="TimesNewRomanPS-BoldMT-49" d="M 2344 116 
L 2344 0 
L 128 0 
L 128 116 
L 269 116 
Q 453 116 566 181 
Q 647 225 691 331 
Q 725 406 725 725 
L 725 3513 
Q 725 3838 690 3919 
Q 656 4000 551 4061 
Q 447 4122 269 4122 
L 128 4122 
L 128 4238 
L 2344 4238 
L 2344 4122 
L 2203 4122 
Q 2019 4122 1906 4056 
Q 1825 4013 1778 3906 
Q 1744 3831 1744 3513 
L 1744 725 
Q 1744 400 1780 319 
Q 1816 238 1920 177 
Q 2025 116 2203 116 
L 2344 116 
z
" transform="scale(0.015625)"/>
       <path id="TimesNewRomanPS-BoldMT-6e" d="M 1409 2922 
L 1409 2544 
Q 1634 2788 1840 2898 
Q 2047 3009 2284 3009 
Q 2569 3009 2756 2851 
Q 2944 2694 3006 2459 
Q 3056 2281 3056 1775 
L 3056 638 
Q 3056 300 3117 217 
Q 3178 134 3372 113 
L 3372 0 
L 1894 0 
L 1894 113 
Q 2059 134 2131 250 
Q 2181 328 2181 638 
L 2181 1938 
Q 2181 2297 2153 2390 
Q 2125 2484 2058 2536 
Q 1991 2588 1909 2588 
Q 1641 2588 1409 2203 
L 1409 638 
Q 1409 309 1470 221 
Q 1531 134 1697 113 
L 1697 0 
L 219 0 
L 219 113 
Q 403 131 481 231 
Q 534 300 534 638 
L 534 2288 
Q 534 2619 473 2700 
Q 413 2781 219 2806 
L 219 2922 
L 1409 2922 
z
" transform="scale(0.015625)"/>
       <path id="TimesNewRomanPS-BoldMT-69" d="M 919 4338 
Q 1122 4338 1262 4195 
Q 1403 4053 1403 3853 
Q 1403 3653 1261 3512 
Q 1119 3372 919 3372 
Q 719 3372 578 3512 
Q 438 3653 438 3853 
Q 438 4053 578 4195 
Q 719 4338 919 4338 
z
M 1356 2922 
L 1356 606 
Q 1356 297 1428 211 
Q 1500 125 1709 113 
L 1709 0 
L 131 0 
L 131 113 
Q 325 119 419 225 
Q 481 297 481 606 
L 481 2313 
Q 481 2622 409 2708 
Q 338 2794 131 2806 
L 131 2922 
L 1356 2922 
z
" transform="scale(0.015625)"/>
       <path id="TimesNewRomanPS-BoldMT-61" d="M 1828 431 
Q 1294 -41 869 -41 
Q 619 -41 453 123 
Q 288 288 288 534 
Q 288 869 575 1136 
Q 863 1403 1828 1847 
L 1828 2141 
Q 1828 2472 1792 2558 
Q 1756 2644 1656 2708 
Q 1556 2772 1431 2772 
Q 1228 2772 1097 2681 
Q 1016 2625 1016 2550 
Q 1016 2484 1103 2388 
Q 1222 2253 1222 2128 
Q 1222 1975 1108 1867 
Q 994 1759 809 1759 
Q 613 1759 480 1878 
Q 347 1997 347 2156 
Q 347 2381 525 2586 
Q 703 2791 1022 2900 
Q 1341 3009 1684 3009 
Q 2100 3009 2342 2832 
Q 2584 2656 2656 2450 
Q 2700 2319 2700 1847 
L 2700 713 
Q 2700 513 2715 461 
Q 2731 409 2762 384 
Q 2794 359 2834 359 
Q 2916 359 3000 475 
L 3094 400 
Q 2938 169 2770 64 
Q 2603 -41 2391 -41 
Q 2141 -41 2000 76 
Q 1859 194 1828 431 
z
M 1828 659 
L 1828 1638 
Q 1450 1416 1266 1163 
Q 1144 994 1144 822 
Q 1144 678 1247 569 
Q 1325 484 1466 484 
Q 1622 484 1828 659 
z
" transform="scale(0.015625)"/>
       <path id="TimesNewRomanPS-BoldMT-47" d="M 4416 4334 
L 4416 2841 
L 4300 2841 
Q 4091 3453 3672 3772 
Q 3253 4091 2756 4091 
Q 2281 4091 1965 3823 
Q 1650 3556 1519 3078 
Q 1388 2600 1388 2097 
Q 1388 1488 1531 1028 
Q 1675 569 1995 353 
Q 2316 138 2756 138 
Q 2909 138 3070 170 
Q 3231 203 3400 266 
L 3400 1147 
Q 3400 1397 3365 1470 
Q 3331 1544 3223 1603 
Q 3116 1663 2963 1663 
L 2853 1663 
L 2853 1778 
L 4913 1778 
L 4913 1663 
Q 4678 1647 4586 1598 
Q 4494 1550 4444 1438 
Q 4416 1378 4416 1147 
L 4416 266 
Q 4009 84 3570 -8 
Q 3131 -100 2659 -100 
Q 2056 -100 1657 64 
Q 1259 228 954 495 
Q 650 763 478 1097 
Q 259 1528 259 2063 
Q 259 3019 931 3678 
Q 1603 4338 2622 4338 
Q 2938 4338 3191 4288 
Q 3328 4263 3636 4145 
Q 3944 4028 4000 4028 
Q 4088 4028 4163 4092 
Q 4238 4156 4300 4334 
L 4416 4334 
z
" transform="scale(0.015625)"/>
       <path id="TimesNewRomanPS-BoldMT-53" d="M 3006 4334 
L 3041 2922 
L 2913 2922 
Q 2822 3453 2467 3776 
Q 2113 4100 1700 4100 
Q 1381 4100 1195 3929 
Q 1009 3759 1009 3538 
Q 1009 3397 1075 3288 
Q 1166 3141 1366 2997 
Q 1513 2894 2044 2631 
Q 2788 2266 3047 1941 
Q 3303 1616 3303 1197 
Q 3303 666 2889 283 
Q 2475 -100 1838 -100 
Q 1638 -100 1459 -59 
Q 1281 -19 1013 94 
Q 863 156 766 156 
Q 684 156 593 93 
Q 503 31 447 -97 
L 331 -97 
L 331 1503 
L 447 1503 
Q 584 828 976 473 
Q 1369 119 1822 119 
Q 2172 119 2380 309 
Q 2588 500 2588 753 
Q 2588 903 2508 1043 
Q 2428 1184 2265 1311 
Q 2103 1438 1691 1641 
Q 1113 1925 859 2125 
Q 606 2325 470 2572 
Q 334 2819 334 3116 
Q 334 3622 706 3978 
Q 1078 4334 1644 4334 
Q 1850 4334 2044 4284 
Q 2191 4247 2402 4145 
Q 2613 4044 2697 4044 
Q 2778 4044 2825 4094 
Q 2872 4144 2913 4334 
L 3006 4334 
z
" transform="scale(0.015625)"/>
       <path id="TimesNewRomanPS-BoldMT-70" d="M 1347 297 
L 1347 -791 
Q 1347 -1016 1383 -1097 
Q 1419 -1178 1494 -1215 
Q 1569 -1253 1788 -1253 
L 1788 -1369 
L 122 -1369 
L 122 -1253 
Q 316 -1247 409 -1144 
Q 472 -1072 472 -772 
L 472 2313 
Q 472 2622 400 2708 
Q 328 2794 122 2806 
L 122 2922 
L 1347 2922 
L 1347 2538 
Q 1500 2763 1659 2863 
Q 1888 3009 2156 3009 
Q 2478 3009 2742 2806 
Q 3006 2603 3143 2245 
Q 3281 1888 3281 1475 
Q 3281 1031 3139 664 
Q 2997 297 2726 104 
Q 2456 -88 2125 -88 
Q 1884 -88 1675 19 
Q 1519 100 1347 297 
z
M 1347 613 
Q 1616 231 1922 231 
Q 2091 231 2200 409 
Q 2363 672 2363 1409 
Q 2363 2166 2184 2444 
Q 2066 2628 1866 2628 
Q 1550 2628 1347 2172 
L 1347 613 
z
" transform="scale(0.015625)"/>
       <path id="TimesNewRomanPS-BoldMT-64" d="M 3056 4238 
L 3056 875 
Q 3056 534 3075 472 
Q 3100 369 3170 319 
Q 3241 269 3416 256 
L 3416 153 
L 2181 -88 
L 2181 375 
Q 1959 106 1786 9 
Q 1613 -88 1394 -88 
Q 834 -88 509 413 
Q 247 819 247 1409 
Q 247 1881 409 2254 
Q 572 2628 855 2818 
Q 1138 3009 1463 3009 
Q 1672 3009 1834 2928 
Q 1997 2847 2181 2644 
L 2181 3525 
Q 2181 3859 2153 3928 
Q 2116 4019 2041 4062 
Q 1966 4106 1759 4106 
L 1759 4238 
L 3056 4238 
z
M 2181 2256 
Q 1950 2700 1616 2700 
Q 1500 2700 1425 2638 
Q 1309 2541 1236 2297 
Q 1163 2053 1163 1550 
Q 1163 997 1244 731 
Q 1325 466 1466 347 
Q 1538 288 1663 288 
Q 1938 288 2181 719 
L 2181 2256 
z
" transform="scale(0.015625)"/>
       <path id="TimesNewRomanPS-BoldMT-28" d="M 2056 4334 
L 2056 4191 
Q 1731 3978 1578 3775 
Q 1366 3494 1247 3053 
Q 1097 2506 1097 1525 
Q 1097 600 1233 87 
Q 1369 -425 1603 -741 
Q 1766 -959 2056 -1125 
L 2056 -1281 
Q 1303 -1028 779 -248 
Q 256 531 256 1544 
Q 256 2544 778 3314 
Q 1300 4084 2056 4334 
z
" transform="scale(0.015625)"/>
       <path id="TimesNewRomanPS-BoldMT-77" d="M 3113 -88 
L 2313 2056 
L 1528 -88 
L 1366 -88 
L 588 2031 
Q 413 2516 291 2663 
Q 213 2763 53 2806 
L 53 2922 
L 1528 2922 
L 1528 2806 
Q 1378 2806 1322 2762 
Q 1266 2719 1266 2663 
Q 1266 2609 1366 2344 
L 1794 1203 
L 2206 2344 
L 2175 2419 
Q 2081 2653 2011 2717 
Q 1941 2781 1794 2806 
L 1794 2922 
L 3291 2922 
L 3291 2806 
Q 3116 2797 3069 2758 
Q 3022 2719 3022 2647 
Q 3022 2578 3113 2344 
L 3525 1203 
L 3900 2253 
Q 3981 2478 3981 2559 
Q 3981 2681 3922 2737 
Q 3863 2794 3691 2806 
L 3691 2922 
L 4556 2922 
L 4556 2806 
Q 4413 2788 4328 2705 
Q 4244 2622 4109 2234 
L 3291 -88 
L 3113 -88 
z
" transform="scale(0.015625)"/>
       <path id="TimesNewRomanPS-BoldMT-29" d="M 78 -1281 
L 78 -1138 
Q 403 -922 556 -719 
Q 766 -438 888 0 
Q 1038 550 1038 1531 
Q 1038 2456 902 2967 
Q 766 3478 531 3794 
Q 369 4013 78 4178 
L 78 4334 
Q 831 4081 1354 3301 
Q 1878 2522 1878 1509 
Q 1878 513 1354 -257 
Q 831 -1028 78 -1281 
z
" transform="scale(0.015625)"/>
      </defs>
      <use xlink:href="#TimesNewRomanPS-BoldMT-49"/>
      <use xlink:href="#TimesNewRomanPS-BoldMT-6e" x="38.916016"/>
      <use xlink:href="#TimesNewRomanPS-BoldMT-69" x="94.53125"/>
      <use xlink:href="#TimesNewRomanPS-BoldMT-74" x="122.314453"/>
      <use xlink:href="#TimesNewRomanPS-BoldMT-69" x="155.615234"/>
      <use xlink:href="#TimesNewRomanPS-BoldMT-61" x="183.398438"/>
      <use xlink:href="#TimesNewRomanPS-BoldMT-74" x="233.398438"/>
      <use xlink:href="#TimesNewRomanPS-BoldMT-6f" x="266.699219"/>
      <use xlink:href="#TimesNewRomanPS-BoldMT-72" x="316.699219"/>
      <use xlink:href="#TimesNewRomanPS-BoldMT-20" x="359.333984"/>
      <use xlink:href="#TimesNewRomanPS-BoldMT-47" x="384.333984"/>
      <use xlink:href="#TimesNewRomanPS-BoldMT-61" x="462.117188"/>
      <use xlink:href="#TimesNewRomanPS-BoldMT-73" x="512.117188"/>
      <use xlink:href="#TimesNewRomanPS-BoldMT-20" x="551.033203"/>
      <use xlink:href="#TimesNewRomanPS-BoldMT-53" x="576.033203"/>
      <use xlink:href="#TimesNewRomanPS-BoldMT-70" x="631.648438"/>
      <use xlink:href="#TimesNewRomanPS-BoldMT-65" x="687.263672"/>
      <use xlink:href="#TimesNewRomanPS-BoldMT-6e" x="731.648438"/>
      <use xlink:href="#TimesNewRomanPS-BoldMT-64" x="787.263672"/>
      <use xlink:href="#TimesNewRomanPS-BoldMT-20" x="842.878906"/>
      <use xlink:href="#TimesNewRomanPS-BoldMT-28" x="867.878906"/>
      <use xlink:href="#TimesNewRomanPS-BoldMT-47" x="901.179688"/>
      <use xlink:href="#TimesNewRomanPS-BoldMT-77" x="978.962891"/>
      <use xlink:href="#TimesNewRomanPS-BoldMT-65" x="1051.179688"/>
      <use xlink:href="#TimesNewRomanPS-BoldMT-69" x="1095.564453"/>
      <use xlink:href="#TimesNewRomanPS-BoldMT-29" x="1123.347656"/>
     </g>
    </g>
   </g>
   <g id="PathCollection_1">
    <defs>
     <path id="m3da08c9395" d="M 0 2.738613 
C 0.726289 2.738613 1.422928 2.450055 1.936492 1.936492 
C 2.450055 1.422928 2.738613 0.726289 2.738613 0 
C 2.738613 -0.726289 2.450055 -1.422928 1.936492 -1.936492 
C 1.422928 -2.450055 0.726289 -2.738613 0 -2.738613 
C -0.726289 -2.738613 -1.422928 -2.450055 -1.936492 -1.936492 
C -2.450055 -1.422928 -2.738613 -0.726289 -2.738613 0 
C -2.738613 0.726289 -2.450055 1.422928 -1.936492 1.936492 
C -1.422928 2.450055 -0.726289 2.738613 0 2.738613 
z
" style="stroke: #731d1d; stroke-opacity: 0.8"/>
    </defs>
    <g clip-path="url(#p16f1621852)">
     <use xlink:href="#m3da08c9395" x="82.138466" y="183.224818" style="fill: #731d1d; fill-opacity: 0.8; stroke: #731d1d; stroke-opacity: 0.8"/>
     <use xlink:href="#m3da08c9395" x="145.724545" y="152.90733" style="fill: #731d1d; fill-opacity: 0.8; stroke: #731d1d; stroke-opacity: 0.8"/>
     <use xlink:href="#m3da08c9395" x="209.310625" y="122.609898" style="fill: #731d1d; fill-opacity: 0.8; stroke: #731d1d; stroke-opacity: 0.8"/>
     <use xlink:href="#m3da08c9395" x="272.896705" y="90.394171" style="fill: #731d1d; fill-opacity: 0.8; stroke: #731d1d; stroke-opacity: 0.8"/>
     <use xlink:href="#m3da08c9395" x="336.482784" y="60.076782" style="fill: #731d1d; fill-opacity: 0.8; stroke: #731d1d; stroke-opacity: 0.8"/>
    </g>
   </g>
   <g id="PolyCollection_1">
    <defs>
     <path id="m2a2fd61670" d="M 82.138466 -80.628554 
L 82.138466 -59.263636 
L 84.7076 -60.755484 
L 87.276735 -62.244232 
L 89.845869 -63.729881 
L 92.415004 -65.212431 
L 94.984139 -66.691883 
L 97.553273 -68.168235 
L 100.122408 -69.641488 
L 102.691542 -71.111642 
L 105.260677 -72.578697 
L 107.829811 -74.042654 
L 110.398946 -75.503511 
L 112.96808 -76.961269 
L 115.537215 -78.415928 
L 118.106349 -79.867488 
L 120.675484 -81.315949 
L 123.244618 -82.758721 
L 125.813753 -84.191147 
L 128.382887 -85.621083 
L 130.952022 -87.048531 
L 133.521156 -88.47349 
L 136.090291 -89.895961 
L 138.659426 -91.315942 
L 141.22856 -92.733434 
L 143.797695 -94.148438 
L 146.366829 -95.560952 
L 148.935964 -96.970978 
L 151.505098 -98.378515 
L 154.074233 -99.783563 
L 156.643367 -101.186123 
L 159.212502 -102.586193 
L 161.781636 -103.983774 
L 164.350771 -105.378867 
L 166.919905 -106.329604 
L 169.48904 -107.278801 
L 172.058174 -108.239282 
L 174.627309 -109.211047 
L 177.196443 -110.194096 
L 179.765578 -111.188429 
L 182.334712 -112.194045 
L 184.903847 -113.708669 
L 187.472982 -115.268793 
L 190.042116 -116.850224 
L 192.611251 -118.249186 
L 195.180385 -119.430202 
L 197.74952 -120.624863 
L 200.318654 -121.833171 
L 202.887789 -123.055125 
L 205.456923 -124.290725 
L 208.026058 -125.539971 
L 210.595192 -126.802863 
L 213.164327 -128.079401 
L 215.733461 -129.369585 
L 218.302596 -130.673416 
L 220.87173 -131.990892 
L 223.440865 -133.322015 
L 226.009999 -134.666783 
L 228.579134 -136.025198 
L 231.148268 -137.397259 
L 233.717403 -138.782965 
L 236.286538 -140.182318 
L 238.855672 -141.595317 
L 241.424807 -142.945069 
L 243.993941 -144.382203 
L 246.563076 -145.833211 
L 249.13221 -147.298095 
L 251.701345 -148.776854 
L 254.270479 -150.273039 
L 256.839614 -151.792413 
L 259.408748 -153.222898 
L 261.977883 -154.458929 
L 264.547017 -155.692804 
L 267.116152 -156.915818 
L 269.685286 -158.138798 
L 272.254421 -159.361746 
L 274.823555 -160.584661 
L 277.39269 -161.807543 
L 279.961824 -163.030392 
L 282.530959 -164.253209 
L 285.100094 -165.475993 
L 287.669228 -166.698744 
L 290.238363 -167.921463 
L 292.807497 -169.144148 
L 295.376632 -170.366801 
L 297.945766 -171.589422 
L 300.514901 -172.812009 
L 303.084035 -174.034564 
L 305.65317 -175.257086 
L 308.222304 -176.479575 
L 310.791439 -177.702032 
L 313.360573 -178.924456 
L 315.929708 -180.146847 
L 318.498842 -181.369205 
L 321.067977 -182.591531 
L 323.637111 -183.813823 
L 326.206246 -185.036084 
L 328.775381 -186.258311 
L 331.344515 -187.480506 
L 333.91365 -188.702667 
L 336.482784 -189.924797 
L 336.482784 -211.306428 
L 336.482784 -211.306428 
L 333.91365 -209.116513 
L 331.344515 -206.941908 
L 328.775381 -204.782614 
L 326.206246 -202.63863 
L 323.637111 -200.509956 
L 321.067977 -198.396592 
L 318.498842 -196.298539 
L 315.929708 -194.215797 
L 313.360573 -192.148364 
L 310.791439 -190.096242 
L 308.222304 -188.05943 
L 305.65317 -186.037928 
L 303.084035 -184.031737 
L 300.514901 -182.040856 
L 297.945766 -180.065286 
L 295.376632 -178.105025 
L 292.807497 -176.160076 
L 290.238363 -174.230436 
L 287.669228 -172.316107 
L 285.100094 -170.417088 
L 282.530959 -168.533379 
L 279.961824 -166.66498 
L 277.39269 -164.811892 
L 274.823555 -162.974115 
L 272.254421 -161.326098 
L 269.685286 -160.212478 
L 267.116152 -159.107339 
L 264.547017 -158.010682 
L 261.977883 -156.922507 
L 259.408748 -155.842813 
L 256.839614 -154.771602 
L 254.270479 -153.708872 
L 251.701345 -152.654625 
L 249.13221 -151.608859 
L 246.563076 -150.571575 
L 243.993941 -149.542773 
L 241.424807 -148.522452 
L 238.855672 -147.037377 
L 236.286538 -145.41292 
L 233.717403 -143.80559 
L 231.148268 -142.215385 
L 228.579134 -140.642306 
L 226.009999 -139.086353 
L 223.440865 -137.809187 
L 220.87173 -136.567823 
L 218.302596 -135.325947 
L 215.733461 -134.083561 
L 213.164327 -132.840664 
L 210.595192 -131.597255 
L 208.026058 -130.353336 
L 205.456923 -129.108905 
L 202.887789 -127.863963 
L 200.318654 -126.618511 
L 197.74952 -125.372547 
L 195.180385 -124.126072 
L 192.611251 -122.879085 
L 190.042116 -121.631588 
L 187.472982 -120.38358 
L 184.903847 -119.13506 
L 182.334712 -117.889768 
L 179.765578 -116.646227 
L 177.196443 -115.4025 
L 174.627309 -114.158587 
L 172.058174 -112.914488 
L 169.48904 -111.670203 
L 166.919905 -110.425733 
L 164.350771 -109.181076 
L 161.781636 -107.934592 
L 159.212502 -106.665331 
L 156.643367 -105.396474 
L 154.074233 -104.12802 
L 151.505098 -102.859969 
L 148.935964 -101.602123 
L 146.366829 -100.345937 
L 143.797695 -99.08924 
L 141.22856 -97.832032 
L 138.659426 -96.619951 
L 136.090291 -95.746884 
L 133.521156 -94.88774 
L 130.952022 -94.042519 
L 128.382887 -93.211219 
L 125.813753 -92.393843 
L 123.244618 -91.590388 
L 120.675484 -90.800856 
L 118.106349 -90.025246 
L 115.537215 -89.263558 
L 112.96808 -88.515793 
L 110.398946 -87.78195 
L 107.829811 -87.06203 
L 105.260677 -86.356032 
L 102.691542 -85.663956 
L 100.122408 -84.985803 
L 97.553273 -84.321571 
L 94.984139 -83.671263 
L 92.415004 -83.034876 
L 89.845869 -82.412412 
L 87.276735 -81.803871 
L 84.7076 -81.209251 
L 82.138466 -80.628554 
z
" style="stroke: #ffffff; stroke-opacity: 0.15"/>
    </defs>
    <g clip-path="url(#p16f1621852)">
     <use xlink:href="#m2a2fd61670" x="0" y="252" style="fill: #731d1d; fill-opacity: 0.15; stroke: #ffffff; stroke-opacity: 0.15"/>
    </g>
   </g>
   <g id="PathCollection_2">
    <defs>
     <path id="mbe55e1d5ba" d="M 0 2.738613 
C 0.726289 2.738613 1.422928 2.450055 1.936492 1.936492 
C 2.450055 1.422928 2.738613 0.726289 2.738613 0 
C 2.738613 -0.726289 2.450055 -1.422928 1.936492 -1.936492 
C 1.422928 -2.450055 0.726289 -2.738613 0 -2.738613 
C -0.726289 -2.738613 -1.422928 -2.450055 -1.936492 -1.936492 
C -2.450055 -1.422928 -2.738613 -0.726289 -2.738613 0 
C -2.738613 0.726289 -2.450055 1.422928 -1.936492 1.936492 
C -1.422928 2.450055 -0.726289 2.738613 0 2.738613 
z
" style="stroke: #735340; stroke-opacity: 0.8"/>
    </defs>
    <g clip-path="url(#p16f1621852)">
     <use xlink:href="#mbe55e1d5ba" x="82.138466" y="183.869036" style="fill: #735340; fill-opacity: 0.8; stroke: #735340; stroke-opacity: 0.8"/>
     <use xlink:href="#mbe55e1d5ba" x="145.724545" y="152.242037" style="fill: #735340; fill-opacity: 0.8; stroke: #735340; stroke-opacity: 0.8"/>
     <use xlink:href="#mbe55e1d5ba" x="209.310625" y="122.099438" style="fill: #735340; fill-opacity: 0.8; stroke: #735340; stroke-opacity: 0.8"/>
     <use xlink:href="#mbe55e1d5ba" x="272.896705" y="90.472646" style="fill: #735340; fill-opacity: 0.8; stroke: #735340; stroke-opacity: 0.8"/>
     <use xlink:href="#mbe55e1d5ba" x="336.482784" y="58.854108" style="fill: #735340; fill-opacity: 0.8; stroke: #735340; stroke-opacity: 0.8"/>
    </g>
   </g>
   <g id="PolyCollection_2">
    <defs>
     <path id="m50999cb41d" d="M 82.138466 -89.034033 
L 82.138466 -66.622218 
L 84.7076 -67.900895 
L 87.276735 -69.179559 
L 89.845869 -70.458209 
L 92.415004 -71.660461 
L 94.984139 -72.638133 
L 97.553273 -73.653923 
L 100.122408 -74.707833 
L 102.691542 -75.799862 
L 105.260677 -76.930009 
L 107.829811 -78.098276 
L 110.398946 -79.304661 
L 112.96808 -80.549166 
L 115.537215 -81.831789 
L 118.106349 -83.152532 
L 120.675484 -84.511393 
L 123.244618 -85.908373 
L 125.813753 -87.343473 
L 128.382887 -88.816691 
L 130.952022 -90.328028 
L 133.521156 -91.877484 
L 136.090291 -93.465059 
L 138.659426 -94.750002 
L 141.22856 -96.028383 
L 143.797695 -97.30675 
L 146.366829 -98.585104 
L 148.935964 -99.863444 
L 151.505098 -101.141771 
L 154.074233 -102.420084 
L 156.643367 -103.469701 
L 159.212502 -104.371881 
L 161.781636 -105.285044 
L 164.350771 -106.209189 
L 166.919905 -107.144318 
L 169.48904 -108.090429 
L 172.058174 -109.047524 
L 174.627309 -110.015601 
L 177.196443 -110.994661 
L 179.765578 -111.984704 
L 182.334712 -112.985729 
L 184.903847 -113.997738 
L 187.472982 -115.456154 
L 190.042116 -117.057545 
L 192.611251 -118.573511 
L 195.180385 -119.736185 
L 197.74952 -120.91254 
L 200.318654 -122.102577 
L 202.887789 -123.306295 
L 205.456923 -124.523695 
L 208.026058 -125.754777 
L 210.595192 -126.99954 
L 213.164327 -128.257984 
L 215.733461 -129.53011 
L 218.302596 -130.815918 
L 220.87173 -132.115407 
L 223.440865 -133.428578 
L 226.009999 -134.75543 
L 228.579134 -136.095964 
L 231.148268 -137.450179 
L 233.717403 -138.818076 
L 236.286538 -140.208667 
L 238.855672 -141.613315 
L 241.424807 -143.031758 
L 243.993941 -144.463998 
L 246.563076 -145.795232 
L 249.13221 -146.986513 
L 251.701345 -148.188073 
L 254.270479 -149.399913 
L 256.839614 -150.622031 
L 259.408748 -151.855909 
L 261.977883 -153.085532 
L 264.547017 -154.325274 
L 267.116152 -155.575133 
L 269.685286 -156.83511 
L 272.254421 -158.105205 
L 274.823555 -159.385418 
L 277.39269 -160.528909 
L 279.961824 -161.651375 
L 282.530959 -162.771419 
L 285.100094 -163.889039 
L 287.669228 -165.004236 
L 290.238363 -166.11701 
L 292.807497 -167.22736 
L 295.376632 -168.335288 
L 297.945766 -169.440792 
L 300.514901 -170.543872 
L 303.084035 -171.64453 
L 305.65317 -172.742764 
L 308.222304 -173.838575 
L 310.791439 -174.931962 
L 313.360573 -176.022927 
L 315.929708 -177.111468 
L 318.498842 -178.197586 
L 321.067977 -179.28128 
L 323.637111 -180.362552 
L 326.206246 -181.4414 
L 328.775381 -182.517824 
L 331.344515 -183.591826 
L 333.91365 -184.663404 
L 336.482784 -185.732559 
L 336.482784 -221.754789 
L 336.482784 -221.754789 
L 333.91365 -219.482565 
L 331.344515 -217.22752 
L 328.775381 -214.989654 
L 326.206246 -212.768966 
L 323.637111 -210.565457 
L 321.067977 -208.379127 
L 318.498842 -206.209975 
L 315.929708 -204.058002 
L 313.360573 -201.923207 
L 310.791439 -199.805592 
L 308.222304 -197.705155 
L 305.65317 -195.621896 
L 303.084035 -193.555817 
L 300.514901 -191.506916 
L 297.945766 -189.475193 
L 295.376632 -187.46065 
L 292.807497 -185.463285 
L 290.238363 -183.483099 
L 287.669228 -181.520091 
L 285.100094 -179.574262 
L 282.530959 -177.645612 
L 279.961824 -175.73414 
L 277.39269 -173.839847 
L 274.823555 -171.962733 
L 272.254421 -170.102797 
L 269.685286 -168.26004 
L 267.116152 -166.434462 
L 264.547017 -164.626062 
L 261.977883 -162.834841 
L 259.408748 -161.060799 
L 256.839614 -159.303935 
L 254.270479 -157.564251 
L 251.701345 -155.841744 
L 249.13221 -154.136417 
L 246.563076 -152.448268 
L 243.993941 -150.777298 
L 241.424807 -149.123506 
L 238.855672 -147.486893 
L 236.286538 -145.867459 
L 233.717403 -144.789212 
L 231.148268 -143.764727 
L 228.579134 -142.749238 
L 226.009999 -141.742747 
L 223.440865 -140.077224 
L 220.87173 -138.177632 
L 218.302596 -136.299947 
L 215.733461 -134.444168 
L 213.164327 -133.029826 
L 210.595192 -131.767455 
L 208.026058 -130.504678 
L 205.456923 -129.241495 
L 202.887789 -127.977905 
L 200.318654 -126.713909 
L 197.74952 -125.449507 
L 195.180385 -124.403632 
L 192.611251 -123.437074 
L 190.042116 -122.480633 
L 187.472982 -121.53431 
L 184.903847 -120.598105 
L 182.334712 -119.672018 
L 179.765578 -118.756049 
L 177.196443 -117.850198 
L 174.627309 -116.954464 
L 172.058174 -116.068849 
L 169.48904 -115.193351 
L 166.919905 -114.327971 
L 164.350771 -113.444236 
L 161.781636 -111.493309 
L 159.212502 -110.238336 
L 156.643367 -109.354884 
L 154.074233 -108.483615 
L 151.505098 -107.624527 
L 148.935964 -106.777622 
L 146.366829 -105.942899 
L 143.797695 -105.120358 
L 141.22856 -104.309999 
L 138.659426 -103.511823 
L 136.090291 -102.725828 
L 133.521156 -101.952016 
L 130.952022 -101.190386 
L 128.382887 -100.440939 
L 125.813753 -99.703673 
L 123.244618 -98.97859 
L 120.675484 -98.265688 
L 118.106349 -97.564969 
L 115.537215 -96.876433 
L 112.96808 -96.200078 
L 110.398946 -95.535905 
L 107.829811 -94.883915 
L 105.260677 -94.244107 
L 102.691542 -93.616481 
L 100.122408 -93.001038 
L 97.553273 -92.397776 
L 94.984139 -91.806697 
L 92.415004 -91.2278 
L 89.845869 -90.661085 
L 87.276735 -90.106552 
L 84.7076 -89.564201 
L 82.138466 -89.034033 
z
" style="stroke: #ffffff; stroke-opacity: 0.15"/>
    </defs>
    <g clip-path="url(#p16f1621852)">
     <use xlink:href="#m50999cb41d" x="0" y="252" style="fill: #735340; fill-opacity: 0.15; stroke: #ffffff; stroke-opacity: 0.15"/>
    </g>
   </g>
   <g id="PathCollection_3">
    <defs>
     <path id="m6c00aee771" d="M 0 2.738613 
C 0.726289 2.738613 1.422928 2.450055 1.936492 1.936492 
C 2.450055 1.422928 2.738613 0.726289 2.738613 0 
C 2.738613 -0.726289 2.450055 -1.422928 1.936492 -1.936492 
C 1.422928 -2.450055 0.726289 -2.738613 0 -2.738613 
C -0.726289 -2.738613 -1.422928 -2.450055 -1.936492 -1.936492 
C -2.450055 -1.422928 -2.738613 -0.726289 -2.738613 0 
C -2.738613 0.726289 -2.450055 1.422928 -1.936492 1.936492 
C -1.422928 2.450055 -0.726289 2.738613 0 2.738613 
z
" style="stroke: #d94436; stroke-opacity: 0.8"/>
    </defs>
    <g clip-path="url(#p16f1621852)">
     <use xlink:href="#m6c00aee771" x="82.138466" y="184.533512" style="fill: #d94436; fill-opacity: 0.8; stroke: #d94436; stroke-opacity: 0.8"/>
     <use xlink:href="#m6c00aee771" x="145.724545" y="153.273801" style="fill: #d94436; fill-opacity: 0.8; stroke: #d94436; stroke-opacity: 0.8"/>
     <use xlink:href="#m6c00aee771" x="209.310625" y="122.013886" style="fill: #d94436; fill-opacity: 0.8; stroke: #d94436; stroke-opacity: 0.8"/>
     <use xlink:href="#m6c00aee771" x="272.896705" y="90.754378" style="fill: #d94436; fill-opacity: 0.8; stroke: #d94436; stroke-opacity: 0.8"/>
     <use xlink:href="#m6c00aee771" x="336.482784" y="59.494581" style="fill: #d94436; fill-opacity: 0.8; stroke: #d94436; stroke-opacity: 0.8"/>
    </g>
   </g>
   <g id="PolyCollection_3">
    <defs>
     <path id="m6caac3d116" d="M 82.138466 -89.321033 
L 82.138466 -67.465879 
L 84.7076 -68.279503 
L 87.276735 -69.130413 
L 89.845869 -70.019219 
L 92.415004 -70.945919 
L 94.984139 -71.910514 
L 97.553273 -72.913005 
L 100.122408 -73.95339 
L 102.691542 -75.031671 
L 105.260677 -76.147846 
L 107.829811 -77.301916 
L 110.398946 -78.493882 
L 112.96808 -79.723742 
L 115.537215 -80.991498 
L 118.106349 -82.297149 
L 120.675484 -83.640694 
L 123.244618 -85.022135 
L 125.813753 -86.44147 
L 128.382887 -87.898701 
L 130.952022 -89.393827 
L 133.521156 -90.926847 
L 136.090291 -92.497763 
L 138.659426 -94.106574 
L 141.22856 -95.753279 
L 143.797695 -97.43788 
L 146.366829 -98.938993 
L 148.935964 -99.797127 
L 151.505098 -100.666392 
L 154.074233 -101.546787 
L 156.643367 -102.438314 
L 159.212502 -103.340971 
L 161.781636 -104.254759 
L 164.350771 -105.179678 
L 166.919905 -106.115728 
L 169.48904 -107.062909 
L 172.058174 -108.021221 
L 174.627309 -108.990663 
L 177.196443 -109.971237 
L 179.765578 -110.962941 
L 182.334712 -112.037782 
L 184.903847 -113.055517 
L 187.472982 -114.084214 
L 190.042116 -115.123874 
L 192.611251 -116.174496 
L 195.180385 -117.236081 
L 197.74952 -118.308628 
L 200.318654 -119.392138 
L 202.887789 -120.48661 
L 205.456923 -121.592044 
L 208.026058 -122.708441 
L 210.595192 -123.835801 
L 213.164327 -124.974122 
L 215.733461 -126.123407 
L 218.302596 -127.283653 
L 220.87173 -128.454863 
L 223.440865 -129.637034 
L 226.009999 -130.830169 
L 228.579134 -132.034265 
L 231.148268 -133.464591 
L 233.717403 -135.056772 
L 236.286538 -136.664353 
L 238.855672 -138.287333 
L 241.424807 -139.925713 
L 243.993941 -141.579492 
L 246.563076 -143.24867 
L 249.13221 -144.933248 
L 251.701345 -146.633225 
L 254.270479 -148.348602 
L 256.839614 -150.079378 
L 259.408748 -151.691167 
L 261.977883 -152.906703 
L 264.547017 -154.132235 
L 267.116152 -155.367763 
L 269.685286 -156.613287 
L 272.254421 -157.868806 
L 274.823555 -159.134321 
L 277.39269 -160.409832 
L 279.961824 -161.695339 
L 282.530959 -162.990842 
L 285.100094 -164.29634 
L 287.669228 -165.611834 
L 290.238363 -166.937324 
L 292.807497 -168.27281 
L 295.376632 -169.618291 
L 297.945766 -170.973768 
L 300.514901 -172.339241 
L 303.084035 -173.71471 
L 305.65317 -175.100174 
L 308.222304 -176.495635 
L 310.791439 -177.901091 
L 313.360573 -179.316543 
L 315.929708 -180.74199 
L 318.498842 -182.177434 
L 321.067977 -183.622873 
L 323.637111 -185.078308 
L 326.206246 -186.543738 
L 328.775381 -188.019165 
L 331.344515 -189.504587 
L 333.91365 -191.000005 
L 336.482784 -192.504725 
L 336.482784 -226.050935 
L 336.482784 -226.050935 
L 333.91365 -223.667574 
L 331.344515 -221.302467 
L 328.775381 -218.955614 
L 326.206246 -216.627015 
L 323.637111 -214.31667 
L 321.067977 -212.024579 
L 318.498842 -209.750741 
L 315.929708 -207.495158 
L 313.360573 -205.257828 
L 310.791439 -203.038752 
L 308.222304 -200.83793 
L 305.65317 -198.655363 
L 303.084035 -196.491049 
L 300.514901 -194.344989 
L 297.945766 -192.217183 
L 295.376632 -190.10763 
L 292.807497 -188.016332 
L 290.238363 -185.943288 
L 287.669228 -183.888497 
L 285.100094 -181.851961 
L 282.530959 -179.833678 
L 279.961824 -177.833649 
L 277.39269 -175.851875 
L 274.823555 -173.888354 
L 272.254421 -171.943087 
L 269.685286 -170.016074 
L 267.116152 -168.107315 
L 264.547017 -166.216809 
L 261.977883 -164.344558 
L 259.408748 -162.490561 
L 256.839614 -160.654817 
L 254.270479 -158.837328 
L 251.701345 -157.038092 
L 249.13221 -155.257111 
L 246.563076 -153.494383 
L 243.993941 -151.749909 
L 241.424807 -150.023689 
L 238.855672 -148.315723 
L 236.286538 -146.626011 
L 233.717403 -144.954552 
L 231.148268 -143.665877 
L 228.579134 -142.66028 
L 226.009999 -141.663521 
L 223.440865 -140.277047 
L 220.87173 -138.356219 
L 218.302596 -136.457501 
L 215.733461 -134.580894 
L 213.164327 -132.726398 
L 210.595192 -130.894014 
L 208.026058 -129.479084 
L 205.456923 -128.472493 
L 202.887789 -127.47586 
L 200.318654 -126.489185 
L 197.74952 -125.512469 
L 195.180385 -124.545711 
L 192.611251 -123.588911 
L 190.042116 -122.64207 
L 187.472982 -121.705186 
L 184.903847 -120.778261 
L 182.334712 -119.861295 
L 179.765578 -118.954286 
L 177.196443 -118.057236 
L 174.627309 -117.170144 
L 172.058174 -116.29301 
L 169.48904 -115.425835 
L 166.919905 -114.371809 
L 164.350771 -112.336211 
L 161.781636 -111.398408 
L 159.212502 -110.510113 
L 156.643367 -109.63376 
L 154.074233 -108.769351 
L 151.505098 -107.916885 
L 148.935964 -107.076361 
L 146.366829 -106.247781 
L 143.797695 -105.431144 
L 141.22856 -104.626451 
L 138.659426 -103.8337 
L 136.090291 -103.052892 
L 133.521156 -102.284028 
L 130.952022 -101.527106 
L 128.382887 -100.782128 
L 125.813753 -100.049093 
L 123.244618 -99.328001 
L 120.675484 -98.618852 
L 118.106349 -97.921646 
L 115.537215 -97.236383 
L 112.96808 -96.563063 
L 110.398946 -95.901687 
L 107.829811 -95.252253 
L 105.260677 -94.547352 
L 102.691542 -93.919081 
L 100.122408 -93.302703 
L 97.553273 -92.698217 
L 94.984139 -92.105623 
L 92.415004 -91.524921 
L 89.845869 -90.956111 
L 87.276735 -90.399193 
L 84.7076 -89.854167 
L 82.138466 -89.321033 
z
" style="stroke: #ffffff; stroke-opacity: 0.15"/>
    </defs>
    <g clip-path="url(#p16f1621852)">
     <use xlink:href="#m6caac3d116" x="0" y="252" style="fill: #d94436; fill-opacity: 0.15; stroke: #ffffff; stroke-opacity: 0.15"/>
    </g>
   </g>
   <g id="PathCollection_4">
    <defs>
     <path id="me9df95b523" d="M 0 2.738613 
C 0.726289 2.738613 1.422928 2.450055 1.936492 1.936492 
C 2.450055 1.422928 2.738613 0.726289 2.738613 0 
C 2.738613 -0.726289 2.450055 -1.422928 1.936492 -1.936492 
C 1.422928 -2.450055 0.726289 -2.738613 0 -2.738613 
C -0.726289 -2.738613 -1.422928 -2.450055 -1.936492 -1.936492 
C -2.450055 -1.422928 -2.738613 -0.726289 -2.738613 0 
C -2.738613 0.726289 -2.450055 1.422928 -1.936492 1.936492 
C -1.422928 2.450055 -0.726289 2.738613 0 2.738613 
z
" style="stroke: #f26444; stroke-opacity: 0.8"/>
    </defs>
    <g clip-path="url(#p16f1621852)">
     <use xlink:href="#me9df95b523" x="82.138466" y="183.847957" style="fill: #f26444; fill-opacity: 0.8; stroke: #f26444; stroke-opacity: 0.8"/>
     <use xlink:href="#me9df95b523" x="145.724545" y="152.574091" style="fill: #f26444; fill-opacity: 0.8; stroke: #f26444; stroke-opacity: 0.8"/>
     <use xlink:href="#me9df95b523" x="209.310625" y="121.320292" style="fill: #f26444; fill-opacity: 0.8; stroke: #f26444; stroke-opacity: 0.8"/>
     <use xlink:href="#me9df95b523" x="272.896705" y="89.380158" style="fill: #f26444; fill-opacity: 0.8; stroke: #f26444; stroke-opacity: 0.8"/>
     <use xlink:href="#me9df95b523" x="336.482784" y="58.106207" style="fill: #f26444; fill-opacity: 0.8; stroke: #f26444; stroke-opacity: 0.8"/>
    </g>
   </g>
   <g id="PolyCollection_4">
    <defs>
     <path id="m7e1c15adb5" d="M 82.138466 -89.510375 
L 82.138466 -64.800892 
L 84.7076 -66.15815 
L 87.276735 -67.51432 
L 89.845869 -68.869403 
L 92.415004 -70.223398 
L 94.984139 -71.576306 
L 97.553273 -72.898175 
L 100.122408 -73.765177 
L 102.691542 -74.653888 
L 105.260677 -75.564307 
L 107.829811 -76.496435 
L 110.398946 -77.450272 
L 112.96808 -78.425818 
L 115.537215 -79.423072 
L 118.106349 -80.442035 
L 120.675484 -81.482706 
L 123.244618 -82.545086 
L 125.813753 -83.629175 
L 128.382887 -84.734972 
L 130.952022 -85.862478 
L 133.521156 -87.011693 
L 136.090291 -88.182616 
L 138.659426 -89.375248 
L 141.22856 -90.589589 
L 143.797695 -91.825638 
L 146.366829 -93.083396 
L 148.935964 -94.362863 
L 151.505098 -95.664038 
L 154.074233 -96.986922 
L 156.643367 -98.331515 
L 159.212502 -99.697816 
L 161.781636 -101.085826 
L 164.350771 -102.495545 
L 166.919905 -103.926972 
L 169.48904 -105.380108 
L 172.058174 -106.854952 
L 174.627309 -108.351505 
L 177.196443 -109.869767 
L 179.765578 -111.409738 
L 182.334712 -112.791287 
L 184.903847 -113.814195 
L 187.472982 -114.848248 
L 190.042116 -115.893448 
L 192.611251 -116.949793 
L 195.180385 -118.017284 
L 197.74952 -119.09592 
L 200.318654 -120.185703 
L 202.887789 -121.286631 
L 205.456923 -122.398705 
L 208.026058 -123.521925 
L 210.595192 -124.656291 
L 213.164327 -125.801802 
L 215.733461 -126.95846 
L 218.302596 -128.126263 
L 220.87173 -129.305211 
L 223.440865 -130.495306 
L 226.009999 -131.696546 
L 228.579134 -132.99711 
L 231.148268 -134.572488 
L 233.717403 -136.179188 
L 236.286538 -137.801533 
L 238.855672 -139.439522 
L 241.424807 -141.093156 
L 243.993941 -142.762435 
L 246.563076 -144.447359 
L 249.13221 -146.147927 
L 251.701345 -147.86414 
L 254.270479 -149.595998 
L 256.839614 -151.3435 
L 259.408748 -152.624338 
L 261.977883 -153.853356 
L 264.547017 -155.092486 
L 267.116152 -156.341729 
L 269.685286 -157.601085 
L 272.254421 -158.870553 
L 274.823555 -160.150133 
L 277.39269 -161.439826 
L 279.961824 -162.739631 
L 282.530959 -164.049549 
L 285.100094 -165.369579 
L 287.669228 -166.699721 
L 290.238363 -168.039976 
L 292.807497 -169.390344 
L 295.376632 -170.750824 
L 297.945766 -172.121416 
L 300.514901 -173.502121 
L 303.084035 -174.892938 
L 305.65317 -176.293867 
L 308.222304 -177.704909 
L 310.791439 -179.126064 
L 313.360573 -180.557331 
L 315.929708 -181.99871 
L 318.498842 -183.450202 
L 321.067977 -184.911806 
L 323.637111 -186.383523 
L 326.206246 -187.865352 
L 328.775381 -189.344698 
L 331.344515 -190.605533 
L 333.91365 -191.866335 
L 336.482784 -193.127104 
L 336.482784 -226.788722 
L 336.482784 -226.788722 
L 333.91365 -224.403724 
L 331.344515 -222.03701 
L 328.775381 -219.688581 
L 326.206246 -217.358437 
L 323.637111 -215.046577 
L 321.067977 -212.753002 
L 318.498842 -210.477711 
L 315.929708 -208.220705 
L 313.360573 -205.981984 
L 310.791439 -203.761547 
L 308.222304 -201.559395 
L 305.65317 -199.375528 
L 303.084035 -197.209945 
L 300.514901 -195.062647 
L 297.945766 -192.933633 
L 295.376632 -190.822904 
L 292.807497 -188.73046 
L 290.238363 -186.6563 
L 287.669228 -184.600425 
L 285.100094 -182.562834 
L 282.530959 -180.543529 
L 279.961824 -178.542507 
L 277.39269 -176.559771 
L 274.823555 -174.595319 
L 272.254421 -172.649151 
L 269.685286 -170.721268 
L 267.116152 -168.81167 
L 264.547017 -166.920357 
L 261.977883 -165.047328 
L 259.408748 -163.192583 
L 256.839614 -161.356124 
L 254.270479 -159.537949 
L 251.701345 -157.738058 
L 249.13221 -155.956452 
L 246.563076 -154.193131 
L 243.993941 -152.448095 
L 241.424807 -150.721343 
L 238.855672 -149.012875 
L 236.286538 -147.322693 
L 233.717403 -146.04371 
L 231.148268 -145.028509 
L 228.579134 -144.022139 
L 226.009999 -143.00595 
L 223.440865 -142.015764 
L 220.87173 -141.034362 
L 218.302596 -140.061744 
L 215.733461 -139.097911 
L 213.164327 -138.142862 
L 210.595192 -137.196597 
L 208.026058 -136.259116 
L 205.456923 -135.33042 
L 202.887789 -134.410507 
L 200.318654 -133.499379 
L 197.74952 -132.597035 
L 195.180385 -131.703475 
L 192.611251 -130.400213 
L 190.042116 -128.467165 
L 187.472982 -126.564125 
L 184.903847 -124.691095 
L 182.334712 -122.848072 
L 179.765578 -121.003056 
L 177.196443 -119.186613 
L 174.627309 -117.830008 
L 172.058174 -116.915426 
L 169.48904 -116.011629 
L 166.919905 -115.060178 
L 164.350771 -113.085077 
L 161.781636 -111.77593 
L 159.212502 -110.873697 
L 156.643367 -109.98373 
L 154.074233 -109.106029 
L 151.505098 -108.240594 
L 148.935964 -107.387425 
L 146.366829 -106.546522 
L 143.797695 -105.717885 
L 141.22856 -104.901513 
L 138.659426 -104.097408 
L 136.090291 -103.305569 
L 133.521156 -102.525995 
L 130.952022 -101.758688 
L 128.382887 -101.003646 
L 125.813753 -100.260871 
L 123.244618 -99.530361 
L 120.675484 -98.812117 
L 118.106349 -98.10614 
L 115.537215 -97.412428 
L 112.96808 -96.730982 
L 110.398946 -96.061802 
L 107.829811 -95.404888 
L 105.260677 -94.76024 
L 102.691542 -94.127858 
L 100.122408 -93.507742 
L 97.553273 -92.899891 
L 94.984139 -92.304307 
L 92.415004 -91.720989 
L 89.845869 -91.149936 
L 87.276735 -90.59115 
L 84.7076 -90.044629 
L 82.138466 -89.510375 
z
" style="stroke: #ffffff; stroke-opacity: 0.15"/>
    </defs>
    <g clip-path="url(#p16f1621852)">
     <use xlink:href="#m7e1c15adb5" x="0" y="252" style="fill: #f26444; fill-opacity: 0.15; stroke: #ffffff; stroke-opacity: 0.15"/>
    </g>
   </g>
   <g id="PathCollection_5">
    <defs>
     <path id="m1f6dcada3e" d="M 0 2.738613 
C 0.726289 2.738613 1.422928 2.450055 1.936492 1.936492 
C 2.450055 1.422928 2.738613 0.726289 2.738613 0 
C 2.738613 -0.726289 2.450055 -1.422928 1.936492 -1.936492 
C 1.422928 -2.450055 0.726289 -2.738613 0 -2.738613 
C -0.726289 -2.738613 -1.422928 -2.450055 -1.936492 -1.936492 
C -2.450055 -1.422928 -2.738613 -0.726289 -2.738613 0 
C -2.738613 0.726289 -2.450055 1.422928 -1.936492 1.936492 
C -1.422928 2.450055 -0.726289 2.738613 0 2.738613 
z
" style="stroke: #d9ab9a; stroke-opacity: 0.8"/>
    </defs>
    <g clip-path="url(#p16f1621852)">
     <use xlink:href="#m1f6dcada3e" x="82.138466" y="183.869158" style="fill: #d9ab9a; fill-opacity: 0.8; stroke: #d9ab9a; stroke-opacity: 0.8"/>
     <use xlink:href="#m1f6dcada3e" x="145.724545" y="151.368801" style="fill: #d9ab9a; fill-opacity: 0.8; stroke: #d9ab9a; stroke-opacity: 0.8"/>
     <use xlink:href="#m1f6dcada3e" x="209.310625" y="118.868242" style="fill: #d9ab9a; fill-opacity: 0.8; stroke: #d9ab9a; stroke-opacity: 0.8"/>
     <use xlink:href="#m1f6dcada3e" x="272.896705" y="86.368088" style="fill: #d9ab9a; fill-opacity: 0.8; stroke: #d9ab9a; stroke-opacity: 0.8"/>
     <use xlink:href="#m1f6dcada3e" x="336.482784" y="53.867645" style="fill: #d9ab9a; fill-opacity: 0.8; stroke: #d9ab9a; stroke-opacity: 0.8"/>
    </g>
   </g>
   <g id="PolyCollection_5">
    <defs>
     <path id="mf49b401530" d="M 82.138466 -90.926877 
L 82.138466 -68.130233 
L 84.7076 -68.853778 
L 87.276735 -69.59283 
L 89.845869 -70.347997 
L 92.415004 -71.119278 
L 94.984139 -71.906674 
L 97.553273 -72.710186 
L 100.122408 -73.529812 
L 102.691542 -74.365553 
L 105.260677 -75.217409 
L 107.829811 -76.08538 
L 110.398946 -76.969466 
L 112.96808 -77.869667 
L 115.537215 -78.785983 
L 118.106349 -79.718414 
L 120.675484 -80.666959 
L 123.244618 -81.63162 
L 125.813753 -82.612395 
L 128.382887 -83.609286 
L 130.952022 -84.622291 
L 133.521156 -85.651411 
L 136.090291 -86.696646 
L 138.659426 -87.757996 
L 141.22856 -88.835461 
L 143.797695 -89.929041 
L 146.366829 -91.038736 
L 148.935964 -92.164546 
L 151.505098 -93.306471 
L 154.074233 -94.46451 
L 156.643367 -95.638665 
L 159.212502 -96.828934 
L 161.781636 -98.035319 
L 164.350771 -99.257818 
L 166.919905 -100.496432 
L 169.48904 -101.751161 
L 172.058174 -103.022005 
L 174.627309 -104.308964 
L 177.196443 -105.612038 
L 179.765578 -106.931227 
L 182.334712 -108.266531 
L 184.903847 -109.61795 
L 187.472982 -110.985483 
L 190.042116 -112.369132 
L 192.611251 -113.768895 
L 195.180385 -115.184773 
L 197.74952 -116.616767 
L 200.318654 -118.064875 
L 202.887789 -119.529098 
L 205.456923 -121.009436 
L 208.026058 -122.505889 
L 210.595192 -124.018457 
L 213.164327 -125.54714 
L 215.733461 -127.091938 
L 218.302596 -128.65285 
L 220.87173 -130.229878 
L 223.440865 -131.82302 
L 226.009999 -133.432278 
L 228.579134 -135.05765 
L 231.148268 -136.531651 
L 233.717403 -137.806367 
L 236.286538 -139.092469 
L 238.855672 -140.389959 
L 241.424807 -141.698836 
L 243.993941 -143.0191 
L 246.563076 -144.35075 
L 249.13221 -145.693788 
L 251.701345 -147.048213 
L 254.270479 -148.414025 
L 256.839614 -149.791224 
L 259.408748 -151.17981 
L 261.977883 -152.579783 
L 264.547017 -153.991143 
L 267.116152 -155.41389 
L 269.685286 -156.848024 
L 272.254421 -158.293545 
L 274.823555 -159.750453 
L 277.39269 -161.218748 
L 279.961824 -162.69843 
L 282.530959 -164.189499 
L 285.100094 -165.691956 
L 287.669228 -167.205799 
L 290.238363 -168.731029 
L 292.807497 -170.267646 
L 295.376632 -171.815651 
L 297.945766 -173.375042 
L 300.514901 -174.94582 
L 303.084035 -176.527986 
L 305.65317 -178.121538 
L 308.222304 -179.726477 
L 310.791439 -181.342804 
L 313.360573 -182.970517 
L 315.929708 -184.609618 
L 318.498842 -186.260105 
L 321.067977 -187.92198 
L 323.637111 -189.595242 
L 326.206246 -191.27989 
L 328.775381 -192.975926 
L 331.344515 -194.683348 
L 333.91365 -196.402158 
L 336.482784 -198.131661 
L 336.482784 -232.536364 
L 336.482784 -232.536364 
L 333.91365 -230.074204 
L 331.344515 -227.630765 
L 328.775381 -225.206047 
L 326.206246 -222.80005 
L 323.637111 -220.412775 
L 321.067977 -218.04422 
L 318.498842 -215.694387 
L 315.929708 -213.363274 
L 313.360573 -211.050883 
L 310.791439 -208.757213 
L 308.222304 -206.482264 
L 305.65317 -204.226036 
L 303.084035 -201.988529 
L 300.514901 -199.769743 
L 297.945766 -197.569678 
L 295.376632 -195.388334 
L 292.807497 -193.225711 
L 290.238363 -191.08181 
L 287.669228 -188.956629 
L 285.100094 -186.85017 
L 282.530959 -184.762431 
L 279.961824 -182.693414 
L 277.39269 -180.643118 
L 274.823555 -178.611542 
L 272.254421 -176.598688 
L 269.685286 -174.604555 
L 267.116152 -172.629143 
L 264.547017 -170.672452 
L 261.977883 -168.734483 
L 259.408748 -166.815234 
L 256.839614 -164.914706 
L 254.270479 -163.0329 
L 251.701345 -161.169814 
L 249.13221 -159.32545 
L 246.563076 -157.499806 
L 243.993941 -155.692884 
L 241.424807 -153.904683 
L 238.855672 -152.135203 
L 236.286538 -150.384444 
L 233.717403 -148.652406 
L 231.148268 -147.351824 
L 228.579134 -146.306086 
L 226.009999 -145.269529 
L 223.440865 -143.779325 
L 220.87173 -141.792449 
L 218.302596 -139.828221 
L 215.733461 -137.886638 
L 213.164327 -135.967701 
L 210.595192 -134.071411 
L 208.026058 -132.605004 
L 205.456923 -131.559284 
L 202.887789 -130.523949 
L 200.318654 -129.499 
L 197.74952 -128.484435 
L 195.180385 -127.480257 
L 192.611251 -126.486464 
L 190.042116 -125.503056 
L 187.472982 -124.530033 
L 184.903847 -123.567396 
L 182.334712 -122.615144 
L 179.765578 -121.673278 
L 177.196443 -120.741796 
L 174.627309 -119.820701 
L 172.058174 -118.90999 
L 169.48904 -118.009665 
L 166.919905 -116.817542 
L 164.350771 -114.764864 
L 161.781636 -113.801253 
L 159.212502 -112.877304 
L 156.643367 -111.965759 
L 154.074233 -111.066618 
L 151.505098 -110.179882 
L 148.935964 -109.305551 
L 146.366829 -108.443624 
L 143.797695 -107.594101 
L 141.22856 -106.756983 
L 138.659426 -105.932269 
L 136.090291 -105.119959 
L 133.521156 -104.320054 
L 130.952022 -103.532553 
L 128.382887 -102.757457 
L 125.813753 -101.994765 
L 123.244618 -101.244477 
L 120.675484 -100.506594 
L 118.106349 -99.781116 
L 115.537215 -99.068041 
L 112.96808 -98.367372 
L 110.398946 -97.679106 
L 107.829811 -97.003245 
L 105.260677 -96.339789 
L 102.691542 -95.688736 
L 100.122408 -95.050088 
L 97.553273 -94.423845 
L 94.984139 -93.810006 
L 92.415004 -93.208572 
L 89.845869 -92.619541 
L 87.276735 -92.042916 
L 84.7076 -91.478694 
L 82.138466 -90.926877 
z
" style="stroke: #ffffff; stroke-opacity: 0.15"/>
    </defs>
    <g clip-path="url(#p16f1621852)">
     <use xlink:href="#mf49b401530" x="0" y="252" style="fill: #d9ab9a; fill-opacity: 0.15; stroke: #ffffff; stroke-opacity: 0.15"/>
    </g>
   </g>
   <g id="PathCollection_6">
    <defs>
     <path id="m8f12c4ceab" d="M 0 2.738613 
C 0.726289 2.738613 1.422928 2.450055 1.936492 1.936492 
C 2.450055 1.422928 2.738613 0.726289 2.738613 0 
C 2.738613 -0.726289 2.450055 -1.422928 1.936492 -1.936492 
C 1.422928 -2.450055 0.726289 -2.738613 0 -2.738613 
C -0.726289 -2.738613 -1.422928 -2.450055 -1.936492 -1.936492 
C -2.450055 -1.422928 -2.738613 -0.726289 -2.738613 0 
C -2.738613 0.726289 -2.450055 1.422928 -1.936492 1.936492 
C -1.422928 2.450055 -0.726289 2.738613 0 2.738613 
z
" style="stroke: #889c9b; stroke-opacity: 0.8"/>
    </defs>
    <g clip-path="url(#p16f1621852)">
     <use xlink:href="#m8f12c4ceab" x="82.138466" y="187.368703" style="fill: #889c9b; fill-opacity: 0.8; stroke: #889c9b; stroke-opacity: 0.8"/>
     <use xlink:href="#m8f12c4ceab" x="145.724545" y="164.827448" style="fill: #889c9b; fill-opacity: 0.8; stroke: #889c9b; stroke-opacity: 0.8"/>
     <use xlink:href="#m8f12c4ceab" x="209.310625" y="142.285991" style="fill: #889c9b; fill-opacity: 0.8; stroke: #889c9b; stroke-opacity: 0.8"/>
     <use xlink:href="#m8f12c4ceab" x="272.896705" y="119.744939" style="fill: #889c9b; fill-opacity: 0.8; stroke: #889c9b; stroke-opacity: 0.8"/>
     <use xlink:href="#m8f12c4ceab" x="336.482784" y="97.203791" style="fill: #889c9b; fill-opacity: 0.8; stroke: #889c9b; stroke-opacity: 0.8"/>
    </g>
   </g>
   <g id="PolyCollection_6">
    <defs>
     <path id="m5a740776d0" d="M 82.138466 -82.03667 
L 82.138466 -64.630688 
L 84.7076 -65.162468 
L 87.276735 -65.709291 
L 89.845869 -66.271768 
L 92.415004 -66.849898 
L 94.984139 -67.443682 
L 97.553273 -68.053119 
L 100.122408 -68.678209 
L 102.691542 -69.318952 
L 105.260677 -69.975348 
L 107.829811 -70.647398 
L 110.398946 -71.335101 
L 112.96808 -72.038457 
L 115.537215 -72.757467 
L 118.106349 -73.49213 
L 120.675484 -74.242446 
L 123.244618 -75.008415 
L 125.813753 -75.790038 
L 128.382887 -76.587313 
L 130.952022 -77.400242 
L 133.521156 -78.228825 
L 136.090291 -79.07306 
L 138.659426 -79.932949 
L 141.22856 -80.808491 
L 143.797695 -81.699686 
L 146.366829 -82.606535 
L 148.935964 -83.529037 
L 151.505098 -84.467192 
L 154.074233 -85.421 
L 156.643367 -86.390462 
L 159.212502 -87.375576 
L 161.781636 -88.376344 
L 164.350771 -89.392766 
L 166.919905 -90.42484 
L 169.48904 -91.472568 
L 172.058174 -92.535949 
L 174.627309 -93.614984 
L 177.196443 -94.709671 
L 179.765578 -95.820012 
L 182.334712 -96.865076 
L 184.903847 -98.002091 
L 187.472982 -99.15494 
L 190.042116 -100.066899 
L 192.611251 -100.905406 
L 195.180385 -101.753887 
L 197.74952 -102.612342 
L 200.318654 -103.480771 
L 202.887789 -104.359173 
L 205.456923 -105.247548 
L 208.026058 -106.145898 
L 210.595192 -107.05422 
L 213.164327 -107.972517 
L 215.733461 -108.900787 
L 218.302596 -109.839031 
L 220.87173 -110.787248 
L 223.440865 -111.745439 
L 226.009999 -112.713603 
L 228.579134 -113.691742 
L 231.148268 -114.683474 
L 233.717403 -115.688142 
L 236.286538 -116.702864 
L 238.855672 -117.72764 
L 241.424807 -118.76247 
L 243.993941 -119.807354 
L 246.563076 -120.862291 
L 249.13221 -121.894735 
L 251.701345 -122.751823 
L 254.270479 -123.616219 
L 256.839614 -124.487922 
L 259.408748 -125.380083 
L 261.977883 -126.256836 
L 264.547017 -127.140747 
L 267.116152 -128.031815 
L 269.685286 -128.930041 
L 272.254421 -129.835424 
L 274.823555 -130.747965 
L 277.39269 -131.667664 
L 279.961824 -132.59452 
L 282.530959 -133.528533 
L 285.100094 -134.469704 
L 287.669228 -135.418033 
L 290.238363 -136.373519 
L 292.807497 -137.336163 
L 295.376632 -138.305964 
L 297.945766 -139.282923 
L 300.514901 -140.267039 
L 303.084035 -141.258313 
L 305.65317 -142.256744 
L 308.222304 -143.262333 
L 310.791439 -144.275079 
L 313.360573 -145.294983 
L 315.929708 -146.322045 
L 318.498842 -147.356264 
L 321.067977 -148.397641 
L 323.637111 -149.446175 
L 326.206246 -150.501866 
L 328.775381 -151.564716 
L 331.344515 -152.634722 
L 333.91365 -153.711887 
L 336.482784 -154.795707 
L 336.482784 -178.844708 
L 336.482784 -178.844708 
L 333.91365 -177.130795 
L 331.344515 -175.429968 
L 328.775381 -173.742227 
L 326.206246 -172.067572 
L 323.637111 -170.406003 
L 321.067977 -168.75752 
L 318.498842 -167.122123 
L 315.929708 -165.499811 
L 313.360573 -163.890586 
L 310.791439 -162.294446 
L 308.222304 -160.711392 
L 305.65317 -159.141424 
L 303.084035 -157.584542 
L 300.514901 -156.040746 
L 297.945766 -154.510036 
L 295.376632 -152.992412 
L 292.807497 -151.487874 
L 290.238363 -149.996421 
L 287.669228 -148.518054 
L 285.100094 -147.052774 
L 282.530959 -145.600579 
L 279.961824 -144.16147 
L 277.39269 -142.735447 
L 274.823555 -141.32251 
L 272.254421 -139.922659 
L 269.685286 -138.535893 
L 267.116152 -137.162214 
L 264.547017 -135.80162 
L 261.977883 -134.454112 
L 259.408748 -133.119691 
L 256.839614 -131.798355 
L 254.270479 -130.490105 
L 251.701345 -129.194941 
L 249.13221 -127.912863 
L 246.563076 -126.64387 
L 243.993941 -125.387964 
L 241.424807 -124.145143 
L 238.855672 -122.915409 
L 236.286538 -121.69876 
L 233.717403 -120.495197 
L 231.148268 -119.581382 
L 228.579134 -118.85651 
L 226.009999 -118.138019 
L 223.440865 -117.142304 
L 220.87173 -115.755718 
L 218.302596 -114.385127 
L 215.733461 -113.030529 
L 213.164327 -111.691968 
L 210.595192 -110.36933 
L 208.026058 -109.348775 
L 205.456923 -108.623714 
L 202.887789 -107.905865 
L 200.318654 -107.195227 
L 197.74952 -106.4918 
L 195.180385 -105.795585 
L 192.611251 -105.106581 
L 190.042116 -104.424788 
L 187.472982 -103.750206 
L 184.903847 -103.082836 
L 182.334712 -102.422677 
L 179.765578 -101.76973 
L 177.196443 -101.123993 
L 174.627309 -100.485468 
L 172.058174 -99.854155 
L 169.48904 -99.230052 
L 166.919905 -98.555094 
L 164.350771 -97.940962 
L 161.781636 -97.333935 
L 159.212502 -96.734012 
L 156.643367 -96.141194 
L 154.074233 -95.55548 
L 151.505098 -94.976871 
L 148.935964 -94.405367 
L 146.366829 -93.840968 
L 143.797695 -93.283673 
L 141.22856 -92.733482 
L 138.659426 -92.190397 
L 136.090291 -91.654416 
L 133.521156 -91.12554 
L 130.952022 -90.603768 
L 128.382887 -90.089101 
L 125.813753 -89.581539 
L 123.244618 -89.081081 
L 120.675484 -88.587728 
L 118.106349 -88.10148 
L 115.537215 -87.622336 
L 112.96808 -87.150297 
L 110.398946 -86.685363 
L 107.829811 -86.227533 
L 105.260677 -85.774337 
L 102.691542 -85.330627 
L 100.122408 -84.894021 
L 97.553273 -84.464518 
L 94.984139 -84.042118 
L 92.415004 -83.626822 
L 89.845869 -83.218629 
L 87.276735 -82.817539 
L 84.7076 -82.423553 
L 82.138466 -82.03667 
z
" style="stroke: #ffffff; stroke-opacity: 0.15"/>
    </defs>
    <g clip-path="url(#p16f1621852)">
     <use xlink:href="#m5a740776d0" x="0" y="252" style="fill: #889c9b; fill-opacity: 0.15; stroke: #ffffff; stroke-opacity: 0.15"/>
    </g>
   </g>
   <g id="line2d_15">
    <path d="M 82.138466 183.330432 
L 84.7076 182.104637 
L 87.276735 180.878395 
L 89.845869 179.651705 
L 92.415004 178.424568 
L 94.984139 177.196983 
L 97.553273 175.968951 
L 100.122408 174.740472 
L 102.691542 173.511546 
L 105.260677 172.282172 
L 107.829811 171.052351 
L 110.398946 169.822082 
L 112.96808 168.591367 
L 115.537215 167.360203 
L 118.106349 166.128593 
L 120.675484 164.896535 
L 123.244618 163.66403 
L 125.813753 162.431078 
L 128.382887 161.197678 
L 130.952022 159.963831 
L 133.521156 158.729537 
L 136.090291 157.494795 
L 138.659426 156.259606 
L 141.22856 155.02397 
L 143.797695 153.787886 
L 146.366829 152.551355 
L 148.935964 151.314377 
L 151.505098 150.076951 
L 154.074233 148.839078 
L 156.643367 147.600758 
L 159.212502 146.361991 
L 161.781636 145.122776 
L 164.350771 143.883113 
L 166.919905 142.643004 
L 169.48904 141.402447 
L 172.058174 140.161443 
L 174.627309 138.919991 
L 177.196443 137.678092 
L 179.765578 136.435746 
L 182.334712 135.192953 
L 184.903847 133.949712 
L 187.472982 132.706024 
L 190.042116 131.461888 
L 192.611251 130.217305 
L 195.180385 128.972275 
L 197.74952 127.726798 
L 200.318654 126.480873 
L 202.887789 125.234501 
L 205.456923 123.987682 
L 208.026058 122.740415 
L 210.595192 121.492701 
L 213.164327 120.244539 
L 215.733461 118.995931 
L 218.302596 117.746875 
L 220.87173 116.497371 
L 223.440865 115.247421 
L 226.009999 113.997023 
L 228.579134 112.746177 
L 231.148268 111.494885 
L 233.717403 110.243145 
L 236.286538 108.990957 
L 238.855672 107.738323 
L 241.424807 106.485241 
L 243.993941 105.231711 
L 246.563076 103.977735 
L 249.13221 102.723311 
L 251.701345 101.46844 
L 254.270479 100.213121 
L 256.839614 98.957355 
L 259.408748 97.701142 
L 261.977883 96.444481 
L 264.547017 95.187374 
L 267.116152 93.929818 
L 269.685286 92.671816 
L 272.254421 91.413366 
L 274.823555 90.154469 
L 277.39269 88.895124 
L 279.961824 87.635333 
L 282.530959 86.375093 
L 285.100094 85.114407 
L 287.669228 83.853273 
L 290.238363 82.591692 
L 292.807497 81.329664 
L 295.376632 80.067188 
L 297.945766 78.804265 
L 300.514901 77.540894 
L 303.084035 76.277077 
L 305.65317 75.012812 
L 308.222304 73.748099 
L 310.791439 72.48294 
L 313.360573 71.217332 
L 315.929708 69.951278 
L 318.498842 68.684776 
L 321.067977 67.417827 
L 323.637111 66.150431 
L 326.206246 64.882587 
L 328.775381 63.614297 
L 331.344515 62.345558 
L 333.91365 61.076373 
L 336.482784 59.80674 
" clip-path="url(#p16f1621852)" style="fill: none; stroke: #731d1d; stroke-width: 2; stroke-linecap: round"/>
   </g>
   <g id="line2d_16">
    <path d="M 82.138466 183.657693 
L 84.7076 182.414665 
L 87.276735 181.171295 
L 89.845869 179.927583 
L 92.415004 178.683528 
L 94.984139 177.439132 
L 97.553273 176.194393 
L 100.122408 174.949312 
L 102.691542 173.703889 
L 105.260677 172.458123 
L 107.829811 171.212016 
L 110.398946 169.965566 
L 112.96808 168.718774 
L 115.537215 167.47164 
L 118.106349 166.224164 
L 120.675484 164.976346 
L 123.244618 163.728185 
L 125.813753 162.479682 
L 128.382887 161.230837 
L 130.952022 159.98165 
L 133.521156 158.732121 
L 136.090291 157.482249 
L 138.659426 156.232035 
L 141.22856 154.981479 
L 143.797695 153.730581 
L 146.366829 152.479341 
L 148.935964 151.227758 
L 151.505098 149.975834 
L 154.074233 148.723567 
L 156.643367 147.470958 
L 159.212502 146.218007 
L 161.781636 144.964713 
L 164.350771 143.711078 
L 166.919905 142.4571 
L 169.48904 141.20278 
L 172.058174 139.948118 
L 174.627309 138.693113 
L 177.196443 137.437767 
L 179.765578 136.182078 
L 182.334712 134.926047 
L 184.903847 133.669674 
L 187.472982 132.412959 
L 190.042116 131.155901 
L 192.611251 129.898502 
L 195.180385 128.64076 
L 197.74952 127.382676 
L 200.318654 126.12425 
L 202.887789 124.865481 
L 205.456923 123.606371 
L 208.026058 122.346918 
L 210.595192 121.087123 
L 213.164327 119.826986 
L 215.733461 118.566507 
L 218.302596 117.305685 
L 220.87173 116.044522 
L 223.440865 114.783016 
L 226.009999 113.521168 
L 228.579134 112.258977 
L 231.148268 110.996445 
L 233.717403 109.73357 
L 236.286538 108.470353 
L 238.855672 107.206794 
L 241.424807 105.942893 
L 243.993941 104.67865 
L 246.563076 103.414064 
L 249.13221 102.149137 
L 251.701345 100.883867 
L 254.270479 99.618255 
L 256.839614 98.3523 
L 259.408748 97.086004 
L 261.977883 95.819365 
L 264.547017 94.552384 
L 267.116152 93.285061 
L 269.685286 92.017396 
L 272.254421 90.749389 
L 274.823555 89.481039 
L 277.39269 88.212347 
L 279.961824 86.943313 
L 282.530959 85.673937 
L 285.100094 84.404219 
L 287.669228 83.134158 
L 290.238363 81.863756 
L 292.807497 80.593011 
L 295.376632 79.321924 
L 297.945766 78.050494 
L 300.514901 76.778723 
L 303.084035 75.506609 
L 305.65317 74.234154 
L 308.222304 72.961356 
L 310.791439 71.688215 
L 313.360573 70.414733 
L 315.929708 69.140908 
L 318.498842 67.866742 
L 321.067977 66.592233 
L 323.637111 65.317382 
L 326.206246 64.042188 
L 328.775381 62.766653 
L 331.344515 61.490775 
L 333.91365 60.214555 
L 336.482784 58.937993 
" clip-path="url(#p16f1621852)" style="fill: none; stroke: #735340; stroke-width: 2; stroke-linecap: round"/>
   </g>
   <g id="line2d_17">
    <path d="M 82.138466 184.533522 
L 84.7076 183.2705 
L 87.276735 182.007478 
L 89.845869 180.744456 
L 92.415004 179.481435 
L 94.984139 178.218413 
L 97.553273 176.955391 
L 100.122408 175.692369 
L 102.691542 174.429348 
L 105.260677 173.166326 
L 107.829811 171.903305 
L 110.398946 170.640283 
L 112.96808 169.377262 
L 115.537215 168.11424 
L 118.106349 166.851219 
L 120.675484 165.588198 
L 123.244618 164.325177 
L 125.813753 163.062155 
L 128.382887 161.799134 
L 130.952022 160.536113 
L 133.521156 159.273092 
L 136.090291 158.010071 
L 138.659426 156.747051 
L 141.22856 155.48403 
L 143.797695 154.221009 
L 146.366829 152.957988 
L 148.935964 151.694968 
L 151.505098 150.431947 
L 154.074233 149.168926 
L 156.643367 147.905906 
L 159.212502 146.642886 
L 161.781636 145.379865 
L 164.350771 144.116845 
L 166.919905 142.853825 
L 169.48904 141.590804 
L 172.058174 140.327784 
L 174.627309 139.064764 
L 177.196443 137.801744 
L 179.765578 136.538724 
L 182.334712 135.275704 
L 184.903847 134.012684 
L 187.472982 132.749664 
L 190.042116 131.486645 
L 192.611251 130.223625 
L 195.180385 128.960605 
L 197.74952 127.697586 
L 200.318654 126.434566 
L 202.887789 125.171547 
L 205.456923 123.908527 
L 208.026058 122.645508 
L 210.595192 121.382488 
L 213.164327 120.119469 
L 215.733461 118.85645 
L 218.302596 117.593431 
L 220.87173 116.330412 
L 223.440865 115.067393 
L 226.009999 113.804374 
L 228.579134 112.541355 
L 231.148268 111.278336 
L 233.717403 110.015317 
L 236.286538 108.752298 
L 238.855672 107.489279 
L 241.424807 106.226261 
L 243.993941 104.963242 
L 246.563076 103.700224 
L 249.13221 102.437205 
L 251.701345 101.174187 
L 254.270479 99.911168 
L 256.839614 98.64815 
L 259.408748 97.385132 
L 261.977883 96.122113 
L 264.547017 94.859095 
L 267.116152 93.596077 
L 269.685286 92.333059 
L 272.254421 91.070041 
L 274.823555 89.807023 
L 277.39269 88.544005 
L 279.961824 87.280987 
L 282.530959 86.017969 
L 285.100094 84.754952 
L 287.669228 83.491934 
L 290.238363 82.228916 
L 292.807497 80.965899 
L 295.376632 79.702881 
L 297.945766 78.439864 
L 300.514901 77.176846 
L 303.084035 75.913829 
L 305.65317 74.650812 
L 308.222304 73.387794 
L 310.791439 72.124777 
L 313.360573 70.86176 
L 315.929708 69.598743 
L 318.498842 68.335726 
L 321.067977 67.072709 
L 323.637111 65.809692 
L 326.206246 64.546675 
L 328.775381 63.283658 
L 331.344515 62.020642 
L 333.91365 60.757625 
L 336.482784 59.494608 
" clip-path="url(#p16f1621852)" style="fill: none; stroke: #d94436; stroke-width: 2; stroke-linecap: round"/>
   </g>
   <g id="line2d_18">
    <path d="M 82.138466 183.883155 
L 84.7076 182.619576 
L 87.276735 181.355837 
L 89.845869 180.091938 
L 92.415004 178.827879 
L 94.984139 177.563659 
L 97.553273 176.29928 
L 100.122408 175.03474 
L 102.691542 173.77004 
L 105.260677 172.505181 
L 107.829811 171.240161 
L 110.398946 169.974981 
L 112.96808 168.709641 
L 115.537215 167.44414 
L 118.106349 166.17848 
L 120.675484 164.91266 
L 123.244618 163.646679 
L 125.813753 162.380539 
L 128.382887 161.114238 
L 130.952022 159.847777 
L 133.521156 158.581156 
L 136.090291 157.314375 
L 138.659426 156.047434 
L 141.22856 154.780333 
L 143.797695 153.513071 
L 146.366829 152.24565 
L 148.935964 150.978068 
L 151.505098 149.710327 
L 154.074233 148.442425 
L 156.643367 147.174363 
L 159.212502 145.906141 
L 161.781636 144.637759 
L 164.350771 143.369217 
L 166.919905 142.100515 
L 169.48904 140.831653 
L 172.058174 139.56263 
L 174.627309 138.293448 
L 177.196443 137.024105 
L 179.765578 135.754602 
L 182.334712 134.484939 
L 184.903847 133.215116 
L 187.472982 131.945133 
L 190.042116 130.67499 
L 192.611251 129.404687 
L 195.180385 128.134224 
L 197.74952 126.8636 
L 200.318654 125.592817 
L 202.887789 124.321873 
L 205.456923 123.050769 
L 208.026058 121.779505 
L 210.595192 120.508081 
L 213.164327 119.236497 
L 215.733461 117.964753 
L 218.302596 116.692849 
L 220.87173 115.420784 
L 223.440865 114.14856 
L 226.009999 112.876175 
L 228.579134 111.603631 
L 231.148268 110.330926 
L 233.717403 109.058061 
L 236.286538 107.785036 
L 238.855672 106.511851 
L 241.424807 105.238506 
L 243.993941 103.965 
L 246.563076 102.691335 
L 249.13221 101.41751 
L 251.701345 100.143524 
L 254.270479 98.869378 
L 256.839614 97.595072 
L 259.408748 96.320607 
L 261.977883 95.045981 
L 264.547017 93.771194 
L 267.116152 92.496248 
L 269.685286 91.221142 
L 272.254421 89.945876 
L 274.823555 88.670449 
L 277.39269 87.394862 
L 279.961824 86.119116 
L 282.530959 84.843209 
L 285.100094 83.567142 
L 287.669228 82.290915 
L 290.238363 81.014528 
L 292.807497 79.737981 
L 295.376632 78.461273 
L 297.945766 77.184406 
L 300.514901 75.907378 
L 303.084035 74.630191 
L 305.65317 73.352843 
L 308.222304 72.075335 
L 310.791439 70.797667 
L 313.360573 69.519839 
L 315.929708 68.241851 
L 318.498842 66.963703 
L 321.067977 65.685394 
L 323.637111 64.406926 
L 326.206246 63.128298 
L 328.775381 61.849509 
L 331.344515 60.57056 
L 333.91365 59.291451 
L 336.482784 58.012182 
" clip-path="url(#p16f1621852)" style="fill: none; stroke: #f26444; stroke-width: 2; stroke-linecap: round"/>
   </g>
   <g id="line2d_19">
    <path d="M 82.138466 183.869168 
L 84.7076 182.556019 
L 87.276735 181.24287 
L 89.845869 179.929721 
L 92.415004 178.616572 
L 94.984139 177.303423 
L 97.553273 175.990275 
L 100.122408 174.677126 
L 102.691542 173.363977 
L 105.260677 172.050828 
L 107.829811 170.73768 
L 110.398946 169.424531 
L 112.96808 168.111383 
L 115.537215 166.798234 
L 118.106349 165.485086 
L 120.675484 164.171938 
L 123.244618 162.858789 
L 125.813753 161.545641 
L 128.382887 160.232493 
L 130.952022 158.919345 
L 133.521156 157.606197 
L 136.090291 156.293049 
L 138.659426 154.979901 
L 141.22856 153.666753 
L 143.797695 152.353605 
L 146.366829 151.040457 
L 148.935964 149.727309 
L 151.505098 148.414162 
L 154.074233 147.101014 
L 156.643367 145.787867 
L 159.212502 144.474719 
L 161.781636 143.161572 
L 164.350771 141.848424 
L 166.919905 140.535277 
L 169.48904 139.222129 
L 172.058174 137.908982 
L 174.627309 136.595835 
L 177.196443 135.282688 
L 179.765578 133.969541 
L 182.334712 132.656394 
L 184.903847 131.343247 
L 187.472982 130.0301 
L 190.042116 128.716953 
L 192.611251 127.403806 
L 195.180385 126.090659 
L 197.74952 124.777513 
L 200.318654 123.464366 
L 202.887789 122.15122 
L 205.456923 120.838073 
L 208.026058 119.524926 
L 210.595192 118.21178 
L 213.164327 116.898634 
L 215.733461 115.585487 
L 218.302596 114.272341 
L 220.87173 112.959195 
L 223.440865 111.646049 
L 226.009999 110.332903 
L 228.579134 109.019757 
L 231.148268 107.706611 
L 233.717403 106.393465 
L 236.286538 105.080319 
L 238.855672 103.767173 
L 241.424807 102.454027 
L 243.993941 101.140882 
L 246.563076 99.827736 
L 249.13221 98.51459 
L 251.701345 97.201445 
L 254.270479 95.888299 
L 256.839614 94.575154 
L 259.408748 93.262008 
L 261.977883 91.948863 
L 264.547017 90.635718 
L 267.116152 89.322573 
L 269.685286 88.009427 
L 272.254421 86.696282 
L 274.823555 85.383137 
L 277.39269 84.069992 
L 279.961824 82.756847 
L 282.530959 81.443702 
L 285.100094 80.130558 
L 287.669228 78.817413 
L 290.238363 77.504268 
L 292.807497 76.191123 
L 295.376632 74.877979 
L 297.945766 73.564834 
L 300.514901 72.25169 
L 303.084035 70.938545 
L 305.65317 69.625401 
L 308.222304 68.312257 
L 310.791439 66.999112 
L 313.360573 65.685968 
L 315.929708 64.372824 
L 318.498842 63.05968 
L 321.067977 61.746536 
L 323.637111 60.433392 
L 326.206246 59.120248 
L 328.775381 57.807104 
L 331.344515 56.49396 
L 333.91365 55.180816 
L 336.482784 53.867672 
" clip-path="url(#p16f1621852)" style="fill: none; stroke: #d9ab9a; stroke-width: 2; stroke-linecap: round"/>
   </g>
   <g id="line2d_20">
    <path d="M 82.138466 187.368729 
L 84.7076 186.457965 
L 87.276735 185.547202 
L 89.845869 184.636438 
L 92.415004 183.725674 
L 94.984139 182.814911 
L 97.553273 181.904148 
L 100.122408 180.993385 
L 102.691542 180.082622 
L 105.260677 179.171859 
L 107.829811 178.261096 
L 110.398946 177.350334 
L 112.96808 176.439571 
L 115.537215 175.528809 
L 118.106349 174.618047 
L 120.675484 173.707285 
L 123.244618 172.796523 
L 125.813753 171.885762 
L 128.382887 170.975 
L 130.952022 170.064239 
L 133.521156 169.153477 
L 136.090291 168.242716 
L 138.659426 167.331955 
L 141.22856 166.421195 
L 143.797695 165.510434 
L 146.366829 164.599673 
L 148.935964 163.688913 
L 151.505098 162.778153 
L 154.074233 161.867393 
L 156.643367 160.956633 
L 159.212502 160.045873 
L 161.781636 159.135113 
L 164.350771 158.224354 
L 166.919905 157.313595 
L 169.48904 156.402835 
L 172.058174 155.492076 
L 174.627309 154.581317 
L 177.196443 153.670559 
L 179.765578 152.7598 
L 182.334712 151.849041 
L 184.903847 150.938283 
L 187.472982 150.027525 
L 190.042116 149.116767 
L 192.611251 148.206009 
L 195.180385 147.295251 
L 197.74952 146.384494 
L 200.318654 145.473736 
L 202.887789 144.562979 
L 205.456923 143.652222 
L 208.026058 142.741465 
L 210.595192 141.830708 
L 213.164327 140.919951 
L 215.733461 140.009194 
L 218.302596 139.098438 
L 220.87173 138.187681 
L 223.440865 137.276925 
L 226.009999 136.366169 
L 228.579134 135.455413 
L 231.148268 134.544658 
L 233.717403 133.633902 
L 236.286538 132.723147 
L 238.855672 131.812391 
L 241.424807 130.901636 
L 243.993941 129.990881 
L 246.563076 129.080126 
L 249.13221 128.169372 
L 251.701345 127.258617 
L 254.270479 126.347862 
L 256.839614 125.437108 
L 259.408748 124.526354 
L 261.977883 123.6156 
L 264.547017 122.704846 
L 267.116152 121.794092 
L 269.685286 120.883339 
L 272.254421 119.972585 
L 274.823555 119.061832 
L 277.39269 118.151079 
L 279.961824 117.240326 
L 282.530959 116.329573 
L 285.100094 115.41882 
L 287.669228 114.508068 
L 290.238363 113.597315 
L 292.807497 112.686563 
L 295.376632 111.775811 
L 297.945766 110.865059 
L 300.514901 109.954307 
L 303.084035 109.043556 
L 305.65317 108.132804 
L 308.222304 107.222053 
L 310.791439 106.311301 
L 313.360573 105.40055 
L 315.929708 104.489799 
L 318.498842 103.579048 
L 321.067977 102.668298 
L 323.637111 101.757547 
L 326.206246 100.846797 
L 328.775381 99.936046 
L 331.344515 99.025296 
L 333.91365 98.114546 
L 336.482784 97.203797 
" clip-path="url(#p16f1621852)" style="fill: none; stroke: #889c9b; stroke-width: 2; stroke-linecap: round"/>
   </g>
   <g id="patch_3">
    <path d="M 69.42125 201.4 
L 69.42125 10.8 
" style="fill: none; stroke: #cccccc; stroke-width: 0.8; stroke-linejoin: miter; stroke-linecap: square"/>
   </g>
   <g id="patch_4">
    <path d="M 349.2 201.4 
L 349.2 10.8 
" style="fill: none; stroke: #cccccc; stroke-width: 0.8; stroke-linejoin: miter; stroke-linecap: square"/>
   </g>
   <g id="patch_5">
    <path d="M 69.42125 201.4 
L 349.2 201.4 
" style="fill: none; stroke: #cccccc; stroke-width: 0.8; stroke-linejoin: miter; stroke-linecap: square"/>
   </g>
   <g id="patch_6">
    <path d="M 69.42125 10.8 
L 349.2 10.8 
" style="fill: none; stroke: #cccccc; stroke-width: 0.8; stroke-linejoin: miter; stroke-linecap: square"/>
   </g>
   <g id="legend_1">
    <g id="patch_7">
     <path d="M 77.82125 122.20125 
L 150.89 122.20125 
Q 153.29 122.20125 153.29 119.80125 
L 153.29 19.2 
Q 153.29 16.8 150.89 16.8 
L 77.82125 16.8 
Q 75.42125 16.8 75.42125 19.2 
L 75.42125 119.80125 
Q 75.42125 122.20125 77.82125 122.20125 
z
" style="fill: #ffffff; opacity: 0.8; stroke: #cccccc; stroke-linejoin: miter"/>
    </g>
    <g id="PathCollection_7">
     <g>
      <use xlink:href="#m3da08c9395" x="92.22125" y="26.85" style="fill: #731d1d; fill-opacity: 0.8; stroke: #731d1d; stroke-opacity: 0.8"/>
     </g>
    </g>
    <g id="text_17">
     <!-- PDE45 -->
     <g style="fill: #262626" transform="translate(113.82125 30) scale(0.12 -0.12)">
      <defs>
       <path id="TimesNewRomanPSMT-50" d="M 1313 1984 
L 1313 750 
Q 1313 350 1400 253 
Q 1519 116 1759 116 
L 1922 116 
L 1922 0 
L 106 0 
L 106 116 
L 266 116 
Q 534 116 650 291 
Q 713 388 713 750 
L 713 3488 
Q 713 3888 628 3984 
Q 506 4122 266 4122 
L 106 4122 
L 106 4238 
L 1659 4238 
Q 2228 4238 2556 4120 
Q 2884 4003 3109 3725 
Q 3334 3447 3334 3066 
Q 3334 2547 2992 2222 
Q 2650 1897 2025 1897 
Q 1872 1897 1694 1919 
Q 1516 1941 1313 1984 
z
M 1313 2163 
Q 1478 2131 1606 2115 
Q 1734 2100 1825 2100 
Q 2150 2100 2386 2351 
Q 2622 2603 2622 3003 
Q 2622 3278 2509 3514 
Q 2397 3750 2190 3867 
Q 1984 3984 1722 3984 
Q 1563 3984 1313 3925 
L 1313 2163 
z
" transform="scale(0.015625)"/>
       <path id="TimesNewRomanPSMT-44" d="M 109 0 
L 109 116 
L 269 116 
Q 538 116 650 288 
Q 719 391 719 750 
L 719 3488 
Q 719 3884 631 3984 
Q 509 4122 269 4122 
L 109 4122 
L 109 4238 
L 1834 4238 
Q 2784 4238 3279 4022 
Q 3775 3806 4076 3303 
Q 4378 2800 4378 2141 
Q 4378 1256 3841 663 
Q 3238 0 2003 0 
L 109 0 
z
M 1319 306 
Q 1716 219 1984 219 
Q 2709 219 3187 728 
Q 3666 1238 3666 2109 
Q 3666 2988 3187 3494 
Q 2709 4000 1959 4000 
Q 1678 4000 1319 3909 
L 1319 306 
z
" transform="scale(0.015625)"/>
       <path id="TimesNewRomanPSMT-45" d="M 1338 4006 
L 1338 2331 
L 2269 2331 
Q 2631 2331 2753 2441 
Q 2916 2584 2934 2947 
L 3050 2947 
L 3050 1472 
L 2934 1472 
Q 2891 1781 2847 1869 
Q 2791 1978 2662 2040 
Q 2534 2103 2269 2103 
L 1338 2103 
L 1338 706 
Q 1338 425 1363 364 
Q 1388 303 1450 267 
Q 1513 231 1688 231 
L 2406 231 
Q 2766 231 2928 281 
Q 3091 331 3241 478 
Q 3434 672 3638 1063 
L 3763 1063 
L 3397 0 
L 131 0 
L 131 116 
L 281 116 
Q 431 116 566 188 
Q 666 238 702 338 
Q 738 438 738 747 
L 738 3500 
Q 738 3903 656 3997 
Q 544 4122 281 4122 
L 131 4122 
L 131 4238 
L 3397 4238 
L 3444 3309 
L 3322 3309 
Q 3256 3644 3176 3769 
Q 3097 3894 2941 3959 
Q 2816 4006 2500 4006 
L 1338 4006 
z
" transform="scale(0.015625)"/>
      </defs>
      <use xlink:href="#TimesNewRomanPSMT-50"/>
      <use xlink:href="#TimesNewRomanPSMT-44" x="55.615234"/>
      <use xlink:href="#TimesNewRomanPSMT-45" x="127.832031"/>
      <use xlink:href="#TimesNewRomanPSMT-34" x="188.916016"/>
      <use xlink:href="#TimesNewRomanPSMT-35" x="238.916016"/>
     </g>
    </g>
    <g id="PathCollection_8">
     <g>
      <use xlink:href="#mbe55e1d5ba" x="92.22125" y="43.816875" style="fill: #735340; fill-opacity: 0.8; stroke: #735340; stroke-opacity: 0.8"/>
     </g>
    </g>
    <g id="text_18">
     <!-- PDE35 -->
     <g style="fill: #262626" transform="translate(113.82125 46.966875) scale(0.12 -0.12)">
      <defs>
       <path id="TimesNewRomanPSMT-33" d="M 325 3431 
Q 506 3859 782 4092 
Q 1059 4325 1472 4325 
Q 1981 4325 2253 3994 
Q 2459 3747 2459 3466 
Q 2459 3003 1878 2509 
Q 2269 2356 2469 2072 
Q 2669 1788 2669 1403 
Q 2669 853 2319 450 
Q 1863 -75 997 -75 
Q 569 -75 414 31 
Q 259 138 259 259 
Q 259 350 332 419 
Q 406 488 509 488 
Q 588 488 669 463 
Q 722 447 909 348 
Q 1097 250 1169 231 
Q 1284 197 1416 197 
Q 1734 197 1970 444 
Q 2206 691 2206 1028 
Q 2206 1275 2097 1509 
Q 2016 1684 1919 1775 
Q 1784 1900 1550 2001 
Q 1316 2103 1072 2103 
L 972 2103 
L 972 2197 
Q 1219 2228 1467 2375 
Q 1716 2522 1828 2728 
Q 1941 2934 1941 3181 
Q 1941 3503 1739 3701 
Q 1538 3900 1238 3900 
Q 753 3900 428 3381 
L 325 3431 
z
" transform="scale(0.015625)"/>
      </defs>
      <use xlink:href="#TimesNewRomanPSMT-50"/>
      <use xlink:href="#TimesNewRomanPSMT-44" x="55.615234"/>
      <use xlink:href="#TimesNewRomanPSMT-45" x="127.832031"/>
      <use xlink:href="#TimesNewRomanPSMT-33" x="188.916016"/>
      <use xlink:href="#TimesNewRomanPSMT-35" x="238.916016"/>
     </g>
    </g>
    <g id="PathCollection_9">
     <g>
      <use xlink:href="#m6c00aee771" x="92.22125" y="60.78375" style="fill: #d94436; fill-opacity: 0.8; stroke: #d94436; stroke-opacity: 0.8"/>
     </g>
    </g>
    <g id="text_19">
     <!-- PDE25 -->
     <g style="fill: #262626" transform="translate(113.82125 63.93375) scale(0.12 -0.12)">
      <use xlink:href="#TimesNewRomanPSMT-50"/>
      <use xlink:href="#TimesNewRomanPSMT-44" x="55.615234"/>
      <use xlink:href="#TimesNewRomanPSMT-45" x="127.832031"/>
      <use xlink:href="#TimesNewRomanPSMT-32" x="188.916016"/>
      <use xlink:href="#TimesNewRomanPSMT-35" x="238.916016"/>
     </g>
    </g>
    <g id="PathCollection_10">
     <g>
      <use xlink:href="#me9df95b523" x="92.22125" y="77.750625" style="fill: #f26444; fill-opacity: 0.8; stroke: #f26444; stroke-opacity: 0.8"/>
     </g>
    </g>
    <g id="text_20">
     <!-- PDE15 -->
     <g style="fill: #262626" transform="translate(113.82125 80.900625) scale(0.12 -0.12)">
      <use xlink:href="#TimesNewRomanPSMT-50"/>
      <use xlink:href="#TimesNewRomanPSMT-44" x="55.615234"/>
      <use xlink:href="#TimesNewRomanPSMT-45" x="127.832031"/>
      <use xlink:href="#TimesNewRomanPSMT-31" x="188.916016"/>
      <use xlink:href="#TimesNewRomanPSMT-35" x="238.916016"/>
     </g>
    </g>
    <g id="PathCollection_11">
     <g>
      <use xlink:href="#m1f6dcada3e" x="92.22125" y="94.7175" style="fill: #d9ab9a; fill-opacity: 0.8; stroke: #d9ab9a; stroke-opacity: 0.8"/>
     </g>
    </g>
    <g id="text_21">
     <!-- PDE5 -->
     <g style="fill: #262626" transform="translate(113.82125 97.8675) scale(0.12 -0.12)">
      <use xlink:href="#TimesNewRomanPSMT-50"/>
      <use xlink:href="#TimesNewRomanPSMT-44" x="55.615234"/>
      <use xlink:href="#TimesNewRomanPSMT-45" x="127.832031"/>
      <use xlink:href="#TimesNewRomanPSMT-35" x="188.916016"/>
     </g>
    </g>
    <g id="PathCollection_12">
     <g>
      <use xlink:href="#m8f12c4ceab" x="92.22125" y="111.684375" style="fill: #889c9b; fill-opacity: 0.8; stroke: #889c9b; stroke-opacity: 0.8"/>
     </g>
    </g>
    <g id="text_22">
     <!-- NE -->
     <g style="fill: #262626" transform="translate(113.82125 114.834375) scale(0.12 -0.12)">
      <defs>
       <path id="TimesNewRomanPSMT-4e" d="M -84 4238 
L 1066 4238 
L 3656 1059 
L 3656 3503 
Q 3656 3894 3569 3991 
Q 3453 4122 3203 4122 
L 3056 4122 
L 3056 4238 
L 4531 4238 
L 4531 4122 
L 4381 4122 
Q 4113 4122 4000 3959 
Q 3931 3859 3931 3503 
L 3931 -69 
L 3819 -69 
L 1025 3344 
L 1025 734 
Q 1025 344 1109 247 
Q 1228 116 1475 116 
L 1625 116 
L 1625 0 
L 150 0 
L 150 116 
L 297 116 
Q 569 116 681 278 
Q 750 378 750 734 
L 750 3681 
Q 566 3897 470 3965 
Q 375 4034 191 4094 
Q 100 4122 -84 4122 
L -84 4238 
z
" transform="scale(0.015625)"/>
      </defs>
      <use xlink:href="#TimesNewRomanPSMT-4e"/>
      <use xlink:href="#TimesNewRomanPSMT-45" x="72.216797"/>
     </g>
    </g>
   </g>
  </g>
 </g>
 <defs>
  <clipPath id="p16f1621852">
   <rect x="69.42125" y="10.8" width="279.77875" height="190.6"/>
  </clipPath>
 </defs>
</svg>
