<?xml version="1.0" encoding="utf-8" standalone="no"?>
<!DOCTYPE svg PUBLIC "-//W3C//DTD SVG 1.1//EN"
  "http://www.w3.org/Graphics/SVG/1.1/DTD/svg11.dtd">
<svg xmlns:xlink="http://www.w3.org/1999/xlink" width="360pt" height="252pt" viewBox="0 0 360 252" xmlns="http://www.w3.org/2000/svg" version="1.1">
 <metadata>
  <rdf:RDF xmlns:dc="http://purl.org/dc/elements/1.1/" xmlns:cc="http://creativecommons.org/ns#" xmlns:rdf="http://www.w3.org/1999/02/22-rdf-syntax-ns#">
   <cc:Work>
    <dc:type rdf:resource="http://purl.org/dc/dcmitype/StillImage"/>
    <dc:date>2024-06-11T19:46:16.743592</dc:date>
    <dc:format>image/svg+xml</dc:format>
    <dc:creator>
     <cc:Agent>
      <dc:title>Matplotlib v3.8.4, https://matplotlib.org/</dc:title>
     </cc:Agent>
    </dc:creator>
   </cc:Work>
  </rdf:RDF>
 </metadata>
 <defs>
  <style type="text/css">*{stroke-linejoin: round; stroke-linecap: butt}</style>
 </defs>
 <g id="figure_1">
  <g id="patch_1">
   <path d="M 0 252 
L 360 252 
L 360 0 
L 0 0 
z
" style="fill: #ffffff"/>
  </g>
  <g id="axes_1">
   <g id="patch_2">
    <path d="M 61.95125 201.4 
L 349.2 201.4 
L 349.2 11.912156 
L 61.95125 11.912156 
z
" style="fill: #ffffff"/>
   </g>
   <g id="matplotlib.axis_1">
    <g id="xtick_1">
     <g id="line2d_1">
      <path d="M 75.008011 201.4 
L 75.008011 11.912156 
" clip-path="url(#p100bf13c30)" style="fill: none; stroke: #cccccc; stroke-width: 0.8; stroke-linecap: round"/>
     </g>
     <g id="text_1">
      <!-- 50 -->
      <g style="fill: #262626" transform="translate(67.508011 218.815625) scale(0.15 -0.15)">
       <defs>
        <path id="TimesNewRomanPSMT-35" d="M 2778 4238 
L 2534 3706 
L 1259 3706 
L 981 3138 
Q 1809 3016 2294 2522 
Q 2709 2097 2709 1522 
Q 2709 1188 2573 903 
Q 2438 619 2231 419 
Q 2025 219 1772 97 
Q 1413 -75 1034 -75 
Q 653 -75 479 54 
Q 306 184 306 341 
Q 306 428 378 495 
Q 450 563 559 563 
Q 641 563 702 538 
Q 763 513 909 409 
Q 1144 247 1384 247 
Q 1750 247 2026 523 
Q 2303 800 2303 1197 
Q 2303 1581 2056 1914 
Q 1809 2247 1375 2428 
Q 1034 2569 447 2591 
L 1259 4238 
L 2778 4238 
z
" transform="scale(0.015625)"/>
        <path id="TimesNewRomanPSMT-30" d="M 231 2094 
Q 231 2819 450 3342 
Q 669 3866 1031 4122 
Q 1313 4325 1613 4325 
Q 2100 4325 2488 3828 
Q 2972 3213 2972 2159 
Q 2972 1422 2759 906 
Q 2547 391 2217 158 
Q 1888 -75 1581 -75 
Q 975 -75 572 641 
Q 231 1244 231 2094 
z
M 844 2016 
Q 844 1141 1059 588 
Q 1238 122 1591 122 
Q 1759 122 1940 273 
Q 2122 425 2216 781 
Q 2359 1319 2359 2297 
Q 2359 3022 2209 3506 
Q 2097 3866 1919 4016 
Q 1791 4119 1609 4119 
Q 1397 4119 1231 3928 
Q 1006 3669 925 3112 
Q 844 2556 844 2016 
z
" transform="scale(0.015625)"/>
       </defs>
       <use xlink:href="#TimesNewRomanPSMT-35"/>
       <use xlink:href="#TimesNewRomanPSMT-30" x="50"/>
      </g>
     </g>
    </g>
    <g id="xtick_2">
     <g id="line2d_2">
      <path d="M 140.291818 201.4 
L 140.291818 11.912156 
" clip-path="url(#p100bf13c30)" style="fill: none; stroke: #cccccc; stroke-width: 0.8; stroke-linecap: round"/>
     </g>
     <g id="text_2">
      <!-- 250 -->
      <g style="fill: #262626" transform="translate(129.041818 218.815625) scale(0.15 -0.15)">
       <defs>
        <path id="TimesNewRomanPSMT-32" d="M 2934 816 
L 2638 0 
L 138 0 
L 138 116 
Q 1241 1122 1691 1759 
Q 2141 2397 2141 2925 
Q 2141 3328 1894 3587 
Q 1647 3847 1303 3847 
Q 991 3847 742 3664 
Q 494 3481 375 3128 
L 259 3128 
Q 338 3706 661 4015 
Q 984 4325 1469 4325 
Q 1984 4325 2329 3994 
Q 2675 3663 2675 3213 
Q 2675 2891 2525 2569 
Q 2294 2063 1775 1497 
Q 997 647 803 472 
L 1909 472 
Q 2247 472 2383 497 
Q 2519 522 2628 598 
Q 2738 675 2819 816 
L 2934 816 
z
" transform="scale(0.015625)"/>
       </defs>
       <use xlink:href="#TimesNewRomanPSMT-32"/>
       <use xlink:href="#TimesNewRomanPSMT-35" x="50"/>
       <use xlink:href="#TimesNewRomanPSMT-30" x="100"/>
      </g>
     </g>
    </g>
    <g id="xtick_3">
     <g id="line2d_3">
      <path d="M 205.575625 201.4 
L 205.575625 11.912156 
" clip-path="url(#p100bf13c30)" style="fill: none; stroke: #cccccc; stroke-width: 0.8; stroke-linecap: round"/>
     </g>
     <g id="text_3">
      <!-- 450 -->
      <g style="fill: #262626" transform="translate(194.325625 218.815625) scale(0.15 -0.15)">
       <defs>
        <path id="TimesNewRomanPSMT-34" d="M 2978 1563 
L 2978 1119 
L 2409 1119 
L 2409 0 
L 1894 0 
L 1894 1119 
L 100 1119 
L 100 1519 
L 2066 4325 
L 2409 4325 
L 2409 1563 
L 2978 1563 
z
M 1894 1563 
L 1894 3666 
L 406 1563 
L 1894 1563 
z
" transform="scale(0.015625)"/>
       </defs>
       <use xlink:href="#TimesNewRomanPSMT-34"/>
       <use xlink:href="#TimesNewRomanPSMT-35" x="50"/>
       <use xlink:href="#TimesNewRomanPSMT-30" x="100"/>
      </g>
     </g>
    </g>
    <g id="xtick_4">
     <g id="line2d_4">
      <path d="M 270.859432 201.4 
L 270.859432 11.912156 
" clip-path="url(#p100bf13c30)" style="fill: none; stroke: #cccccc; stroke-width: 0.8; stroke-linecap: round"/>
     </g>
     <g id="text_4">
      <!-- 650 -->
      <g style="fill: #262626" transform="translate(259.609432 218.815625) scale(0.15 -0.15)">
       <defs>
        <path id="TimesNewRomanPSMT-36" d="M 2869 4325 
L 2869 4209 
Q 2456 4169 2195 4045 
Q 1934 3922 1679 3669 
Q 1425 3416 1258 3105 
Q 1091 2794 978 2366 
Q 1428 2675 1881 2675 
Q 2316 2675 2634 2325 
Q 2953 1975 2953 1425 
Q 2953 894 2631 456 
Q 2244 -75 1606 -75 
Q 1172 -75 869 213 
Q 275 772 275 1663 
Q 275 2231 503 2743 
Q 731 3256 1154 3653 
Q 1578 4050 1965 4187 
Q 2353 4325 2688 4325 
L 2869 4325 
z
M 925 2138 
Q 869 1716 869 1456 
Q 869 1156 980 804 
Q 1091 453 1309 247 
Q 1469 100 1697 100 
Q 1969 100 2183 356 
Q 2397 613 2397 1088 
Q 2397 1622 2184 2012 
Q 1972 2403 1581 2403 
Q 1463 2403 1327 2353 
Q 1191 2303 925 2138 
z
" transform="scale(0.015625)"/>
       </defs>
       <use xlink:href="#TimesNewRomanPSMT-36"/>
       <use xlink:href="#TimesNewRomanPSMT-35" x="50"/>
       <use xlink:href="#TimesNewRomanPSMT-30" x="100"/>
      </g>
     </g>
    </g>
    <g id="xtick_5">
     <g id="line2d_5">
      <path d="M 336.143239 201.4 
L 336.143239 11.912156 
" clip-path="url(#p100bf13c30)" style="fill: none; stroke: #cccccc; stroke-width: 0.8; stroke-linecap: round"/>
     </g>
     <g id="text_5">
      <!-- 850 -->
      <g style="fill: #262626" transform="translate(324.893239 218.815625) scale(0.15 -0.15)">
       <defs>
        <path id="TimesNewRomanPSMT-38" d="M 1228 2134 
Q 725 2547 579 2797 
Q 434 3047 434 3316 
Q 434 3728 753 4026 
Q 1072 4325 1600 4325 
Q 2113 4325 2425 4047 
Q 2738 3769 2738 3413 
Q 2738 3175 2569 2928 
Q 2400 2681 1866 2347 
Q 2416 1922 2594 1678 
Q 2831 1359 2831 1006 
Q 2831 559 2490 242 
Q 2150 -75 1597 -75 
Q 994 -75 656 303 
Q 388 606 388 966 
Q 388 1247 577 1523 
Q 766 1800 1228 2134 
z
M 1719 2469 
Q 2094 2806 2194 3001 
Q 2294 3197 2294 3444 
Q 2294 3772 2109 3958 
Q 1925 4144 1606 4144 
Q 1288 4144 1088 3959 
Q 888 3775 888 3528 
Q 888 3366 970 3203 
Q 1053 3041 1206 2894 
L 1719 2469 
z
M 1375 2016 
Q 1116 1797 991 1539 
Q 866 1281 866 981 
Q 866 578 1086 336 
Q 1306 94 1647 94 
Q 1984 94 2187 284 
Q 2391 475 2391 747 
Q 2391 972 2272 1150 
Q 2050 1481 1375 2016 
z
" transform="scale(0.015625)"/>
       </defs>
       <use xlink:href="#TimesNewRomanPSMT-38"/>
       <use xlink:href="#TimesNewRomanPSMT-35" x="50"/>
       <use xlink:href="#TimesNewRomanPSMT-30" x="100"/>
      </g>
     </g>
    </g>
    <g id="text_6">
     <!-- Number of voters -->
     <g style="fill: #262626" transform="translate(145.730625 236.619219) scale(0.16 -0.16)">
      <defs>
       <path id="TimesNewRomanPS-BoldMT-4e" d="M 1594 4238 
L 3684 1609 
L 3684 3431 
Q 3684 3813 3575 3947 
Q 3425 4128 3072 4122 
L 3072 4238 
L 4472 4238 
L 4472 4122 
Q 4203 4088 4111 4033 
Q 4019 3978 3967 3854 
Q 3916 3731 3916 3431 
L 3916 -97 
L 3809 -97 
L 944 3431 
L 944 738 
Q 944 372 1111 244 
Q 1278 116 1494 116 
L 1594 116 
L 1594 0 
L 91 0 
L 91 116 
Q 441 119 578 259 
Q 716 400 716 738 
L 716 3728 
L 625 3841 
Q 491 4009 387 4062 
Q 284 4116 91 4122 
L 91 4238 
L 1594 4238 
z
" transform="scale(0.015625)"/>
       <path id="TimesNewRomanPS-BoldMT-75" d="M 3038 2922 
L 3038 634 
Q 3038 300 3100 217 
Q 3163 134 3353 113 
L 3353 0 
L 2163 0 
L 2163 391 
Q 1953 141 1743 26 
Q 1534 -88 1275 -88 
Q 1028 -88 836 64 
Q 644 216 578 419 
Q 513 622 513 1128 
L 513 2288 
Q 513 2619 452 2700 
Q 391 2781 197 2806 
L 197 2922 
L 1388 2922 
L 1388 925 
Q 1388 613 1417 522 
Q 1447 431 1511 384 
Q 1575 338 1659 338 
Q 1772 338 1863 397 
Q 1988 478 2163 725 
L 2163 2288 
Q 2163 2619 2102 2700 
Q 2041 2781 1847 2806 
L 1847 2922 
L 3038 2922 
z
" transform="scale(0.015625)"/>
       <path id="TimesNewRomanPS-BoldMT-6d" d="M 1428 2922 
L 1428 2538 
Q 1669 2800 1873 2904 
Q 2078 3009 2322 3009 
Q 2603 3009 2793 2878 
Q 2984 2747 3088 2478 
Q 3338 2759 3567 2884 
Q 3797 3009 4047 3009 
Q 4350 3009 4529 2870 
Q 4709 2731 4779 2517 
Q 4850 2303 4850 1834 
L 4850 638 
Q 4850 300 4911 219 
Q 4972 138 5166 113 
L 5166 0 
L 3656 0 
L 3656 113 
Q 3834 128 3919 250 
Q 3975 334 3975 638 
L 3975 1894 
Q 3975 2284 3944 2390 
Q 3913 2497 3845 2548 
Q 3778 2600 3688 2600 
Q 3553 2600 3415 2501 
Q 3278 2403 3138 2206 
L 3138 638 
Q 3138 322 3191 241 
Q 3263 125 3466 113 
L 3466 0 
L 1953 0 
L 1953 113 
Q 2075 119 2145 173 
Q 2216 228 2239 304 
Q 2263 381 2263 638 
L 2263 1894 
Q 2263 2291 2231 2391 
Q 2200 2491 2126 2547 
Q 2053 2603 1969 2603 
Q 1844 2603 1741 2538 
Q 1594 2441 1428 2206 
L 1428 638 
Q 1428 328 1489 229 
Q 1550 131 1744 113 
L 1744 0 
L 238 0 
L 238 113 
Q 422 131 500 231 
Q 553 300 553 638 
L 553 2288 
Q 553 2619 492 2700 
Q 431 2781 238 2806 
L 238 2922 
L 1428 2922 
z
" transform="scale(0.015625)"/>
       <path id="TimesNewRomanPS-BoldMT-62" d="M 1347 4238 
L 1347 2628 
Q 1716 3009 2153 3009 
Q 2453 3009 2718 2832 
Q 2984 2656 3134 2331 
Q 3284 2006 3284 1581 
Q 3284 1103 3093 712 
Q 2903 322 2584 117 
Q 2266 -88 1856 -88 
Q 1619 -88 1434 -12 
Q 1250 63 1072 231 
L 588 -84 
L 481 -84 
L 481 3631 
Q 481 3884 459 3944 
Q 428 4031 361 4073 
Q 294 4116 134 4122 
L 134 4238 
L 1347 4238 
z
M 1347 2350 
L 1347 1050 
Q 1347 653 1366 544 
Q 1397 359 1515 245 
Q 1634 131 1819 131 
Q 1978 131 2092 222 
Q 2206 313 2282 581 
Q 2359 850 2359 1550 
Q 2359 2222 2191 2472 
Q 2069 2653 1863 2653 
Q 1594 2653 1347 2350 
z
" transform="scale(0.015625)"/>
       <path id="TimesNewRomanPS-BoldMT-65" d="M 2691 1566 
L 1088 1566 
Q 1116 984 1397 647 
Q 1613 388 1916 388 
Q 2103 388 2256 492 
Q 2409 597 2584 869 
L 2691 800 
Q 2453 316 2165 114 
Q 1878 -88 1500 -88 
Q 850 -88 516 413 
Q 247 816 247 1413 
Q 247 2144 642 2576 
Q 1038 3009 1569 3009 
Q 2013 3009 2339 2645 
Q 2666 2281 2691 1566 
z
M 1922 1775 
Q 1922 2278 1867 2465 
Q 1813 2653 1697 2750 
Q 1631 2806 1522 2806 
Q 1359 2806 1256 2647 
Q 1072 2369 1072 1884 
L 1072 1775 
L 1922 1775 
z
" transform="scale(0.015625)"/>
       <path id="TimesNewRomanPS-BoldMT-72" d="M 1428 2922 
L 1428 2259 
Q 1719 2713 1937 2861 
Q 2156 3009 2359 3009 
Q 2534 3009 2639 2901 
Q 2744 2794 2744 2597 
Q 2744 2388 2642 2272 
Q 2541 2156 2397 2156 
Q 2231 2156 2109 2262 
Q 1988 2369 1966 2381 
Q 1934 2400 1894 2400 
Q 1803 2400 1722 2331 
Q 1594 2225 1528 2028 
Q 1428 1725 1428 1359 
L 1428 688 
L 1431 513 
Q 1431 334 1453 284 
Q 1491 200 1564 161 
Q 1638 122 1813 113 
L 1813 0 
L 234 0 
L 234 113 
Q 425 128 492 217 
Q 559 306 559 688 
L 559 2303 
Q 559 2553 534 2622 
Q 503 2709 443 2750 
Q 384 2791 234 2806 
L 234 2922 
L 1428 2922 
z
" transform="scale(0.015625)"/>
       <path id="TimesNewRomanPS-BoldMT-20" transform="scale(0.015625)"/>
       <path id="TimesNewRomanPS-BoldMT-6f" d="M 1594 3009 
Q 1975 3009 2303 2812 
Q 2631 2616 2801 2253 
Q 2972 1891 2972 1459 
Q 2972 838 2656 419 
Q 2275 -88 1603 -88 
Q 944 -88 587 375 
Q 231 838 231 1447 
Q 231 2075 595 2542 
Q 959 3009 1594 3009 
z
M 1606 2788 
Q 1447 2788 1333 2667 
Q 1219 2547 1183 2192 
Q 1147 1838 1147 1206 
Q 1147 872 1191 581 
Q 1225 359 1337 243 
Q 1450 128 1594 128 
Q 1734 128 1828 206 
Q 1950 313 1991 503 
Q 2053 800 2053 1703 
Q 2053 2234 1993 2432 
Q 1934 2631 1819 2722 
Q 1738 2788 1606 2788 
z
" transform="scale(0.015625)"/>
       <path id="TimesNewRomanPS-BoldMT-66" d="M 1497 2616 
L 1497 588 
Q 1497 294 1559 219 
Q 1659 103 1928 113 
L 1928 0 
L 206 0 
L 206 113 
Q 403 116 486 158 
Q 569 200 600 275 
Q 631 350 631 588 
L 631 2616 
L 206 2616 
L 206 2922 
L 631 2922 
L 631 3138 
L 628 3284 
Q 628 3734 958 4034 
Q 1288 4334 1850 4334 
Q 2234 4334 2420 4190 
Q 2606 4047 2606 3872 
Q 2606 3731 2490 3628 
Q 2375 3525 2184 3525 
Q 2022 3525 1926 3609 
Q 1831 3694 1831 3797 
Q 1831 3825 1850 3913 
Q 1863 3966 1863 4013 
Q 1863 4078 1825 4109 
Q 1775 4156 1703 4156 
Q 1613 4156 1552 4081 
Q 1491 4006 1491 3841 
L 1497 3294 
L 1497 2922 
L 1928 2922 
L 1928 2616 
L 1497 2616 
z
" transform="scale(0.015625)"/>
       <path id="TimesNewRomanPS-BoldMT-76" d="M 1534 -88 
L 550 2178 
Q 372 2588 272 2697 
Q 200 2778 59 2806 
L 59 2922 
L 1613 2922 
L 1613 2806 
Q 1466 2806 1413 2753 
Q 1338 2684 1338 2591 
Q 1338 2475 1475 2156 
L 1956 1059 
L 2341 2006 
Q 2506 2413 2506 2581 
Q 2506 2678 2436 2739 
Q 2366 2800 2188 2806 
L 2188 2922 
L 3144 2922 
L 3144 2806 
Q 3006 2788 2918 2703 
Q 2831 2619 2656 2206 
L 1681 -88 
L 1534 -88 
z
" transform="scale(0.015625)"/>
       <path id="TimesNewRomanPS-BoldMT-74" d="M 1375 3991 
L 1375 2922 
L 2069 2922 
L 2069 2613 
L 1375 2613 
L 1375 809 
Q 1375 556 1398 482 
Q 1422 409 1481 364 
Q 1541 319 1591 319 
Q 1794 319 1975 628 
L 2069 559 
Q 1816 -41 1247 -41 
Q 969 -41 776 114 
Q 584 269 531 459 
Q 500 566 500 1034 
L 500 2613 
L 119 2613 
L 119 2722 
Q 513 3000 789 3306 
Q 1066 3613 1272 3991 
L 1375 3991 
z
" transform="scale(0.015625)"/>
       <path id="TimesNewRomanPS-BoldMT-73" d="M 2063 3003 
L 2109 2006 
L 2003 2006 
Q 1813 2450 1608 2612 
Q 1403 2775 1200 2775 
Q 1072 2775 981 2689 
Q 891 2603 891 2491 
Q 891 2406 953 2328 
Q 1053 2200 1512 1889 
Q 1972 1578 2117 1361 
Q 2263 1144 2263 875 
Q 2263 631 2141 397 
Q 2019 163 1797 37 
Q 1575 -88 1306 -88 
Q 1097 -88 747 44 
Q 653 78 619 78 
Q 516 78 447 -78 
L 344 -78 
L 294 972 
L 400 972 
Q 541 559 786 353 
Q 1031 147 1250 147 
Q 1400 147 1495 239 
Q 1591 331 1591 463 
Q 1591 613 1497 722 
Q 1403 831 1078 1053 
Q 600 1384 459 1559 
Q 253 1816 253 2125 
Q 253 2463 486 2736 
Q 719 3009 1159 3009 
Q 1397 3009 1619 2894 
Q 1703 2847 1756 2847 
Q 1813 2847 1847 2870 
Q 1881 2894 1956 3003 
L 2063 3003 
z
" transform="scale(0.015625)"/>
      </defs>
      <use xlink:href="#TimesNewRomanPS-BoldMT-4e"/>
      <use xlink:href="#TimesNewRomanPS-BoldMT-75" x="72.216797"/>
      <use xlink:href="#TimesNewRomanPS-BoldMT-6d" x="127.832031"/>
      <use xlink:href="#TimesNewRomanPS-BoldMT-62" x="211.132812"/>
      <use xlink:href="#TimesNewRomanPS-BoldMT-65" x="266.748047"/>
      <use xlink:href="#TimesNewRomanPS-BoldMT-72" x="311.132812"/>
      <use xlink:href="#TimesNewRomanPS-BoldMT-20" x="353.767578"/>
      <use xlink:href="#TimesNewRomanPS-BoldMT-6f" x="378.767578"/>
      <use xlink:href="#TimesNewRomanPS-BoldMT-66" x="428.767578"/>
      <use xlink:href="#TimesNewRomanPS-BoldMT-20" x="462.068359"/>
      <use xlink:href="#TimesNewRomanPS-BoldMT-76" x="487.068359"/>
      <use xlink:href="#TimesNewRomanPS-BoldMT-6f" x="537.068359"/>
      <use xlink:href="#TimesNewRomanPS-BoldMT-74" x="587.068359"/>
      <use xlink:href="#TimesNewRomanPS-BoldMT-65" x="620.369141"/>
      <use xlink:href="#TimesNewRomanPS-BoldMT-72" x="664.753906"/>
      <use xlink:href="#TimesNewRomanPS-BoldMT-73" x="709.138672"/>
     </g>
    </g>
   </g>
   <g id="matplotlib.axis_2">
    <g id="ytick_1">
     <g id="line2d_6">
      <path d="M 61.95125 194.18781 
L 349.2 194.18781 
" clip-path="url(#p100bf13c30)" style="fill: none; stroke: #cccccc; stroke-width: 0.8; stroke-linecap: round"/>
     </g>
     <g id="text_7">
      <!-- 0.00 -->
      <g style="fill: #262626" transform="translate(28.70125 199.395623) scale(0.15 -0.15)">
       <defs>
        <path id="TimesNewRomanPSMT-2e" d="M 800 606 
Q 947 606 1047 504 
Q 1147 403 1147 259 
Q 1147 116 1045 14 
Q 944 -88 800 -88 
Q 656 -88 554 14 
Q 453 116 453 259 
Q 453 406 554 506 
Q 656 606 800 606 
z
" transform="scale(0.015625)"/>
       </defs>
       <use xlink:href="#TimesNewRomanPSMT-30"/>
       <use xlink:href="#TimesNewRomanPSMT-2e" x="50"/>
       <use xlink:href="#TimesNewRomanPSMT-30" x="75"/>
       <use xlink:href="#TimesNewRomanPSMT-30" x="125"/>
      </g>
     </g>
    </g>
    <g id="ytick_2">
     <g id="line2d_7">
      <path d="M 61.95125 171.92676 
L 349.2 171.92676 
" clip-path="url(#p100bf13c30)" style="fill: none; stroke: #cccccc; stroke-width: 0.8; stroke-linecap: round"/>
     </g>
     <g id="text_8">
      <!-- 0.25 -->
      <g style="fill: #262626" transform="translate(28.70125 177.134572) scale(0.15 -0.15)">
       <use xlink:href="#TimesNewRomanPSMT-30"/>
       <use xlink:href="#TimesNewRomanPSMT-2e" x="50"/>
       <use xlink:href="#TimesNewRomanPSMT-32" x="75"/>
       <use xlink:href="#TimesNewRomanPSMT-35" x="125"/>
      </g>
     </g>
    </g>
    <g id="ytick_3">
     <g id="line2d_8">
      <path d="M 61.95125 149.66571 
L 349.2 149.66571 
" clip-path="url(#p100bf13c30)" style="fill: none; stroke: #cccccc; stroke-width: 0.8; stroke-linecap: round"/>
     </g>
     <g id="text_9">
      <!-- 0.50 -->
      <g style="fill: #262626" transform="translate(28.70125 154.873522) scale(0.15 -0.15)">
       <use xlink:href="#TimesNewRomanPSMT-30"/>
       <use xlink:href="#TimesNewRomanPSMT-2e" x="50"/>
       <use xlink:href="#TimesNewRomanPSMT-35" x="75"/>
       <use xlink:href="#TimesNewRomanPSMT-30" x="125"/>
      </g>
     </g>
    </g>
    <g id="ytick_4">
     <g id="line2d_9">
      <path d="M 61.95125 127.404659 
L 349.2 127.404659 
" clip-path="url(#p100bf13c30)" style="fill: none; stroke: #cccccc; stroke-width: 0.8; stroke-linecap: round"/>
     </g>
     <g id="text_10">
      <!-- 0.75 -->
      <g style="fill: #262626" transform="translate(28.70125 132.612472) scale(0.15 -0.15)">
       <defs>
        <path id="TimesNewRomanPSMT-37" d="M 644 4238 
L 2916 4238 
L 2916 4119 
L 1503 -88 
L 1153 -88 
L 2419 3728 
L 1253 3728 
Q 900 3728 750 3644 
Q 488 3500 328 3200 
L 238 3234 
L 644 4238 
z
" transform="scale(0.015625)"/>
       </defs>
       <use xlink:href="#TimesNewRomanPSMT-30"/>
       <use xlink:href="#TimesNewRomanPSMT-2e" x="50"/>
       <use xlink:href="#TimesNewRomanPSMT-37" x="75"/>
       <use xlink:href="#TimesNewRomanPSMT-35" x="125"/>
      </g>
     </g>
    </g>
    <g id="ytick_5">
     <g id="line2d_10">
      <path d="M 61.95125 105.143609 
L 349.2 105.143609 
" clip-path="url(#p100bf13c30)" style="fill: none; stroke: #cccccc; stroke-width: 0.8; stroke-linecap: round"/>
     </g>
     <g id="text_11">
      <!-- 1.00 -->
      <g style="fill: #262626" transform="translate(28.70125 110.351421) scale(0.15 -0.15)">
       <defs>
        <path id="TimesNewRomanPSMT-31" d="M 750 3822 
L 1781 4325 
L 1884 4325 
L 1884 747 
Q 1884 391 1914 303 
Q 1944 216 2037 169 
Q 2131 122 2419 116 
L 2419 0 
L 825 0 
L 825 116 
Q 1125 122 1212 167 
Q 1300 213 1334 289 
Q 1369 366 1369 747 
L 1369 3034 
Q 1369 3497 1338 3628 
Q 1316 3728 1258 3775 
Q 1200 3822 1119 3822 
Q 1003 3822 797 3725 
L 750 3822 
z
" transform="scale(0.015625)"/>
       </defs>
       <use xlink:href="#TimesNewRomanPSMT-31"/>
       <use xlink:href="#TimesNewRomanPSMT-2e" x="50"/>
       <use xlink:href="#TimesNewRomanPSMT-30" x="75"/>
       <use xlink:href="#TimesNewRomanPSMT-30" x="125"/>
      </g>
     </g>
    </g>
    <g id="ytick_6">
     <g id="line2d_11">
      <path d="M 61.95125 82.882559 
L 349.2 82.882559 
" clip-path="url(#p100bf13c30)" style="fill: none; stroke: #cccccc; stroke-width: 0.8; stroke-linecap: round"/>
     </g>
     <g id="text_12">
      <!-- 1.25 -->
      <g style="fill: #262626" transform="translate(28.70125 88.090371) scale(0.15 -0.15)">
       <use xlink:href="#TimesNewRomanPSMT-31"/>
       <use xlink:href="#TimesNewRomanPSMT-2e" x="50"/>
       <use xlink:href="#TimesNewRomanPSMT-32" x="75"/>
       <use xlink:href="#TimesNewRomanPSMT-35" x="125"/>
      </g>
     </g>
    </g>
    <g id="ytick_7">
     <g id="line2d_12">
      <path d="M 61.95125 60.621508 
L 349.2 60.621508 
" clip-path="url(#p100bf13c30)" style="fill: none; stroke: #cccccc; stroke-width: 0.8; stroke-linecap: round"/>
     </g>
     <g id="text_13">
      <!-- 1.50 -->
      <g style="fill: #262626" transform="translate(28.70125 65.829321) scale(0.15 -0.15)">
       <use xlink:href="#TimesNewRomanPSMT-31"/>
       <use xlink:href="#TimesNewRomanPSMT-2e" x="50"/>
       <use xlink:href="#TimesNewRomanPSMT-35" x="75"/>
       <use xlink:href="#TimesNewRomanPSMT-30" x="125"/>
      </g>
     </g>
    </g>
    <g id="ytick_8">
     <g id="line2d_13">
      <path d="M 61.95125 38.360458 
L 349.2 38.360458 
" clip-path="url(#p100bf13c30)" style="fill: none; stroke: #cccccc; stroke-width: 0.8; stroke-linecap: round"/>
     </g>
     <g id="text_14">
      <!-- 1.75 -->
      <g style="fill: #262626" transform="translate(28.70125 43.568271) scale(0.15 -0.15)">
       <use xlink:href="#TimesNewRomanPSMT-31"/>
       <use xlink:href="#TimesNewRomanPSMT-2e" x="50"/>
       <use xlink:href="#TimesNewRomanPSMT-37" x="75"/>
       <use xlink:href="#TimesNewRomanPSMT-35" x="125"/>
      </g>
     </g>
    </g>
    <g id="ytick_9">
     <g id="line2d_14">
      <path d="M 61.95125 16.099408 
L 349.2 16.099408 
" clip-path="url(#p100bf13c30)" style="fill: none; stroke: #cccccc; stroke-width: 0.8; stroke-linecap: round"/>
     </g>
     <g id="text_15">
      <!-- 2.00 -->
      <g style="fill: #262626" transform="translate(28.70125 21.30722) scale(0.15 -0.15)">
       <use xlink:href="#TimesNewRomanPSMT-32"/>
       <use xlink:href="#TimesNewRomanPSMT-2e" x="50"/>
       <use xlink:href="#TimesNewRomanPSMT-30" x="75"/>
       <use xlink:href="#TimesNewRomanPSMT-30" x="125"/>
      </g>
     </g>
    </g>
    <g id="text_16">
     <!-- Voters Gas Spend (Gwei) -->
     <g style="fill: #262626" transform="translate(21.492656 187.010375) rotate(-90) scale(0.15 -0.15)">
      <defs>
       <path id="TimesNewRomanPS-BoldMT-56" d="M 4556 4238 
L 4556 4122 
Q 4325 4084 4144 3875 
Q 4013 3719 3753 3141 
L 2294 -97 
L 2191 -97 
L 738 3272 
Q 475 3881 386 3987 
Q 297 4094 50 4122 
L 50 4238 
L 2081 4238 
L 2081 4122 
L 2013 4122 
Q 1738 4122 1638 4053 
Q 1566 4006 1566 3916 
Q 1566 3859 1591 3782 
Q 1616 3706 1759 3372 
L 2663 1263 
L 3500 3141 
Q 3650 3481 3684 3597 
Q 3719 3713 3719 3794 
Q 3719 3888 3669 3959 
Q 3619 4031 3522 4069 
Q 3388 4122 3166 4122 
L 3166 4238 
L 4556 4238 
z
" transform="scale(0.015625)"/>
       <path id="TimesNewRomanPS-BoldMT-47" d="M 4416 4334 
L 4416 2841 
L 4300 2841 
Q 4091 3453 3672 3772 
Q 3253 4091 2756 4091 
Q 2281 4091 1965 3823 
Q 1650 3556 1519 3078 
Q 1388 2600 1388 2097 
Q 1388 1488 1531 1028 
Q 1675 569 1995 353 
Q 2316 138 2756 138 
Q 2909 138 3070 170 
Q 3231 203 3400 266 
L 3400 1147 
Q 3400 1397 3365 1470 
Q 3331 1544 3223 1603 
Q 3116 1663 2963 1663 
L 2853 1663 
L 2853 1778 
L 4913 1778 
L 4913 1663 
Q 4678 1647 4586 1598 
Q 4494 1550 4444 1438 
Q 4416 1378 4416 1147 
L 4416 266 
Q 4009 84 3570 -8 
Q 3131 -100 2659 -100 
Q 2056 -100 1657 64 
Q 1259 228 954 495 
Q 650 763 478 1097 
Q 259 1528 259 2063 
Q 259 3019 931 3678 
Q 1603 4338 2622 4338 
Q 2938 4338 3191 4288 
Q 3328 4263 3636 4145 
Q 3944 4028 4000 4028 
Q 4088 4028 4163 4092 
Q 4238 4156 4300 4334 
L 4416 4334 
z
" transform="scale(0.015625)"/>
       <path id="TimesNewRomanPS-BoldMT-61" d="M 1828 431 
Q 1294 -41 869 -41 
Q 619 -41 453 123 
Q 288 288 288 534 
Q 288 869 575 1136 
Q 863 1403 1828 1847 
L 1828 2141 
Q 1828 2472 1792 2558 
Q 1756 2644 1656 2708 
Q 1556 2772 1431 2772 
Q 1228 2772 1097 2681 
Q 1016 2625 1016 2550 
Q 1016 2484 1103 2388 
Q 1222 2253 1222 2128 
Q 1222 1975 1108 1867 
Q 994 1759 809 1759 
Q 613 1759 480 1878 
Q 347 1997 347 2156 
Q 347 2381 525 2586 
Q 703 2791 1022 2900 
Q 1341 3009 1684 3009 
Q 2100 3009 2342 2832 
Q 2584 2656 2656 2450 
Q 2700 2319 2700 1847 
L 2700 713 
Q 2700 513 2715 461 
Q 2731 409 2762 384 
Q 2794 359 2834 359 
Q 2916 359 3000 475 
L 3094 400 
Q 2938 169 2770 64 
Q 2603 -41 2391 -41 
Q 2141 -41 2000 76 
Q 1859 194 1828 431 
z
M 1828 659 
L 1828 1638 
Q 1450 1416 1266 1163 
Q 1144 994 1144 822 
Q 1144 678 1247 569 
Q 1325 484 1466 484 
Q 1622 484 1828 659 
z
" transform="scale(0.015625)"/>
       <path id="TimesNewRomanPS-BoldMT-53" d="M 3006 4334 
L 3041 2922 
L 2913 2922 
Q 2822 3453 2467 3776 
Q 2113 4100 1700 4100 
Q 1381 4100 1195 3929 
Q 1009 3759 1009 3538 
Q 1009 3397 1075 3288 
Q 1166 3141 1366 2997 
Q 1513 2894 2044 2631 
Q 2788 2266 3047 1941 
Q 3303 1616 3303 1197 
Q 3303 666 2889 283 
Q 2475 -100 1838 -100 
Q 1638 -100 1459 -59 
Q 1281 -19 1013 94 
Q 863 156 766 156 
Q 684 156 593 93 
Q 503 31 447 -97 
L 331 -97 
L 331 1503 
L 447 1503 
Q 584 828 976 473 
Q 1369 119 1822 119 
Q 2172 119 2380 309 
Q 2588 500 2588 753 
Q 2588 903 2508 1043 
Q 2428 1184 2265 1311 
Q 2103 1438 1691 1641 
Q 1113 1925 859 2125 
Q 606 2325 470 2572 
Q 334 2819 334 3116 
Q 334 3622 706 3978 
Q 1078 4334 1644 4334 
Q 1850 4334 2044 4284 
Q 2191 4247 2402 4145 
Q 2613 4044 2697 4044 
Q 2778 4044 2825 4094 
Q 2872 4144 2913 4334 
L 3006 4334 
z
" transform="scale(0.015625)"/>
       <path id="TimesNewRomanPS-BoldMT-70" d="M 1347 297 
L 1347 -791 
Q 1347 -1016 1383 -1097 
Q 1419 -1178 1494 -1215 
Q 1569 -1253 1788 -1253 
L 1788 -1369 
L 122 -1369 
L 122 -1253 
Q 316 -1247 409 -1144 
Q 472 -1072 472 -772 
L 472 2313 
Q 472 2622 400 2708 
Q 328 2794 122 2806 
L 122 2922 
L 1347 2922 
L 1347 2538 
Q 1500 2763 1659 2863 
Q 1888 3009 2156 3009 
Q 2478 3009 2742 2806 
Q 3006 2603 3143 2245 
Q 3281 1888 3281 1475 
Q 3281 1031 3139 664 
Q 2997 297 2726 104 
Q 2456 -88 2125 -88 
Q 1884 -88 1675 19 
Q 1519 100 1347 297 
z
M 1347 613 
Q 1616 231 1922 231 
Q 2091 231 2200 409 
Q 2363 672 2363 1409 
Q 2363 2166 2184 2444 
Q 2066 2628 1866 2628 
Q 1550 2628 1347 2172 
L 1347 613 
z
" transform="scale(0.015625)"/>
       <path id="TimesNewRomanPS-BoldMT-6e" d="M 1409 2922 
L 1409 2544 
Q 1634 2788 1840 2898 
Q 2047 3009 2284 3009 
Q 2569 3009 2756 2851 
Q 2944 2694 3006 2459 
Q 3056 2281 3056 1775 
L 3056 638 
Q 3056 300 3117 217 
Q 3178 134 3372 113 
L 3372 0 
L 1894 0 
L 1894 113 
Q 2059 134 2131 250 
Q 2181 328 2181 638 
L 2181 1938 
Q 2181 2297 2153 2390 
Q 2125 2484 2058 2536 
Q 1991 2588 1909 2588 
Q 1641 2588 1409 2203 
L 1409 638 
Q 1409 309 1470 221 
Q 1531 134 1697 113 
L 1697 0 
L 219 0 
L 219 113 
Q 403 131 481 231 
Q 534 300 534 638 
L 534 2288 
Q 534 2619 473 2700 
Q 413 2781 219 2806 
L 219 2922 
L 1409 2922 
z
" transform="scale(0.015625)"/>
       <path id="TimesNewRomanPS-BoldMT-64" d="M 3056 4238 
L 3056 875 
Q 3056 534 3075 472 
Q 3100 369 3170 319 
Q 3241 269 3416 256 
L 3416 153 
L 2181 -88 
L 2181 375 
Q 1959 106 1786 9 
Q 1613 -88 1394 -88 
Q 834 -88 509 413 
Q 247 819 247 1409 
Q 247 1881 409 2254 
Q 572 2628 855 2818 
Q 1138 3009 1463 3009 
Q 1672 3009 1834 2928 
Q 1997 2847 2181 2644 
L 2181 3525 
Q 2181 3859 2153 3928 
Q 2116 4019 2041 4062 
Q 1966 4106 1759 4106 
L 1759 4238 
L 3056 4238 
z
M 2181 2256 
Q 1950 2700 1616 2700 
Q 1500 2700 1425 2638 
Q 1309 2541 1236 2297 
Q 1163 2053 1163 1550 
Q 1163 997 1244 731 
Q 1325 466 1466 347 
Q 1538 288 1663 288 
Q 1938 288 2181 719 
L 2181 2256 
z
" transform="scale(0.015625)"/>
       <path id="TimesNewRomanPS-BoldMT-28" d="M 2056 4334 
L 2056 4191 
Q 1731 3978 1578 3775 
Q 1366 3494 1247 3053 
Q 1097 2506 1097 1525 
Q 1097 600 1233 87 
Q 1369 -425 1603 -741 
Q 1766 -959 2056 -1125 
L 2056 -1281 
Q 1303 -1028 779 -248 
Q 256 531 256 1544 
Q 256 2544 778 3314 
Q 1300 4084 2056 4334 
z
" transform="scale(0.015625)"/>
       <path id="TimesNewRomanPS-BoldMT-77" d="M 3113 -88 
L 2313 2056 
L 1528 -88 
L 1366 -88 
L 588 2031 
Q 413 2516 291 2663 
Q 213 2763 53 2806 
L 53 2922 
L 1528 2922 
L 1528 2806 
Q 1378 2806 1322 2762 
Q 1266 2719 1266 2663 
Q 1266 2609 1366 2344 
L 1794 1203 
L 2206 2344 
L 2175 2419 
Q 2081 2653 2011 2717 
Q 1941 2781 1794 2806 
L 1794 2922 
L 3291 2922 
L 3291 2806 
Q 3116 2797 3069 2758 
Q 3022 2719 3022 2647 
Q 3022 2578 3113 2344 
L 3525 1203 
L 3900 2253 
Q 3981 2478 3981 2559 
Q 3981 2681 3922 2737 
Q 3863 2794 3691 2806 
L 3691 2922 
L 4556 2922 
L 4556 2806 
Q 4413 2788 4328 2705 
Q 4244 2622 4109 2234 
L 3291 -88 
L 3113 -88 
z
" transform="scale(0.015625)"/>
       <path id="TimesNewRomanPS-BoldMT-69" d="M 919 4338 
Q 1122 4338 1262 4195 
Q 1403 4053 1403 3853 
Q 1403 3653 1261 3512 
Q 1119 3372 919 3372 
Q 719 3372 578 3512 
Q 438 3653 438 3853 
Q 438 4053 578 4195 
Q 719 4338 919 4338 
z
M 1356 2922 
L 1356 606 
Q 1356 297 1428 211 
Q 1500 125 1709 113 
L 1709 0 
L 131 0 
L 131 113 
Q 325 119 419 225 
Q 481 297 481 606 
L 481 2313 
Q 481 2622 409 2708 
Q 338 2794 131 2806 
L 131 2922 
L 1356 2922 
z
" transform="scale(0.015625)"/>
       <path id="TimesNewRomanPS-BoldMT-29" d="M 78 -1281 
L 78 -1138 
Q 403 -922 556 -719 
Q 766 -438 888 0 
Q 1038 550 1038 1531 
Q 1038 2456 902 2967 
Q 766 3478 531 3794 
Q 369 4013 78 4178 
L 78 4334 
Q 831 4081 1354 3301 
Q 1878 2522 1878 1509 
Q 1878 513 1354 -257 
Q 831 -1028 78 -1281 
z
" transform="scale(0.015625)"/>
      </defs>
      <use xlink:href="#TimesNewRomanPS-BoldMT-56"/>
      <use xlink:href="#TimesNewRomanPS-BoldMT-6f" x="63.091797"/>
      <use xlink:href="#TimesNewRomanPS-BoldMT-74" x="113.091797"/>
      <use xlink:href="#TimesNewRomanPS-BoldMT-65" x="146.392578"/>
      <use xlink:href="#TimesNewRomanPS-BoldMT-72" x="190.777344"/>
      <use xlink:href="#TimesNewRomanPS-BoldMT-73" x="235.162109"/>
      <use xlink:href="#TimesNewRomanPS-BoldMT-20" x="274.078125"/>
      <use xlink:href="#TimesNewRomanPS-BoldMT-47" x="299.078125"/>
      <use xlink:href="#TimesNewRomanPS-BoldMT-61" x="376.861328"/>
      <use xlink:href="#TimesNewRomanPS-BoldMT-73" x="426.861328"/>
      <use xlink:href="#TimesNewRomanPS-BoldMT-20" x="465.777344"/>
      <use xlink:href="#TimesNewRomanPS-BoldMT-53" x="490.777344"/>
      <use xlink:href="#TimesNewRomanPS-BoldMT-70" x="546.392578"/>
      <use xlink:href="#TimesNewRomanPS-BoldMT-65" x="602.007812"/>
      <use xlink:href="#TimesNewRomanPS-BoldMT-6e" x="646.392578"/>
      <use xlink:href="#TimesNewRomanPS-BoldMT-64" x="702.007812"/>
      <use xlink:href="#TimesNewRomanPS-BoldMT-20" x="757.623047"/>
      <use xlink:href="#TimesNewRomanPS-BoldMT-28" x="782.623047"/>
      <use xlink:href="#TimesNewRomanPS-BoldMT-47" x="815.923828"/>
      <use xlink:href="#TimesNewRomanPS-BoldMT-77" x="893.707031"/>
      <use xlink:href="#TimesNewRomanPS-BoldMT-65" x="965.923828"/>
      <use xlink:href="#TimesNewRomanPS-BoldMT-69" x="1010.308594"/>
      <use xlink:href="#TimesNewRomanPS-BoldMT-29" x="1038.091797"/>
     </g>
    </g>
   </g>
   <g id="PathCollection_1">
    <defs>
     <path id="m8fce81e0f1" d="M 0 2.738613 
C 0.726289 2.738613 1.422928 2.450055 1.936492 1.936492 
C 2.450055 1.422928 2.738613 0.726289 2.738613 0 
C 2.738613 -0.726289 2.450055 -1.422928 1.936492 -1.936492 
C 1.422928 -2.450055 0.726289 -2.738613 0 -2.738613 
C -0.726289 -2.738613 -1.422928 -2.450055 -1.936492 -1.936492 
C -2.450055 -1.422928 -2.738613 -0.726289 -2.738613 0 
C -2.738613 0.726289 -2.450055 1.422928 -1.936492 1.936492 
C -1.422928 2.450055 -0.726289 2.738613 0 2.738613 
z
" style="stroke: #731d1d; stroke-opacity: 0.8"/>
    </defs>
    <g clip-path="url(#p100bf13c30)">
     <use xlink:href="#m8fce81e0f1" x="75.008011" y="186.106847" style="fill: #731d1d; fill-opacity: 0.8; stroke: #731d1d; stroke-opacity: 0.8"/>
     <use xlink:href="#m8fce81e0f1" x="140.291818" y="153.784236" style="fill: #731d1d; fill-opacity: 0.8; stroke: #731d1d; stroke-opacity: 0.8"/>
     <use xlink:href="#m8fce81e0f1" x="205.575625" y="121.387003" style="fill: #731d1d; fill-opacity: 0.8; stroke: #731d1d; stroke-opacity: 0.8"/>
     <use xlink:href="#m8fce81e0f1" x="270.859432" y="89.070202" style="fill: #731d1d; fill-opacity: 0.8; stroke: #731d1d; stroke-opacity: 0.8"/>
     <use xlink:href="#m8fce81e0f1" x="336.143239" y="56.808825" style="fill: #731d1d; fill-opacity: 0.8; stroke: #731d1d; stroke-opacity: 0.8"/>
    </g>
   </g>
   <g id="PolyCollection_1">
    <defs>
     <path id="ma1c8b5c3bd" d="M 75.008011 -89.214769 
L 75.008011 -65.738099 
L 77.645741 -66.714009 
L 80.283471 -67.575716 
L 82.9212 -68.478274 
L 85.55893 -69.421684 
L 88.196659 -70.405945 
L 90.834389 -71.431057 
L 93.472118 -72.49702 
L 96.109848 -73.603835 
L 98.747577 -74.7515 
L 101.385307 -75.940017 
L 104.023037 -77.169385 
L 106.660766 -78.439604 
L 109.298496 -79.750675 
L 111.936225 -81.102597 
L 114.573955 -82.49537 
L 117.211684 -83.928994 
L 119.849414 -85.403469 
L 122.487144 -86.918796 
L 125.124873 -88.474973 
L 127.762603 -90.072002 
L 130.400332 -91.709883 
L 133.038062 -93.388614 
L 135.675791 -95.108197 
L 138.313521 -96.86863 
L 140.951251 -98.434623 
L 143.58898 -99.317331 
L 146.22671 -100.211679 
L 148.864439 -101.117665 
L 151.502169 -102.035289 
L 154.139898 -102.964553 
L 156.777628 -103.905455 
L 159.415358 -104.857995 
L 162.053087 -105.822175 
L 164.690817 -106.797993 
L 167.328546 -107.78545 
L 169.966276 -108.784545 
L 172.604005 -109.795279 
L 175.241735 -110.817652 
L 177.879465 -111.85168 
L 180.517194 -112.897331 
L 183.154924 -113.954621 
L 185.792653 -115.023549 
L 188.430383 -116.104116 
L 191.068112 -117.196322 
L 193.705842 -118.300166 
L 196.343572 -119.415649 
L 198.981301 -120.542771 
L 201.619031 -121.681532 
L 204.25676 -122.831931 
L 206.89449 -123.993968 
L 209.532219 -125.167645 
L 212.169949 -126.35296 
L 214.807678 -127.549913 
L 217.445408 -128.758506 
L 220.083138 -129.978737 
L 222.720867 -131.210607 
L 225.358597 -132.454115 
L 227.996326 -134.078082 
L 230.634056 -135.730363 
L 233.271785 -137.398802 
L 235.909515 -139.083401 
L 238.547245 -140.784157 
L 241.184974 -142.501073 
L 243.822704 -144.234146 
L 246.460433 -145.983379 
L 249.098163 -147.74877 
L 251.735892 -149.53032 
L 254.373622 -151.328028 
L 257.011352 -153.14186 
L 259.649081 -154.971892 
L 262.286811 -156.818082 
L 264.92454 -158.680432 
L 267.56227 -160.55894 
L 270.199999 -162.453607 
L 272.837729 -163.823731 
L 275.475459 -165.023777 
L 278.113188 -166.233122 
L 280.750918 -167.451765 
L 283.388647 -168.679706 
L 286.026377 -169.916946 
L 288.664106 -171.163484 
L 291.301836 -172.41932 
L 293.939566 -173.684455 
L 296.577295 -174.958887 
L 299.215025 -176.242618 
L 301.852754 -177.535648 
L 304.490484 -178.837975 
L 307.128213 -180.149601 
L 309.765943 -181.470526 
L 312.403673 -182.800748 
L 315.041402 -184.140269 
L 317.679132 -185.489088 
L 320.316861 -186.847206 
L 322.954591 -188.214621 
L 325.59232 -189.591335 
L 328.23005 -190.977348 
L 330.867779 -192.372658 
L 333.505509 -193.777267 
L 336.143239 -195.166167 
L 336.143239 -231.47476 
L 336.143239 -231.47476 
L 333.505509 -228.961207 
L 330.867779 -226.467281 
L 328.23005 -223.992981 
L 325.59232 -221.538307 
L 322.954591 -219.10326 
L 320.316861 -216.687839 
L 317.679132 -214.292045 
L 315.041402 -211.915877 
L 312.403673 -209.559336 
L 309.765943 -207.222421 
L 307.128213 -204.905133 
L 304.490484 -202.607471 
L 301.852754 -200.329435 
L 299.215025 -198.071026 
L 296.577295 -195.832244 
L 293.939566 -193.613088 
L 291.301836 -191.413558 
L 288.664106 -189.233655 
L 286.026377 -187.073378 
L 283.388647 -184.932728 
L 280.750918 -182.811704 
L 278.113188 -180.710306 
L 275.475459 -178.628536 
L 272.837729 -176.566391 
L 270.199999 -174.523873 
L 267.56227 -172.500982 
L 264.92454 -170.497717 
L 262.286811 -168.514078 
L 259.649081 -166.550066 
L 257.011352 -164.60568 
L 254.373622 -162.680921 
L 251.735892 -160.775788 
L 249.098163 -158.890282 
L 246.460433 -157.024402 
L 243.822704 -155.178148 
L 241.184974 -153.351521 
L 238.547245 -151.544521 
L 235.909515 -149.757147 
L 233.271785 -147.989399 
L 230.634056 -146.241278 
L 227.996326 -144.845235 
L 225.358597 -143.812527 
L 222.720867 -142.789117 
L 220.083138 -141.316332 
L 217.445408 -139.318023 
L 214.807678 -137.342935 
L 212.169949 -135.391069 
L 209.532219 -133.462424 
L 206.89449 -131.557001 
L 204.25676 -130.091657 
L 201.619031 -129.056835 
L 198.981301 -128.03249 
L 196.343572 -127.018622 
L 193.705842 -126.015232 
L 191.068112 -125.022318 
L 188.430383 -124.039882 
L 185.792653 -123.067923 
L 183.154924 -122.106441 
L 180.517194 -121.155436 
L 177.879465 -120.214909 
L 175.241735 -119.284859 
L 172.604005 -118.365286 
L 169.966276 -117.45619 
L 167.328546 -116.557571 
L 164.690817 -115.669429 
L 162.053087 -114.550836 
L 159.415358 -112.436993 
L 156.777628 -111.515319 
L 154.139898 -110.606289 
L 151.502169 -109.709904 
L 148.864439 -108.826161 
L 146.22671 -107.955063 
L 143.58898 -107.096609 
L 140.951251 -106.250798 
L 138.313521 -105.417631 
L 135.675791 -104.597108 
L 133.038062 -103.789229 
L 130.400332 -102.993993 
L 127.762603 -102.211401 
L 125.124873 -101.441454 
L 122.487144 -100.68415 
L 119.849414 -99.939489 
L 117.211684 -99.207473 
L 114.573955 -98.4881 
L 111.936225 -97.781372 
L 109.298496 -97.087287 
L 106.660766 -96.405845 
L 104.023037 -95.737048 
L 101.385307 -95.080895 
L 98.747577 -94.437385 
L 96.109848 -93.806519 
L 93.472118 -93.188297 
L 90.834389 -92.582719 
L 88.196659 -91.989784 
L 85.55893 -91.409493 
L 82.9212 -90.841847 
L 80.283471 -90.286844 
L 77.645741 -89.744484 
L 75.008011 -89.214769 
z
" style="stroke: #ffffff; stroke-opacity: 0.15"/>
    </defs>
    <g clip-path="url(#p100bf13c30)">
     <use xlink:href="#ma1c8b5c3bd" x="0" y="252" style="fill: #731d1d; fill-opacity: 0.15; stroke: #ffffff; stroke-opacity: 0.15"/>
    </g>
   </g>
   <g id="PathCollection_2">
    <defs>
     <path id="m9b60986169" d="M 0 2.738613 
C 0.726289 2.738613 1.422928 2.450055 1.936492 1.936492 
C 2.450055 1.422928 2.738613 0.726289 2.738613 0 
C 2.738613 -0.726289 2.450055 -1.422928 1.936492 -1.936492 
C 1.422928 -2.450055 0.726289 -2.738613 0 -2.738613 
C -0.726289 -2.738613 -1.422928 -2.450055 -1.936492 -1.936492 
C -2.450055 -1.422928 -2.738613 -0.726289 -2.738613 0 
C -2.738613 0.726289 -2.450055 1.422928 -1.936492 1.936492 
C -1.422928 2.450055 -0.726289 2.738613 0 2.738613 
z
" style="stroke: #735340; stroke-opacity: 0.8"/>
    </defs>
    <g clip-path="url(#p100bf13c30)">
     <use xlink:href="#m9b60986169" x="75.008011" y="187.696041" style="fill: #735340; fill-opacity: 0.8; stroke: #735340; stroke-opacity: 0.8"/>
     <use xlink:href="#m9b60986169" x="140.291818" y="161.78185" style="fill: #735340; fill-opacity: 0.8; stroke: #735340; stroke-opacity: 0.8"/>
     <use xlink:href="#m9b60986169" x="205.575625" y="135.855668" style="fill: #735340; fill-opacity: 0.8; stroke: #735340; stroke-opacity: 0.8"/>
     <use xlink:href="#m9b60986169" x="270.859432" y="109.90624" style="fill: #735340; fill-opacity: 0.8; stroke: #735340; stroke-opacity: 0.8"/>
     <use xlink:href="#m9b60986169" x="336.143239" y="84.025342" style="fill: #735340; fill-opacity: 0.8; stroke: #735340; stroke-opacity: 0.8"/>
    </g>
   </g>
   <g id="PolyCollection_2">
    <defs>
     <path id="m09afc88bcb" d="M 75.008011 -82.91756 
L 75.008011 -64.039888 
L 77.645741 -64.962111 
L 80.283471 -65.653011 
L 82.9212 -66.37666 
L 85.55893 -67.133056 
L 88.196659 -67.922201 
L 90.834389 -68.744095 
L 93.472118 -69.598737 
L 96.109848 -70.486127 
L 98.747577 -71.406265 
L 101.385307 -72.359152 
L 104.023037 -73.344786 
L 106.660766 -74.36317 
L 109.298496 -75.414301 
L 111.936225 -76.498181 
L 114.573955 -77.614809 
L 117.211684 -78.764186 
L 119.849414 -79.94631 
L 122.487144 -81.161183 
L 125.124873 -82.408805 
L 127.762603 -83.689175 
L 130.400332 -85.002293 
L 133.038062 -86.348159 
L 135.675791 -87.726773 
L 138.313521 -89.138136 
L 140.951251 -90.389525 
L 143.58898 -91.101423 
L 146.22671 -91.818541 
L 148.864439 -92.544989 
L 151.502169 -93.28077 
L 154.139898 -94.025882 
L 156.777628 -94.780326 
L 159.415358 -95.544102 
L 162.053087 -96.317209 
L 164.690817 -97.099648 
L 167.328546 -97.891419 
L 169.966276 -98.692521 
L 172.604005 -99.502955 
L 175.241735 -100.322721 
L 177.879465 -101.339784 
L 180.517194 -102.661396 
L 183.154924 -104.001608 
L 185.792653 -105.021268 
L 188.430383 -105.986848 
L 191.068112 -106.964202 
L 193.705842 -107.953329 
L 196.343572 -108.954229 
L 198.981301 -109.966902 
L 201.619031 -110.991348 
L 204.25676 -112.027567 
L 206.89449 -113.075559 
L 209.532219 -114.135324 
L 212.169949 -115.206863 
L 214.807678 -116.290174 
L 217.445408 -117.385258 
L 220.083138 -118.492116 
L 222.720867 -119.610746 
L 225.358597 -120.741149 
L 227.996326 -121.883326 
L 230.634056 -123.037275 
L 233.271785 -124.202998 
L 235.909515 -125.380494 
L 238.547245 -126.569762 
L 241.184974 -127.770804 
L 243.822704 -128.983619 
L 246.460433 -130.15751 
L 249.098163 -131.130983 
L 251.735892 -132.112869 
L 254.373622 -133.103166 
L 257.011352 -134.102043 
L 259.649081 -135.109166 
L 262.286811 -136.124701 
L 264.92454 -137.148648 
L 267.56227 -138.181005 
L 270.199999 -139.221774 
L 272.837729 -140.270954 
L 275.475459 -141.328546 
L 278.113188 -142.394548 
L 280.750918 -143.468962 
L 283.388647 -144.551787 
L 286.026377 -145.643024 
L 288.664106 -146.742672 
L 291.301836 -147.850731 
L 293.939566 -148.967201 
L 296.577295 -150.092082 
L 299.215025 -151.225375 
L 301.852754 -152.367079 
L 304.490484 -153.517195 
L 307.128213 -154.675721 
L 309.765943 -155.842659 
L 312.403673 -157.018008 
L 315.041402 -158.201769 
L 317.679132 -159.39394 
L 320.316861 -160.594523 
L 322.954591 -161.803518 
L 325.59232 -163.020923 
L 328.23005 -164.24674 
L 330.867779 -165.480968 
L 333.505509 -166.723607 
L 336.143239 -167.974658 
L 336.143239 -196.842254 
L 336.143239 -196.842254 
L 333.505509 -194.831349 
L 330.867779 -192.83614 
L 328.23005 -190.856628 
L 325.59232 -188.892813 
L 322.954591 -186.944695 
L 320.316861 -185.012273 
L 317.679132 -183.095548 
L 315.041402 -181.19452 
L 312.403673 -179.309188 
L 309.765943 -177.439553 
L 307.128213 -175.585614 
L 304.490484 -173.747372 
L 301.852754 -171.924827 
L 299.215025 -170.117979 
L 296.577295 -168.326827 
L 293.939566 -166.551372 
L 291.301836 -164.791613 
L 288.664106 -163.047551 
L 286.026377 -161.319186 
L 283.388647 -159.606518 
L 280.750918 -157.909546 
L 278.113188 -156.228271 
L 275.475459 -154.562692 
L 272.837729 -152.91281 
L 270.199999 -151.278625 
L 267.56227 -149.660137 
L 264.92454 -148.057345 
L 262.286811 -146.470249 
L 259.649081 -144.898851 
L 257.011352 -143.343149 
L 254.373622 -141.803144 
L 251.735892 -140.278835 
L 249.098163 -138.770223 
L 246.460433 -137.277308 
L 243.822704 -135.800089 
L 241.184974 -134.338567 
L 238.547245 -132.892742 
L 235.909515 -131.462613 
L 233.271785 -130.048181 
L 230.634056 -128.649446 
L 227.996326 -127.58668 
L 225.358597 -126.758287 
L 222.720867 -125.937356 
L 220.083138 -125.123267 
L 217.445408 -124.31721 
L 214.807678 -123.518613 
L 212.169949 -122.727476 
L 209.532219 -121.943797 
L 206.89449 -121.167579 
L 204.25676 -120.39882 
L 201.619031 -119.63752 
L 198.981301 -118.88368 
L 196.343572 -118.137299 
L 193.705842 -117.398378 
L 191.068112 -116.666916 
L 188.430383 -115.942914 
L 185.792653 -115.226371 
L 183.154924 -114.517288 
L 180.517194 -113.815664 
L 177.879465 -113.1215 
L 175.241735 -112.334282 
L 172.604005 -110.464593 
L 169.966276 -108.627647 
L 167.328546 -106.823442 
L 164.690817 -105.051981 
L 162.053087 -103.314076 
L 159.415358 -101.607978 
L 156.777628 -100.812681 
L 154.139898 -100.08301 
L 151.502169 -99.363499 
L 148.864439 -98.654148 
L 146.22671 -97.954959 
L 143.58898 -97.26593 
L 140.951251 -96.587061 
L 138.313521 -95.918354 
L 135.675791 -95.259806 
L 133.038062 -94.61142 
L 130.400332 -93.973194 
L 127.762603 -93.345129 
L 125.124873 -92.727224 
L 122.487144 -92.11948 
L 119.849414 -91.521897 
L 117.211684 -90.934475 
L 114.573955 -90.357213 
L 111.936225 -89.790111 
L 109.298496 -89.23317 
L 106.660766 -88.68639 
L 104.023037 -88.149771 
L 101.385307 -87.623312 
L 98.747577 -87.107014 
L 96.109848 -86.600877 
L 93.472118 -86.1049 
L 90.834389 -85.619083 
L 88.196659 -85.143428 
L 85.55893 -84.677933 
L 82.9212 -84.222599 
L 80.283471 -83.777425 
L 77.645741 -83.342412 
L 75.008011 -82.91756 
z
" style="stroke: #ffffff; stroke-opacity: 0.15"/>
    </defs>
    <g clip-path="url(#p100bf13c30)">
     <use xlink:href="#m09afc88bcb" x="0" y="252" style="fill: #735340; fill-opacity: 0.15; stroke: #ffffff; stroke-opacity: 0.15"/>
    </g>
   </g>
   <g id="PathCollection_3">
    <defs>
     <path id="m1fdb8f0896" d="M 0 2.738613 
C 0.726289 2.738613 1.422928 2.450055 1.936492 1.936492 
C 2.450055 1.422928 2.738613 0.726289 2.738613 0 
C 2.738613 -0.726289 2.450055 -1.422928 1.936492 -1.936492 
C 1.422928 -2.450055 0.726289 -2.738613 0 -2.738613 
C -0.726289 -2.738613 -1.422928 -2.450055 -1.936492 -1.936492 
C -2.450055 -1.422928 -2.738613 -0.726289 -2.738613 0 
C -2.738613 0.726289 -2.450055 1.422928 -1.936492 1.936492 
C -1.422928 2.450055 -0.726289 2.738613 0 2.738613 
z
" style="stroke: #d94436; stroke-opacity: 0.8"/>
    </defs>
    <g clip-path="url(#p100bf13c30)">
     <use xlink:href="#m1fdb8f0896" x="75.008011" y="189.312058" style="fill: #d94436; fill-opacity: 0.8; stroke: #d94436; stroke-opacity: 0.8"/>
     <use xlink:href="#m1fdb8f0896" x="140.291818" y="169.823143" style="fill: #d94436; fill-opacity: 0.8; stroke: #d94436; stroke-opacity: 0.8"/>
     <use xlink:href="#m1fdb8f0896" x="205.575625" y="150.350645" style="fill: #d94436; fill-opacity: 0.8; stroke: #d94436; stroke-opacity: 0.8"/>
     <use xlink:href="#m1fdb8f0896" x="270.859432" y="130.811774" style="fill: #d94436; fill-opacity: 0.8; stroke: #d94436; stroke-opacity: 0.8"/>
     <use xlink:href="#m1fdb8f0896" x="336.143239" y="111.3514" style="fill: #d94436; fill-opacity: 0.8; stroke: #d94436; stroke-opacity: 0.8"/>
    </g>
   </g>
   <g id="PolyCollection_3">
    <defs>
     <path id="m404fdd8769" d="M 75.008011 -71.283499 
L 75.008011 -62.336119 
L 77.645741 -63.119046 
L 80.283471 -63.559891 
L 82.9212 -64.010478 
L 85.55893 -64.470806 
L 88.196659 -64.940875 
L 90.834389 -65.420686 
L 93.472118 -65.910238 
L 96.109848 -66.409531 
L 98.747577 -66.918566 
L 101.385307 -67.437343 
L 104.023037 -67.96586 
L 106.660766 -68.504119 
L 109.298496 -69.05212 
L 111.936225 -69.609862 
L 114.573955 -70.177345 
L 117.211684 -70.75457 
L 119.849414 -71.341536 
L 122.487144 -71.938244 
L 125.124873 -72.544693 
L 127.762603 -73.160883 
L 130.400332 -73.786815 
L 133.038062 -74.422488 
L 135.675791 -75.067903 
L 138.313521 -75.723059 
L 140.951251 -76.387956 
L 143.58898 -77.062595 
L 146.22671 -77.746975 
L 148.864439 -78.441097 
L 151.502169 -79.14496 
L 154.139898 -79.858564 
L 156.777628 -80.58191 
L 159.415358 -81.314997 
L 162.053087 -82.057826 
L 164.690817 -82.810396 
L 167.328546 -83.572707 
L 169.966276 -84.34476 
L 172.604005 -85.126554 
L 175.241735 -85.91809 
L 177.879465 -86.719367 
L 180.517194 -87.530385 
L 183.154924 -88.351145 
L 185.792653 -89.181647 
L 188.430383 -90.021889 
L 191.068112 -90.871873 
L 193.705842 -91.731599 
L 196.343572 -92.601066 
L 198.981301 -93.480274 
L 201.619031 -94.369223 
L 204.25676 -95.267915 
L 206.89449 -96.176347 
L 209.532219 -97.094521 
L 212.169949 -98.022436 
L 214.807678 -98.960093 
L 217.445408 -99.907491 
L 220.083138 -100.86463 
L 222.720867 -101.831511 
L 225.358597 -102.808134 
L 227.996326 -103.794485 
L 230.634056 -104.790591 
L 233.271785 -105.796438 
L 235.909515 -106.812027 
L 238.547245 -107.837357 
L 241.184974 -108.872428 
L 243.822704 -109.917241 
L 246.460433 -110.971795 
L 249.098163 -112.036091 
L 251.735892 -113.110128 
L 254.373622 -114.193906 
L 257.011352 -115.287426 
L 259.649081 -116.390687 
L 262.286811 -117.50369 
L 264.92454 -118.626434 
L 267.56227 -119.75892 
L 270.199999 -120.901147 
L 272.837729 -121.694756 
L 275.475459 -122.451312 
L 278.113188 -123.180789 
L 280.750918 -123.915876 
L 283.388647 -124.656573 
L 286.026377 -125.40288 
L 288.664106 -126.154797 
L 291.301836 -126.912324 
L 293.939566 -127.675461 
L 296.577295 -128.444207 
L 299.215025 -129.218564 
L 301.852754 -129.998531 
L 304.490484 -130.784107 
L 307.128213 -131.575293 
L 309.765943 -132.37209 
L 312.403673 -133.174496 
L 315.041402 -133.982512 
L 317.679132 -134.796139 
L 320.316861 -135.615375 
L 322.954591 -136.440221 
L 325.59232 -137.270677 
L 328.23005 -138.106742 
L 330.867779 -138.948418 
L 333.505509 -139.759973 
L 336.143239 -140.545096 
L 336.143239 -152.622789 
L 336.143239 -152.622789 
L 333.505509 -151.237026 
L 330.867779 -149.861004 
L 328.23005 -148.494724 
L 325.59232 -147.138186 
L 322.954591 -145.791389 
L 320.316861 -144.454333 
L 317.679132 -143.127019 
L 315.041402 -141.809446 
L 312.403673 -140.501615 
L 309.765943 -139.203525 
L 307.128213 -137.915176 
L 304.490484 -136.636569 
L 301.852754 -135.367704 
L 299.215025 -134.108579 
L 296.577295 -132.859197 
L 293.939566 -131.619555 
L 291.301836 -130.389655 
L 288.664106 -129.169497 
L 286.026377 -127.95908 
L 283.388647 -126.758404 
L 280.750918 -125.56747 
L 278.113188 -124.386277 
L 275.475459 -123.214826 
L 272.837729 -122.053116 
L 270.199999 -121.009188 
L 267.56227 -120.29654 
L 264.92454 -119.589503 
L 262.286811 -118.888076 
L 259.649081 -118.192258 
L 257.011352 -117.50205 
L 254.373622 -116.817453 
L 251.735892 -116.138465 
L 249.098163 -115.465087 
L 246.460433 -114.797319 
L 243.822704 -114.135071 
L 241.184974 -113.478511 
L 238.547245 -112.827561 
L 235.909515 -112.18222 
L 233.271785 -111.542489 
L 230.634056 -110.908367 
L 227.996326 -110.002381 
L 225.358597 -108.975475 
L 222.720867 -107.960355 
L 220.083138 -106.95702 
L 217.445408 -105.965472 
L 214.807678 -104.985709 
L 212.169949 -104.017733 
L 209.532219 -103.061542 
L 206.89449 -102.117137 
L 204.25676 -101.314247 
L 201.619031 -100.526733 
L 198.981301 -99.739187 
L 196.343572 -98.951609 
L 193.705842 -98.163997 
L 191.068112 -97.376354 
L 188.430383 -96.588678 
L 185.792653 -95.80097 
L 183.154924 -95.013229 
L 180.517194 -94.225456 
L 177.879465 -93.43765 
L 175.241735 -92.649812 
L 172.604005 -91.861942 
L 169.966276 -91.074039 
L 167.328546 -90.286103 
L 164.690817 -89.498136 
L 162.053087 -88.710136 
L 159.415358 -87.922103 
L 156.777628 -87.134038 
L 154.139898 -86.345941 
L 151.502169 -85.557811 
L 148.864439 -84.769649 
L 146.22671 -83.981454 
L 143.58898 -83.193227 
L 140.951251 -82.404967 
L 138.313521 -81.783599 
L 135.675791 -81.265394 
L 133.038062 -80.754207 
L 130.400332 -80.250038 
L 127.762603 -79.752885 
L 125.124873 -79.26275 
L 122.487144 -78.779633 
L 119.849414 -78.303533 
L 117.211684 -77.83445 
L 114.573955 -77.372385 
L 111.936225 -76.917338 
L 109.298496 -76.469307 
L 106.660766 -76.028294 
L 104.023037 -75.594299 
L 101.385307 -75.167321 
L 98.747577 -74.74736 
L 96.109848 -74.334417 
L 93.472118 -73.928492 
L 90.834389 -73.529583 
L 88.196659 -73.137692 
L 85.55893 -72.752819 
L 82.9212 -72.374963 
L 80.283471 -72.004124 
L 77.645741 -71.640303 
L 75.008011 -71.283499 
z
" style="stroke: #ffffff; stroke-opacity: 0.15"/>
    </defs>
    <g clip-path="url(#p100bf13c30)">
     <use xlink:href="#m404fdd8769" x="0" y="252" style="fill: #d94436; fill-opacity: 0.15; stroke: #ffffff; stroke-opacity: 0.15"/>
    </g>
   </g>
   <g id="PathCollection_4">
    <defs>
     <path id="m9271daf08c" d="M 0 2.738613 
C 0.726289 2.738613 1.422928 2.450055 1.936492 1.936492 
C 2.450055 1.422928 2.738613 0.726289 2.738613 0 
C 2.738613 -0.726289 2.450055 -1.422928 1.936492 -1.936492 
C 1.422928 -2.450055 0.726289 -2.738613 0 -2.738613 
C -0.726289 -2.738613 -1.422928 -2.450055 -1.936492 -1.936492 
C -2.450055 -1.422928 -2.738613 -0.726289 -2.738613 0 
C -2.738613 0.726289 -2.450055 1.422928 -1.936492 1.936492 
C -1.422928 2.450055 -0.726289 2.738613 0 2.738613 
z
" style="stroke: #f26444; stroke-opacity: 0.8"/>
    </defs>
    <g clip-path="url(#p100bf13c30)">
     <use xlink:href="#m9271daf08c" x="75.008011" y="190.914679" style="fill: #f26444; fill-opacity: 0.8; stroke: #f26444; stroke-opacity: 0.8"/>
     <use xlink:href="#m9271daf08c" x="140.291818" y="177.845451" style="fill: #f26444; fill-opacity: 0.8; stroke: #f26444; stroke-opacity: 0.8"/>
     <use xlink:href="#m9271daf08c" x="205.575625" y="164.690574" style="fill: #f26444; fill-opacity: 0.8; stroke: #f26444; stroke-opacity: 0.8"/>
     <use xlink:href="#m9271daf08c" x="270.859432" y="151.62161" style="fill: #f26444; fill-opacity: 0.8; stroke: #f26444; stroke-opacity: 0.8"/>
     <use xlink:href="#m9271daf08c" x="336.143239" y="138.544436" style="fill: #f26444; fill-opacity: 0.8; stroke: #f26444; stroke-opacity: 0.8"/>
    </g>
   </g>
   <g id="PolyCollection_4">
    <defs>
     <path id="m5cdee7e025" d="M 75.008011 -68.90103 
L 75.008011 -60.91376 
L 77.645741 -61.417242 
L 80.283471 -61.765679 
L 82.9212 -62.130632 
L 85.55893 -62.512102 
L 88.196659 -62.910087 
L 90.834389 -63.324589 
L 93.472118 -63.755606 
L 96.109848 -64.20314 
L 98.747577 -64.66719 
L 101.385307 -65.147756 
L 104.023037 -65.644838 
L 106.660766 -66.158436 
L 109.298496 -66.68855 
L 111.936225 -67.23518 
L 114.573955 -67.798326 
L 117.211684 -68.377989 
L 119.849414 -68.974167 
L 122.487144 -69.586862 
L 125.124873 -70.216072 
L 127.762603 -70.861799 
L 130.400332 -71.524042 
L 133.038062 -72.202801 
L 135.675791 -72.898076 
L 138.313521 -73.609867 
L 140.951251 -74.243224 
L 143.58898 -74.600873 
L 146.22671 -74.963241 
L 148.864439 -75.330329 
L 151.502169 -75.702135 
L 154.139898 -76.078661 
L 156.777628 -76.459906 
L 159.415358 -76.845869 
L 162.053087 -77.236552 
L 164.690817 -77.631954 
L 167.328546 -78.032075 
L 169.966276 -78.436916 
L 172.604005 -78.846475 
L 175.241735 -79.260753 
L 177.879465 -79.680427 
L 180.517194 -80.104179 
L 183.154924 -80.532648 
L 185.792653 -80.965835 
L 188.430383 -81.40374 
L 191.068112 -81.846362 
L 193.705842 -82.293701 
L 196.343572 -82.745759 
L 198.981301 -83.202533 
L 201.619031 -83.664025 
L 204.25676 -84.130235 
L 206.89449 -84.601162 
L 209.532219 -85.076807 
L 212.169949 -85.557169 
L 214.807678 -86.042249 
L 217.445408 -86.532047 
L 220.083138 -87.026561 
L 222.720867 -87.525794 
L 225.358597 -88.032951 
L 227.996326 -88.695466 
L 230.634056 -89.364524 
L 233.271785 -90.040126 
L 235.909515 -90.72227 
L 238.547245 -91.410957 
L 241.184974 -92.106188 
L 243.822704 -92.807961 
L 246.460433 -93.516278 
L 249.098163 -94.231138 
L 251.735892 -94.952541 
L 254.373622 -95.680486 
L 257.011352 -96.369224 
L 259.649081 -96.877289 
L 262.286811 -97.389594 
L 264.92454 -97.906139 
L 267.56227 -98.426924 
L 270.199999 -98.951949 
L 272.837729 -99.481214 
L 275.475459 -100.014718 
L 278.113188 -100.552463 
L 280.750918 -101.094448 
L 283.388647 -101.640673 
L 286.026377 -102.191137 
L 288.664106 -102.745842 
L 291.301836 -103.304787 
L 293.939566 -103.867971 
L 296.577295 -104.435396 
L 299.215025 -105.007061 
L 301.852754 -105.582965 
L 304.490484 -106.16311 
L 307.128213 -106.747495 
L 309.765943 -107.336119 
L 312.403673 -107.928984 
L 315.041402 -108.526088 
L 317.679132 -109.127433 
L 320.316861 -109.733017 
L 322.954591 -110.342842 
L 325.59232 -110.956906 
L 328.23005 -111.575211 
L 330.867779 -112.197755 
L 333.505509 -112.82454 
L 336.143239 -113.361442 
L 336.143239 -128.279781 
L 336.143239 -128.279781 
L 333.505509 -127.258637 
L 330.867779 -126.24547 
L 328.23005 -125.240282 
L 325.59232 -124.243071 
L 322.954591 -123.253837 
L 320.316861 -122.272582 
L 317.679132 -121.299304 
L 315.041402 -120.334004 
L 312.403673 -119.376682 
L 309.765943 -118.427337 
L 307.128213 -117.48597 
L 304.490484 -116.552581 
L 301.852754 -115.62717 
L 299.215025 -114.709736 
L 296.577295 -113.800281 
L 293.939566 -112.898802 
L 291.301836 -112.005302 
L 288.664106 -111.11978 
L 286.026377 -110.242235 
L 283.388647 -109.372668 
L 280.750918 -108.511078 
L 278.113188 -107.657467 
L 275.475459 -106.811833 
L 272.837729 -105.974177 
L 270.199999 -105.144498 
L 267.56227 -104.322798 
L 264.92454 -103.509075 
L 262.286811 -102.703329 
L 259.649081 -101.905562 
L 257.011352 -101.115772 
L 254.373622 -100.333961 
L 251.735892 -99.560126 
L 249.098163 -98.79427 
L 246.460433 -98.036391 
L 243.822704 -97.28649 
L 241.184974 -96.544567 
L 238.547245 -95.810622 
L 235.909515 -95.084654 
L 233.271785 -94.366664 
L 230.634056 -93.656652 
L 227.996326 -92.955066 
L 225.358597 -92.260945 
L 222.720867 -91.574804 
L 220.083138 -90.899751 
L 217.445408 -90.235176 
L 214.807678 -89.576318 
L 212.169949 -88.918608 
L 209.532219 -88.268919 
L 206.89449 -87.627251 
L 204.25676 -87.098323 
L 201.619031 -86.679298 
L 198.981301 -86.264513 
L 196.343572 -85.853967 
L 193.705842 -85.447662 
L 191.068112 -85.045597 
L 188.430383 -84.647771 
L 185.792653 -84.254186 
L 183.154924 -83.864841 
L 180.517194 -83.479735 
L 177.879465 -83.09887 
L 175.241735 -82.722245 
L 172.604005 -82.349859 
L 169.966276 -81.981714 
L 167.328546 -81.617808 
L 164.690817 -81.258143 
L 162.053087 -80.759211 
L 159.415358 -79.957525 
L 156.777628 -79.584676 
L 154.139898 -79.216936 
L 151.502169 -78.854305 
L 148.864439 -78.496783 
L 146.22671 -78.144371 
L 143.58898 -77.797067 
L 140.951251 -77.454873 
L 138.313521 -77.117788 
L 135.675791 -76.785811 
L 133.038062 -76.458945 
L 130.400332 -76.137187 
L 127.762603 -75.820538 
L 125.124873 -75.508998 
L 122.487144 -75.202568 
L 119.849414 -74.901247 
L 117.211684 -74.605034 
L 114.573955 -74.313931 
L 111.936225 -74.027937 
L 109.298496 -72.802554 
L 106.660766 -71.943821 
L 104.023037 -71.655548 
L 101.385307 -71.373585 
L 98.747577 -71.097933 
L 96.109848 -70.82859 
L 93.472118 -70.565559 
L 90.834389 -70.308838 
L 88.196659 -70.058427 
L 85.55893 -69.814327 
L 82.9212 -69.576537 
L 80.283471 -69.345057 
L 77.645741 -69.119888 
L 75.008011 -68.90103 
z
" style="stroke: #ffffff; stroke-opacity: 0.15"/>
    </defs>
    <g clip-path="url(#p100bf13c30)">
     <use xlink:href="#m5cdee7e025" x="0" y="252" style="fill: #f26444; fill-opacity: 0.15; stroke: #ffffff; stroke-opacity: 0.15"/>
    </g>
   </g>
   <g id="PathCollection_5">
    <defs>
     <path id="m1631a73407" d="M 0 2.738613 
C 0.726289 2.738613 1.422928 2.450055 1.936492 1.936492 
C 2.450055 1.422928 2.738613 0.726289 2.738613 0 
C 2.738613 -0.726289 2.450055 -1.422928 1.936492 -1.936492 
C 1.422928 -2.450055 0.726289 -2.738613 0 -2.738613 
C -0.726289 -2.738613 -1.422928 -2.450055 -1.936492 -1.936492 
C -2.450055 -1.422928 -2.738613 -0.726289 -2.738613 0 
C -2.738613 0.726289 -2.450055 1.422928 -1.936492 1.936492 
C -1.422928 2.450055 -0.726289 2.738613 0 2.738613 
z
" style="stroke: #d9ab9a; stroke-opacity: 0.8"/>
    </defs>
    <g clip-path="url(#p100bf13c30)">
     <use xlink:href="#m1631a73407" x="75.008011" y="192.500691" style="fill: #d9ab9a; fill-opacity: 0.8; stroke: #d9ab9a; stroke-opacity: 0.8"/>
     <use xlink:href="#m1631a73407" x="140.291818" y="185.793652" style="fill: #d9ab9a; fill-opacity: 0.8; stroke: #d9ab9a; stroke-opacity: 0.8"/>
     <use xlink:href="#m1631a73407" x="205.575625" y="179.070132" style="fill: #d9ab9a; fill-opacity: 0.8; stroke: #d9ab9a; stroke-opacity: 0.8"/>
     <use xlink:href="#m1631a73407" x="270.859432" y="172.391631" style="fill: #d9ab9a; fill-opacity: 0.8; stroke: #d9ab9a; stroke-opacity: 0.8"/>
     <use xlink:href="#m1631a73407" x="336.143239" y="165.686815" style="fill: #d9ab9a; fill-opacity: 0.8; stroke: #d9ab9a; stroke-opacity: 0.8"/>
    </g>
   </g>
   <g id="PolyCollection_5">
    <defs>
     <path id="m304206f8f3" d="M 75.008011 -64.862199 
L 75.008011 -59.437809 
L 77.645741 -59.65379 
L 80.283471 -59.813089 
L 82.9212 -59.977206 
L 85.55893 -60.146142 
L 88.196659 -60.319896 
L 90.834389 -60.498468 
L 93.472118 -60.681859 
L 96.109848 -60.870068 
L 98.747577 -61.063095 
L 101.385307 -61.260941 
L 104.023037 -61.463604 
L 106.660766 -61.671086 
L 109.298496 -61.883387 
L 111.936225 -62.100505 
L 114.573955 -62.322442 
L 117.211684 -62.549198 
L 119.849414 -62.780771 
L 122.487144 -63.017163 
L 125.124873 -63.258373 
L 127.762603 -63.504401 
L 130.400332 -63.755248 
L 133.038062 -64.010913 
L 135.675791 -64.271396 
L 138.313521 -64.536698 
L 140.951251 -64.806818 
L 143.58898 -65.081756 
L 146.22671 -65.361512 
L 148.864439 -65.646087 
L 151.502169 -65.93548 
L 154.139898 -66.229691 
L 156.777628 -66.528721 
L 159.415358 -66.832569 
L 162.053087 -67.141235 
L 164.690817 -67.454719 
L 167.328546 -67.773022 
L 169.966276 -68.096143 
L 172.604005 -68.424083 
L 175.241735 -68.75684 
L 177.879465 -69.033915 
L 180.517194 -69.250736 
L 183.154924 -69.469969 
L 185.792653 -69.691614 
L 188.430383 -69.915672 
L 191.068112 -70.142143 
L 193.705842 -70.371026 
L 196.343572 -70.602321 
L 198.981301 -70.836029 
L 201.619031 -71.072149 
L 204.25676 -71.310682 
L 206.89449 -71.551627 
L 209.532219 -71.794984 
L 212.169949 -72.040754 
L 214.807678 -72.288937 
L 217.445408 -72.539532 
L 220.083138 -72.792539 
L 222.720867 -73.047959 
L 225.358597 -73.305791 
L 227.996326 -73.629489 
L 230.634056 -73.971889 
L 233.271785 -74.317637 
L 235.909515 -74.666734 
L 238.547245 -75.019178 
L 241.184974 -75.374972 
L 243.822704 -75.734114 
L 246.460433 -76.096604 
L 249.098163 -76.462442 
L 251.735892 -76.831629 
L 254.373622 -77.204164 
L 257.011352 -77.56736 
L 259.649081 -77.827423 
L 262.286811 -78.089655 
L 264.92454 -78.354058 
L 267.56227 -78.62063 
L 270.199999 -78.889373 
L 272.837729 -79.160285 
L 275.475459 -79.433368 
L 278.113188 -79.70862 
L 280.750918 -79.986043 
L 283.388647 -80.265636 
L 286.026377 -80.547398 
L 288.664106 -80.831331 
L 291.301836 -81.117433 
L 293.939566 -81.405706 
L 296.577295 -81.696148 
L 299.215025 -81.988761 
L 301.852754 -82.283543 
L 304.490484 -82.580495 
L 307.128213 -82.879618 
L 309.765943 -83.18091 
L 312.403673 -83.484373 
L 315.041402 -83.790005 
L 317.679132 -84.097808 
L 320.316861 -84.40778 
L 322.954591 -84.719923 
L 325.59232 -85.034235 
L 328.23005 -85.350717 
L 330.867779 -85.66937 
L 333.505509 -85.974704 
L 336.143239 -86.241851 
L 336.143239 -93.969002 
L 336.143239 -93.969002 
L 333.505509 -93.444752 
L 330.867779 -92.924594 
L 328.23005 -92.408527 
L 325.59232 -91.896551 
L 322.954591 -91.388667 
L 320.316861 -90.884875 
L 317.679132 -90.385173 
L 315.041402 -89.889564 
L 312.403673 -89.398045 
L 309.765943 -88.910618 
L 307.128213 -88.427283 
L 304.490484 -87.948038 
L 301.852754 -87.472886 
L 299.215025 -87.001824 
L 296.577295 -86.534854 
L 293.939566 -86.071976 
L 291.301836 -85.613189 
L 288.664106 -85.158493 
L 286.026377 -84.707889 
L 283.388647 -84.261376 
L 280.750918 -83.818954 
L 278.113188 -83.380624 
L 275.475459 -82.946386 
L 272.837729 -82.516238 
L 270.199999 -82.090182 
L 267.56227 -81.668218 
L 264.92454 -81.250345 
L 262.286811 -80.836563 
L 259.649081 -80.426873 
L 257.011352 -80.021274 
L 254.373622 -79.619767 
L 251.735892 -79.222351 
L 249.098163 -78.829026 
L 246.460433 -78.439793 
L 243.822704 -78.054651 
L 241.184974 -77.673601 
L 238.547245 -77.296642 
L 235.909515 -76.923774 
L 233.271785 -76.554998 
L 230.634056 -76.190314 
L 227.996326 -75.864884 
L 225.358597 -75.644954 
L 222.720867 -75.427029 
L 220.083138 -75.212642 
L 217.445408 -75.003876 
L 214.807678 -74.797044 
L 212.169949 -74.592147 
L 209.532219 -74.389184 
L 206.89449 -74.188155 
L 204.25676 -73.98906 
L 201.619031 -73.791899 
L 198.981301 -73.596673 
L 196.343572 -73.403381 
L 193.705842 -73.212022 
L 191.068112 -73.022599 
L 188.430383 -72.835109 
L 185.792653 -72.649553 
L 183.154924 -72.465932 
L 180.517194 -72.284245 
L 177.879465 -72.104492 
L 175.241735 -71.926673 
L 172.604005 -71.446397 
L 169.966276 -70.970972 
L 167.328546 -70.504021 
L 164.690817 -70.045544 
L 162.053087 -69.650017 
L 159.415358 -69.470221 
L 156.777628 -69.292594 
L 154.139898 -69.117137 
L 151.502169 -68.943849 
L 148.864439 -68.77273 
L 146.22671 -68.603781 
L 143.58898 -68.437001 
L 140.951251 -68.272391 
L 138.313521 -68.10995 
L 135.675791 -67.949679 
L 133.038062 -67.791577 
L 130.400332 -67.635644 
L 127.762603 -67.481881 
L 125.124873 -67.330287 
L 122.487144 -67.180863 
L 119.849414 -67.033608 
L 117.211684 -66.888523 
L 114.573955 -66.745607 
L 111.936225 -66.60486 
L 109.298496 -66.466283 
L 106.660766 -66.329876 
L 104.023037 -66.195637 
L 101.385307 -66.063569 
L 98.747577 -65.933669 
L 96.109848 -65.805939 
L 93.472118 -65.680379 
L 90.834389 -65.556988 
L 88.196659 -65.435766 
L 85.55893 -65.316714 
L 82.9212 -65.199831 
L 80.283471 -65.085118 
L 77.645741 -64.972574 
L 75.008011 -64.862199 
z
" style="stroke: #ffffff; stroke-opacity: 0.15"/>
    </defs>
    <g clip-path="url(#p100bf13c30)">
     <use xlink:href="#m304206f8f3" x="0" y="252" style="fill: #d9ab9a; fill-opacity: 0.15; stroke: #ffffff; stroke-opacity: 0.15"/>
    </g>
   </g>
   <g id="PathCollection_6">
    <defs>
     <path id="ma8f80dea57" d="M 0 2.738613 
C 0.726289 2.738613 1.422928 2.450055 1.936492 1.936492 
C 2.450055 1.422928 2.738613 0.726289 2.738613 0 
C 2.738613 -0.726289 2.450055 -1.422928 1.936492 -1.936492 
C 1.422928 -2.450055 0.726289 -2.738613 0 -2.738613 
C -0.726289 -2.738613 -1.422928 -2.450055 -1.936492 -1.936492 
C -2.450055 -1.422928 -2.738613 -0.726289 -2.738613 0 
C -2.738613 0.726289 -2.450055 1.422928 -1.936492 1.936492 
C -1.422928 2.450055 -0.726289 2.738613 0 2.738613 
z
" style="stroke: #889c9b; stroke-opacity: 0.8"/>
    </defs>
    <g clip-path="url(#p100bf13c30)">
     <use xlink:href="#ma8f80dea57" x="75.008011" y="192.70996" style="fill: #889c9b; fill-opacity: 0.8; stroke: #889c9b; stroke-opacity: 0.8"/>
     <use xlink:href="#ma8f80dea57" x="140.291818" y="186.785245" style="fill: #889c9b; fill-opacity: 0.8; stroke: #889c9b; stroke-opacity: 0.8"/>
     <use xlink:href="#ma8f80dea57" x="205.575625" y="180.907404" style="fill: #889c9b; fill-opacity: 0.8; stroke: #889c9b; stroke-opacity: 0.8"/>
     <use xlink:href="#ma8f80dea57" x="270.859432" y="174.984511" style="fill: #889c9b; fill-opacity: 0.8; stroke: #889c9b; stroke-opacity: 0.8"/>
     <use xlink:href="#ma8f80dea57" x="336.143239" y="169.072862" style="fill: #889c9b; fill-opacity: 0.8; stroke: #889c9b; stroke-opacity: 0.8"/>
    </g>
   </g>
   <g id="PolyCollection_6">
    <defs>
     <path id="m06c98c1720" d="M 75.008011 -63.512714 
L 75.008011 -59.213084 
L 77.645741 -59.440487 
L 80.283471 -59.598422 
L 82.9212 -59.763847 
L 85.55893 -59.936761 
L 88.196659 -60.117165 
L 90.834389 -60.305058 
L 93.472118 -60.500441 
L 96.109848 -60.703312 
L 98.747577 -60.913673 
L 101.385307 -61.131524 
L 104.023037 -61.356864 
L 106.660766 -61.589693 
L 109.298496 -61.830011 
L 111.936225 -62.077819 
L 114.573955 -62.333117 
L 117.211684 -62.595903 
L 119.849414 -62.866179 
L 122.487144 -63.143945 
L 125.124873 -63.429199 
L 127.762603 -63.721944 
L 130.400332 -64.022177 
L 133.038062 -64.3299 
L 135.675791 -64.645112 
L 138.313521 -64.967813 
L 140.951251 -65.218458 
L 143.58898 -65.415986 
L 146.22671 -65.579362 
L 148.864439 -65.744862 
L 151.502169 -65.912488 
L 154.139898 -66.082239 
L 156.777628 -66.254115 
L 159.415358 -66.428117 
L 162.053087 -66.604243 
L 164.690817 -66.782494 
L 167.328546 -66.962871 
L 169.966276 -67.145372 
L 172.604005 -67.329999 
L 175.241735 -67.51675 
L 177.879465 -67.705745 
L 180.517194 -67.896753 
L 183.154924 -68.089886 
L 185.792653 -68.285143 
L 188.430383 -68.482526 
L 191.068112 -68.682033 
L 193.705842 -68.883665 
L 196.343572 -69.087422 
L 198.981301 -69.293303 
L 201.619031 -69.50131 
L 204.25676 -69.711441 
L 206.89449 -69.923697 
L 209.532219 -70.138078 
L 212.169949 -70.354584 
L 214.807678 -70.573214 
L 217.445408 -70.79397 
L 220.083138 -71.01685 
L 222.720867 -71.241855 
L 225.358597 -71.468985 
L 227.996326 -71.745234 
L 230.634056 -72.047051 
L 233.271785 -72.35182 
L 235.909515 -72.659541 
L 238.547245 -72.970213 
L 241.184974 -73.283836 
L 243.822704 -73.600412 
L 246.460433 -73.919939 
L 249.098163 -74.242417 
L 251.735892 -74.567848 
L 254.373622 -74.89623 
L 257.011352 -75.192465 
L 259.649081 -75.422416 
L 262.286811 -75.65429 
L 264.92454 -75.888086 
L 267.56227 -76.123804 
L 270.199999 -76.361444 
L 272.837729 -76.601006 
L 275.475459 -76.84249 
L 278.113188 -77.085897 
L 280.750918 -77.331225 
L 283.388647 -77.578476 
L 286.026377 -77.827649 
L 288.664106 -78.078744 
L 291.301836 -78.331761 
L 293.939566 -78.5867 
L 296.577295 -78.843562 
L 299.215025 -79.102345 
L 301.852754 -79.363051 
L 304.490484 -79.625678 
L 307.128213 -79.890228 
L 309.765943 -80.1567 
L 312.403673 -80.425095 
L 315.041402 -80.695411 
L 317.679132 -80.967649 
L 320.316861 -81.24181 
L 322.954591 -81.517893 
L 325.59232 -81.776036 
L 328.23005 -82.009058 
L 330.867779 -82.242003 
L 333.505509 -82.474872 
L 336.143239 -82.707664 
L 336.143239 -89.366158 
L 336.143239 -89.366158 
L 333.505509 -88.910985 
L 330.867779 -88.45936 
L 328.23005 -88.011281 
L 325.59232 -87.566749 
L 322.954591 -87.125764 
L 320.316861 -86.688326 
L 317.679132 -86.254434 
L 315.041402 -85.824089 
L 312.403673 -85.397291 
L 309.765943 -84.97404 
L 307.128213 -84.554335 
L 304.490484 -84.138177 
L 301.852754 -83.725567 
L 299.215025 -83.316502 
L 296.577295 -82.910985 
L 293.939566 -82.509014 
L 291.301836 -82.110591 
L 288.664106 -81.715714 
L 286.026377 -81.324383 
L 283.388647 -80.9366 
L 280.750918 -80.552363 
L 278.113188 -80.171673 
L 275.475459 -79.79453 
L 272.837729 -79.420934 
L 270.199999 -79.050884 
L 267.56227 -78.684382 
L 264.92454 -78.321426 
L 262.286811 -77.962016 
L 259.649081 -77.606154 
L 257.011352 -77.253838 
L 254.373622 -76.905069 
L 251.735892 -76.559847 
L 249.098163 -76.218172 
L 246.460433 -75.880044 
L 243.822704 -75.545462 
L 241.184974 -75.214427 
L 238.547245 -74.886939 
L 235.909515 -74.562997 
L 233.271785 -74.242603 
L 230.634056 -73.925755 
L 227.996326 -73.613252 
L 225.358597 -73.303383 
L 222.720867 -72.997066 
L 220.083138 -72.694302 
L 217.445408 -72.395089 
L 214.807678 -72.09943 
L 212.169949 -71.807323 
L 209.532219 -71.518768 
L 206.89449 -71.248553 
L 204.25676 -71.009794 
L 201.619031 -70.807488 
L 198.981301 -70.619817 
L 196.343572 -70.434069 
L 193.705842 -70.250243 
L 191.068112 -70.068338 
L 188.430383 -69.888356 
L 185.792653 -69.710295 
L 183.154924 -69.534157 
L 180.517194 -69.35994 
L 177.879465 -69.187645 
L 175.241735 -69.017272 
L 172.604005 -68.848821 
L 169.966276 -68.682292 
L 167.328546 -68.517685 
L 164.690817 -68.355 
L 162.053087 -68.194237 
L 159.415358 -67.818967 
L 156.777628 -67.594066 
L 154.139898 -67.427589 
L 151.502169 -67.263434 
L 148.864439 -67.1016 
L 146.22671 -66.942087 
L 143.58898 -66.784896 
L 140.951251 -66.630026 
L 138.313521 -66.477478 
L 135.675791 -66.32725 
L 133.038062 -66.179344 
L 130.400332 -66.03376 
L 127.762603 -65.890497 
L 125.124873 -65.749555 
L 122.487144 -65.610934 
L 119.849414 -65.474635 
L 117.211684 -65.340657 
L 114.573955 -65.209 
L 111.936225 -65.079665 
L 109.298496 -64.952651 
L 106.660766 -64.827959 
L 104.023037 -64.705588 
L 101.385307 -64.585538 
L 98.747577 -64.467809 
L 96.109848 -64.352402 
L 93.472118 -64.239317 
L 90.834389 -64.128552 
L 88.196659 -64.020109 
L 85.55893 -63.913987 
L 82.9212 -63.810187 
L 80.283471 -63.708708 
L 77.645741 -63.60955 
L 75.008011 -63.512714 
z
" style="stroke: #ffffff; stroke-opacity: 0.15"/>
    </defs>
    <g clip-path="url(#p100bf13c30)">
     <use xlink:href="#m06c98c1720" x="0" y="252" style="fill: #889c9b; fill-opacity: 0.15; stroke: #ffffff; stroke-opacity: 0.15"/>
    </g>
   </g>
   <g id="line2d_15">
    <path d="M 75.008011 186.122424 
L 77.645741 184.813802 
L 80.283471 183.505228 
L 82.9212 182.1967 
L 85.55893 180.88822 
L 88.196659 179.579788 
L 90.834389 178.271402 
L 93.472118 176.963064 
L 96.109848 175.654773 
L 98.747577 174.34653 
L 101.385307 173.038334 
L 104.023037 171.730185 
L 106.660766 170.422083 
L 109.298496 169.114029 
L 111.936225 167.806022 
L 114.573955 166.498063 
L 117.211684 165.190151 
L 119.849414 163.882286 
L 122.487144 162.574468 
L 125.124873 161.266698 
L 127.762603 159.958975 
L 130.400332 158.651299 
L 133.038062 157.343671 
L 135.675791 156.03609 
L 138.313521 154.728557 
L 140.951251 153.42107 
L 143.58898 152.113631 
L 146.22671 150.80624 
L 148.864439 149.498895 
L 151.502169 148.191598 
L 154.139898 146.884348 
L 156.777628 145.577146 
L 159.415358 144.269991 
L 162.053087 142.962883 
L 164.690817 141.655823 
L 167.328546 140.348809 
L 169.966276 139.041844 
L 172.604005 137.734925 
L 175.241735 136.428054 
L 177.879465 135.12123 
L 180.517194 133.814454 
L 183.154924 132.507724 
L 185.792653 131.201042 
L 188.430383 129.894408 
L 191.068112 128.587821 
L 193.705842 127.281281 
L 196.343572 125.974788 
L 198.981301 124.668343 
L 201.619031 123.361945 
L 204.25676 122.055594 
L 206.89449 120.749291 
L 209.532219 119.443035 
L 212.169949 118.136826 
L 214.807678 116.830665 
L 217.445408 115.524551 
L 220.083138 114.218484 
L 222.720867 112.912464 
L 225.358597 111.606492 
L 227.996326 110.300567 
L 230.634056 108.99469 
L 233.271785 107.68886 
L 235.909515 106.383077 
L 238.547245 105.077342 
L 241.184974 103.771653 
L 243.822704 102.466012 
L 246.460433 101.160419 
L 249.098163 99.854873 
L 251.735892 98.549374 
L 254.373622 97.243922 
L 257.011352 95.938518 
L 259.649081 94.633161 
L 262.286811 93.327851 
L 264.92454 92.022589 
L 267.56227 90.717374 
L 270.199999 89.412206 
L 272.837729 88.107086 
L 275.475459 86.802013 
L 278.113188 85.496987 
L 280.750918 84.192009 
L 283.388647 82.887078 
L 286.026377 81.582194 
L 288.664106 80.277357 
L 291.301836 78.972568 
L 293.939566 77.667827 
L 296.577295 76.363132 
L 299.215025 75.058485 
L 301.852754 73.753885 
L 304.490484 72.449333 
L 307.128213 71.144827 
L 309.765943 69.840369 
L 312.403673 68.535959 
L 315.041402 67.231596 
L 317.679132 65.92728 
L 320.316861 64.623011 
L 322.954591 63.31879 
L 325.59232 62.014616 
L 328.23005 60.710489 
L 330.867779 59.40641 
L 333.505509 58.102378 
L 336.143239 56.798393 
" clip-path="url(#p100bf13c30)" style="fill: none; stroke: #731d1d; stroke-width: 2; stroke-linecap: round"/>
   </g>
   <g id="line2d_16">
    <path d="M 75.008011 187.702621 
L 77.645741 186.654785 
L 80.283471 185.606958 
L 82.9212 184.559142 
L 85.55893 183.511335 
L 88.196659 182.463539 
L 90.834389 181.415753 
L 93.472118 180.367977 
L 96.109848 179.320211 
L 98.747577 178.272455 
L 101.385307 177.224709 
L 104.023037 176.176974 
L 106.660766 175.129248 
L 109.298496 174.081533 
L 111.936225 173.033827 
L 114.573955 171.986132 
L 117.211684 170.938447 
L 119.849414 169.890772 
L 122.487144 168.843107 
L 125.124873 167.795452 
L 127.762603 166.747808 
L 130.400332 165.700173 
L 133.038062 164.652549 
L 135.675791 163.604934 
L 138.313521 162.55733 
L 140.951251 161.509736 
L 143.58898 160.462152 
L 146.22671 159.414578 
L 148.864439 158.367014 
L 151.502169 157.319461 
L 154.139898 156.271917 
L 156.777628 155.224384 
L 159.415358 154.17686 
L 162.053087 153.129347 
L 164.690817 152.081844 
L 167.328546 151.034351 
L 169.966276 149.986868 
L 172.604005 148.939395 
L 175.241735 147.891932 
L 177.879465 146.84448 
L 180.517194 145.797037 
L 183.154924 144.749605 
L 185.792653 143.702182 
L 188.430383 142.65477 
L 191.068112 141.607368 
L 193.705842 140.559976 
L 196.343572 139.512594 
L 198.981301 138.465222 
L 201.619031 137.417861 
L 204.25676 136.370509 
L 206.89449 135.323168 
L 209.532219 134.275836 
L 212.169949 133.228515 
L 214.807678 132.181204 
L 217.445408 131.133903 
L 220.083138 130.086612 
L 222.720867 129.039331 
L 225.358597 127.992061 
L 227.996326 126.9448 
L 230.634056 125.89755 
L 233.271785 124.850309 
L 235.909515 123.803079 
L 238.547245 122.755859 
L 241.184974 121.708649 
L 243.822704 120.661449 
L 246.460433 119.614259 
L 249.098163 118.567079 
L 251.735892 117.51991 
L 254.373622 116.47275 
L 257.011352 115.425601 
L 259.649081 114.378461 
L 262.286811 113.331332 
L 264.92454 112.284213 
L 267.56227 111.237104 
L 270.199999 110.190005 
L 272.837729 109.142916 
L 275.475459 108.095838 
L 278.113188 107.048769 
L 280.750918 106.001711 
L 283.388647 104.954662 
L 286.026377 103.907624 
L 288.664106 102.860596 
L 291.301836 101.813578 
L 293.939566 100.76657 
L 296.577295 99.719572 
L 299.215025 98.672585 
L 301.852754 97.625607 
L 304.490484 96.57864 
L 307.128213 95.531682 
L 309.765943 94.484735 
L 312.403673 93.437798 
L 315.041402 92.390871 
L 317.679132 91.343954 
L 320.316861 90.297047 
L 322.954591 89.25015 
L 325.59232 88.203264 
L 328.23005 87.156387 
L 330.867779 86.109521 
L 333.505509 85.062664 
L 336.143239 84.015818 
" clip-path="url(#p100bf13c30)" style="fill: none; stroke: #735340; stroke-width: 2; stroke-linecap: round"/>
   </g>
   <g id="line2d_17">
    <path d="M 75.008011 189.315013 
L 77.645741 188.527513 
L 80.283471 187.74001 
L 82.9212 186.952505 
L 85.55893 186.164998 
L 88.196659 185.377488 
L 90.834389 184.589977 
L 93.472118 183.802463 
L 96.109848 183.014948 
L 98.747577 182.22743 
L 101.385307 181.43991 
L 104.023037 180.652387 
L 106.660766 179.864863 
L 109.298496 179.077336 
L 111.936225 178.289807 
L 114.573955 177.502276 
L 117.211684 176.714743 
L 119.849414 175.927208 
L 122.487144 175.13967 
L 125.124873 174.352131 
L 127.762603 173.564589 
L 130.400332 172.777045 
L 133.038062 171.989499 
L 135.675791 171.201951 
L 138.313521 170.4144 
L 140.951251 169.626848 
L 143.58898 168.839293 
L 146.22671 168.051736 
L 148.864439 167.264177 
L 151.502169 166.476615 
L 154.139898 165.689052 
L 156.777628 164.901486 
L 159.415358 164.113918 
L 162.053087 163.326348 
L 164.690817 162.538776 
L 167.328546 161.751202 
L 169.966276 160.963626 
L 172.604005 160.176047 
L 175.241735 159.388466 
L 177.879465 158.600883 
L 180.517194 157.813298 
L 183.154924 157.025711 
L 185.792653 156.238121 
L 188.430383 155.45053 
L 191.068112 154.662936 
L 193.705842 153.87534 
L 196.343572 153.087742 
L 198.981301 152.300141 
L 201.619031 151.512539 
L 204.25676 150.724934 
L 206.89449 149.937328 
L 209.532219 149.149719 
L 212.169949 148.362107 
L 214.807678 147.574494 
L 217.445408 146.786879 
L 220.083138 145.999261 
L 222.720867 145.211641 
L 225.358597 144.424019 
L 227.996326 143.636395 
L 230.634056 142.848769 
L 233.271785 142.06114 
L 235.909515 141.27351 
L 238.547245 140.485877 
L 241.184974 139.698242 
L 243.822704 138.910605 
L 246.460433 138.122965 
L 249.098163 137.335324 
L 251.735892 136.54768 
L 254.373622 135.760035 
L 257.011352 134.972387 
L 259.649081 134.184736 
L 262.286811 133.397084 
L 264.92454 132.60943 
L 267.56227 131.821773 
L 270.199999 131.034114 
L 272.837729 130.246453 
L 275.475459 129.45879 
L 278.113188 128.671125 
L 280.750918 127.883457 
L 283.388647 127.095788 
L 286.026377 126.308116 
L 288.664106 125.520442 
L 291.301836 124.732766 
L 293.939566 123.945087 
L 296.577295 123.157407 
L 299.215025 122.369724 
L 301.852754 121.58204 
L 304.490484 120.794353 
L 307.128213 120.006663 
L 309.765943 119.218972 
L 312.403673 118.431279 
L 315.041402 117.643583 
L 317.679132 116.855885 
L 320.316861 116.068185 
L 322.954591 115.280483 
L 325.59232 114.492779 
L 328.23005 113.705072 
L 330.867779 112.917364 
L 333.505509 112.129653 
L 336.143239 111.34194 
" clip-path="url(#p100bf13c30)" style="fill: none; stroke: #d94436; stroke-width: 2; stroke-linecap: round"/>
   </g>
   <g id="line2d_18">
    <path d="M 75.008011 190.926218 
L 77.645741 190.396269 
L 80.283471 189.866337 
L 82.9212 189.336421 
L 85.55893 188.806521 
L 88.196659 188.276637 
L 90.834389 187.74677 
L 93.472118 187.216919 
L 96.109848 186.687084 
L 98.747577 186.157266 
L 101.385307 185.627464 
L 104.023037 185.097678 
L 106.660766 184.567909 
L 109.298496 184.038156 
L 111.936225 183.508419 
L 114.573955 182.978699 
L 117.211684 182.448995 
L 119.849414 181.919307 
L 122.487144 181.389636 
L 125.124873 180.859981 
L 127.762603 180.330342 
L 130.400332 179.80072 
L 133.038062 179.271114 
L 135.675791 178.741524 
L 138.313521 178.211951 
L 140.951251 177.682394 
L 143.58898 177.152853 
L 146.22671 176.623328 
L 148.864439 176.09382 
L 151.502169 175.564329 
L 154.139898 175.034853 
L 156.777628 174.505394 
L 159.415358 173.975951 
L 162.053087 173.446525 
L 164.690817 172.917115 
L 167.328546 172.387721 
L 169.966276 171.858344 
L 172.604005 171.328983 
L 175.241735 170.799638 
L 177.879465 170.27031 
L 180.517194 169.740997 
L 183.154924 169.211702 
L 185.792653 168.682422 
L 188.430383 168.153159 
L 191.068112 167.623912 
L 193.705842 167.094682 
L 196.343572 166.565468 
L 198.981301 166.03627 
L 201.619031 165.507089 
L 204.25676 164.977923 
L 206.89449 164.448775 
L 209.532219 163.919642 
L 212.169949 163.390526 
L 214.807678 162.861426 
L 217.445408 162.332343 
L 220.083138 161.803276 
L 222.720867 161.274225 
L 225.358597 160.74519 
L 227.996326 160.216172 
L 230.634056 159.68717 
L 233.271785 159.158185 
L 235.909515 158.629216 
L 238.547245 158.100263 
L 241.184974 157.571326 
L 243.822704 157.042406 
L 246.460433 156.513502 
L 249.098163 155.984615 
L 251.735892 155.455744 
L 254.373622 154.926889 
L 257.011352 154.39805 
L 259.649081 153.869228 
L 262.286811 153.340422 
L 264.92454 152.811633 
L 267.56227 152.282859 
L 270.199999 151.754102 
L 272.837729 151.225362 
L 275.475459 150.696638 
L 278.113188 150.16793 
L 280.750918 149.639238 
L 283.388647 149.110563 
L 286.026377 148.581904 
L 288.664106 148.053262 
L 291.301836 147.524635 
L 293.939566 146.996025 
L 296.577295 146.467432 
L 299.215025 145.938854 
L 301.852754 145.410294 
L 304.490484 144.881749 
L 307.128213 144.353221 
L 309.765943 143.824709 
L 312.403673 143.296213 
L 315.041402 142.767734 
L 317.679132 142.239271 
L 320.316861 141.710824 
L 322.954591 141.182394 
L 325.59232 140.65398 
L 328.23005 140.125582 
L 330.867779 139.597201 
L 333.505509 139.068836 
L 336.143239 138.540488 
" clip-path="url(#p100bf13c30)" style="fill: none; stroke: #f26444; stroke-width: 2; stroke-linecap: round"/>
   </g>
   <g id="line2d_19">
    <path d="M 75.008011 192.501605 
L 77.645741 192.230213 
L 80.283471 191.958831 
L 82.9212 191.687462 
L 85.55893 191.416104 
L 88.196659 191.144757 
L 90.834389 190.873423 
L 93.472118 190.602099 
L 96.109848 190.330787 
L 98.747577 190.059487 
L 101.385307 189.788198 
L 104.023037 189.516921 
L 106.660766 189.245655 
L 109.298496 188.974401 
L 111.936225 188.703158 
L 114.573955 188.431927 
L 117.211684 188.160708 
L 119.849414 187.8895 
L 122.487144 187.618303 
L 125.124873 187.347118 
L 127.762603 187.075945 
L 130.400332 186.804783 
L 133.038062 186.533632 
L 135.675791 186.262494 
L 138.313521 185.991366 
L 140.951251 185.720251 
L 143.58898 185.449146 
L 146.22671 185.178054 
L 148.864439 184.906972 
L 151.502169 184.635903 
L 154.139898 184.364845 
L 156.777628 184.093798 
L 159.415358 183.822763 
L 162.053087 183.55174 
L 164.690817 183.280728 
L 167.328546 183.009727 
L 169.966276 182.738739 
L 172.604005 182.467761 
L 175.241735 182.196795 
L 177.879465 181.925841 
L 180.517194 181.654898 
L 183.154924 181.383967 
L 185.792653 181.113048 
L 188.430383 180.84214 
L 191.068112 180.571243 
L 193.705842 180.300358 
L 196.343572 180.029484 
L 198.981301 179.758622 
L 201.619031 179.487772 
L 204.25676 179.216933 
L 206.89449 178.946106 
L 209.532219 178.67529 
L 212.169949 178.404486 
L 214.807678 178.133693 
L 217.445408 177.862912 
L 220.083138 177.592142 
L 222.720867 177.321384 
L 225.358597 177.050637 
L 227.996326 176.779902 
L 230.634056 176.509179 
L 233.271785 176.238467 
L 235.909515 175.967766 
L 238.547245 175.697077 
L 241.184974 175.4264 
L 243.822704 175.155734 
L 246.460433 174.88508 
L 249.098163 174.614437 
L 251.735892 174.343806 
L 254.373622 174.073186 
L 257.011352 173.802578 
L 259.649081 173.531981 
L 262.286811 173.261396 
L 264.92454 172.990822 
L 267.56227 172.72026 
L 270.199999 172.44971 
L 272.837729 172.179171 
L 275.475459 171.908643 
L 278.113188 171.638127 
L 280.750918 171.367623 
L 283.388647 171.09713 
L 286.026377 170.826649 
L 288.664106 170.556179 
L 291.301836 170.285721 
L 293.939566 170.015274 
L 296.577295 169.744839 
L 299.215025 169.474416 
L 301.852754 169.204004 
L 304.490484 168.933603 
L 307.128213 168.663214 
L 309.765943 168.392837 
L 312.403673 168.122471 
L 315.041402 167.852116 
L 317.679132 167.581773 
L 320.316861 167.311442 
L 322.954591 167.041122 
L 325.59232 166.770814 
L 328.23005 166.500517 
L 330.867779 166.230232 
L 333.505509 165.959958 
L 336.143239 165.689696 
" clip-path="url(#p100bf13c30)" style="fill: none; stroke: #d9ab9a; stroke-width: 2; stroke-linecap: round"/>
   </g>
   <g id="line2d_20">
    <path d="M 75.008011 192.704279 
L 77.645741 192.465809 
L 80.283471 192.227334 
L 82.9212 191.988855 
L 85.55893 191.750371 
L 88.196659 191.511883 
L 90.834389 191.273391 
L 93.472118 191.034894 
L 96.109848 190.796393 
L 98.747577 190.557887 
L 101.385307 190.319377 
L 104.023037 190.080863 
L 106.660766 189.842344 
L 109.298496 189.60382 
L 111.936225 189.365293 
L 114.573955 189.12676 
L 117.211684 188.888224 
L 119.849414 188.649683 
L 122.487144 188.411138 
L 125.124873 188.172588 
L 127.762603 187.934034 
L 130.400332 187.695475 
L 133.038062 187.456912 
L 135.675791 187.218344 
L 138.313521 186.979773 
L 140.951251 186.741196 
L 143.58898 186.502616 
L 146.22671 186.264031 
L 148.864439 186.025441 
L 151.502169 185.786847 
L 154.139898 185.548249 
L 156.777628 185.309646 
L 159.415358 185.071039 
L 162.053087 184.832427 
L 164.690817 184.593811 
L 167.328546 184.355191 
L 169.966276 184.116566 
L 172.604005 183.877937 
L 175.241735 183.639303 
L 177.879465 183.400665 
L 180.517194 183.162023 
L 183.154924 182.923376 
L 185.792653 182.684725 
L 188.430383 182.446069 
L 191.068112 182.207409 
L 193.705842 181.968744 
L 196.343572 181.730075 
L 198.981301 181.491402 
L 201.619031 181.252724 
L 204.25676 181.014042 
L 206.89449 180.775356 
L 209.532219 180.536665 
L 212.169949 180.297969 
L 214.807678 180.059269 
L 217.445408 179.820565 
L 220.083138 179.581856 
L 222.720867 179.343143 
L 225.358597 179.104426 
L 227.996326 178.865704 
L 230.634056 178.626978 
L 233.271785 178.388247 
L 235.909515 178.149512 
L 238.547245 177.910772 
L 241.184974 177.672028 
L 243.822704 177.43328 
L 246.460433 177.194527 
L 249.098163 176.95577 
L 251.735892 176.717008 
L 254.373622 176.478242 
L 257.011352 176.239472 
L 259.649081 176.000697 
L 262.286811 175.761918 
L 264.92454 175.523134 
L 267.56227 175.284346 
L 270.199999 175.045554 
L 272.837729 174.806757 
L 275.475459 174.567955 
L 278.113188 174.32915 
L 280.750918 174.09034 
L 283.388647 173.851525 
L 286.026377 173.612706 
L 288.664106 173.373883 
L 291.301836 173.135055 
L 293.939566 172.896223 
L 296.577295 172.657386 
L 299.215025 172.418545 
L 301.852754 172.1797 
L 304.490484 171.94085 
L 307.128213 171.701996 
L 309.765943 171.463137 
L 312.403673 171.224274 
L 315.041402 170.985406 
L 317.679132 170.746534 
L 320.316861 170.507658 
L 322.954591 170.268777 
L 325.59232 170.029892 
L 328.23005 169.791003 
L 330.867779 169.552109 
L 333.505509 169.31321 
L 336.143239 169.074307 
" clip-path="url(#p100bf13c30)" style="fill: none; stroke: #889c9b; stroke-width: 2; stroke-linecap: round"/>
   </g>
   <g id="patch_3">
    <path d="M 61.95125 201.4 
L 61.95125 11.912156 
" style="fill: none; stroke: #cccccc; stroke-width: 0.8; stroke-linejoin: miter; stroke-linecap: square"/>
   </g>
   <g id="patch_4">
    <path d="M 349.2 201.4 
L 349.2 11.912156 
" style="fill: none; stroke: #cccccc; stroke-width: 0.8; stroke-linejoin: miter; stroke-linecap: square"/>
   </g>
   <g id="patch_5">
    <path d="M 61.95125 201.4 
L 349.2 201.4 
" style="fill: none; stroke: #cccccc; stroke-width: 0.8; stroke-linejoin: miter; stroke-linecap: square"/>
   </g>
   <g id="patch_6">
    <path d="M 61.95125 11.912156 
L 349.2 11.912156 
" style="fill: none; stroke: #cccccc; stroke-width: 0.8; stroke-linejoin: miter; stroke-linecap: square"/>
   </g>
   <g id="legend_1">
    <g id="patch_7">
     <path d="M 70.35125 123.313406 
L 143.42 123.313406 
Q 145.82 123.313406 145.82 120.913406 
L 145.82 20.312156 
Q 145.82 17.912156 143.42 17.912156 
L 70.35125 17.912156 
Q 67.95125 17.912156 67.95125 20.312156 
L 67.95125 120.913406 
Q 67.95125 123.313406 70.35125 123.313406 
z
" style="fill: #ffffff; opacity: 0.8; stroke: #cccccc; stroke-linejoin: miter"/>
    </g>
    <g id="PathCollection_7">
     <g>
      <use xlink:href="#m8fce81e0f1" x="84.75125" y="27.962156" style="fill: #731d1d; fill-opacity: 0.8; stroke: #731d1d; stroke-opacity: 0.8"/>
     </g>
    </g>
    <g id="text_17">
     <!-- PDE45 -->
     <g style="fill: #262626" transform="translate(106.35125 31.112156) scale(0.12 -0.12)">
      <defs>
       <path id="TimesNewRomanPSMT-50" d="M 1313 1984 
L 1313 750 
Q 1313 350 1400 253 
Q 1519 116 1759 116 
L 1922 116 
L 1922 0 
L 106 0 
L 106 116 
L 266 116 
Q 534 116 650 291 
Q 713 388 713 750 
L 713 3488 
Q 713 3888 628 3984 
Q 506 4122 266 4122 
L 106 4122 
L 106 4238 
L 1659 4238 
Q 2228 4238 2556 4120 
Q 2884 4003 3109 3725 
Q 3334 3447 3334 3066 
Q 3334 2547 2992 2222 
Q 2650 1897 2025 1897 
Q 1872 1897 1694 1919 
Q 1516 1941 1313 1984 
z
M 1313 2163 
Q 1478 2131 1606 2115 
Q 1734 2100 1825 2100 
Q 2150 2100 2386 2351 
Q 2622 2603 2622 3003 
Q 2622 3278 2509 3514 
Q 2397 3750 2190 3867 
Q 1984 3984 1722 3984 
Q 1563 3984 1313 3925 
L 1313 2163 
z
" transform="scale(0.015625)"/>
       <path id="TimesNewRomanPSMT-44" d="M 109 0 
L 109 116 
L 269 116 
Q 538 116 650 288 
Q 719 391 719 750 
L 719 3488 
Q 719 3884 631 3984 
Q 509 4122 269 4122 
L 109 4122 
L 109 4238 
L 1834 4238 
Q 2784 4238 3279 4022 
Q 3775 3806 4076 3303 
Q 4378 2800 4378 2141 
Q 4378 1256 3841 663 
Q 3238 0 2003 0 
L 109 0 
z
M 1319 306 
Q 1716 219 1984 219 
Q 2709 219 3187 728 
Q 3666 1238 3666 2109 
Q 3666 2988 3187 3494 
Q 2709 4000 1959 4000 
Q 1678 4000 1319 3909 
L 1319 306 
z
" transform="scale(0.015625)"/>
       <path id="TimesNewRomanPSMT-45" d="M 1338 4006 
L 1338 2331 
L 2269 2331 
Q 2631 2331 2753 2441 
Q 2916 2584 2934 2947 
L 3050 2947 
L 3050 1472 
L 2934 1472 
Q 2891 1781 2847 1869 
Q 2791 1978 2662 2040 
Q 2534 2103 2269 2103 
L 1338 2103 
L 1338 706 
Q 1338 425 1363 364 
Q 1388 303 1450 267 
Q 1513 231 1688 231 
L 2406 231 
Q 2766 231 2928 281 
Q 3091 331 3241 478 
Q 3434 672 3638 1063 
L 3763 1063 
L 3397 0 
L 131 0 
L 131 116 
L 281 116 
Q 431 116 566 188 
Q 666 238 702 338 
Q 738 438 738 747 
L 738 3500 
Q 738 3903 656 3997 
Q 544 4122 281 4122 
L 131 4122 
L 131 4238 
L 3397 4238 
L 3444 3309 
L 3322 3309 
Q 3256 3644 3176 3769 
Q 3097 3894 2941 3959 
Q 2816 4006 2500 4006 
L 1338 4006 
z
" transform="scale(0.015625)"/>
      </defs>
      <use xlink:href="#TimesNewRomanPSMT-50"/>
      <use xlink:href="#TimesNewRomanPSMT-44" x="55.615234"/>
      <use xlink:href="#TimesNewRomanPSMT-45" x="127.832031"/>
      <use xlink:href="#TimesNewRomanPSMT-34" x="188.916016"/>
      <use xlink:href="#TimesNewRomanPSMT-35" x="238.916016"/>
     </g>
    </g>
    <g id="PathCollection_8">
     <g>
      <use xlink:href="#m9b60986169" x="84.75125" y="44.929031" style="fill: #735340; fill-opacity: 0.8; stroke: #735340; stroke-opacity: 0.8"/>
     </g>
    </g>
    <g id="text_18">
     <!-- PDE35 -->
     <g style="fill: #262626" transform="translate(106.35125 48.079031) scale(0.12 -0.12)">
      <defs>
       <path id="TimesNewRomanPSMT-33" d="M 325 3431 
Q 506 3859 782 4092 
Q 1059 4325 1472 4325 
Q 1981 4325 2253 3994 
Q 2459 3747 2459 3466 
Q 2459 3003 1878 2509 
Q 2269 2356 2469 2072 
Q 2669 1788 2669 1403 
Q 2669 853 2319 450 
Q 1863 -75 997 -75 
Q 569 -75 414 31 
Q 259 138 259 259 
Q 259 350 332 419 
Q 406 488 509 488 
Q 588 488 669 463 
Q 722 447 909 348 
Q 1097 250 1169 231 
Q 1284 197 1416 197 
Q 1734 197 1970 444 
Q 2206 691 2206 1028 
Q 2206 1275 2097 1509 
Q 2016 1684 1919 1775 
Q 1784 1900 1550 2001 
Q 1316 2103 1072 2103 
L 972 2103 
L 972 2197 
Q 1219 2228 1467 2375 
Q 1716 2522 1828 2728 
Q 1941 2934 1941 3181 
Q 1941 3503 1739 3701 
Q 1538 3900 1238 3900 
Q 753 3900 428 3381 
L 325 3431 
z
" transform="scale(0.015625)"/>
      </defs>
      <use xlink:href="#TimesNewRomanPSMT-50"/>
      <use xlink:href="#TimesNewRomanPSMT-44" x="55.615234"/>
      <use xlink:href="#TimesNewRomanPSMT-45" x="127.832031"/>
      <use xlink:href="#TimesNewRomanPSMT-33" x="188.916016"/>
      <use xlink:href="#TimesNewRomanPSMT-35" x="238.916016"/>
     </g>
    </g>
    <g id="PathCollection_9">
     <g>
      <use xlink:href="#m1fdb8f0896" x="84.75125" y="61.895906" style="fill: #d94436; fill-opacity: 0.8; stroke: #d94436; stroke-opacity: 0.8"/>
     </g>
    </g>
    <g id="text_19">
     <!-- PDE25 -->
     <g style="fill: #262626" transform="translate(106.35125 65.045906) scale(0.12 -0.12)">
      <use xlink:href="#TimesNewRomanPSMT-50"/>
      <use xlink:href="#TimesNewRomanPSMT-44" x="55.615234"/>
      <use xlink:href="#TimesNewRomanPSMT-45" x="127.832031"/>
      <use xlink:href="#TimesNewRomanPSMT-32" x="188.916016"/>
      <use xlink:href="#TimesNewRomanPSMT-35" x="238.916016"/>
     </g>
    </g>
    <g id="PathCollection_10">
     <g>
      <use xlink:href="#m9271daf08c" x="84.75125" y="78.862781" style="fill: #f26444; fill-opacity: 0.8; stroke: #f26444; stroke-opacity: 0.8"/>
     </g>
    </g>
    <g id="text_20">
     <!-- PDE15 -->
     <g style="fill: #262626" transform="translate(106.35125 82.012781) scale(0.12 -0.12)">
      <use xlink:href="#TimesNewRomanPSMT-50"/>
      <use xlink:href="#TimesNewRomanPSMT-44" x="55.615234"/>
      <use xlink:href="#TimesNewRomanPSMT-45" x="127.832031"/>
      <use xlink:href="#TimesNewRomanPSMT-31" x="188.916016"/>
      <use xlink:href="#TimesNewRomanPSMT-35" x="238.916016"/>
     </g>
    </g>
    <g id="PathCollection_11">
     <g>
      <use xlink:href="#m1631a73407" x="84.75125" y="95.829656" style="fill: #d9ab9a; fill-opacity: 0.8; stroke: #d9ab9a; stroke-opacity: 0.8"/>
     </g>
    </g>
    <g id="text_21">
     <!-- PDE5 -->
     <g style="fill: #262626" transform="translate(106.35125 98.979656) scale(0.12 -0.12)">
      <use xlink:href="#TimesNewRomanPSMT-50"/>
      <use xlink:href="#TimesNewRomanPSMT-44" x="55.615234"/>
      <use xlink:href="#TimesNewRomanPSMT-45" x="127.832031"/>
      <use xlink:href="#TimesNewRomanPSMT-35" x="188.916016"/>
     </g>
    </g>
    <g id="PathCollection_12">
     <g>
      <use xlink:href="#ma8f80dea57" x="84.75125" y="112.796531" style="fill: #889c9b; fill-opacity: 0.8; stroke: #889c9b; stroke-opacity: 0.8"/>
     </g>
    </g>
    <g id="text_22">
     <!-- NE -->
     <g style="fill: #262626" transform="translate(106.35125 115.946531) scale(0.12 -0.12)">
      <defs>
       <path id="TimesNewRomanPSMT-4e" d="M -84 4238 
L 1066 4238 
L 3656 1059 
L 3656 3503 
Q 3656 3894 3569 3991 
Q 3453 4122 3203 4122 
L 3056 4122 
L 3056 4238 
L 4531 4238 
L 4531 4122 
L 4381 4122 
Q 4113 4122 4000 3959 
Q 3931 3859 3931 3503 
L 3931 -69 
L 3819 -69 
L 1025 3344 
L 1025 734 
Q 1025 344 1109 247 
Q 1228 116 1475 116 
L 1625 116 
L 1625 0 
L 150 0 
L 150 116 
L 297 116 
Q 569 116 681 278 
Q 750 378 750 734 
L 750 3681 
Q 566 3897 470 3965 
Q 375 4034 191 4094 
Q 100 4122 -84 4122 
L -84 4238 
z
" transform="scale(0.015625)"/>
      </defs>
      <use xlink:href="#TimesNewRomanPSMT-4e"/>
      <use xlink:href="#TimesNewRomanPSMT-45" x="72.216797"/>
     </g>
    </g>
   </g>
  </g>
 </g>
 <defs>
  <clipPath id="p100bf13c30">
   <rect x="61.95125" y="11.912156" width="287.24875" height="189.487844"/>
  </clipPath>
 </defs>
</svg>
