<?xml version="1.0" encoding="utf-8" standalone="no"?>
<!DOCTYPE svg PUBLIC "-//W3C//DTD SVG 1.1//EN"
  "http://www.w3.org/Graphics/SVG/1.1/DTD/svg11.dtd">
<svg xmlns:xlink="http://www.w3.org/1999/xlink" width="360pt" height="252pt" viewBox="0 0 360 252" xmlns="http://www.w3.org/2000/svg" version="1.1">
 <metadata>
  <rdf:RDF xmlns:dc="http://purl.org/dc/elements/1.1/" xmlns:cc="http://creativecommons.org/ns#" xmlns:rdf="http://www.w3.org/1999/02/22-rdf-syntax-ns#">
   <cc:Work>
    <dc:type rdf:resource="http://purl.org/dc/dcmitype/StillImage"/>
    <dc:date>2024-06-11T19:46:17.194938</dc:date>
    <dc:format>image/svg+xml</dc:format>
    <dc:creator>
     <cc:Agent>
      <dc:title>Matplotlib v3.8.4, https://matplotlib.org/</dc:title>
     </cc:Agent>
    </dc:creator>
   </cc:Work>
  </rdf:RDF>
 </metadata>
 <defs>
  <style type="text/css">*{stroke-linejoin: round; stroke-linecap: butt}</style>
 </defs>
 <g id="figure_1">
  <g id="patch_1">
   <path d="M 0 252 
L 360 252 
L 360 0 
L 0 0 
z
" style="fill: #ffffff"/>
  </g>
  <g id="axes_1">
   <g id="patch_2">
    <path d="M 76.89125 201.4 
L 349.2 201.4 
L 349.2 10.8 
L 76.89125 10.8 
z
" style="fill: #ffffff"/>
   </g>
   <g id="matplotlib.axis_1">
    <g id="xtick_1">
     <g id="line2d_1">
      <path d="M 89.26892 201.4 
L 89.26892 10.8 
" clip-path="url(#pce0a8fead0)" style="fill: none; stroke: #cccccc; stroke-width: 0.8; stroke-linecap: round"/>
     </g>
     <g id="text_1">
      <!-- 50 -->
      <g style="fill: #262626" transform="translate(81.76892 218.815625) scale(0.15 -0.15)">
       <defs>
        <path id="TimesNewRomanPSMT-35" d="M 2778 4238 
L 2534 3706 
L 1259 3706 
L 981 3138 
Q 1809 3016 2294 2522 
Q 2709 2097 2709 1522 
Q 2709 1188 2573 903 
Q 2438 619 2231 419 
Q 2025 219 1772 97 
Q 1413 -75 1034 -75 
Q 653 -75 479 54 
Q 306 184 306 341 
Q 306 428 378 495 
Q 450 563 559 563 
Q 641 563 702 538 
Q 763 513 909 409 
Q 1144 247 1384 247 
Q 1750 247 2026 523 
Q 2303 800 2303 1197 
Q 2303 1581 2056 1914 
Q 1809 2247 1375 2428 
Q 1034 2569 447 2591 
L 1259 4238 
L 2778 4238 
z
" transform="scale(0.015625)"/>
        <path id="TimesNewRomanPSMT-30" d="M 231 2094 
Q 231 2819 450 3342 
Q 669 3866 1031 4122 
Q 1313 4325 1613 4325 
Q 2100 4325 2488 3828 
Q 2972 3213 2972 2159 
Q 2972 1422 2759 906 
Q 2547 391 2217 158 
Q 1888 -75 1581 -75 
Q 975 -75 572 641 
Q 231 1244 231 2094 
z
M 844 2016 
Q 844 1141 1059 588 
Q 1238 122 1591 122 
Q 1759 122 1940 273 
Q 2122 425 2216 781 
Q 2359 1319 2359 2297 
Q 2359 3022 2209 3506 
Q 2097 3866 1919 4016 
Q 1791 4119 1609 4119 
Q 1397 4119 1231 3928 
Q 1006 3669 925 3112 
Q 844 2556 844 2016 
z
" transform="scale(0.015625)"/>
       </defs>
       <use xlink:href="#TimesNewRomanPSMT-35"/>
       <use xlink:href="#TimesNewRomanPSMT-30" x="50"/>
      </g>
     </g>
    </g>
    <g id="xtick_2">
     <g id="line2d_2">
      <path d="M 151.157273 201.4 
L 151.157273 10.8 
" clip-path="url(#pce0a8fead0)" style="fill: none; stroke: #cccccc; stroke-width: 0.8; stroke-linecap: round"/>
     </g>
     <g id="text_2">
      <!-- 250 -->
      <g style="fill: #262626" transform="translate(139.907273 218.815625) scale(0.15 -0.15)">
       <defs>
        <path id="TimesNewRomanPSMT-32" d="M 2934 816 
L 2638 0 
L 138 0 
L 138 116 
Q 1241 1122 1691 1759 
Q 2141 2397 2141 2925 
Q 2141 3328 1894 3587 
Q 1647 3847 1303 3847 
Q 991 3847 742 3664 
Q 494 3481 375 3128 
L 259 3128 
Q 338 3706 661 4015 
Q 984 4325 1469 4325 
Q 1984 4325 2329 3994 
Q 2675 3663 2675 3213 
Q 2675 2891 2525 2569 
Q 2294 2063 1775 1497 
Q 997 647 803 472 
L 1909 472 
Q 2247 472 2383 497 
Q 2519 522 2628 598 
Q 2738 675 2819 816 
L 2934 816 
z
" transform="scale(0.015625)"/>
       </defs>
       <use xlink:href="#TimesNewRomanPSMT-32"/>
       <use xlink:href="#TimesNewRomanPSMT-35" x="50"/>
       <use xlink:href="#TimesNewRomanPSMT-30" x="100"/>
      </g>
     </g>
    </g>
    <g id="xtick_3">
     <g id="line2d_3">
      <path d="M 213.045625 201.4 
L 213.045625 10.8 
" clip-path="url(#pce0a8fead0)" style="fill: none; stroke: #cccccc; stroke-width: 0.8; stroke-linecap: round"/>
     </g>
     <g id="text_3">
      <!-- 450 -->
      <g style="fill: #262626" transform="translate(201.795625 218.815625) scale(0.15 -0.15)">
       <defs>
        <path id="TimesNewRomanPSMT-34" d="M 2978 1563 
L 2978 1119 
L 2409 1119 
L 2409 0 
L 1894 0 
L 1894 1119 
L 100 1119 
L 100 1519 
L 2066 4325 
L 2409 4325 
L 2409 1563 
L 2978 1563 
z
M 1894 1563 
L 1894 3666 
L 406 1563 
L 1894 1563 
z
" transform="scale(0.015625)"/>
       </defs>
       <use xlink:href="#TimesNewRomanPSMT-34"/>
       <use xlink:href="#TimesNewRomanPSMT-35" x="50"/>
       <use xlink:href="#TimesNewRomanPSMT-30" x="100"/>
      </g>
     </g>
    </g>
    <g id="xtick_4">
     <g id="line2d_4">
      <path d="M 274.933977 201.4 
L 274.933977 10.8 
" clip-path="url(#pce0a8fead0)" style="fill: none; stroke: #cccccc; stroke-width: 0.8; stroke-linecap: round"/>
     </g>
     <g id="text_4">
      <!-- 650 -->
      <g style="fill: #262626" transform="translate(263.683977 218.815625) scale(0.15 -0.15)">
       <defs>
        <path id="TimesNewRomanPSMT-36" d="M 2869 4325 
L 2869 4209 
Q 2456 4169 2195 4045 
Q 1934 3922 1679 3669 
Q 1425 3416 1258 3105 
Q 1091 2794 978 2366 
Q 1428 2675 1881 2675 
Q 2316 2675 2634 2325 
Q 2953 1975 2953 1425 
Q 2953 894 2631 456 
Q 2244 -75 1606 -75 
Q 1172 -75 869 213 
Q 275 772 275 1663 
Q 275 2231 503 2743 
Q 731 3256 1154 3653 
Q 1578 4050 1965 4187 
Q 2353 4325 2688 4325 
L 2869 4325 
z
M 925 2138 
Q 869 1716 869 1456 
Q 869 1156 980 804 
Q 1091 453 1309 247 
Q 1469 100 1697 100 
Q 1969 100 2183 356 
Q 2397 613 2397 1088 
Q 2397 1622 2184 2012 
Q 1972 2403 1581 2403 
Q 1463 2403 1327 2353 
Q 1191 2303 925 2138 
z
" transform="scale(0.015625)"/>
       </defs>
       <use xlink:href="#TimesNewRomanPSMT-36"/>
       <use xlink:href="#TimesNewRomanPSMT-35" x="50"/>
       <use xlink:href="#TimesNewRomanPSMT-30" x="100"/>
      </g>
     </g>
    </g>
    <g id="xtick_5">
     <g id="line2d_5">
      <path d="M 336.82233 201.4 
L 336.82233 10.8 
" clip-path="url(#pce0a8fead0)" style="fill: none; stroke: #cccccc; stroke-width: 0.8; stroke-linecap: round"/>
     </g>
     <g id="text_5">
      <!-- 850 -->
      <g style="fill: #262626" transform="translate(325.57233 218.815625) scale(0.15 -0.15)">
       <defs>
        <path id="TimesNewRomanPSMT-38" d="M 1228 2134 
Q 725 2547 579 2797 
Q 434 3047 434 3316 
Q 434 3728 753 4026 
Q 1072 4325 1600 4325 
Q 2113 4325 2425 4047 
Q 2738 3769 2738 3413 
Q 2738 3175 2569 2928 
Q 2400 2681 1866 2347 
Q 2416 1922 2594 1678 
Q 2831 1359 2831 1006 
Q 2831 559 2490 242 
Q 2150 -75 1597 -75 
Q 994 -75 656 303 
Q 388 606 388 966 
Q 388 1247 577 1523 
Q 766 1800 1228 2134 
z
M 1719 2469 
Q 2094 2806 2194 3001 
Q 2294 3197 2294 3444 
Q 2294 3772 2109 3958 
Q 1925 4144 1606 4144 
Q 1288 4144 1088 3959 
Q 888 3775 888 3528 
Q 888 3366 970 3203 
Q 1053 3041 1206 2894 
L 1719 2469 
z
M 1375 2016 
Q 1116 1797 991 1539 
Q 866 1281 866 981 
Q 866 578 1086 336 
Q 1306 94 1647 94 
Q 1984 94 2187 284 
Q 2391 475 2391 747 
Q 2391 972 2272 1150 
Q 2050 1481 1375 2016 
z
" transform="scale(0.015625)"/>
       </defs>
       <use xlink:href="#TimesNewRomanPSMT-38"/>
       <use xlink:href="#TimesNewRomanPSMT-35" x="50"/>
       <use xlink:href="#TimesNewRomanPSMT-30" x="100"/>
      </g>
     </g>
    </g>
    <g id="text_6">
     <!-- Number of voters -->
     <g style="fill: #262626" transform="translate(153.200625 236.619219) scale(0.16 -0.16)">
      <defs>
       <path id="TimesNewRomanPS-BoldMT-4e" d="M 1594 4238 
L 3684 1609 
L 3684 3431 
Q 3684 3813 3575 3947 
Q 3425 4128 3072 4122 
L 3072 4238 
L 4472 4238 
L 4472 4122 
Q 4203 4088 4111 4033 
Q 4019 3978 3967 3854 
Q 3916 3731 3916 3431 
L 3916 -97 
L 3809 -97 
L 944 3431 
L 944 738 
Q 944 372 1111 244 
Q 1278 116 1494 116 
L 1594 116 
L 1594 0 
L 91 0 
L 91 116 
Q 441 119 578 259 
Q 716 400 716 738 
L 716 3728 
L 625 3841 
Q 491 4009 387 4062 
Q 284 4116 91 4122 
L 91 4238 
L 1594 4238 
z
" transform="scale(0.015625)"/>
       <path id="TimesNewRomanPS-BoldMT-75" d="M 3038 2922 
L 3038 634 
Q 3038 300 3100 217 
Q 3163 134 3353 113 
L 3353 0 
L 2163 0 
L 2163 391 
Q 1953 141 1743 26 
Q 1534 -88 1275 -88 
Q 1028 -88 836 64 
Q 644 216 578 419 
Q 513 622 513 1128 
L 513 2288 
Q 513 2619 452 2700 
Q 391 2781 197 2806 
L 197 2922 
L 1388 2922 
L 1388 925 
Q 1388 613 1417 522 
Q 1447 431 1511 384 
Q 1575 338 1659 338 
Q 1772 338 1863 397 
Q 1988 478 2163 725 
L 2163 2288 
Q 2163 2619 2102 2700 
Q 2041 2781 1847 2806 
L 1847 2922 
L 3038 2922 
z
" transform="scale(0.015625)"/>
       <path id="TimesNewRomanPS-BoldMT-6d" d="M 1428 2922 
L 1428 2538 
Q 1669 2800 1873 2904 
Q 2078 3009 2322 3009 
Q 2603 3009 2793 2878 
Q 2984 2747 3088 2478 
Q 3338 2759 3567 2884 
Q 3797 3009 4047 3009 
Q 4350 3009 4529 2870 
Q 4709 2731 4779 2517 
Q 4850 2303 4850 1834 
L 4850 638 
Q 4850 300 4911 219 
Q 4972 138 5166 113 
L 5166 0 
L 3656 0 
L 3656 113 
Q 3834 128 3919 250 
Q 3975 334 3975 638 
L 3975 1894 
Q 3975 2284 3944 2390 
Q 3913 2497 3845 2548 
Q 3778 2600 3688 2600 
Q 3553 2600 3415 2501 
Q 3278 2403 3138 2206 
L 3138 638 
Q 3138 322 3191 241 
Q 3263 125 3466 113 
L 3466 0 
L 1953 0 
L 1953 113 
Q 2075 119 2145 173 
Q 2216 228 2239 304 
Q 2263 381 2263 638 
L 2263 1894 
Q 2263 2291 2231 2391 
Q 2200 2491 2126 2547 
Q 2053 2603 1969 2603 
Q 1844 2603 1741 2538 
Q 1594 2441 1428 2206 
L 1428 638 
Q 1428 328 1489 229 
Q 1550 131 1744 113 
L 1744 0 
L 238 0 
L 238 113 
Q 422 131 500 231 
Q 553 300 553 638 
L 553 2288 
Q 553 2619 492 2700 
Q 431 2781 238 2806 
L 238 2922 
L 1428 2922 
z
" transform="scale(0.015625)"/>
       <path id="TimesNewRomanPS-BoldMT-62" d="M 1347 4238 
L 1347 2628 
Q 1716 3009 2153 3009 
Q 2453 3009 2718 2832 
Q 2984 2656 3134 2331 
Q 3284 2006 3284 1581 
Q 3284 1103 3093 712 
Q 2903 322 2584 117 
Q 2266 -88 1856 -88 
Q 1619 -88 1434 -12 
Q 1250 63 1072 231 
L 588 -84 
L 481 -84 
L 481 3631 
Q 481 3884 459 3944 
Q 428 4031 361 4073 
Q 294 4116 134 4122 
L 134 4238 
L 1347 4238 
z
M 1347 2350 
L 1347 1050 
Q 1347 653 1366 544 
Q 1397 359 1515 245 
Q 1634 131 1819 131 
Q 1978 131 2092 222 
Q 2206 313 2282 581 
Q 2359 850 2359 1550 
Q 2359 2222 2191 2472 
Q 2069 2653 1863 2653 
Q 1594 2653 1347 2350 
z
" transform="scale(0.015625)"/>
       <path id="TimesNewRomanPS-BoldMT-65" d="M 2691 1566 
L 1088 1566 
Q 1116 984 1397 647 
Q 1613 388 1916 388 
Q 2103 388 2256 492 
Q 2409 597 2584 869 
L 2691 800 
Q 2453 316 2165 114 
Q 1878 -88 1500 -88 
Q 850 -88 516 413 
Q 247 816 247 1413 
Q 247 2144 642 2576 
Q 1038 3009 1569 3009 
Q 2013 3009 2339 2645 
Q 2666 2281 2691 1566 
z
M 1922 1775 
Q 1922 2278 1867 2465 
Q 1813 2653 1697 2750 
Q 1631 2806 1522 2806 
Q 1359 2806 1256 2647 
Q 1072 2369 1072 1884 
L 1072 1775 
L 1922 1775 
z
" transform="scale(0.015625)"/>
       <path id="TimesNewRomanPS-BoldMT-72" d="M 1428 2922 
L 1428 2259 
Q 1719 2713 1937 2861 
Q 2156 3009 2359 3009 
Q 2534 3009 2639 2901 
Q 2744 2794 2744 2597 
Q 2744 2388 2642 2272 
Q 2541 2156 2397 2156 
Q 2231 2156 2109 2262 
Q 1988 2369 1966 2381 
Q 1934 2400 1894 2400 
Q 1803 2400 1722 2331 
Q 1594 2225 1528 2028 
Q 1428 1725 1428 1359 
L 1428 688 
L 1431 513 
Q 1431 334 1453 284 
Q 1491 200 1564 161 
Q 1638 122 1813 113 
L 1813 0 
L 234 0 
L 234 113 
Q 425 128 492 217 
Q 559 306 559 688 
L 559 2303 
Q 559 2553 534 2622 
Q 503 2709 443 2750 
Q 384 2791 234 2806 
L 234 2922 
L 1428 2922 
z
" transform="scale(0.015625)"/>
       <path id="TimesNewRomanPS-BoldMT-20" transform="scale(0.015625)"/>
       <path id="TimesNewRomanPS-BoldMT-6f" d="M 1594 3009 
Q 1975 3009 2303 2812 
Q 2631 2616 2801 2253 
Q 2972 1891 2972 1459 
Q 2972 838 2656 419 
Q 2275 -88 1603 -88 
Q 944 -88 587 375 
Q 231 838 231 1447 
Q 231 2075 595 2542 
Q 959 3009 1594 3009 
z
M 1606 2788 
Q 1447 2788 1333 2667 
Q 1219 2547 1183 2192 
Q 1147 1838 1147 1206 
Q 1147 872 1191 581 
Q 1225 359 1337 243 
Q 1450 128 1594 128 
Q 1734 128 1828 206 
Q 1950 313 1991 503 
Q 2053 800 2053 1703 
Q 2053 2234 1993 2432 
Q 1934 2631 1819 2722 
Q 1738 2788 1606 2788 
z
" transform="scale(0.015625)"/>
       <path id="TimesNewRomanPS-BoldMT-66" d="M 1497 2616 
L 1497 588 
Q 1497 294 1559 219 
Q 1659 103 1928 113 
L 1928 0 
L 206 0 
L 206 113 
Q 403 116 486 158 
Q 569 200 600 275 
Q 631 350 631 588 
L 631 2616 
L 206 2616 
L 206 2922 
L 631 2922 
L 631 3138 
L 628 3284 
Q 628 3734 958 4034 
Q 1288 4334 1850 4334 
Q 2234 4334 2420 4190 
Q 2606 4047 2606 3872 
Q 2606 3731 2490 3628 
Q 2375 3525 2184 3525 
Q 2022 3525 1926 3609 
Q 1831 3694 1831 3797 
Q 1831 3825 1850 3913 
Q 1863 3966 1863 4013 
Q 1863 4078 1825 4109 
Q 1775 4156 1703 4156 
Q 1613 4156 1552 4081 
Q 1491 4006 1491 3841 
L 1497 3294 
L 1497 2922 
L 1928 2922 
L 1928 2616 
L 1497 2616 
z
" transform="scale(0.015625)"/>
       <path id="TimesNewRomanPS-BoldMT-76" d="M 1534 -88 
L 550 2178 
Q 372 2588 272 2697 
Q 200 2778 59 2806 
L 59 2922 
L 1613 2922 
L 1613 2806 
Q 1466 2806 1413 2753 
Q 1338 2684 1338 2591 
Q 1338 2475 1475 2156 
L 1956 1059 
L 2341 2006 
Q 2506 2413 2506 2581 
Q 2506 2678 2436 2739 
Q 2366 2800 2188 2806 
L 2188 2922 
L 3144 2922 
L 3144 2806 
Q 3006 2788 2918 2703 
Q 2831 2619 2656 2206 
L 1681 -88 
L 1534 -88 
z
" transform="scale(0.015625)"/>
       <path id="TimesNewRomanPS-BoldMT-74" d="M 1375 3991 
L 1375 2922 
L 2069 2922 
L 2069 2613 
L 1375 2613 
L 1375 809 
Q 1375 556 1398 482 
Q 1422 409 1481 364 
Q 1541 319 1591 319 
Q 1794 319 1975 628 
L 2069 559 
Q 1816 -41 1247 -41 
Q 969 -41 776 114 
Q 584 269 531 459 
Q 500 566 500 1034 
L 500 2613 
L 119 2613 
L 119 2722 
Q 513 3000 789 3306 
Q 1066 3613 1272 3991 
L 1375 3991 
z
" transform="scale(0.015625)"/>
       <path id="TimesNewRomanPS-BoldMT-73" d="M 2063 3003 
L 2109 2006 
L 2003 2006 
Q 1813 2450 1608 2612 
Q 1403 2775 1200 2775 
Q 1072 2775 981 2689 
Q 891 2603 891 2491 
Q 891 2406 953 2328 
Q 1053 2200 1512 1889 
Q 1972 1578 2117 1361 
Q 2263 1144 2263 875 
Q 2263 631 2141 397 
Q 2019 163 1797 37 
Q 1575 -88 1306 -88 
Q 1097 -88 747 44 
Q 653 78 619 78 
Q 516 78 447 -78 
L 344 -78 
L 294 972 
L 400 972 
Q 541 559 786 353 
Q 1031 147 1250 147 
Q 1400 147 1495 239 
Q 1591 331 1591 463 
Q 1591 613 1497 722 
Q 1403 831 1078 1053 
Q 600 1384 459 1559 
Q 253 1816 253 2125 
Q 253 2463 486 2736 
Q 719 3009 1159 3009 
Q 1397 3009 1619 2894 
Q 1703 2847 1756 2847 
Q 1813 2847 1847 2870 
Q 1881 2894 1956 3003 
L 2063 3003 
z
" transform="scale(0.015625)"/>
      </defs>
      <use xlink:href="#TimesNewRomanPS-BoldMT-4e"/>
      <use xlink:href="#TimesNewRomanPS-BoldMT-75" x="72.216797"/>
      <use xlink:href="#TimesNewRomanPS-BoldMT-6d" x="127.832031"/>
      <use xlink:href="#TimesNewRomanPS-BoldMT-62" x="211.132812"/>
      <use xlink:href="#TimesNewRomanPS-BoldMT-65" x="266.748047"/>
      <use xlink:href="#TimesNewRomanPS-BoldMT-72" x="311.132812"/>
      <use xlink:href="#TimesNewRomanPS-BoldMT-20" x="353.767578"/>
      <use xlink:href="#TimesNewRomanPS-BoldMT-6f" x="378.767578"/>
      <use xlink:href="#TimesNewRomanPS-BoldMT-66" x="428.767578"/>
      <use xlink:href="#TimesNewRomanPS-BoldMT-20" x="462.068359"/>
      <use xlink:href="#TimesNewRomanPS-BoldMT-76" x="487.068359"/>
      <use xlink:href="#TimesNewRomanPS-BoldMT-6f" x="537.068359"/>
      <use xlink:href="#TimesNewRomanPS-BoldMT-74" x="587.068359"/>
      <use xlink:href="#TimesNewRomanPS-BoldMT-65" x="620.369141"/>
      <use xlink:href="#TimesNewRomanPS-BoldMT-72" x="664.753906"/>
      <use xlink:href="#TimesNewRomanPS-BoldMT-73" x="709.138672"/>
     </g>
    </g>
   </g>
   <g id="matplotlib.axis_2">
    <g id="ytick_1">
     <g id="line2d_6">
      <path d="M 76.89125 180.825458 
L 349.2 180.825458 
" clip-path="url(#pce0a8fead0)" style="fill: none; stroke: #cccccc; stroke-width: 0.8; stroke-linecap: round"/>
     </g>
     <g id="text_7">
      <!-- 0.0004 -->
      <g style="fill: #262626" transform="translate(28.64125 186.03327) scale(0.15 -0.15)">
       <defs>
        <path id="TimesNewRomanPSMT-2e" d="M 800 606 
Q 947 606 1047 504 
Q 1147 403 1147 259 
Q 1147 116 1045 14 
Q 944 -88 800 -88 
Q 656 -88 554 14 
Q 453 116 453 259 
Q 453 406 554 506 
Q 656 606 800 606 
z
" transform="scale(0.015625)"/>
       </defs>
       <use xlink:href="#TimesNewRomanPSMT-30"/>
       <use xlink:href="#TimesNewRomanPSMT-2e" x="50"/>
       <use xlink:href="#TimesNewRomanPSMT-30" x="75"/>
       <use xlink:href="#TimesNewRomanPSMT-30" x="125"/>
       <use xlink:href="#TimesNewRomanPSMT-30" x="175"/>
       <use xlink:href="#TimesNewRomanPSMT-34" x="225"/>
      </g>
     </g>
    </g>
    <g id="ytick_2">
     <g id="line2d_7">
      <path d="M 76.89125 158.500814 
L 349.2 158.500814 
" clip-path="url(#pce0a8fead0)" style="fill: none; stroke: #cccccc; stroke-width: 0.8; stroke-linecap: round"/>
     </g>
     <g id="text_8">
      <!-- 0.0006 -->
      <g style="fill: #262626" transform="translate(28.64125 163.708627) scale(0.15 -0.15)">
       <use xlink:href="#TimesNewRomanPSMT-30"/>
       <use xlink:href="#TimesNewRomanPSMT-2e" x="50"/>
       <use xlink:href="#TimesNewRomanPSMT-30" x="75"/>
       <use xlink:href="#TimesNewRomanPSMT-30" x="125"/>
       <use xlink:href="#TimesNewRomanPSMT-30" x="175"/>
       <use xlink:href="#TimesNewRomanPSMT-36" x="225"/>
      </g>
     </g>
    </g>
    <g id="ytick_3">
     <g id="line2d_8">
      <path d="M 76.89125 136.176171 
L 349.2 136.176171 
" clip-path="url(#pce0a8fead0)" style="fill: none; stroke: #cccccc; stroke-width: 0.8; stroke-linecap: round"/>
     </g>
     <g id="text_9">
      <!-- 0.0008 -->
      <g style="fill: #262626" transform="translate(28.64125 141.383983) scale(0.15 -0.15)">
       <use xlink:href="#TimesNewRomanPSMT-30"/>
       <use xlink:href="#TimesNewRomanPSMT-2e" x="50"/>
       <use xlink:href="#TimesNewRomanPSMT-30" x="75"/>
       <use xlink:href="#TimesNewRomanPSMT-30" x="125"/>
       <use xlink:href="#TimesNewRomanPSMT-30" x="175"/>
       <use xlink:href="#TimesNewRomanPSMT-38" x="225"/>
      </g>
     </g>
    </g>
    <g id="ytick_4">
     <g id="line2d_9">
      <path d="M 76.89125 113.851527 
L 349.2 113.851527 
" clip-path="url(#pce0a8fead0)" style="fill: none; stroke: #cccccc; stroke-width: 0.8; stroke-linecap: round"/>
     </g>
     <g id="text_10">
      <!-- 0.0010 -->
      <g style="fill: #262626" transform="translate(28.64125 119.059339) scale(0.15 -0.15)">
       <defs>
        <path id="TimesNewRomanPSMT-31" d="M 750 3822 
L 1781 4325 
L 1884 4325 
L 1884 747 
Q 1884 391 1914 303 
Q 1944 216 2037 169 
Q 2131 122 2419 116 
L 2419 0 
L 825 0 
L 825 116 
Q 1125 122 1212 167 
Q 1300 213 1334 289 
Q 1369 366 1369 747 
L 1369 3034 
Q 1369 3497 1338 3628 
Q 1316 3728 1258 3775 
Q 1200 3822 1119 3822 
Q 1003 3822 797 3725 
L 750 3822 
z
" transform="scale(0.015625)"/>
       </defs>
       <use xlink:href="#TimesNewRomanPSMT-30"/>
       <use xlink:href="#TimesNewRomanPSMT-2e" x="50"/>
       <use xlink:href="#TimesNewRomanPSMT-30" x="75"/>
       <use xlink:href="#TimesNewRomanPSMT-30" x="125"/>
       <use xlink:href="#TimesNewRomanPSMT-31" x="175"/>
       <use xlink:href="#TimesNewRomanPSMT-30" x="225"/>
      </g>
     </g>
    </g>
    <g id="ytick_5">
     <g id="line2d_10">
      <path d="M 76.89125 91.526883 
L 349.2 91.526883 
" clip-path="url(#pce0a8fead0)" style="fill: none; stroke: #cccccc; stroke-width: 0.8; stroke-linecap: round"/>
     </g>
     <g id="text_11">
      <!-- 0.0012 -->
      <g style="fill: #262626" transform="translate(28.64125 96.734696) scale(0.15 -0.15)">
       <use xlink:href="#TimesNewRomanPSMT-30"/>
       <use xlink:href="#TimesNewRomanPSMT-2e" x="50"/>
       <use xlink:href="#TimesNewRomanPSMT-30" x="75"/>
       <use xlink:href="#TimesNewRomanPSMT-30" x="125"/>
       <use xlink:href="#TimesNewRomanPSMT-31" x="175"/>
       <use xlink:href="#TimesNewRomanPSMT-32" x="225"/>
      </g>
     </g>
    </g>
    <g id="ytick_6">
     <g id="line2d_11">
      <path d="M 76.89125 69.20224 
L 349.2 69.20224 
" clip-path="url(#pce0a8fead0)" style="fill: none; stroke: #cccccc; stroke-width: 0.8; stroke-linecap: round"/>
     </g>
     <g id="text_12">
      <!-- 0.0014 -->
      <g style="fill: #262626" transform="translate(28.64125 74.410052) scale(0.15 -0.15)">
       <use xlink:href="#TimesNewRomanPSMT-30"/>
       <use xlink:href="#TimesNewRomanPSMT-2e" x="50"/>
       <use xlink:href="#TimesNewRomanPSMT-30" x="75"/>
       <use xlink:href="#TimesNewRomanPSMT-30" x="125"/>
       <use xlink:href="#TimesNewRomanPSMT-31" x="175"/>
       <use xlink:href="#TimesNewRomanPSMT-34" x="225"/>
      </g>
     </g>
    </g>
    <g id="ytick_7">
     <g id="line2d_12">
      <path d="M 76.89125 46.877596 
L 349.2 46.877596 
" clip-path="url(#pce0a8fead0)" style="fill: none; stroke: #cccccc; stroke-width: 0.8; stroke-linecap: round"/>
     </g>
     <g id="text_13">
      <!-- 0.0016 -->
      <g style="fill: #262626" transform="translate(28.64125 52.085409) scale(0.15 -0.15)">
       <use xlink:href="#TimesNewRomanPSMT-30"/>
       <use xlink:href="#TimesNewRomanPSMT-2e" x="50"/>
       <use xlink:href="#TimesNewRomanPSMT-30" x="75"/>
       <use xlink:href="#TimesNewRomanPSMT-30" x="125"/>
       <use xlink:href="#TimesNewRomanPSMT-31" x="175"/>
       <use xlink:href="#TimesNewRomanPSMT-36" x="225"/>
      </g>
     </g>
    </g>
    <g id="ytick_8">
     <g id="line2d_13">
      <path d="M 76.89125 24.552952 
L 349.2 24.552952 
" clip-path="url(#pce0a8fead0)" style="fill: none; stroke: #cccccc; stroke-width: 0.8; stroke-linecap: round"/>
     </g>
     <g id="text_14">
      <!-- 0.0018 -->
      <g style="fill: #262626" transform="translate(28.64125 29.760765) scale(0.15 -0.15)">
       <use xlink:href="#TimesNewRomanPSMT-30"/>
       <use xlink:href="#TimesNewRomanPSMT-2e" x="50"/>
       <use xlink:href="#TimesNewRomanPSMT-30" x="75"/>
       <use xlink:href="#TimesNewRomanPSMT-30" x="125"/>
       <use xlink:href="#TimesNewRomanPSMT-31" x="175"/>
       <use xlink:href="#TimesNewRomanPSMT-38" x="225"/>
      </g>
     </g>
    </g>
    <g id="text_15">
     <!-- Gas Spend per Voter (Gwei) -->
     <g style="fill: #262626" transform="translate(21.432656 195.845703) rotate(-90) scale(0.15 -0.15)">
      <defs>
       <path id="TimesNewRomanPS-BoldMT-47" d="M 4416 4334 
L 4416 2841 
L 4300 2841 
Q 4091 3453 3672 3772 
Q 3253 4091 2756 4091 
Q 2281 4091 1965 3823 
Q 1650 3556 1519 3078 
Q 1388 2600 1388 2097 
Q 1388 1488 1531 1028 
Q 1675 569 1995 353 
Q 2316 138 2756 138 
Q 2909 138 3070 170 
Q 3231 203 3400 266 
L 3400 1147 
Q 3400 1397 3365 1470 
Q 3331 1544 3223 1603 
Q 3116 1663 2963 1663 
L 2853 1663 
L 2853 1778 
L 4913 1778 
L 4913 1663 
Q 4678 1647 4586 1598 
Q 4494 1550 4444 1438 
Q 4416 1378 4416 1147 
L 4416 266 
Q 4009 84 3570 -8 
Q 3131 -100 2659 -100 
Q 2056 -100 1657 64 
Q 1259 228 954 495 
Q 650 763 478 1097 
Q 259 1528 259 2063 
Q 259 3019 931 3678 
Q 1603 4338 2622 4338 
Q 2938 4338 3191 4288 
Q 3328 4263 3636 4145 
Q 3944 4028 4000 4028 
Q 4088 4028 4163 4092 
Q 4238 4156 4300 4334 
L 4416 4334 
z
" transform="scale(0.015625)"/>
       <path id="TimesNewRomanPS-BoldMT-61" d="M 1828 431 
Q 1294 -41 869 -41 
Q 619 -41 453 123 
Q 288 288 288 534 
Q 288 869 575 1136 
Q 863 1403 1828 1847 
L 1828 2141 
Q 1828 2472 1792 2558 
Q 1756 2644 1656 2708 
Q 1556 2772 1431 2772 
Q 1228 2772 1097 2681 
Q 1016 2625 1016 2550 
Q 1016 2484 1103 2388 
Q 1222 2253 1222 2128 
Q 1222 1975 1108 1867 
Q 994 1759 809 1759 
Q 613 1759 480 1878 
Q 347 1997 347 2156 
Q 347 2381 525 2586 
Q 703 2791 1022 2900 
Q 1341 3009 1684 3009 
Q 2100 3009 2342 2832 
Q 2584 2656 2656 2450 
Q 2700 2319 2700 1847 
L 2700 713 
Q 2700 513 2715 461 
Q 2731 409 2762 384 
Q 2794 359 2834 359 
Q 2916 359 3000 475 
L 3094 400 
Q 2938 169 2770 64 
Q 2603 -41 2391 -41 
Q 2141 -41 2000 76 
Q 1859 194 1828 431 
z
M 1828 659 
L 1828 1638 
Q 1450 1416 1266 1163 
Q 1144 994 1144 822 
Q 1144 678 1247 569 
Q 1325 484 1466 484 
Q 1622 484 1828 659 
z
" transform="scale(0.015625)"/>
       <path id="TimesNewRomanPS-BoldMT-53" d="M 3006 4334 
L 3041 2922 
L 2913 2922 
Q 2822 3453 2467 3776 
Q 2113 4100 1700 4100 
Q 1381 4100 1195 3929 
Q 1009 3759 1009 3538 
Q 1009 3397 1075 3288 
Q 1166 3141 1366 2997 
Q 1513 2894 2044 2631 
Q 2788 2266 3047 1941 
Q 3303 1616 3303 1197 
Q 3303 666 2889 283 
Q 2475 -100 1838 -100 
Q 1638 -100 1459 -59 
Q 1281 -19 1013 94 
Q 863 156 766 156 
Q 684 156 593 93 
Q 503 31 447 -97 
L 331 -97 
L 331 1503 
L 447 1503 
Q 584 828 976 473 
Q 1369 119 1822 119 
Q 2172 119 2380 309 
Q 2588 500 2588 753 
Q 2588 903 2508 1043 
Q 2428 1184 2265 1311 
Q 2103 1438 1691 1641 
Q 1113 1925 859 2125 
Q 606 2325 470 2572 
Q 334 2819 334 3116 
Q 334 3622 706 3978 
Q 1078 4334 1644 4334 
Q 1850 4334 2044 4284 
Q 2191 4247 2402 4145 
Q 2613 4044 2697 4044 
Q 2778 4044 2825 4094 
Q 2872 4144 2913 4334 
L 3006 4334 
z
" transform="scale(0.015625)"/>
       <path id="TimesNewRomanPS-BoldMT-70" d="M 1347 297 
L 1347 -791 
Q 1347 -1016 1383 -1097 
Q 1419 -1178 1494 -1215 
Q 1569 -1253 1788 -1253 
L 1788 -1369 
L 122 -1369 
L 122 -1253 
Q 316 -1247 409 -1144 
Q 472 -1072 472 -772 
L 472 2313 
Q 472 2622 400 2708 
Q 328 2794 122 2806 
L 122 2922 
L 1347 2922 
L 1347 2538 
Q 1500 2763 1659 2863 
Q 1888 3009 2156 3009 
Q 2478 3009 2742 2806 
Q 3006 2603 3143 2245 
Q 3281 1888 3281 1475 
Q 3281 1031 3139 664 
Q 2997 297 2726 104 
Q 2456 -88 2125 -88 
Q 1884 -88 1675 19 
Q 1519 100 1347 297 
z
M 1347 613 
Q 1616 231 1922 231 
Q 2091 231 2200 409 
Q 2363 672 2363 1409 
Q 2363 2166 2184 2444 
Q 2066 2628 1866 2628 
Q 1550 2628 1347 2172 
L 1347 613 
z
" transform="scale(0.015625)"/>
       <path id="TimesNewRomanPS-BoldMT-6e" d="M 1409 2922 
L 1409 2544 
Q 1634 2788 1840 2898 
Q 2047 3009 2284 3009 
Q 2569 3009 2756 2851 
Q 2944 2694 3006 2459 
Q 3056 2281 3056 1775 
L 3056 638 
Q 3056 300 3117 217 
Q 3178 134 3372 113 
L 3372 0 
L 1894 0 
L 1894 113 
Q 2059 134 2131 250 
Q 2181 328 2181 638 
L 2181 1938 
Q 2181 2297 2153 2390 
Q 2125 2484 2058 2536 
Q 1991 2588 1909 2588 
Q 1641 2588 1409 2203 
L 1409 638 
Q 1409 309 1470 221 
Q 1531 134 1697 113 
L 1697 0 
L 219 0 
L 219 113 
Q 403 131 481 231 
Q 534 300 534 638 
L 534 2288 
Q 534 2619 473 2700 
Q 413 2781 219 2806 
L 219 2922 
L 1409 2922 
z
" transform="scale(0.015625)"/>
       <path id="TimesNewRomanPS-BoldMT-64" d="M 3056 4238 
L 3056 875 
Q 3056 534 3075 472 
Q 3100 369 3170 319 
Q 3241 269 3416 256 
L 3416 153 
L 2181 -88 
L 2181 375 
Q 1959 106 1786 9 
Q 1613 -88 1394 -88 
Q 834 -88 509 413 
Q 247 819 247 1409 
Q 247 1881 409 2254 
Q 572 2628 855 2818 
Q 1138 3009 1463 3009 
Q 1672 3009 1834 2928 
Q 1997 2847 2181 2644 
L 2181 3525 
Q 2181 3859 2153 3928 
Q 2116 4019 2041 4062 
Q 1966 4106 1759 4106 
L 1759 4238 
L 3056 4238 
z
M 2181 2256 
Q 1950 2700 1616 2700 
Q 1500 2700 1425 2638 
Q 1309 2541 1236 2297 
Q 1163 2053 1163 1550 
Q 1163 997 1244 731 
Q 1325 466 1466 347 
Q 1538 288 1663 288 
Q 1938 288 2181 719 
L 2181 2256 
z
" transform="scale(0.015625)"/>
       <path id="TimesNewRomanPS-BoldMT-56" d="M 4556 4238 
L 4556 4122 
Q 4325 4084 4144 3875 
Q 4013 3719 3753 3141 
L 2294 -97 
L 2191 -97 
L 738 3272 
Q 475 3881 386 3987 
Q 297 4094 50 4122 
L 50 4238 
L 2081 4238 
L 2081 4122 
L 2013 4122 
Q 1738 4122 1638 4053 
Q 1566 4006 1566 3916 
Q 1566 3859 1591 3782 
Q 1616 3706 1759 3372 
L 2663 1263 
L 3500 3141 
Q 3650 3481 3684 3597 
Q 3719 3713 3719 3794 
Q 3719 3888 3669 3959 
Q 3619 4031 3522 4069 
Q 3388 4122 3166 4122 
L 3166 4238 
L 4556 4238 
z
" transform="scale(0.015625)"/>
       <path id="TimesNewRomanPS-BoldMT-28" d="M 2056 4334 
L 2056 4191 
Q 1731 3978 1578 3775 
Q 1366 3494 1247 3053 
Q 1097 2506 1097 1525 
Q 1097 600 1233 87 
Q 1369 -425 1603 -741 
Q 1766 -959 2056 -1125 
L 2056 -1281 
Q 1303 -1028 779 -248 
Q 256 531 256 1544 
Q 256 2544 778 3314 
Q 1300 4084 2056 4334 
z
" transform="scale(0.015625)"/>
       <path id="TimesNewRomanPS-BoldMT-77" d="M 3113 -88 
L 2313 2056 
L 1528 -88 
L 1366 -88 
L 588 2031 
Q 413 2516 291 2663 
Q 213 2763 53 2806 
L 53 2922 
L 1528 2922 
L 1528 2806 
Q 1378 2806 1322 2762 
Q 1266 2719 1266 2663 
Q 1266 2609 1366 2344 
L 1794 1203 
L 2206 2344 
L 2175 2419 
Q 2081 2653 2011 2717 
Q 1941 2781 1794 2806 
L 1794 2922 
L 3291 2922 
L 3291 2806 
Q 3116 2797 3069 2758 
Q 3022 2719 3022 2647 
Q 3022 2578 3113 2344 
L 3525 1203 
L 3900 2253 
Q 3981 2478 3981 2559 
Q 3981 2681 3922 2737 
Q 3863 2794 3691 2806 
L 3691 2922 
L 4556 2922 
L 4556 2806 
Q 4413 2788 4328 2705 
Q 4244 2622 4109 2234 
L 3291 -88 
L 3113 -88 
z
" transform="scale(0.015625)"/>
       <path id="TimesNewRomanPS-BoldMT-69" d="M 919 4338 
Q 1122 4338 1262 4195 
Q 1403 4053 1403 3853 
Q 1403 3653 1261 3512 
Q 1119 3372 919 3372 
Q 719 3372 578 3512 
Q 438 3653 438 3853 
Q 438 4053 578 4195 
Q 719 4338 919 4338 
z
M 1356 2922 
L 1356 606 
Q 1356 297 1428 211 
Q 1500 125 1709 113 
L 1709 0 
L 131 0 
L 131 113 
Q 325 119 419 225 
Q 481 297 481 606 
L 481 2313 
Q 481 2622 409 2708 
Q 338 2794 131 2806 
L 131 2922 
L 1356 2922 
z
" transform="scale(0.015625)"/>
       <path id="TimesNewRomanPS-BoldMT-29" d="M 78 -1281 
L 78 -1138 
Q 403 -922 556 -719 
Q 766 -438 888 0 
Q 1038 550 1038 1531 
Q 1038 2456 902 2967 
Q 766 3478 531 3794 
Q 369 4013 78 4178 
L 78 4334 
Q 831 4081 1354 3301 
Q 1878 2522 1878 1509 
Q 1878 513 1354 -257 
Q 831 -1028 78 -1281 
z
" transform="scale(0.015625)"/>
      </defs>
      <use xlink:href="#TimesNewRomanPS-BoldMT-47"/>
      <use xlink:href="#TimesNewRomanPS-BoldMT-61" x="77.783203"/>
      <use xlink:href="#TimesNewRomanPS-BoldMT-73" x="127.783203"/>
      <use xlink:href="#TimesNewRomanPS-BoldMT-20" x="166.699219"/>
      <use xlink:href="#TimesNewRomanPS-BoldMT-53" x="191.699219"/>
      <use xlink:href="#TimesNewRomanPS-BoldMT-70" x="247.314453"/>
      <use xlink:href="#TimesNewRomanPS-BoldMT-65" x="302.929688"/>
      <use xlink:href="#TimesNewRomanPS-BoldMT-6e" x="347.314453"/>
      <use xlink:href="#TimesNewRomanPS-BoldMT-64" x="402.929688"/>
      <use xlink:href="#TimesNewRomanPS-BoldMT-20" x="458.544922"/>
      <use xlink:href="#TimesNewRomanPS-BoldMT-70" x="483.544922"/>
      <use xlink:href="#TimesNewRomanPS-BoldMT-65" x="539.160156"/>
      <use xlink:href="#TimesNewRomanPS-BoldMT-72" x="583.544922"/>
      <use xlink:href="#TimesNewRomanPS-BoldMT-20" x="626.179688"/>
      <use xlink:href="#TimesNewRomanPS-BoldMT-56" x="649.429688"/>
      <use xlink:href="#TimesNewRomanPS-BoldMT-6f" x="712.521484"/>
      <use xlink:href="#TimesNewRomanPS-BoldMT-74" x="762.521484"/>
      <use xlink:href="#TimesNewRomanPS-BoldMT-65" x="795.822266"/>
      <use xlink:href="#TimesNewRomanPS-BoldMT-72" x="840.207031"/>
      <use xlink:href="#TimesNewRomanPS-BoldMT-20" x="882.841797"/>
      <use xlink:href="#TimesNewRomanPS-BoldMT-28" x="907.841797"/>
      <use xlink:href="#TimesNewRomanPS-BoldMT-47" x="941.142578"/>
      <use xlink:href="#TimesNewRomanPS-BoldMT-77" x="1018.925781"/>
      <use xlink:href="#TimesNewRomanPS-BoldMT-65" x="1091.142578"/>
      <use xlink:href="#TimesNewRomanPS-BoldMT-69" x="1135.527344"/>
      <use xlink:href="#TimesNewRomanPS-BoldMT-29" x="1163.310547"/>
     </g>
    </g>
   </g>
   <g id="PathCollection_1">
    <defs>
     <path id="ma73eb1c2c3" d="M 0 2.738613 
C 0.726289 2.738613 1.422928 2.450055 1.936492 1.936492 
C 2.450055 1.422928 2.738613 0.726289 2.738613 0 
C 2.738613 -0.726289 2.450055 -1.422928 1.936492 -1.936492 
C 1.422928 -2.450055 0.726289 -2.738613 0 -2.738613 
C -0.726289 -2.738613 -1.422928 -2.450055 -1.936492 -1.936492 
C -2.450055 -1.422928 -2.738613 -0.726289 -2.738613 0 
C -2.738613 0.726289 -2.450055 1.422928 -1.936492 1.936492 
C -1.422928 2.450055 -0.726289 2.738613 0 2.738613 
z
" style="stroke: #731d1d; stroke-opacity: 0.8"/>
    </defs>
    <g clip-path="url(#pce0a8fead0)">
     <use xlink:href="#ma73eb1c2c3" x="89.26892" y="22.87355" style="fill: #731d1d; fill-opacity: 0.8; stroke: #731d1d; stroke-opacity: 0.8"/>
     <use xlink:href="#ma73eb1c2c3" x="151.157273" y="22.879766" style="fill: #731d1d; fill-opacity: 0.8; stroke: #731d1d; stroke-opacity: 0.8"/>
     <use xlink:href="#ma73eb1c2c3" x="213.045625" y="22.672584" style="fill: #731d1d; fill-opacity: 0.8; stroke: #731d1d; stroke-opacity: 0.8"/>
     <use xlink:href="#ma73eb1c2c3" x="274.933977" y="22.748017" style="fill: #731d1d; fill-opacity: 0.8; stroke: #731d1d; stroke-opacity: 0.8"/>
     <use xlink:href="#ma73eb1c2c3" x="336.82233" y="22.869691" style="fill: #731d1d; fill-opacity: 0.8; stroke: #731d1d; stroke-opacity: 0.8"/>
    </g>
   </g>
   <g id="PolyCollection_1">
    <defs>
     <path id="m7a634205de" d="M 89.26892 -229.339557 
L 89.26892 -206.29652 
L 91.76946 -206.991677 
L 94.269999 -207.745945 
L 96.770539 -208.49467 
L 99.271078 -209.230734 
L 101.771618 -209.954137 
L 104.272157 -211.256139 
L 106.772697 -212.577131 
L 109.273236 -213.855508 
L 111.773776 -214.612892 
L 114.274315 -215.198 
L 116.774855 -215.771879 
L 119.275394 -216.334528 
L 121.775934 -216.885947 
L 124.276473 -217.426137 
L 126.777013 -217.955097 
L 129.277552 -218.472827 
L 131.778092 -218.979327 
L 134.278631 -219.474598 
L 136.779171 -219.958639 
L 139.27971 -220.43145 
L 141.78025 -220.893032 
L 144.280789 -221.343384 
L 146.781329 -221.782506 
L 149.281868 -222.190068 
L 151.782408 -222.562698 
L 154.282947 -222.927757 
L 156.783487 -223.285246 
L 159.284026 -223.621732 
L 161.784566 -223.966011 
L 164.285105 -223.924228 
L 166.785645 -223.748645 
L 169.286184 -223.988837 
L 171.786723 -224.23134 
L 174.287263 -224.613662 
L 176.787802 -224.986504 
L 179.288342 -225.349867 
L 181.788881 -225.703749 
L 184.289421 -226.048151 
L 186.78996 -226.383074 
L 189.2905 -226.708517 
L 191.791039 -227.02448 
L 194.291579 -227.330963 
L 196.792118 -227.627966 
L 199.292658 -227.915766 
L 201.793197 -228.211064 
L 204.293737 -228.489192 
L 206.794276 -228.750148 
L 209.294816 -228.993934 
L 211.795355 -229.118786 
L 214.295895 -229.117298 
L 216.796434 -228.683213 
L 219.296974 -228.212044 
L 221.797513 -227.707517 
L 224.298053 -227.16963 
L 226.798592 -226.618572 
L 229.299132 -226.480796 
L 231.799671 -225.983658 
L 234.300211 -225.470734 
L 236.80075 -224.942024 
L 239.30129 -224.397529 
L 241.801829 -223.837248 
L 244.302369 -223.261181 
L 246.802908 -222.669328 
L 249.303448 -222.061689 
L 251.803987 -221.438265 
L 254.304527 -220.799055 
L 256.805066 -220.144059 
L 259.305605 -219.473277 
L 261.806145 -218.78671 
L 264.306684 -218.084357 
L 266.807224 -217.366218 
L 269.307763 -216.632293 
L 271.808303 -215.882582 
L 274.308842 -215.117086 
L 276.809382 -214.335804 
L 279.309921 -213.538736 
L 281.810461 -212.725883 
L 284.311 -211.897244 
L 286.81154 -211.052818 
L 289.312079 -210.192608 
L 291.812619 -209.316611 
L 294.313158 -208.424829 
L 296.813698 -207.51726 
L 299.314237 -206.593907 
L 301.814777 -205.654087 
L 304.315316 -204.699841 
L 306.815856 -203.72913 
L 309.316395 -202.742633 
L 311.816935 -201.74035 
L 314.317474 -200.722282 
L 316.818014 -199.688428 
L 319.318553 -198.638788 
L 321.819093 -197.573362 
L 324.319632 -196.49215 
L 326.820172 -195.395153 
L 329.320711 -194.28237 
L 331.821251 -193.153801 
L 334.32179 -192.009446 
L 336.82233 -190.849306 
L 336.82233 -230.38198 
L 336.82233 -230.38198 
L 334.32179 -230.352227 
L 331.821251 -230.322823 
L 329.320711 -230.293768 
L 326.820172 -230.265061 
L 324.319632 -230.236702 
L 321.819093 -230.208691 
L 319.318553 -230.181029 
L 316.818014 -230.153715 
L 314.317474 -230.12675 
L 311.816935 -230.100133 
L 309.316395 -230.073865 
L 306.815856 -230.047944 
L 304.315316 -230.0721 
L 301.814777 -230.132746 
L 299.314237 -230.191706 
L 296.813698 -230.248981 
L 294.313158 -230.304569 
L 291.812619 -230.358472 
L 289.312079 -230.410689 
L 286.81154 -230.461221 
L 284.311 -230.510067 
L 281.810461 -230.557227 
L 279.309921 -230.602702 
L 276.809382 -230.646491 
L 274.308842 -230.688594 
L 271.808303 -230.729011 
L 269.307763 -230.767743 
L 266.807224 -230.812058 
L 264.306684 -230.864303 
L 261.806145 -231.103982 
L 259.305605 -231.403991 
L 256.805066 -231.377354 
L 254.304527 -231.322668 
L 251.803987 -231.440136 
L 249.303448 -231.615774 
L 246.802908 -231.58232 
L 244.302369 -231.481396 
L 241.801829 -231.463673 
L 239.30129 -231.582962 
L 236.80075 -231.696524 
L 234.300211 -231.812116 
L 231.799671 -231.922303 
L 229.299132 -232.027 
L 226.798592 -232.126205 
L 224.298053 -232.192127 
L 221.797513 -232.202174 
L 219.296974 -232.209699 
L 216.796434 -232.214703 
L 214.295895 -232.217186 
L 211.795355 -232.217147 
L 209.294816 -232.214586 
L 206.794276 -232.209505 
L 204.293737 -232.201901 
L 201.793197 -232.418618 
L 199.292658 -232.376069 
L 196.792118 -232.263012 
L 194.291579 -232.146273 
L 191.791039 -232.12922 
L 189.2905 -232.288143 
L 186.78996 -232.485084 
L 184.289421 -232.536364 
L 181.788881 -232.399293 
L 179.288342 -232.180161 
L 176.787802 -231.960248 
L 174.287263 -232.059613 
L 171.786723 -232.142183 
L 169.286184 -231.940347 
L 166.785645 -231.795641 
L 164.285105 -231.737525 
L 161.784566 -231.686861 
L 159.284026 -231.634069 
L 156.783487 -231.580392 
L 154.282947 -231.524058 
L 151.782408 -231.459774 
L 149.281868 -231.396698 
L 146.781329 -231.339108 
L 144.280789 -231.558778 
L 141.78025 -232.232077 
L 139.27971 -232.1391 
L 136.779171 -232.149675 
L 134.278631 -232.206808 
L 131.778092 -232.125842 
L 129.277552 -232.034269 
L 126.777013 -231.932088 
L 124.276473 -231.819299 
L 121.775934 -231.695903 
L 119.275394 -231.561899 
L 116.774855 -231.417287 
L 114.274315 -231.262068 
L 111.773776 -231.09624 
L 109.273236 -230.919806 
L 106.772697 -230.732763 
L 104.272157 -230.535113 
L 101.771618 -230.326855 
L 99.271078 -230.107989 
L 96.770539 -229.878516 
L 94.269999 -229.638435 
L 91.76946 -229.387747 
L 89.26892 -229.339557 
z
" style="stroke: #ffffff; stroke-opacity: 0.15"/>
    </defs>
    <g clip-path="url(#pce0a8fead0)">
     <use xlink:href="#m7a634205de" x="0" y="252" style="fill: #731d1d; fill-opacity: 0.15; stroke: #ffffff; stroke-opacity: 0.15"/>
    </g>
   </g>
   <g id="PathCollection_2">
    <defs>
     <path id="m7d7432c670" d="M 0 2.738613 
C 0.726289 2.738613 1.422928 2.450055 1.936492 1.936492 
C 2.450055 1.422928 2.738613 0.726289 2.738613 0 
C 2.738613 -0.726289 2.450055 -1.422928 1.936492 -1.936492 
C 1.422928 -2.450055 0.726289 -2.738613 0 -2.738613 
C -0.726289 -2.738613 -1.422928 -2.450055 -1.936492 -1.936492 
C -2.450055 -1.422928 -2.738613 -0.726289 -2.738613 0 
C -2.738613 0.726289 -2.450055 1.422928 -1.936492 1.936492 
C -1.422928 2.450055 -0.726289 2.738613 0 2.738613 
z
" style="stroke: #735340; stroke-opacity: 0.8"/>
    </defs>
    <g clip-path="url(#pce0a8fead0)">
     <use xlink:href="#m7d7432c670" x="89.26892" y="62.716886" style="fill: #735340; fill-opacity: 0.8; stroke: #735340; stroke-opacity: 0.8"/>
     <use xlink:href="#m7d7432c670" x="151.157273" y="62.982074" style="fill: #735340; fill-opacity: 0.8; stroke: #735340; stroke-opacity: 0.8"/>
     <use xlink:href="#m7d7432c670" x="213.045625" y="62.978134" style="fill: #735340; fill-opacity: 0.8; stroke: #735340; stroke-opacity: 0.8"/>
     <use xlink:href="#m7d7432c670" x="274.933977" y="62.931788" style="fill: #735340; fill-opacity: 0.8; stroke: #735340; stroke-opacity: 0.8"/>
     <use xlink:href="#m7d7432c670" x="336.82233" y="63.008318" style="fill: #735340; fill-opacity: 0.8; stroke: #735340; stroke-opacity: 0.8"/>
    </g>
   </g>
   <g id="PolyCollection_2">
    <defs>
     <path id="m6c96790bd4" d="M 89.26892 -189.283114 
L 89.26892 -170.507648 
L 91.76946 -171.065205 
L 94.269999 -171.621836 
L 96.770539 -172.221241 
L 99.271078 -172.810621 
L 101.771618 -173.39434 
L 104.272157 -173.964941 
L 106.772697 -174.525454 
L 109.273236 -175.075878 
L 111.773776 -175.616214 
L 114.274315 -176.146462 
L 116.774855 -176.666622 
L 119.275394 -177.176693 
L 121.775934 -177.676676 
L 124.276473 -178.166571 
L 126.777013 -178.646377 
L 129.277552 -179.116095 
L 131.778092 -179.575725 
L 134.278631 -180.025266 
L 136.779171 -180.464719 
L 139.27971 -180.894084 
L 141.78025 -181.313361 
L 144.280789 -181.722549 
L 146.781329 -182.121649 
L 149.281868 -182.51066 
L 151.782408 -182.889583 
L 154.282947 -183.258418 
L 156.783487 -183.617165 
L 159.284026 -183.965823 
L 161.784566 -184.304393 
L 164.285105 -183.97245 
L 166.785645 -184.338871 
L 169.286184 -184.595579 
L 171.786723 -184.910949 
L 174.287263 -185.21875 
L 176.787802 -185.518983 
L 179.288342 -185.811648 
L 181.788881 -186.096744 
L 184.289421 -186.374272 
L 186.78996 -186.644231 
L 189.2905 -186.906623 
L 191.791039 -187.161445 
L 194.291579 -187.4087 
L 196.792118 -187.648386 
L 199.292658 -187.880503 
L 201.793197 -188.105053 
L 204.293737 -188.322034 
L 206.794276 -188.531446 
L 209.294816 -188.73329 
L 211.795355 -188.882456 
L 214.295895 -188.858763 
L 216.796434 -188.522928 
L 219.296974 -188.174257 
L 221.797513 -187.812748 
L 224.298053 -187.438402 
L 226.798592 -187.05122 
L 229.299132 -186.857445 
L 231.799671 -186.831183 
L 234.300211 -186.838363 
L 236.80075 -186.921542 
L 239.30129 -187.108191 
L 241.801829 -187.282394 
L 244.302369 -187.44942 
L 246.802908 -187.609269 
L 249.303448 -187.76194 
L 251.803987 -187.907435 
L 254.304527 -188.045752 
L 256.805066 -188.176892 
L 259.305605 -188.300855 
L 261.806145 -188.417641 
L 264.306684 -188.52725 
L 266.807224 -188.629682 
L 269.307763 -188.724936 
L 271.808303 -188.729538 
L 274.308842 -188.723435 
L 276.809382 -188.544051 
L 279.309921 -188.035073 
L 281.810461 -187.506643 
L 284.311 -186.95876 
L 286.81154 -186.391424 
L 289.312079 -185.804636 
L 291.812619 -185.198394 
L 294.313158 -184.572699 
L 296.813698 -183.927552 
L 299.314237 -183.262952 
L 301.814777 -182.578899 
L 304.315316 -181.875393 
L 306.815856 -181.152434 
L 309.316395 -180.410022 
L 311.816935 -179.648158 
L 314.317474 -178.86684 
L 316.818014 -178.079551 
L 319.318553 -178.3912 
L 321.819093 -179.813848 
L 324.319632 -180.161309 
L 326.820172 -179.57489 
L 329.320711 -178.984555 
L 331.821251 -178.383343 
L 334.32179 -177.769407 
L 336.82233 -177.142748 
L 336.82233 -189.83713 
L 336.82233 -189.83713 
L 334.32179 -189.810006 
L 331.821251 -189.783321 
L 329.320711 -189.757076 
L 326.820172 -189.73127 
L 324.319632 -189.705903 
L 321.819093 -189.680976 
L 319.318553 -189.656487 
L 316.818014 -189.632439 
L 314.317474 -189.608829 
L 311.816935 -189.636343 
L 309.316395 -189.693205 
L 306.815856 -189.748685 
L 304.315316 -189.802782 
L 301.814777 -189.855497 
L 299.314237 -189.906829 
L 296.813698 -189.956779 
L 294.313158 -190.005346 
L 291.812619 -190.05253 
L 289.312079 -190.098332 
L 286.81154 -190.142752 
L 284.311 -190.185789 
L 281.810461 -190.227443 
L 279.309921 -190.267715 
L 276.809382 -190.306605 
L 274.308842 -190.344112 
L 271.808303 -190.380236 
L 269.307763 -190.414978 
L 266.807224 -190.448337 
L 264.306684 -190.480314 
L 261.806145 -190.512114 
L 259.305605 -190.545177 
L 256.805066 -190.571307 
L 254.304527 -190.65606 
L 251.803987 -190.61946 
L 249.303448 -190.643142 
L 246.802908 -190.682842 
L 244.302369 -190.764429 
L 241.801829 -190.705892 
L 239.30129 -190.724043 
L 236.80075 -190.740812 
L 234.300211 -190.756199 
L 231.799671 -190.770203 
L 229.299132 -190.782824 
L 226.798592 -190.794063 
L 224.298053 -190.803919 
L 221.797513 -190.812393 
L 219.296974 -190.819484 
L 216.796434 -190.825193 
L 214.295895 -190.82952 
L 211.795355 -190.832463 
L 209.294816 -190.834025 
L 206.794276 -190.834203 
L 204.293737 -190.838155 
L 201.793197 -190.837292 
L 199.292658 -190.874698 
L 196.792118 -190.972407 
L 194.291579 -191.086095 
L 191.791039 -191.3036 
L 189.2905 -191.238978 
L 186.78996 -191.239119 
L 184.289421 -191.243316 
L 181.788881 -191.245255 
L 179.288342 -191.246272 
L 176.787802 -191.286295 
L 174.287263 -191.100584 
L 171.786723 -190.908766 
L 169.286184 -190.953152 
L 166.785645 -191.001578 
L 164.285105 -190.813044 
L 161.784566 -190.692206 
L 159.284026 -190.669595 
L 156.783487 -190.650675 
L 154.282947 -190.629488 
L 151.782408 -190.606035 
L 149.281868 -190.580316 
L 146.781329 -190.55233 
L 144.280789 -190.945558 
L 141.78025 -190.901271 
L 139.27971 -190.84709 
L 136.779171 -190.952813 
L 134.278631 -191.048858 
L 131.778092 -191.00655 
L 129.277552 -190.957679 
L 126.777013 -190.902245 
L 124.276473 -190.840247 
L 121.775934 -190.771686 
L 119.275394 -190.696561 
L 116.774855 -190.614873 
L 114.274315 -190.526621 
L 111.773776 -190.431806 
L 109.273236 -190.330428 
L 106.772697 -190.222486 
L 104.272157 -190.10798 
L 101.771618 -189.986911 
L 99.271078 -189.859279 
L 96.770539 -189.725083 
L 94.269999 -189.584323 
L 91.76946 -189.437 
L 89.26892 -189.283114 
z
" style="stroke: #ffffff; stroke-opacity: 0.15"/>
    </defs>
    <g clip-path="url(#pce0a8fead0)">
     <use xlink:href="#m6c96790bd4" x="0" y="252" style="fill: #735340; fill-opacity: 0.15; stroke: #ffffff; stroke-opacity: 0.15"/>
    </g>
   </g>
   <g id="PathCollection_3">
    <defs>
     <path id="m76b8ce13bf" d="M 0 2.738613 
C 0.726289 2.738613 1.422928 2.450055 1.936492 1.936492 
C 2.450055 1.422928 2.738613 0.726289 2.738613 0 
C 2.738613 -0.726289 2.450055 -1.422928 1.936492 -1.936492 
C 1.422928 -2.450055 0.726289 -2.738613 0 -2.738613 
C -0.726289 -2.738613 -1.422928 -2.450055 -1.936492 -1.936492 
C -2.450055 -1.422928 -2.738613 -0.726289 -2.738613 0 
C -2.738613 0.726289 -2.450055 1.422928 -1.936492 1.936492 
C -1.422928 2.450055 -0.726289 2.738613 0 2.738613 
z
" style="stroke: #d94436; stroke-opacity: 0.8"/>
    </defs>
    <g clip-path="url(#pce0a8fead0)">
     <use xlink:href="#m76b8ce13bf" x="89.26892" y="103.232714" style="fill: #d94436; fill-opacity: 0.8; stroke: #d94436; stroke-opacity: 0.8"/>
     <use xlink:href="#m76b8ce13bf" x="151.157273" y="103.303393" style="fill: #d94436; fill-opacity: 0.8; stroke: #d94436; stroke-opacity: 0.8"/>
     <use xlink:href="#m76b8ce13bf" x="213.045625" y="103.356981" style="fill: #d94436; fill-opacity: 0.8; stroke: #d94436; stroke-opacity: 0.8"/>
     <use xlink:href="#m76b8ce13bf" x="274.933977" y="103.249585" style="fill: #d94436; fill-opacity: 0.8; stroke: #d94436; stroke-opacity: 0.8"/>
     <use xlink:href="#m76b8ce13bf" x="336.82233" y="103.308496" style="fill: #d94436; fill-opacity: 0.8; stroke: #d94436; stroke-opacity: 0.8"/>
    </g>
   </g>
   <g id="PolyCollection_3">
    <defs>
     <path id="m0137f2399f" d="M 89.26892 -148.91118 
L 89.26892 -137.482174 
L 91.76946 -137.826805 
L 94.269999 -138.166522 
L 96.770539 -138.574198 
L 99.271078 -139.239291 
L 101.771618 -139.884668 
L 104.272157 -140.510327 
L 106.772697 -141.117421 
L 109.273236 -141.471719 
L 111.773776 -141.729121 
L 114.274315 -141.982482 
L 116.774855 -142.231803 
L 119.275394 -142.469269 
L 121.775934 -143.069251 
L 124.276473 -143.679078 
L 126.777013 -144.263152 
L 129.277552 -144.821473 
L 131.778092 -145.344709 
L 134.278631 -145.815057 
L 136.779171 -146.270813 
L 139.27971 -146.711978 
L 141.78025 -147.13855 
L 144.280789 -147.550532 
L 146.781329 -147.947921 
L 149.281868 -148.274977 
L 151.782408 -148.293805 
L 154.282947 -147.202131 
L 156.783487 -145.979633 
L 159.284026 -145.750493 
L 161.784566 -145.684549 
L 164.285105 -145.580248 
L 166.785645 -145.773311 
L 169.286184 -145.707748 
L 171.786723 -145.613516 
L 174.287263 -145.864483 
L 176.787802 -146.106759 
L 179.288342 -146.340342 
L 181.788881 -146.565234 
L 184.289421 -146.781435 
L 186.78996 -146.988943 
L 189.2905 -147.18776 
L 191.791039 -147.377885 
L 194.291579 -147.559318 
L 196.792118 -147.73206 
L 199.292658 -147.89611 
L 201.793197 -148.051468 
L 204.293737 -148.198134 
L 206.794276 -148.336109 
L 209.294816 -148.465392 
L 211.795355 -148.585976 
L 214.295895 -148.539233 
L 216.796434 -148.31946 
L 219.296974 -148.083416 
L 221.797513 -147.831103 
L 224.298053 -147.56252 
L 226.798592 -147.277668 
L 229.299132 -147.241158 
L 231.799671 -147.221003 
L 234.300211 -147.021897 
L 236.80075 -146.800349 
L 239.30129 -146.572312 
L 241.801829 -146.337784 
L 244.302369 -146.096766 
L 246.802908 -145.849259 
L 249.303448 -145.595261 
L 251.803987 -145.334773 
L 254.304527 -145.067796 
L 256.805066 -144.794328 
L 259.305605 -144.51437 
L 261.806145 -144.227923 
L 264.306684 -143.934985 
L 266.807224 -143.635558 
L 269.307763 -143.32964 
L 271.808303 -143.017232 
L 274.308842 -142.698335 
L 276.809382 -142.372947 
L 279.309921 -142.04107 
L 281.810461 -141.702702 
L 284.311 -141.357845 
L 286.81154 -141.006497 
L 289.312079 -140.648659 
L 291.812619 -140.284332 
L 294.313158 -139.913514 
L 296.813698 -139.536207 
L 299.314237 -139.152409 
L 301.814777 -138.762122 
L 304.315316 -138.365344 
L 306.815856 -137.962077 
L 309.316395 -137.552319 
L 311.816935 -137.136072 
L 314.317474 -136.713335 
L 316.818014 -136.284107 
L 319.318553 -135.84839 
L 321.819093 -135.406182 
L 324.319632 -134.957485 
L 326.820172 -134.502297 
L 329.320711 -134.04062 
L 331.821251 -133.572452 
L 334.32179 -133.097795 
L 336.82233 -132.616648 
L 336.82233 -149.018795 
L 336.82233 -149.018795 
L 334.32179 -149.004831 
L 331.821251 -148.991129 
L 329.320711 -148.97769 
L 326.820172 -148.986178 
L 324.319632 -149.055884 
L 321.819093 -149.124006 
L 319.318553 -149.190543 
L 316.818014 -149.255496 
L 314.317474 -149.318863 
L 311.816935 -149.380646 
L 309.316395 -149.440844 
L 306.815856 -149.499458 
L 304.315316 -149.556487 
L 301.814777 -149.611931 
L 299.314237 -149.666188 
L 296.813698 -149.718936 
L 294.313158 -149.770155 
L 291.812619 -149.819845 
L 289.312079 -149.868006 
L 286.81154 -149.914638 
L 284.311 -149.959741 
L 281.810461 -150.003316 
L 279.309921 -150.045361 
L 276.809382 -150.085878 
L 274.308842 -150.124866 
L 271.808303 -150.162325 
L 269.307763 -150.198255 
L 266.807224 -150.232656 
L 264.306684 -150.265528 
L 261.806145 -150.296871 
L 259.305605 -150.326686 
L 256.805066 -150.354971 
L 254.304527 -150.381728 
L 251.803987 -150.406955 
L 249.303448 -150.430654 
L 246.802908 -150.452824 
L 244.302369 -150.473465 
L 241.801829 -150.492577 
L 239.30129 -150.536919 
L 236.80075 -150.60758 
L 234.300211 -150.656555 
L 231.799671 -150.644029 
L 229.299132 -150.628625 
L 226.798592 -150.610341 
L 224.298053 -150.589179 
L 221.797513 -150.629696 
L 219.296974 -150.681102 
L 216.796434 -150.729178 
L 214.295895 -150.773926 
L 211.795355 -150.815346 
L 209.294816 -150.853436 
L 206.794276 -150.839787 
L 204.293737 -150.782855 
L 201.793197 -150.722216 
L 199.292658 -150.661585 
L 196.792118 -150.594129 
L 194.291579 -150.568866 
L 191.791039 -150.556224 
L 189.2905 -150.570365 
L 186.78996 -150.526236 
L 184.289421 -150.510183 
L 181.788881 -150.492602 
L 179.288342 -150.473492 
L 176.787802 -150.404691 
L 174.287263 -150.39301 
L 171.786723 -150.406988 
L 169.286184 -150.351191 
L 166.785645 -150.258285 
L 164.285105 -150.242197 
L 161.784566 -150.153839 
L 159.284026 -150.173739 
L 156.783487 -150.184326 
L 154.282947 -150.161671 
L 151.782408 -150.135708 
L 149.281868 -150.107532 
L 146.781329 -150.085931 
L 144.280789 -150.045417 
L 141.78025 -150.003373 
L 139.27971 -149.959801 
L 136.779171 -149.938351 
L 134.278631 -149.898097 
L 131.778092 -149.854805 
L 129.277552 -149.809215 
L 126.777013 -149.761328 
L 124.276473 -149.711142 
L 121.775934 -149.65866 
L 119.275394 -149.603879 
L 116.774855 -149.5468 
L 114.274315 -149.487424 
L 111.773776 -149.42575 
L 109.273236 -149.361778 
L 106.772697 -149.295509 
L 104.272157 -149.226942 
L 101.771618 -149.156077 
L 99.271078 -149.082914 
L 96.770539 -149.007454 
L 94.269999 -148.929695 
L 91.76946 -148.89939 
L 89.26892 -148.91118 
z
" style="stroke: #ffffff; stroke-opacity: 0.15"/>
    </defs>
    <g clip-path="url(#pce0a8fead0)">
     <use xlink:href="#m0137f2399f" x="0" y="252" style="fill: #d94436; fill-opacity: 0.15; stroke: #ffffff; stroke-opacity: 0.15"/>
    </g>
   </g>
   <g id="PathCollection_4">
    <defs>
     <path id="m32f56097e6" d="M 0 2.738613 
C 0.726289 2.738613 1.422928 2.450055 1.936492 1.936492 
C 2.450055 1.422928 2.738613 0.726289 2.738613 0 
C 2.738613 -0.726289 2.450055 -1.422928 1.936492 -1.936492 
C 1.422928 -2.450055 0.726289 -2.738613 0 -2.738613 
C -0.726289 -2.738613 -1.422928 -2.450055 -1.936492 -1.936492 
C -2.450055 -1.422928 -2.738613 -0.726289 -2.738613 0 
C -2.738613 0.726289 -2.450055 1.422928 -1.936492 1.936492 
C -1.422928 2.450055 -0.726289 2.738613 0 2.738613 
z
" style="stroke: #f26444; stroke-opacity: 0.8"/>
    </defs>
    <g clip-path="url(#pce0a8fead0)">
     <use xlink:href="#m32f56097e6" x="89.26892" y="143.412704" style="fill: #f26444; fill-opacity: 0.8; stroke: #f26444; stroke-opacity: 0.8"/>
     <use xlink:href="#m32f56097e6" x="151.157273" y="143.529522" style="fill: #f26444; fill-opacity: 0.8; stroke: #f26444; stroke-opacity: 0.8"/>
     <use xlink:href="#m32f56097e6" x="213.045625" y="143.303909" style="fill: #f26444; fill-opacity: 0.8; stroke: #f26444; stroke-opacity: 0.8"/>
     <use xlink:href="#m32f56097e6" x="274.933977" y="143.382823" style="fill: #f26444; fill-opacity: 0.8; stroke: #f26444; stroke-opacity: 0.8"/>
     <use xlink:href="#m32f56097e6" x="336.82233" y="143.412493" style="fill: #f26444; fill-opacity: 0.8; stroke: #f26444; stroke-opacity: 0.8"/>
    </g>
   </g>
   <g id="PolyCollection_4">
    <defs>
     <path id="m438417c87e" d="M 89.26892 -109.001647 
L 89.26892 -99.378108 
L 91.76946 -99.752308 
L 94.269999 -100.228092 
L 96.770539 -100.694056 
L 99.271078 -101.150199 
L 101.771618 -101.596522 
L 104.272157 -102.033344 
L 106.772697 -102.466536 
L 109.273236 -102.8896 
L 111.773776 -103.173877 
L 114.274315 -103.378006 
L 116.774855 -103.729429 
L 119.275394 -104.178394 
L 121.775934 -104.610295 
L 124.276473 -104.893221 
L 126.777013 -105.044714 
L 129.277552 -105.193635 
L 131.778092 -105.339983 
L 134.278631 -105.483759 
L 136.779171 -105.624964 
L 139.27971 -105.763596 
L 141.78025 -105.899656 
L 144.280789 -106.033143 
L 146.781329 -106.164059 
L 149.281868 -106.292402 
L 151.782408 -106.418173 
L 154.282947 -106.541373 
L 156.783487 -106.662 
L 159.284026 -106.780054 
L 161.784566 -106.430719 
L 164.285105 -106.525477 
L 166.785645 -106.316793 
L 169.286184 -106.477918 
L 171.786723 -106.623578 
L 174.287263 -106.775708 
L 176.787802 -106.927731 
L 179.288342 -107.075875 
L 181.788881 -107.220139 
L 184.289421 -107.360523 
L 186.78996 -107.497028 
L 189.2905 -107.629653 
L 191.791039 -107.758398 
L 194.291579 -107.883264 
L 196.792118 -108.00425 
L 199.292658 -108.121356 
L 201.793197 -108.234582 
L 204.293737 -108.343929 
L 206.794276 -108.430343 
L 209.294816 -108.431714 
L 211.795355 -108.431589 
L 214.295895 -108.431591 
L 216.796434 -108.366743 
L 219.296974 -108.125398 
L 221.797513 -107.866629 
L 224.298053 -107.590438 
L 226.798592 -107.519998 
L 229.299132 -107.498105 
L 231.799671 -107.469077 
L 234.300211 -107.259974 
L 236.80075 -107.040142 
L 239.30129 -106.809599 
L 241.801829 -106.568344 
L 244.302369 -106.316379 
L 246.802908 -106.053703 
L 249.303448 -105.780315 
L 251.803987 -105.514316 
L 254.304527 -105.256374 
L 256.805066 -104.992048 
L 259.305605 -104.721338 
L 261.806145 -104.444245 
L 264.306684 -104.160767 
L 266.807224 -103.870906 
L 269.307763 -103.574661 
L 271.808303 -103.272032 
L 274.308842 -102.963019 
L 276.809382 -102.647623 
L 279.309921 -102.325843 
L 281.810461 -101.997679 
L 284.311 -101.663131 
L 286.81154 -101.322199 
L 289.312079 -100.974884 
L 291.812619 -100.621184 
L 294.313158 -100.261101 
L 296.813698 -99.894634 
L 299.314237 -99.521784 
L 301.814777 -99.142549 
L 304.315316 -98.756931 
L 306.815856 -98.364929 
L 309.316395 -97.966543 
L 311.816935 -97.561773 
L 314.317474 -97.15062 
L 316.818014 -96.733082 
L 319.318553 -96.309161 
L 321.819093 -95.878856 
L 324.319632 -95.442168 
L 326.820172 -94.999095 
L 329.320711 -94.549639 
L 331.821251 -94.093798 
L 334.32179 -93.631574 
L 336.82233 -93.162967 
L 336.82233 -110.174611 
L 336.82233 -110.174611 
L 334.32179 -110.131186 
L 331.821251 -110.08832 
L 329.320711 -110.046013 
L 326.820172 -110.004264 
L 324.319632 -109.963075 
L 321.819093 -109.922445 
L 319.318553 -109.882374 
L 316.818014 -109.842862 
L 314.317474 -109.803909 
L 311.816935 -109.765515 
L 309.316395 -109.72768 
L 306.815856 -109.690404 
L 304.315316 -109.653687 
L 301.814777 -109.617529 
L 299.314237 -109.58193 
L 296.813698 -109.54689 
L 294.313158 -109.512409 
L 291.812619 -109.478487 
L 289.312079 -109.445124 
L 286.81154 -109.41232 
L 284.311 -109.380075 
L 281.810461 -109.348389 
L 279.309921 -109.317262 
L 276.809382 -109.286695 
L 274.308842 -109.256686 
L 271.808303 -109.235527 
L 269.307763 -109.251232 
L 266.807224 -109.354599 
L 264.306684 -109.411878 
L 261.806145 -109.411228 
L 259.305605 -109.536716 
L 256.805066 -109.585483 
L 254.304527 -109.692385 
L 251.803987 -109.675823 
L 249.303448 -109.640507 
L 246.802908 -109.601343 
L 244.302369 -109.558333 
L 241.801829 -109.512075 
L 239.30129 -109.563742 
L 236.80075 -109.613183 
L 234.300211 -109.574243 
L 231.799671 -109.49023 
L 229.299132 -109.409632 
L 226.798592 -109.413727 
L 224.298053 -109.424079 
L 221.797513 -109.448087 
L 219.296974 -109.470604 
L 216.796434 -109.491631 
L 214.295895 -109.511167 
L 211.795355 -109.529212 
L 209.294816 -109.545767 
L 206.794276 -109.560831 
L 204.293737 -109.582502 
L 201.793197 -109.586486 
L 199.292658 -109.597078 
L 196.792118 -109.670262 
L 194.291579 -109.754796 
L 191.791039 -109.802086 
L 189.2905 -109.871596 
L 186.78996 -109.903861 
L 184.289421 -109.918702 
L 181.788881 -109.91612 
L 179.288342 -109.894294 
L 176.787802 -109.800854 
L 174.287263 -109.79153 
L 171.786723 -109.82684 
L 169.286184 -109.857863 
L 166.785645 -109.722031 
L 164.285105 -109.596732 
L 161.784566 -109.442322 
L 159.284026 -109.329486 
L 156.783487 -109.318219 
L 154.282947 -109.305822 
L 151.782408 -109.292297 
L 149.281868 -109.277643 
L 146.781329 -109.26186 
L 144.280789 -109.453489 
L 141.78025 -109.433454 
L 139.27971 -109.567 
L 136.779171 -109.732403 
L 134.278631 -109.725259 
L 131.778092 -109.681411 
L 129.277552 -109.721834 
L 126.777013 -109.72941 
L 124.276473 -109.683275 
L 121.775934 -109.632853 
L 119.275394 -109.578145 
L 116.774855 -109.51915 
L 114.274315 -109.455869 
L 111.773776 -109.388301 
L 109.273236 -109.316447 
L 106.772697 -109.239524 
L 104.272157 -109.152595 
L 101.771618 -109.063583 
L 99.271078 -108.97249 
L 96.770539 -108.977522 
L 94.269999 -108.985483 
L 91.76946 -108.993525 
L 89.26892 -109.001647 
z
" style="stroke: #ffffff; stroke-opacity: 0.15"/>
    </defs>
    <g clip-path="url(#pce0a8fead0)">
     <use xlink:href="#m438417c87e" x="0" y="252" style="fill: #f26444; fill-opacity: 0.15; stroke: #ffffff; stroke-opacity: 0.15"/>
    </g>
   </g>
   <g id="PathCollection_5">
    <defs>
     <path id="m7e54c725ee" d="M 0 2.738613 
C 0.726289 2.738613 1.422928 2.450055 1.936492 1.936492 
C 2.450055 1.422928 2.738613 0.726289 2.738613 0 
C 2.738613 -0.726289 2.450055 -1.422928 1.936492 -1.936492 
C 1.422928 -2.450055 0.726289 -2.738613 0 -2.738613 
C -0.726289 -2.738613 -1.422928 -2.450055 -1.936492 -1.936492 
C -2.450055 -1.422928 -2.738613 -0.726289 -2.738613 0 
C -2.738613 0.726289 -2.450055 1.422928 -1.936492 1.936492 
C -1.422928 2.450055 -0.726289 2.738613 0 2.738613 
z
" style="stroke: #d9ab9a; stroke-opacity: 0.8"/>
    </defs>
    <g clip-path="url(#pce0a8fead0)">
     <use xlink:href="#m7e54c725ee" x="89.26892" y="183.176272" style="fill: #d9ab9a; fill-opacity: 0.8; stroke: #d9ab9a; stroke-opacity: 0.8"/>
     <use xlink:href="#m7e54c725ee" x="151.157273" y="183.384056" style="fill: #d9ab9a; fill-opacity: 0.8; stroke: #d9ab9a; stroke-opacity: 0.8"/>
     <use xlink:href="#m7e54c725ee" x="213.045625" y="183.361232" style="fill: #d9ab9a; fill-opacity: 0.8; stroke: #d9ab9a; stroke-opacity: 0.8"/>
     <use xlink:href="#m7e54c725ee" x="274.933977" y="183.439275" style="fill: #d9ab9a; fill-opacity: 0.8; stroke: #d9ab9a; stroke-opacity: 0.8"/>
     <use xlink:href="#m7e54c725ee" x="336.82233" y="183.441783" style="fill: #d9ab9a; fill-opacity: 0.8; stroke: #d9ab9a; stroke-opacity: 0.8"/>
    </g>
   </g>
   <g id="PolyCollection_5">
    <defs>
     <path id="m6f106023f3" d="M 89.26892 -69.021461 
L 89.26892 -64.462075 
L 91.76946 -64.605902 
L 94.269999 -64.745019 
L 96.770539 -64.881781 
L 99.271078 -65.016185 
L 101.771618 -65.148234 
L 104.272157 -65.277926 
L 106.772697 -65.405261 
L 109.273236 -65.53024 
L 111.773776 -65.719465 
L 114.274315 -65.921858 
L 116.774855 -66.02143 
L 119.275394 -66.119403 
L 121.775934 -66.215777 
L 124.276473 -66.310551 
L 126.777013 -66.403726 
L 129.277552 -66.495301 
L 131.778092 -66.585277 
L 134.278631 -66.673653 
L 136.779171 -66.76043 
L 139.27971 -66.845592 
L 141.78025 -66.928894 
L 144.280789 -67.010615 
L 146.781329 -67.090757 
L 149.281868 -67.208423 
L 151.782408 -67.293144 
L 154.282947 -67.375527 
L 156.783487 -67.455574 
L 159.284026 -67.533284 
L 161.784566 -67.538425 
L 164.285105 -67.607506 
L 166.785645 -67.631976 
L 169.286184 -67.706009 
L 171.786723 -67.781357 
L 174.287263 -67.854032 
L 176.787802 -67.924035 
L 179.288342 -67.986365 
L 181.788881 -68.044798 
L 184.289421 -68.101614 
L 186.78996 -68.156813 
L 189.2905 -68.210395 
L 191.791039 -68.262359 
L 194.291579 -68.312707 
L 196.792118 -68.361437 
L 199.292658 -68.408551 
L 201.793197 -68.454047 
L 204.293737 -68.497912 
L 206.794276 -68.509617 
L 209.294816 -68.506627 
L 211.795355 -68.503791 
L 214.295895 -68.501109 
L 216.796434 -68.498581 
L 219.296974 -68.451228 
L 221.797513 -68.366459 
L 224.298053 -68.276116 
L 226.798592 -68.180199 
L 229.299132 -68.07871 
L 231.799671 -68.073609 
L 234.300211 -68.040661 
L 236.80075 -67.959382 
L 239.30129 -67.875806 
L 241.801829 -67.789931 
L 244.302369 -67.70176 
L 246.802908 -67.611291 
L 249.303448 -67.518524 
L 251.803987 -67.42346 
L 254.304527 -67.326098 
L 256.805066 -67.226439 
L 259.305605 -67.124482 
L 261.806145 -67.020227 
L 264.306684 -66.913675 
L 266.807224 -66.804826 
L 269.307763 -66.693679 
L 271.808303 -66.580234 
L 274.308842 -66.464492 
L 276.809382 -66.346452 
L 279.309921 -66.226115 
L 281.810461 -66.10348 
L 284.311 -65.978547 
L 286.81154 -65.851317 
L 289.312079 -65.72179 
L 291.812619 -65.589965 
L 294.313158 -65.455842 
L 296.813698 -65.319422 
L 299.314237 -65.180704 
L 301.814777 -65.039689 
L 304.315316 -64.896376 
L 306.815856 -64.750766 
L 309.316395 -64.602858 
L 311.816935 -64.452652 
L 314.317474 -64.300149 
L 316.818014 -64.145349 
L 319.318553 -63.988251 
L 321.819093 -63.828855 
L 324.319632 -63.667162 
L 326.820172 -63.503171 
L 329.320711 -63.336882 
L 331.821251 -63.168297 
L 334.32179 -62.997413 
L 336.82233 -62.824232 
L 336.82233 -69.37624 
L 336.82233 -69.37624 
L 334.32179 -69.352213 
L 331.821251 -69.328561 
L 329.320711 -69.305287 
L 326.820172 -69.282388 
L 324.319632 -69.259866 
L 321.819093 -69.237721 
L 319.318553 -69.215952 
L 316.818014 -69.19456 
L 314.317474 -69.173544 
L 311.816935 -69.152904 
L 309.316395 -69.132641 
L 306.815856 -69.112755 
L 304.315316 -69.093245 
L 301.814777 -69.074111 
L 299.314237 -69.055354 
L 296.813698 -69.036973 
L 294.313158 -69.018969 
L 291.812619 -69.008987 
L 289.312079 -69.028785 
L 286.81154 -69.048031 
L 284.311 -69.065227 
L 281.810461 -69.07199 
L 279.309921 -69.077172 
L 276.809382 -69.080775 
L 274.308842 -69.082797 
L 271.808303 -69.083239 
L 269.307763 -69.082102 
L 266.807224 -69.079384 
L 264.306684 -69.075086 
L 261.806145 -69.069208 
L 259.305605 -69.062067 
L 256.805066 -69.084381 
L 254.304527 -69.141136 
L 251.803987 -69.134504 
L 249.303448 -69.116855 
L 246.802908 -69.097228 
L 244.302369 -69.075997 
L 241.801829 -69.090844 
L 239.30129 -69.122147 
L 236.80075 -69.125571 
L 234.300211 -69.114405 
L 231.799671 -69.131309 
L 229.299132 -69.146299 
L 226.798592 -69.159307 
L 224.298053 -69.170334 
L 221.797513 -69.179378 
L 219.296974 -69.186439 
L 216.796434 -69.191519 
L 214.295895 -69.194617 
L 211.795355 -69.195732 
L 209.294816 -69.190186 
L 206.794276 -69.17926 
L 204.293737 -69.190445 
L 201.793197 -69.200814 
L 199.292658 -69.210368 
L 196.792118 -69.219107 
L 194.291579 -69.22703 
L 191.791039 -69.259379 
L 189.2905 -69.250422 
L 186.78996 -69.24738 
L 184.289421 -69.252214 
L 181.788881 -69.255322 
L 179.288342 -69.257454 
L 176.787802 -69.275952 
L 174.287263 -69.261343 
L 171.786723 -69.261661 
L 169.286184 -69.261433 
L 166.785645 -69.26039 
L 164.285105 -69.258531 
L 161.784566 -69.255858 
L 159.284026 -69.252369 
L 156.783487 -69.248065 
L 154.282947 -69.242946 
L 151.782408 -69.237012 
L 149.281868 -69.230263 
L 146.781329 -69.222698 
L 144.280789 -69.214318 
L 141.78025 -69.205124 
L 139.27971 -69.206265 
L 136.779171 -69.192383 
L 134.278631 -69.177949 
L 131.778092 -69.162963 
L 129.277552 -69.147425 
L 126.777013 -69.132836 
L 124.276473 -69.117935 
L 121.775934 -69.102219 
L 119.275394 -69.085687 
L 116.774855 -69.068341 
L 114.274315 -69.050179 
L 111.773776 -69.031202 
L 109.273236 -69.01141 
L 106.772697 -68.990803 
L 104.272157 -68.969381 
L 101.771618 -68.969087 
L 99.271078 -68.979315 
L 96.770539 -68.989667 
L 94.269999 -69.000142 
L 91.76946 -69.01074 
L 89.26892 -69.021461 
z
" style="stroke: #ffffff; stroke-opacity: 0.15"/>
    </defs>
    <g clip-path="url(#pce0a8fead0)">
     <use xlink:href="#m6f106023f3" x="0" y="252" style="fill: #d9ab9a; fill-opacity: 0.15; stroke: #ffffff; stroke-opacity: 0.15"/>
    </g>
   </g>
   <g id="PathCollection_6">
    <defs>
     <path id="m0957960436" d="M 0 2.738613 
C 0.726289 2.738613 1.422928 2.450055 1.936492 1.936492 
C 2.450055 1.422928 2.738613 0.726289 2.738613 0 
C 2.738613 -0.726289 2.450055 -1.422928 1.936492 -1.936492 
C 1.422928 -2.450055 0.726289 -2.738613 0 -2.738613 
C -0.726289 -2.738613 -1.422928 -2.450055 -1.936492 -1.936492 
C -2.450055 -1.422928 -2.738613 -0.726289 -2.738613 0 
C -2.738613 0.726289 -2.450055 1.422928 -1.936492 1.936492 
C -1.422928 2.450055 -0.726289 2.738613 0 2.738613 
z
" style="stroke: #889c9b; stroke-opacity: 0.8"/>
    </defs>
    <g clip-path="url(#pce0a8fead0)">
     <use xlink:href="#m0957960436" x="89.26892" y="188.422931" style="fill: #889c9b; fill-opacity: 0.8; stroke: #889c9b; stroke-opacity: 0.8"/>
     <use xlink:href="#m0957960436" x="151.157273" y="188.356186" style="fill: #889c9b; fill-opacity: 0.8; stroke: #889c9b; stroke-opacity: 0.8"/>
     <use xlink:href="#m0957960436" x="213.045625" y="188.479342" style="fill: #889c9b; fill-opacity: 0.8; stroke: #889c9b; stroke-opacity: 0.8"/>
     <use xlink:href="#m0957960436" x="274.933977" y="188.439827" style="fill: #889c9b; fill-opacity: 0.8; stroke: #889c9b; stroke-opacity: 0.8"/>
     <use xlink:href="#m0957960436" x="336.82233" y="188.435488" style="fill: #889c9b; fill-opacity: 0.8; stroke: #889c9b; stroke-opacity: 0.8"/>
    </g>
   </g>
   <g id="PolyCollection_6">
    <defs>
     <path id="maf41d617f3" d="M 89.26892 -63.929641 
L 89.26892 -59.506744 
L 91.76946 -59.727906 
L 94.269999 -59.944519 
L 96.770539 -60.155407 
L 99.271078 -60.360716 
L 101.771618 -60.561541 
L 104.272157 -60.715244 
L 106.772697 -60.811752 
L 109.273236 -60.907082 
L 111.773776 -60.997694 
L 114.274315 -61.086941 
L 116.774855 -61.174824 
L 119.275394 -61.261342 
L 121.775934 -61.346495 
L 124.276473 -61.430284 
L 126.777013 -61.512708 
L 129.277552 -61.593768 
L 131.778092 -61.673462 
L 134.278631 -61.751792 
L 136.779171 -61.828758 
L 139.27971 -61.904359 
L 141.78025 -61.978595 
L 144.280789 -62.051466 
L 146.781329 -62.122973 
L 149.281868 -62.193115 
L 151.782408 -62.261893 
L 154.282947 -62.329306 
L 156.783487 -62.395354 
L 159.284026 -62.460037 
L 161.784566 -62.523356 
L 164.285105 -62.505474 
L 166.785645 -62.578419 
L 169.286184 -62.520702 
L 171.786723 -62.599534 
L 174.287263 -62.675737 
L 176.787802 -62.74931 
L 179.288342 -62.820254 
L 181.788881 -62.888569 
L 184.289421 -62.954254 
L 186.78996 -63.017311 
L 189.2905 -63.077738 
L 191.791039 -63.135535 
L 194.291579 -63.190704 
L 196.792118 -63.243243 
L 199.292658 -63.293152 
L 201.793197 -63.340433 
L 204.293737 -63.385084 
L 206.794276 -63.427106 
L 209.294816 -63.466499 
L 211.795355 -63.503157 
L 214.295895 -63.486446 
L 216.796434 -63.414252 
L 219.296974 -63.337033 
L 221.797513 -63.254789 
L 224.298053 -63.167518 
L 226.798592 -63.075223 
L 229.299132 -63.043632 
L 231.799671 -62.971631 
L 234.300211 -63.011154 
L 236.80075 -63.053623 
L 239.30129 -63.029553 
L 241.801829 -62.973803 
L 244.302369 -62.916491 
L 246.802908 -62.857617 
L 249.303448 -62.797182 
L 251.803987 -62.735185 
L 254.304527 -62.671627 
L 256.805066 -62.606508 
L 259.305605 -62.539827 
L 261.806145 -62.471584 
L 264.306684 -62.40178 
L 266.807224 -62.330414 
L 269.307763 -62.257487 
L 271.808303 -62.182998 
L 274.308842 -62.106948 
L 276.809382 -62.029717 
L 279.309921 -61.950993 
L 281.810461 -61.87074 
L 284.311 -61.788958 
L 286.81154 -61.705647 
L 289.312079 -61.620808 
L 291.812619 -61.53444 
L 294.313158 -61.446543 
L 296.813698 -61.357117 
L 299.314237 -61.266163 
L 301.814777 -61.173679 
L 304.315316 -61.079667 
L 306.815856 -60.984127 
L 309.316395 -60.887057 
L 311.816935 -60.788459 
L 314.317474 -60.688332 
L 316.818014 -60.586676 
L 319.318553 -60.483491 
L 321.819093 -60.378778 
L 324.319632 -60.272536 
L 326.820172 -60.133961 
L 329.320711 -59.923141 
L 331.821251 -59.707813 
L 334.32179 -59.487979 
L 336.82233 -59.263636 
L 336.82233 -63.762359 
L 336.82233 -63.762359 
L 334.32179 -63.751036 
L 331.821251 -63.739979 
L 329.320711 -63.729187 
L 326.820172 -63.718661 
L 324.319632 -63.7119 
L 321.819093 -63.737283 
L 319.318553 -63.761302 
L 316.818014 -63.783957 
L 314.317474 -63.805246 
L 311.816935 -63.825172 
L 309.316395 -63.843732 
L 306.815856 -63.860928 
L 304.315316 -63.876759 
L 301.814777 -63.891225 
L 299.314237 -63.904327 
L 296.813698 -63.916064 
L 294.313158 -63.926437 
L 291.812619 -63.935444 
L 289.312079 -63.943087 
L 286.81154 -63.949366 
L 284.311 -63.95428 
L 281.810461 -63.958959 
L 279.309921 -63.971571 
L 276.809382 -63.983721 
L 274.308842 -63.995408 
L 271.808303 -64.006632 
L 269.307763 -64.017394 
L 266.807224 -64.027694 
L 264.306684 -64.037531 
L 261.806145 -64.046906 
L 259.305605 -64.055819 
L 256.805066 -64.064269 
L 254.304527 -64.103794 
L 251.803987 -64.139275 
L 249.303448 -64.174698 
L 246.802908 -64.212097 
L 244.302369 -64.213718 
L 241.801829 -64.214455 
L 239.30129 -64.214306 
L 236.80075 -64.213273 
L 234.300211 -64.211355 
L 231.799671 -64.208553 
L 229.299132 -64.220133 
L 226.798592 -64.23506 
L 224.298053 -64.247781 
L 221.797513 -64.258295 
L 219.296974 -64.266604 
L 216.796434 -64.272706 
L 214.295895 -64.276602 
L 211.795355 -64.278292 
L 209.294816 -64.277775 
L 206.794276 -64.275053 
L 204.293737 -64.261222 
L 201.793197 -64.243676 
L 199.292658 -64.225365 
L 196.792118 -64.242099 
L 194.291579 -64.228345 
L 191.791039 -64.212385 
L 189.2905 -64.194219 
L 186.78996 -64.173846 
L 184.289421 -64.172056 
L 181.788881 -64.202395 
L 179.288342 -64.196107 
L 176.787802 -64.155175 
L 174.287263 -64.112651 
L 171.786723 -64.076442 
L 169.286184 -64.068708 
L 166.785645 -64.034514 
L 164.285105 -63.98081 
L 161.784566 -63.975372 
L 159.284026 -63.912006 
L 156.783487 -63.881766 
L 154.282947 -63.867539 
L 151.782408 -63.860236 
L 149.281868 -63.852624 
L 146.781329 -63.933622 
L 144.280789 -63.961949 
L 141.78025 -63.953115 
L 139.27971 -63.939832 
L 136.779171 -63.926087 
L 134.278631 -63.911879 
L 131.778092 -63.897209 
L 129.277552 -63.882076 
L 126.777013 -63.866481 
L 124.276473 -63.850424 
L 121.775934 -63.833904 
L 119.275394 -63.816922 
L 116.774855 -63.799478 
L 114.274315 -63.794571 
L 111.773776 -63.806883 
L 109.273236 -63.81946 
L 106.772697 -63.832303 
L 104.272157 -63.845412 
L 101.771618 -63.858786 
L 99.271078 -63.872426 
L 96.770539 -63.886332 
L 94.269999 -63.900503 
L 91.76946 -63.914939 
L 89.26892 -63.929641 
z
" style="stroke: #ffffff; stroke-opacity: 0.15"/>
    </defs>
    <g clip-path="url(#pce0a8fead0)">
     <use xlink:href="#maf41d617f3" x="0" y="252" style="fill: #889c9b; fill-opacity: 0.15; stroke: #ffffff; stroke-opacity: 0.15"/>
    </g>
   </g>
   <g id="line2d_14">
    <path d="M 89.26892 22.909977 
L 91.76946 22.903545 
L 94.269999 22.897233 
L 96.770539 22.89104 
L 99.271078 22.884968 
L 101.771618 22.879015 
L 104.272157 22.873182 
L 106.772697 22.867469 
L 109.273236 22.861875 
L 111.773776 22.856401 
L 114.274315 22.851047 
L 116.774855 22.845813 
L 119.275394 22.840699 
L 121.775934 22.835704 
L 124.276473 22.830829 
L 126.777013 22.826074 
L 129.277552 22.821439 
L 131.778092 22.816923 
L 134.278631 22.812527 
L 136.779171 22.808251 
L 139.27971 22.804095 
L 141.78025 22.800058 
L 144.280789 22.796141 
L 146.781329 22.792344 
L 149.281868 22.788667 
L 151.782408 22.785109 
L 154.282947 22.781671 
L 156.783487 22.778353 
L 159.284026 22.775155 
L 161.784566 22.772077 
L 164.285105 22.769118 
L 166.785645 22.766279 
L 169.286184 22.76356 
L 171.786723 22.76096 
L 174.287263 22.75848 
L 176.787802 22.756121 
L 179.288342 22.75388 
L 181.788881 22.75176 
L 184.289421 22.749759 
L 186.78996 22.747878 
L 189.2905 22.746117 
L 191.791039 22.744476 
L 194.291579 22.742954 
L 196.792118 22.741553 
L 199.292658 22.74027 
L 201.793197 22.739108 
L 204.293737 22.738066 
L 206.794276 22.737143 
L 209.294816 22.73634 
L 211.795355 22.735657 
L 214.295895 22.735093 
L 216.796434 22.734649 
L 219.296974 22.734325 
L 221.797513 22.734121 
L 224.298053 22.734037 
L 226.798592 22.734072 
L 229.299132 22.734227 
L 231.799671 22.734502 
L 234.300211 22.734896 
L 236.80075 22.735411 
L 239.30129 22.736045 
L 241.801829 22.736799 
L 244.302369 22.737672 
L 246.802908 22.738666 
L 249.303448 22.739779 
L 251.803987 22.741012 
L 254.304527 22.742365 
L 256.805066 22.743837 
L 259.305605 22.745429 
L 261.806145 22.747141 
L 264.306684 22.748973 
L 266.807224 22.750925 
L 269.307763 22.752996 
L 271.808303 22.755187 
L 274.308842 22.757498 
L 276.809382 22.759928 
L 279.309921 22.762478 
L 281.810461 22.765149 
L 284.311 22.767938 
L 286.81154 22.770848 
L 289.312079 22.773877 
L 291.812619 22.777026 
L 294.313158 22.780295 
L 296.813698 22.783684 
L 299.314237 22.787192 
L 301.814777 22.790821 
L 304.315316 22.794569 
L 306.815856 22.798436 
L 309.316395 22.802424 
L 311.816935 22.806531 
L 314.317474 22.810758 
L 316.818014 22.815105 
L 319.318553 22.819571 
L 321.819093 22.824157 
L 324.319632 22.828863 
L 326.820172 22.833689 
L 329.320711 22.838635 
L 331.821251 22.8437 
L 334.32179 22.848885 
L 336.82233 22.85419 
" clip-path="url(#pce0a8fead0)" style="fill: none; stroke: #731d1d; stroke-width: 2; stroke-linecap: round"/>
   </g>
   <g id="line2d_15">
    <path d="M 89.26892 62.756964 
L 91.76946 62.763912 
L 94.269999 62.770763 
L 96.770539 62.777515 
L 99.271078 62.78417 
L 101.771618 62.790726 
L 104.272157 62.797185 
L 106.772697 62.803546 
L 109.273236 62.809809 
L 111.773776 62.815974 
L 114.274315 62.822041 
L 116.774855 62.82801 
L 119.275394 62.833882 
L 121.775934 62.839655 
L 124.276473 62.845331 
L 126.777013 62.850909 
L 129.277552 62.856389 
L 131.778092 62.861771 
L 134.278631 62.867055 
L 136.779171 62.872241 
L 139.27971 62.877329 
L 141.78025 62.88232 
L 144.280789 62.887213 
L 146.781329 62.892007 
L 149.281868 62.896704 
L 151.782408 62.901303 
L 154.282947 62.905804 
L 156.783487 62.910207 
L 159.284026 62.914513 
L 161.784566 62.91872 
L 164.285105 62.922829 
L 166.785645 62.926841 
L 169.286184 62.930755 
L 171.786723 62.934571 
L 174.287263 62.938289 
L 176.787802 62.941909 
L 179.288342 62.945431 
L 181.788881 62.948855 
L 184.289421 62.952182 
L 186.78996 62.95541 
L 189.2905 62.958541 
L 191.791039 62.961574 
L 194.291579 62.964509 
L 196.792118 62.967346 
L 199.292658 62.970085 
L 201.793197 62.972726 
L 204.293737 62.97527 
L 206.794276 62.977715 
L 209.294816 62.980063 
L 211.795355 62.982312 
L 214.295895 62.984464 
L 216.796434 62.986518 
L 219.296974 62.988474 
L 221.797513 62.990332 
L 224.298053 62.992093 
L 226.798592 62.993755 
L 229.299132 62.99532 
L 231.799671 62.996786 
L 234.300211 62.998155 
L 236.80075 62.999426 
L 239.30129 63.000599 
L 241.801829 63.001674 
L 244.302369 63.002651 
L 246.802908 63.003531 
L 249.303448 63.004312 
L 251.803987 63.004996 
L 254.304527 63.005581 
L 256.805066 63.006069 
L 259.305605 63.006459 
L 261.806145 63.006751 
L 264.306684 63.006945 
L 266.807224 63.007041 
L 269.307763 63.00704 
L 271.808303 63.00694 
L 274.308842 63.006743 
L 276.809382 63.006448 
L 279.309921 63.006054 
L 281.810461 63.005563 
L 284.311 63.004974 
L 286.81154 63.004288 
L 289.312079 63.003503 
L 291.812619 63.00262 
L 294.313158 63.00164 
L 296.813698 63.000562 
L 299.314237 62.999385 
L 301.814777 62.998111 
L 304.315316 62.996739 
L 306.815856 62.995269 
L 309.316395 62.993701 
L 311.816935 62.992036 
L 314.317474 62.990272 
L 316.818014 62.988411 
L 319.318553 62.986452 
L 321.819093 62.984394 
L 324.319632 62.982239 
L 326.820172 62.979986 
L 329.320711 62.977635 
L 331.821251 62.975187 
L 334.32179 62.97264 
L 336.82233 62.969996 
" clip-path="url(#pce0a8fead0)" style="fill: none; stroke: #735340; stroke-width: 2; stroke-linecap: round"/>
   </g>
   <g id="line2d_16">
    <path d="M 89.26892 103.244323 
L 91.76946 103.246826 
L 94.269999 103.249287 
L 96.770539 103.251704 
L 99.271078 103.254079 
L 101.771618 103.25641 
L 104.272157 103.258698 
L 106.772697 103.260944 
L 109.273236 103.263146 
L 111.773776 103.265305 
L 114.274315 103.267422 
L 116.774855 103.269495 
L 119.275394 103.271525 
L 121.775934 103.273512 
L 124.276473 103.275456 
L 126.777013 103.277358 
L 129.277552 103.279216 
L 131.778092 103.281031 
L 134.278631 103.282803 
L 136.779171 103.284532 
L 139.27971 103.286218 
L 141.78025 103.287861 
L 144.280789 103.28946 
L 146.781329 103.291017 
L 149.281868 103.292531 
L 151.782408 103.294002 
L 154.282947 103.29543 
L 156.783487 103.296814 
L 159.284026 103.298156 
L 161.784566 103.299455 
L 164.285105 103.30071 
L 166.785645 103.301923 
L 169.286184 103.303092 
L 171.786723 103.304219 
L 174.287263 103.305302 
L 176.787802 103.306343 
L 179.288342 103.30734 
L 181.788881 103.308295 
L 184.289421 103.309206 
L 186.78996 103.310074 
L 189.2905 103.3109 
L 191.791039 103.311682 
L 194.291579 103.312421 
L 196.792118 103.313117 
L 199.292658 103.313771 
L 201.793197 103.314381 
L 204.293737 103.314948 
L 206.794276 103.315472 
L 209.294816 103.315953 
L 211.795355 103.316391 
L 214.295895 103.316786 
L 216.796434 103.317138 
L 219.296974 103.317447 
L 221.797513 103.317713 
L 224.298053 103.317935 
L 226.798592 103.318115 
L 229.299132 103.318252 
L 231.799671 103.318346 
L 234.300211 103.318396 
L 236.80075 103.318404 
L 239.30129 103.318369 
L 241.801829 103.31829 
L 244.302369 103.318169 
L 246.802908 103.318005 
L 249.303448 103.317797 
L 251.803987 103.317547 
L 254.304527 103.317253 
L 256.805066 103.316916 
L 259.305605 103.316537 
L 261.806145 103.316114 
L 264.306684 103.315649 
L 266.807224 103.31514 
L 269.307763 103.314588 
L 271.808303 103.313993 
L 274.308842 103.313355 
L 276.809382 103.312675 
L 279.309921 103.311951 
L 281.810461 103.311184 
L 284.311 103.310374 
L 286.81154 103.309521 
L 289.312079 103.308625 
L 291.812619 103.307686 
L 294.313158 103.306704 
L 296.813698 103.305679 
L 299.314237 103.304611 
L 301.814777 103.3035 
L 304.315316 103.302345 
L 306.815856 103.301148 
L 309.316395 103.299908 
L 311.816935 103.298625 
L 314.317474 103.297298 
L 316.818014 103.295929 
L 319.318553 103.294517 
L 321.819093 103.293061 
L 324.319632 103.291563 
L 326.820172 103.290021 
L 329.320711 103.288437 
L 331.821251 103.286809 
L 334.32179 103.285139 
L 336.82233 103.283425 
" clip-path="url(#pce0a8fead0)" style="fill: none; stroke: #d94436; stroke-width: 2; stroke-linecap: round"/>
   </g>
   <g id="line2d_17">
    <path d="M 89.26892 143.456319 
L 91.76946 143.454236 
L 94.269999 143.452184 
L 96.770539 143.450162 
L 99.271078 143.44817 
L 101.771618 143.446209 
L 104.272157 143.444278 
L 106.772697 143.442378 
L 109.273236 143.440508 
L 111.773776 143.438668 
L 114.274315 143.436859 
L 116.774855 143.43508 
L 119.275394 143.433332 
L 121.775934 143.431613 
L 124.276473 143.429926 
L 126.777013 143.428268 
L 129.277552 143.426641 
L 131.778092 143.425044 
L 134.278631 143.423478 
L 136.779171 143.421942 
L 139.27971 143.420437 
L 141.78025 143.418961 
L 144.280789 143.417517 
L 146.781329 143.416102 
L 149.281868 143.414718 
L 151.782408 143.413364 
L 154.282947 143.412041 
L 156.783487 143.410748 
L 159.284026 143.409485 
L 161.784566 143.408253 
L 164.285105 143.407051 
L 166.785645 143.40588 
L 169.286184 143.404739 
L 171.786723 143.403628 
L 174.287263 143.402548 
L 176.787802 143.401498 
L 179.288342 143.400478 
L 181.788881 143.399489 
L 184.289421 143.39853 
L 186.78996 143.397601 
L 189.2905 143.396703 
L 191.791039 143.395835 
L 194.291579 143.394998 
L 196.792118 143.394191 
L 199.292658 143.393414 
L 201.793197 143.392668 
L 204.293737 143.391952 
L 206.794276 143.391266 
L 209.294816 143.390611 
L 211.795355 143.389987 
L 214.295895 143.389392 
L 216.796434 143.388828 
L 219.296974 143.388294 
L 221.797513 143.387791 
L 224.298053 143.387318 
L 226.798592 143.386876 
L 229.299132 143.386463 
L 231.799671 143.386082 
L 234.300211 143.38573 
L 236.80075 143.385409 
L 239.30129 143.385118 
L 241.801829 143.384858 
L 244.302369 143.384628 
L 246.802908 143.384428 
L 249.303448 143.384259 
L 251.803987 143.38412 
L 254.304527 143.384012 
L 256.805066 143.383934 
L 259.305605 143.383886 
L 261.806145 143.383869 
L 264.306684 143.383882 
L 266.807224 143.383925 
L 269.307763 143.383999 
L 271.808303 143.384103 
L 274.308842 143.384237 
L 276.809382 143.384402 
L 279.309921 143.384598 
L 281.810461 143.384823 
L 284.311 143.385079 
L 286.81154 143.385365 
L 289.312079 143.385682 
L 291.812619 143.386029 
L 294.313158 143.386407 
L 296.813698 143.386815 
L 299.314237 143.387253 
L 301.814777 143.387721 
L 304.315316 143.38822 
L 306.815856 143.38875 
L 309.316395 143.389309 
L 311.816935 143.3899 
L 314.317474 143.39052 
L 316.818014 143.391171 
L 319.318553 143.391852 
L 321.819093 143.392564 
L 324.319632 143.393305 
L 326.820172 143.394078 
L 329.320711 143.39488 
L 331.821251 143.395713 
L 334.32179 143.396577 
L 336.82233 143.397471 
" clip-path="url(#pce0a8fead0)" style="fill: none; stroke: #f26444; stroke-width: 2; stroke-linecap: round"/>
   </g>
   <g id="line2d_18">
    <path d="M 89.26892 183.199034 
L 91.76946 183.204942 
L 94.269999 183.210777 
L 96.770539 183.21654 
L 99.271078 183.222231 
L 101.771618 183.22785 
L 104.272157 183.233396 
L 106.772697 183.238871 
L 109.273236 183.244273 
L 111.773776 183.249602 
L 114.274315 183.25486 
L 116.774855 183.260045 
L 119.275394 183.265158 
L 121.775934 183.270199 
L 124.276473 183.275168 
L 126.777013 183.280064 
L 129.277552 183.284889 
L 131.778092 183.28964 
L 134.278631 183.29432 
L 136.779171 183.298928 
L 139.27971 183.303463 
L 141.78025 183.307926 
L 144.280789 183.312317 
L 146.781329 183.316636 
L 149.281868 183.320882 
L 151.782408 183.325056 
L 154.282947 183.329158 
L 156.783487 183.333188 
L 159.284026 183.337146 
L 161.784566 183.341031 
L 164.285105 183.344844 
L 166.785645 183.348585 
L 169.286184 183.352254 
L 171.786723 183.35585 
L 174.287263 183.359374 
L 176.787802 183.362826 
L 179.288342 183.366206 
L 181.788881 183.369514 
L 184.289421 183.372749 
L 186.78996 183.375912 
L 189.2905 183.379003 
L 191.791039 183.382022 
L 194.291579 183.384968 
L 196.792118 183.387842 
L 199.292658 183.390644 
L 201.793197 183.393374 
L 204.293737 183.396031 
L 206.794276 183.398617 
L 209.294816 183.40113 
L 211.795355 183.403571 
L 214.295895 183.405939 
L 216.796434 183.408236 
L 219.296974 183.41046 
L 221.797513 183.412612 
L 224.298053 183.414692 
L 226.798592 183.416699 
L 229.299132 183.418635 
L 231.799671 183.420498 
L 234.300211 183.422289 
L 236.80075 183.424007 
L 239.30129 183.425654 
L 241.801829 183.427228 
L 244.302369 183.42873 
L 246.802908 183.43016 
L 249.303448 183.431517 
L 251.803987 183.432803 
L 254.304527 183.434016 
L 256.805066 183.435157 
L 259.305605 183.436225 
L 261.806145 183.437222 
L 264.306684 183.438146 
L 266.807224 183.438998 
L 269.307763 183.439778 
L 271.808303 183.440485 
L 274.308842 183.441121 
L 276.809382 183.441684 
L 279.309921 183.442175 
L 281.810461 183.442593 
L 284.311 183.44294 
L 286.81154 183.443214 
L 289.312079 183.443416 
L 291.812619 183.443546 
L 294.313158 183.443603 
L 296.813698 183.443588 
L 299.314237 183.443502 
L 301.814777 183.443342 
L 304.315316 183.443111 
L 306.815856 183.442808 
L 309.316395 183.442432 
L 311.816935 183.441984 
L 314.317474 183.441463 
L 316.818014 183.440871 
L 319.318553 183.440206 
L 321.819093 183.439469 
L 324.319632 183.43866 
L 326.820172 183.437779 
L 329.320711 183.436825 
L 331.821251 183.4358 
L 334.32179 183.434702 
L 336.82233 183.433531 
" clip-path="url(#pce0a8fead0)" style="fill: none; stroke: #d9ab9a; stroke-width: 2; stroke-linecap: round"/>
   </g>
   <g id="line2d_19">
    <path d="M 89.26892 188.399596 
L 91.76946 188.400468 
L 94.269999 188.401331 
L 96.770539 188.402185 
L 99.271078 188.403031 
L 101.771618 188.403868 
L 104.272157 188.404696 
L 106.772697 188.405515 
L 109.273236 188.406325 
L 111.773776 188.407126 
L 114.274315 188.407919 
L 116.774855 188.408703 
L 119.275394 188.409477 
L 121.775934 188.410244 
L 124.276473 188.411001 
L 126.777013 188.411749 
L 129.277552 188.412489 
L 131.778092 188.41322 
L 134.278631 188.413942 
L 136.779171 188.414655 
L 139.27971 188.415359 
L 141.78025 188.416054 
L 144.280789 188.416741 
L 146.781329 188.417419 
L 149.281868 188.418088 
L 151.782408 188.418748 
L 154.282947 188.419399 
L 156.783487 188.420042 
L 159.284026 188.420675 
L 161.784566 188.4213 
L 164.285105 188.421916 
L 166.785645 188.422523 
L 169.286184 188.423122 
L 171.786723 188.423711 
L 174.287263 188.424292 
L 176.787802 188.424864 
L 179.288342 188.425427 
L 181.788881 188.425981 
L 184.289421 188.426526 
L 186.78996 188.427063 
L 189.2905 188.427591 
L 191.791039 188.42811 
L 194.291579 188.42862 
L 196.792118 188.429121 
L 199.292658 188.429613 
L 201.793197 188.430097 
L 204.293737 188.430571 
L 206.794276 188.431037 
L 209.294816 188.431494 
L 211.795355 188.431943 
L 214.295895 188.432382 
L 216.796434 188.432813 
L 219.296974 188.433234 
L 221.797513 188.433647 
L 224.298053 188.434051 
L 226.798592 188.434447 
L 229.299132 188.434833 
L 231.799671 188.435211 
L 234.300211 188.43558 
L 236.80075 188.43594 
L 239.30129 188.436291 
L 241.801829 188.436633 
L 244.302369 188.436966 
L 246.802908 188.437291 
L 249.303448 188.437607 
L 251.803987 188.437914 
L 254.304527 188.438212 
L 256.805066 188.438501 
L 259.305605 188.438782 
L 261.806145 188.439053 
L 264.306684 188.439316 
L 266.807224 188.43957 
L 269.307763 188.439815 
L 271.808303 188.440052 
L 274.308842 188.440279 
L 276.809382 188.440498 
L 279.309921 188.440708 
L 281.810461 188.440909 
L 284.311 188.441101 
L 286.81154 188.441284 
L 289.312079 188.441459 
L 291.812619 188.441625 
L 294.313158 188.441782 
L 296.813698 188.44193 
L 299.314237 188.442069 
L 301.814777 188.442199 
L 304.315316 188.442321 
L 306.815856 188.442434 
L 309.316395 188.442538 
L 311.816935 188.442633 
L 314.317474 188.442719 
L 316.818014 188.442796 
L 319.318553 188.442865 
L 321.819093 188.442925 
L 324.319632 188.442976 
L 326.820172 188.443018 
L 329.320711 188.443051 
L 331.821251 188.443075 
L 334.32179 188.443091 
L 336.82233 188.443098 
" clip-path="url(#pce0a8fead0)" style="fill: none; stroke: #889c9b; stroke-width: 2; stroke-linecap: round"/>
   </g>
   <g id="patch_3">
    <path d="M 76.89125 201.4 
L 76.89125 10.8 
" style="fill: none; stroke: #cccccc; stroke-width: 0.8; stroke-linejoin: miter; stroke-linecap: square"/>
   </g>
   <g id="patch_4">
    <path d="M 349.2 201.4 
L 349.2 10.8 
" style="fill: none; stroke: #cccccc; stroke-width: 0.8; stroke-linejoin: miter; stroke-linecap: square"/>
   </g>
   <g id="patch_5">
    <path d="M 76.89125 201.4 
L 349.2 201.4 
" style="fill: none; stroke: #cccccc; stroke-width: 0.8; stroke-linejoin: miter; stroke-linecap: square"/>
   </g>
   <g id="patch_6">
    <path d="M 76.89125 10.8 
L 349.2 10.8 
" style="fill: none; stroke: #cccccc; stroke-width: 0.8; stroke-linejoin: miter; stroke-linecap: square"/>
   </g>
   <g id="legend_1">
    <g id="patch_7">
     <path d="M 267.73125 122.20125 
L 340.8 122.20125 
Q 343.2 122.20125 343.2 119.80125 
L 343.2 19.2 
Q 343.2 16.8 340.8 16.8 
L 267.73125 16.8 
Q 265.33125 16.8 265.33125 19.2 
L 265.33125 119.80125 
Q 265.33125 122.20125 267.73125 122.20125 
z
" style="fill: #ffffff; opacity: 0.8; stroke: #cccccc; stroke-linejoin: miter"/>
    </g>
    <g id="PathCollection_7">
     <g>
      <use xlink:href="#ma73eb1c2c3" x="282.13125" y="26.85" style="fill: #731d1d; fill-opacity: 0.8; stroke: #731d1d; stroke-opacity: 0.8"/>
     </g>
    </g>
    <g id="text_16">
     <!-- PDE45 -->
     <g style="fill: #262626" transform="translate(303.73125 30) scale(0.12 -0.12)">
      <defs>
       <path id="TimesNewRomanPSMT-50" d="M 1313 1984 
L 1313 750 
Q 1313 350 1400 253 
Q 1519 116 1759 116 
L 1922 116 
L 1922 0 
L 106 0 
L 106 116 
L 266 116 
Q 534 116 650 291 
Q 713 388 713 750 
L 713 3488 
Q 713 3888 628 3984 
Q 506 4122 266 4122 
L 106 4122 
L 106 4238 
L 1659 4238 
Q 2228 4238 2556 4120 
Q 2884 4003 3109 3725 
Q 3334 3447 3334 3066 
Q 3334 2547 2992 2222 
Q 2650 1897 2025 1897 
Q 1872 1897 1694 1919 
Q 1516 1941 1313 1984 
z
M 1313 2163 
Q 1478 2131 1606 2115 
Q 1734 2100 1825 2100 
Q 2150 2100 2386 2351 
Q 2622 2603 2622 3003 
Q 2622 3278 2509 3514 
Q 2397 3750 2190 3867 
Q 1984 3984 1722 3984 
Q 1563 3984 1313 3925 
L 1313 2163 
z
" transform="scale(0.015625)"/>
       <path id="TimesNewRomanPSMT-44" d="M 109 0 
L 109 116 
L 269 116 
Q 538 116 650 288 
Q 719 391 719 750 
L 719 3488 
Q 719 3884 631 3984 
Q 509 4122 269 4122 
L 109 4122 
L 109 4238 
L 1834 4238 
Q 2784 4238 3279 4022 
Q 3775 3806 4076 3303 
Q 4378 2800 4378 2141 
Q 4378 1256 3841 663 
Q 3238 0 2003 0 
L 109 0 
z
M 1319 306 
Q 1716 219 1984 219 
Q 2709 219 3187 728 
Q 3666 1238 3666 2109 
Q 3666 2988 3187 3494 
Q 2709 4000 1959 4000 
Q 1678 4000 1319 3909 
L 1319 306 
z
" transform="scale(0.015625)"/>
       <path id="TimesNewRomanPSMT-45" d="M 1338 4006 
L 1338 2331 
L 2269 2331 
Q 2631 2331 2753 2441 
Q 2916 2584 2934 2947 
L 3050 2947 
L 3050 1472 
L 2934 1472 
Q 2891 1781 2847 1869 
Q 2791 1978 2662 2040 
Q 2534 2103 2269 2103 
L 1338 2103 
L 1338 706 
Q 1338 425 1363 364 
Q 1388 303 1450 267 
Q 1513 231 1688 231 
L 2406 231 
Q 2766 231 2928 281 
Q 3091 331 3241 478 
Q 3434 672 3638 1063 
L 3763 1063 
L 3397 0 
L 131 0 
L 131 116 
L 281 116 
Q 431 116 566 188 
Q 666 238 702 338 
Q 738 438 738 747 
L 738 3500 
Q 738 3903 656 3997 
Q 544 4122 281 4122 
L 131 4122 
L 131 4238 
L 3397 4238 
L 3444 3309 
L 3322 3309 
Q 3256 3644 3176 3769 
Q 3097 3894 2941 3959 
Q 2816 4006 2500 4006 
L 1338 4006 
z
" transform="scale(0.015625)"/>
      </defs>
      <use xlink:href="#TimesNewRomanPSMT-50"/>
      <use xlink:href="#TimesNewRomanPSMT-44" x="55.615234"/>
      <use xlink:href="#TimesNewRomanPSMT-45" x="127.832031"/>
      <use xlink:href="#TimesNewRomanPSMT-34" x="188.916016"/>
      <use xlink:href="#TimesNewRomanPSMT-35" x="238.916016"/>
     </g>
    </g>
    <g id="PathCollection_8">
     <g>
      <use xlink:href="#m7d7432c670" x="282.13125" y="43.816875" style="fill: #735340; fill-opacity: 0.8; stroke: #735340; stroke-opacity: 0.8"/>
     </g>
    </g>
    <g id="text_17">
     <!-- PDE35 -->
     <g style="fill: #262626" transform="translate(303.73125 46.966875) scale(0.12 -0.12)">
      <defs>
       <path id="TimesNewRomanPSMT-33" d="M 325 3431 
Q 506 3859 782 4092 
Q 1059 4325 1472 4325 
Q 1981 4325 2253 3994 
Q 2459 3747 2459 3466 
Q 2459 3003 1878 2509 
Q 2269 2356 2469 2072 
Q 2669 1788 2669 1403 
Q 2669 853 2319 450 
Q 1863 -75 997 -75 
Q 569 -75 414 31 
Q 259 138 259 259 
Q 259 350 332 419 
Q 406 488 509 488 
Q 588 488 669 463 
Q 722 447 909 348 
Q 1097 250 1169 231 
Q 1284 197 1416 197 
Q 1734 197 1970 444 
Q 2206 691 2206 1028 
Q 2206 1275 2097 1509 
Q 2016 1684 1919 1775 
Q 1784 1900 1550 2001 
Q 1316 2103 1072 2103 
L 972 2103 
L 972 2197 
Q 1219 2228 1467 2375 
Q 1716 2522 1828 2728 
Q 1941 2934 1941 3181 
Q 1941 3503 1739 3701 
Q 1538 3900 1238 3900 
Q 753 3900 428 3381 
L 325 3431 
z
" transform="scale(0.015625)"/>
      </defs>
      <use xlink:href="#TimesNewRomanPSMT-50"/>
      <use xlink:href="#TimesNewRomanPSMT-44" x="55.615234"/>
      <use xlink:href="#TimesNewRomanPSMT-45" x="127.832031"/>
      <use xlink:href="#TimesNewRomanPSMT-33" x="188.916016"/>
      <use xlink:href="#TimesNewRomanPSMT-35" x="238.916016"/>
     </g>
    </g>
    <g id="PathCollection_9">
     <g>
      <use xlink:href="#m76b8ce13bf" x="282.13125" y="60.78375" style="fill: #d94436; fill-opacity: 0.8; stroke: #d94436; stroke-opacity: 0.8"/>
     </g>
    </g>
    <g id="text_18">
     <!-- PDE25 -->
     <g style="fill: #262626" transform="translate(303.73125 63.93375) scale(0.12 -0.12)">
      <use xlink:href="#TimesNewRomanPSMT-50"/>
      <use xlink:href="#TimesNewRomanPSMT-44" x="55.615234"/>
      <use xlink:href="#TimesNewRomanPSMT-45" x="127.832031"/>
      <use xlink:href="#TimesNewRomanPSMT-32" x="188.916016"/>
      <use xlink:href="#TimesNewRomanPSMT-35" x="238.916016"/>
     </g>
    </g>
    <g id="PathCollection_10">
     <g>
      <use xlink:href="#m32f56097e6" x="282.13125" y="77.750625" style="fill: #f26444; fill-opacity: 0.8; stroke: #f26444; stroke-opacity: 0.8"/>
     </g>
    </g>
    <g id="text_19">
     <!-- PDE15 -->
     <g style="fill: #262626" transform="translate(303.73125 80.900625) scale(0.12 -0.12)">
      <use xlink:href="#TimesNewRomanPSMT-50"/>
      <use xlink:href="#TimesNewRomanPSMT-44" x="55.615234"/>
      <use xlink:href="#TimesNewRomanPSMT-45" x="127.832031"/>
      <use xlink:href="#TimesNewRomanPSMT-31" x="188.916016"/>
      <use xlink:href="#TimesNewRomanPSMT-35" x="238.916016"/>
     </g>
    </g>
    <g id="PathCollection_11">
     <g>
      <use xlink:href="#m7e54c725ee" x="282.13125" y="94.7175" style="fill: #d9ab9a; fill-opacity: 0.8; stroke: #d9ab9a; stroke-opacity: 0.8"/>
     </g>
    </g>
    <g id="text_20">
     <!-- PDE5 -->
     <g style="fill: #262626" transform="translate(303.73125 97.8675) scale(0.12 -0.12)">
      <use xlink:href="#TimesNewRomanPSMT-50"/>
      <use xlink:href="#TimesNewRomanPSMT-44" x="55.615234"/>
      <use xlink:href="#TimesNewRomanPSMT-45" x="127.832031"/>
      <use xlink:href="#TimesNewRomanPSMT-35" x="188.916016"/>
     </g>
    </g>
    <g id="PathCollection_12">
     <g>
      <use xlink:href="#m0957960436" x="282.13125" y="111.684375" style="fill: #889c9b; fill-opacity: 0.8; stroke: #889c9b; stroke-opacity: 0.8"/>
     </g>
    </g>
    <g id="text_21">
     <!-- NE -->
     <g style="fill: #262626" transform="translate(303.73125 114.834375) scale(0.12 -0.12)">
      <defs>
       <path id="TimesNewRomanPSMT-4e" d="M -84 4238 
L 1066 4238 
L 3656 1059 
L 3656 3503 
Q 3656 3894 3569 3991 
Q 3453 4122 3203 4122 
L 3056 4122 
L 3056 4238 
L 4531 4238 
L 4531 4122 
L 4381 4122 
Q 4113 4122 4000 3959 
Q 3931 3859 3931 3503 
L 3931 -69 
L 3819 -69 
L 1025 3344 
L 1025 734 
Q 1025 344 1109 247 
Q 1228 116 1475 116 
L 1625 116 
L 1625 0 
L 150 0 
L 150 116 
L 297 116 
Q 569 116 681 278 
Q 750 378 750 734 
L 750 3681 
Q 566 3897 470 3965 
Q 375 4034 191 4094 
Q 100 4122 -84 4122 
L -84 4238 
z
" transform="scale(0.015625)"/>
      </defs>
      <use xlink:href="#TimesNewRomanPSMT-4e"/>
      <use xlink:href="#TimesNewRomanPSMT-45" x="72.216797"/>
     </g>
    </g>
   </g>
  </g>
 </g>
 <defs>
  <clipPath id="pce0a8fead0">
   <rect x="76.89125" y="10.8" width="272.30875" height="190.6"/>
  </clipPath>
 </defs>
</svg>
